<?xml version="1.0" encoding="utf-8"?>
<!-- Generator: Adobe Illustrator 23.0.3, SVG Export Plug-In . SVG Version: 6.00 Build 0)  -->
<svg version="1.1" id="Layer_1" xmlns="http://www.w3.org/2000/svg" xmlns:xlink="http://www.w3.org/1999/xlink" x="0px" y="0px"
	 viewBox="0 0 372.4 646.6" style="enable-background:new 0 0 372.4 646.6;" xml:space="preserve">
<style type="text/css">
	.st0{fill:url(#SVGID_1_);}
	.st1{fill:#061F80;}
	.st2{fill:#0530AD;}
	.st3{fill:#0062FF;}
	.st4{fill:#6CCAFF;}
	.st5{fill:#051243;}
	.st6{fill:#00BAB6;}
	.st7{fill:#92EEEE;}
	.st8{fill:#009C98;}
	.st9{fill:#64DBDB;}
	.st10{fill:#55CCCC;}
	.st11{fill:#97C1FF;}
	.st12{fill:#30B0FF;}
	.st13{opacity:0.65;fill:#F2F2F2;enable-background:new    ;}
	.st14{fill:#408BFC;}
	.st15{fill:url(#SVGID_2_);}
	.st16{opacity:0.7;fill:#F2F2F2;enable-background:new    ;}
	.st17{opacity:0.51;fill:#97C1FF;enable-background:new    ;}
	.st18{opacity:0.39;}
	.st19{fill:#F2F2F2;}
	.st20{opacity:0.51;fill:#0062FF;enable-background:new    ;}
	.st21{opacity:0.51;fill:#061F80;enable-background:new    ;}
	.st22{fill:#AEBBD4;}
	.st23{opacity:0.37;fill:#F2F2F2;enable-background:new    ;}
	.st24{fill:none;stroke:#1D3458;stroke-width:0.25;stroke-miterlimit:10;}
</style>
<title>Sandeep_third_transition</title>
<g>
	<g id="Layer_1-2">
		
			<linearGradient id="SVGID_1_" gradientUnits="userSpaceOnUse" x1="66.3" y1="404.9" x2="66.3" y2="648.1" gradientTransform="matrix(1 0 0 -1 0 644.2)">
			<stop  offset="0" style="stop-color:#0062FF"/>
			<stop  offset="1" style="stop-color:#0062FF;stop-opacity:0"/>
		</linearGradient>
		<polygon class="st0" points="10.6,175.5 10.6,-3.9 122,59.6 122,239.3 		"/>
		<path class="st1" d="M194.4,607.8c0.6,26.9,15.5,39.3,37.9,38.8c40.4-1.1,55-60.1,55-94.7c0-26.9-20.8-32.6-46.5-21.4
			C217.4,540.7,193.6,578,194.4,607.8z"/>
		<path class="st2" d="M261.9,591.7c-0.6,26.3-25,56.8-46.3,51.8s-41.1-57.9-41.1-91.6c0-26.2,26.7-40.8,51.8-29.9
			C249,531.9,262.6,562.8,261.9,591.7z"/>
		<path class="st3" d="M286.7,546.1c0,19.4-26.2,39.7-56.8,39.7s-55.4-17.8-55.4-37.1s24.8-35,55.4-35S286.7,526.8,286.7,546.1z"/>
		<ellipse class="st4" cx="229.9" cy="545.1" rx="55.4" ry="35"/>
		<ellipse class="st5" cx="229.9" cy="544.1" rx="41.3" ry="26.1"/>
		<path class="st6" d="M250.8,435.9c0,0,11.8-94.8,96.1-77.7c0,0,23.4,7.8,23.5,17.5s-8.6,3.6-13.1,2.8s-11.8,2.2-12.4,6.5
			s-9.8,6.8-12.1,9.9c-3.8,4.8-2.6,10-8.1,15.7c-2.5,2.6-7.3,2.9-10.5,5.6C295.8,431.5,269,448.6,250.8,435.9"/>
		<path class="st7" d="M215.4,482.5c0,0,11.2-70.2-52.6-75.4c0,0-18.4,0.8-20.4,7.7s5.3,4.3,8.8,4.7s7.9,4,7.5,7.2s5.6,6.8,6.6,9.5
			c1.7,4.3-0.2,7.7,2.5,12.9c1.2,2.4,4.6,3.6,6.4,6.2C185.4,471.8,199.9,487.8,215.4,482.5"/>
		<path class="st6" d="M228.2,547.2c0,0-18.6-76,35.5-126.3l4.4,6.1c0,0-57.9,36.7-31.3,120.8L228.2,547.2z"/>
		<path class="st7" d="M211.5,558.3c0,0,2.4-69.6-0.8-82.4l5.3-1c0,0,3.1,74.3,2,85.4L211.5,558.3z"/>
		<path class="st8" d="M367.9,381c0,0-20.9-22.5-62.1,20.7s-50.1,37-50.1,37c7.8,2.8,16.4,2.4,23.9-1.1c8.8-4.3,17.4-9.1,25.6-14.5
			c1.6-1.2,7.8-7,11.2-8.4s8.3-2,11-8.3s3.2-10.8,6.4-12.8s8.6-4.7,9.8-6.7s0.8-3.5,2.8-4.9s6.2-4.2,10.4-3.3S365.6,382.4,367.9,381
			z"/>
		<path class="st7" d="M252.9,497c18.1,12.7,45-4.4,63.3-19.7c3.2-2.7,8.1-3,10.5-5.6c5.5-5.7,4.4-10.9,8.1-15.7
			c2.3-3.1,11.4-5.6,12.1-9.9s8.6-7.1,12.4-6.5s13.1,6.9,13.1-2.8s-23.5-17.5-23.5-17.5C264.6,402.2,252.9,497,252.9,497"/>
		<path class="st9" d="M370.4,441.9c0,0-20.9-22.5-62.1,20.7s-50.1,37-50.1,37c7.8,2.8,16.4,2.4,23.9-1c8.9-4.3,17.4-9.2,25.6-14.6
			c1.6-1.2,7.8-7,11.2-8.4s8.3-2,11-8.3s3.2-10.7,6.4-12.7s8.6-4.8,9.8-6.8s0.8-3.5,2.8-4.9s6.2-4.2,10.4-3.3
			S368.1,443.3,370.4,441.9z"/>
		<path class="st10" d="M141.4,420.2c0,0,24.5-8.7,40.5,10.9s28.6,53.9,28.6,53.9s-14.2,1.9-26.1-12.6s-11.3-16-13.4-17.6
			s-5.5-2.1-6.4-9.7s-0.4-7.9-3.1-10s-4.1-2.6-4.5-6.5s-3.1-8-9-7.6S141.4,420.2,141.4,420.2z"/>
		<ellipse class="st3" cx="212" cy="557.9" rx="2.5" ry="1.1"/>
		<ellipse class="st11" cx="218.4" cy="558.9" rx="2.5" ry="1.1"/>
		<ellipse class="st12" cx="214.1" cy="559" rx="2.5" ry="1.1"/>
		<ellipse class="st3" cx="216.9" cy="560.1" rx="2.5" ry="1.1"/>
		<ellipse class="st11" cx="209.6" cy="558.6" rx="2.5" ry="1.1"/>
		<ellipse class="st3" cx="232.7" cy="547.2" rx="2.5" ry="1.1"/>
		<ellipse class="st3" cx="228.5" cy="547.3" rx="2.5" ry="1.1"/>
		<ellipse class="st11" cx="235.8" cy="548.3" rx="2.5" ry="1.1"/>
		<ellipse class="st12" cx="231.3" cy="548.4" rx="2.5" ry="1.1"/>
		
			<ellipse transform="matrix(0.1942 -0.981 0.981 0.1942 -361.4856 629.3384)" class="st13" cx="202.3" cy="534.7" rx="1" ry="1.8"/>
		
			<ellipse transform="matrix(0.1942 -0.981 0.981 0.1942 -371.6519 676.6797)" class="st13" cx="226.1" cy="564.6" rx="1" ry="1.8"/>
		<ellipse transform="matrix(0.1942 -0.981 0.981 0.1942 -317.7439 684.489)" class="st13" cx="257.8" cy="535.7" rx="1" ry="1.8"/>
		
			<ellipse transform="matrix(0.9472 -0.3206 0.3206 0.9472 -163.0397 94.2973)" class="st13" cx="204.8" cy="542.3" rx="1.8" ry="1"/>
		<ellipse transform="matrix(0.36 -0.933 0.933 0.36 -352.8852 591.4203)" class="st13" cx="254.6" cy="552.9" rx="1" ry="1.8"/>
		
			<ellipse transform="matrix(0.9472 -0.3206 0.3206 0.9472 -157.4492 98.6179)" class="st13" cx="220.7" cy="527.4" rx="1.8" ry="1"/>
		<ellipse class="st13" cx="196.2" cy="548.8" rx="1.8" ry="1"/>
		<ellipse class="st13" cx="247.5" cy="531" rx="1.8" ry="1"/>
		<ellipse class="st13" cx="266.3" cy="544.1" rx="1.8" ry="1"/>
		
			<ellipse transform="matrix(0.9989 -4.710645e-02 4.710645e-02 0.9989 -25.9494 11.5572)" class="st13" cx="232.2" cy="556.3" rx="1.8" ry="1"/>
		
			<ellipse transform="matrix(0.9472 -0.3206 0.3206 0.9472 -155.8676 103.9548)" class="st13" cx="237.7" cy="525.3" rx="1.8" ry="1"/>
		<path class="st7" d="M252.9,497c0,0-15.5,26.5-12.1,68.7l6.7-1.7c0,0-6.5-31,10.7-64.4L252.9,497z"/>
		<ellipse class="st14" cx="243.2" cy="564" rx="2.5" ry="1.1"/>
		<ellipse class="st14" cx="248.4" cy="564.3" rx="2.5" ry="1.1"/>
		<ellipse class="st11" cx="239" cy="564.1" rx="2.5" ry="1.1"/>
		<ellipse class="st11" cx="245.9" cy="564.3" rx="2.5" ry="1.1"/>
		<ellipse class="st12" cx="241.8" cy="565.2" rx="2.5" ry="1.1"/>
		<polygon class="st11" points="122,59.8 122,239.2 10.7,175.4 10.6,0 10.6,0 0,0 0,176.6 123.4,246.7 128.7,243.4 128.7,63.6 		"/>
		<polygon class="st11" points="129.5,63.9 122,59.6 122,246.2 252.1,321.7 257.4,318.4 257.4,317.4 129.5,243.3 		"/>
		
			<linearGradient id="SVGID_2_" gradientUnits="userSpaceOnUse" x1="195.8" y1="326.8" x2="195.8" y2="577.3" gradientTransform="matrix(1 0 0 -1 0 644.2)">
			<stop  offset="0" style="stop-color:#0062FF"/>
			<stop  offset="1" style="stop-color:#0062FF;stop-opacity:0"/>
		</linearGradient>
		<polygon class="st15" points="134.2,245.8 134.2,66.9 257.4,137.7 257.4,317.4 		"/>
		<polygon class="st14" points="129.5,250.6 134.2,246.1 134.2,66.9 129.5,63.9 		"/>
		<polygon class="st16" points="144.2,132.3 144.2,251.9 204.5,286.7 204.8,167.3 		"/>
		<polygon class="st17" points="204.4,206.9 204.4,286.7 235.8,305.1 236.1,225.4 		"/>
		<polygon class="st14" points="9.7,182.1 15.6,178.4 15.3,0 10.6,0 		"/>
		<polygon class="st3" points="257.4,317.4 252,320.7 252.1,321.7 257.4,318.4 		"/>
		<g class="st18">
			<polygon class="st19" points="151.1,156 151.1,168.8 162.2,175.2 162.2,162.4 			"/>
			<polygon class="st19" points="167.7,165.6 167.7,178.4 178.8,184.8 178.8,172 			"/>
			<polygon class="st19" points="184.9,175.6 184.9,188.4 196,194.8 196,182 			"/>
			<polygon class="st19" points="150.8,183.1 150.8,195.9 161.9,202.3 161.9,189.5 			"/>
			<polygon class="st19" points="167.4,192.7 167.4,205.5 178.5,211.9 178.5,199.1 			"/>
			<polygon class="st19" points="184.6,202.7 184.6,215.5 195.7,221.9 195.7,209.1 			"/>
			<polygon class="st19" points="166.4,219.2 166.4,232 177.5,238.5 177.5,225.6 			"/>
			<polygon class="st19" points="149.8,209.6 149.8,222.4 160.9,228.8 160.9,216 			"/>
			<polygon class="st19" points="183.6,229.2 183.6,242 194.7,248.5 194.7,235.6 			"/>
			<polygon class="st19" points="149.5,234.7 149.5,247.5 160.6,253.9 160.6,241.1 			"/>
			<polygon class="st19" points="166.1,244.3 166.1,257.1 177.2,263.5 177.2,250.7 			"/>
			<polygon class="st19" points="183.3,254.3 183.3,267.1 194.4,273.5 194.4,260.7 			"/>
		</g>
		<polygon class="st20" points="15.4,77.6 15.8,178.3 41,192.7 40.8,92.7 		"/>
		<polygon class="st21" points="72.4,117.7 72.1,210.5 104.9,229.5 104.6,136.6 		"/>
		<polygon class="st22" points="38,112.6 72.5,132.6 72,210.6 38,191 		"/>
		<polygon class="st23" points="41.3,120.9 41.3,143.2 54.1,150.7 54.1,128.4 		"/>
		<polygon class="st23" points="56.4,129.6 56.4,151.9 69.2,159.3 69.2,137 		"/>
		<polygon class="st23" points="41.3,150.3 41.3,172.6 54.1,180.1 54.1,157.8 		"/>
		<polygon class="st23" points="56.4,159 56.4,181.3 69.2,188.8 69.2,166.5 		"/>
		<polygon class="st23" points="41.3,181.1 41.3,192.3 54.1,199.8 54.1,188.6 		"/>
		<polygon class="st23" points="56.4,189.8 56.4,201 69.2,208.5 69.2,197.2 		"/>
		<line class="st24" x1="346" y1="338.4" x2="347.2" y2="337.2"/>
	</g>
</g>
</svg>
