<?xml version="1.0" encoding="utf-8"?>
<!-- Generator: Adobe Illustrator 23.0.3, SVG Export Plug-In . SVG Version: 6.00 Build 0)  -->
<svg version="1.1" id="Layer_1" xmlns="http://www.w3.org/2000/svg" xmlns:xlink="http://www.w3.org/1999/xlink" x="0px" y="0px"
	 viewBox="0 0 219.3 219.3" style="enable-background:new 0 0 219.3 219.3;" xml:space="preserve">
<style type="text/css">
	.st0{stroke:#061F80;stroke-width:4;stroke-miterlimit:10;}
	.st1{clip-path:url(#SVGID_2_);}
	.st2{fill:#868D95;}
	.st3{opacity:0.23;enable-background:new    ;}
	.st4{fill:#20D5D2;}
	.st5{fill:#054ADA;}
	.st6{fill:#DCDCDC;}
	.st7{opacity:0.1;}
	.st8{opacity:0.17;fill:#FF9E4B;enable-background:new    ;}
	.st9{fill:#697077;}
	.st10{fill:#F9F9F9;}
</style>
<title>Sandeep_profile_first_transition</title>
<g>
	<g id="Layer_1-2">
		<circle class="st0" cx="109.6" cy="109.6" r="107.6"/>
		<g>
			<defs>
				<circle id="SVGID_1_" cx="110.1" cy="106.6" r="107.6"/>
			</defs>
			<clipPath id="SVGID_2_">
				<use xlink:href="#SVGID_1_"  style="overflow:visible;"/>
			</clipPath>
			<g class="st1">
				<path class="st2" d="M73,112.1c0,0,8,32.3,3.5,53.6c-0.7,3.4,23.3,26.5,23.3,26.5l25.1-27.1c0,0-4.9-15.1-1.9-31.7
					C123,133.4,93.3,121.9,73,112.1z"/>
				<path class="st3" d="M71.8,108.5c2,4.6,4.8,22.9,4.8,22.9s13.8,4.9,23.2,2.6L71.8,108.5z"/>
				<path class="st4" d="M37.1,192.1c0,0,13.9-21.6,19.7-25.8s20-11.3,20-11.3l0,0c12.6,9.9,29.7,12.2,44.5,5.8l4.7-2.1l20.4,6.6
					c0,0,36.4,16.8,42.3,25c4,5.6-44.2,31.7-89.8,28.7C65.2,216.7,37.1,192.1,37.1,192.1z"/>
				<path class="st2" d="M140.9,56.5c2.3,51.8-4.9,79.6-34.2,80.4c-22.7,0.7-37.6-20.2-38.9-55.1s11.3-48.6,34-49.4
					S139.7,30.3,140.9,56.5z"/>
				<path class="st5" d="M73.7,77.1c0,0,3.1-16.8,13.4-18.3c2.5-0.4,6.2,1.9,13.3,1.2s10.2-4.2,16-3.7c3,0.2,7.5,3.2,10.9,2.8
					c3.9-0.5,7.9,0,11.6,1.5c5.6,1.6,10.2-13.6,0.9-21.7c-3-2.6-5.5-6.2-11.3-8.4c-3.6-1.3-8.2-1.3-13.3-2.2s-9.4-4.5-14.3-4.7
					c-10.8-0.6-14.7,3.7-21,6.5S64.2,35.5,65.1,44c0.6,5.7-1.2,10.1-1.5,13.5C62.2,70.4,66.7,78,66.7,78L73.7,77.1z"/>
				<path class="st5" d="M79.7,63.3c0,0-0.1,33,6.4,39.5c3.9,3.9,14.8,7.1,31.9,4.7s20.9-3.8,20.9-3.8s-3.7,32.5-24.9,33.2
					c-23.7,0.9-39.2-5.1-45.1-43l4.2-22L79.7,63.3z"/>
				<path d="M106.9,68.8l0.3,4c0,0-11.3,1.6-14,2.3c0,0-1.4-0.9,0.1-1.5C96.8,72.3,103.9,69,106.9,68.8z"/>
				<ellipse transform="matrix(0.9988 -4.993762e-02 4.993762e-02 0.9988 -3.895 5.2324)" cx="102.8" cy="80.6" rx="2.4" ry="3"/>
				<ellipse transform="matrix(0.999 -4.536122e-02 4.536122e-02 0.999 -3.4698 5.8975)" cx="128.2" cy="79.4" rx="2.4" ry="3"/>
				<path d="M123.2,68.4l-0.2,3.8c0,0,11.4,1.2,14.2,1.7c0,0,1.3-0.9-0.2-1.4C133.4,71.3,126.2,68.4,123.2,68.4z"/>
				<path class="st6" d="M119.2,122.2c-1.4,0.4-2.9,0.5-4.4,0.4c-1.5-0.1-3-0.3-4.5-0.8c-1.5-0.5-2.8-1.3-4-2.3
					c-1.1-1.1-1.9-2.4-2.3-3.9c0.7,1.2,1.7,2.4,2.8,3.3c1.2,0.8,2.4,1.5,3.8,1.9c1.4,0.5,2.8,0.8,4.2,1
					C116.3,122,117.7,122.2,119.2,122.2z"/>
				<path d="M117.6,77.6c0.2,2.5,0.5,5,0.8,7.5c0.4,2.4,0.9,4.9,1.7,7.2c0.4,1.2,1.1,2.3,1.9,3.2l0.7,0.5l0.4,0.3
					c0.2,0.2,0.2,0.5,0.1,0.7c-0.2,0.3-0.5,0.5-0.9,0.6l-0.9,0.2c-1.3,0.2-2.5,0.3-3.8,0.1c-1.3-0.1-2.5-0.6-3.5-1.4
					c1,0.7,2.2,1.1,3.5,1.2c1.2,0.1,2.5,0,3.7-0.2l0.9-0.3c0.2-0.1,0.6-0.2,0.6-0.4s-0.7-0.6-1.1-1c-0.9-0.9-1.6-2.1-2-3.3
					c-0.8-2.4-1.4-4.9-1.7-7.4C117.7,82.6,117.6,80.1,117.6,77.6z"/>
				<g class="st7">
					<path d="M117.4,77.3c0.2,2.5,0.3,5,0.6,7.5c0.2,2.5,0.7,4.9,1.5,7.3c0.3,1.2,0.9,2.3,1.7,3.2l0.7,0.5c0.1,0.1,0.3,0.2,0.4,0.4
						s0.2,0.6,0.1,0.8c-0.3,0.3-0.6,0.5-1,0.6l-1,0.2c-1.3,0.1-2.5,0.1-3.8-0.1c-0.6-0.1-1.2-0.3-1.8-0.6c-0.6-0.2-1.2-0.5-1.6-1
						c1,0.8,2.2,1.2,3.5,1.2c1.2,0.2,2.4,0.1,3.6-0.1l0.9-0.2l0.6-0.3l0,0l-0.3-0.2c-0.3-0.2-0.6-0.4-0.8-0.7
						c-0.9-0.9-1.5-2.1-1.9-3.3c-0.7-2.4-1.2-5-1.3-7.5C117.3,82.4,117.3,79.9,117.4,77.3z"/>
				</g>
				
					<ellipse transform="matrix(0.9993 -3.664396e-02 3.664396e-02 0.9993 -3.0409 4.7614)" class="st8" cx="128.4" cy="85.3" rx="2.9" ry="1"/>
				
					<ellipse transform="matrix(0.9993 -3.664371e-02 3.664371e-02 0.9993 -3.0944 3.7856)" class="st8" cx="101.7" cy="86.3" rx="2.9" ry="1"/>
				
					<ellipse transform="matrix(0.9957 -9.237059e-02 9.237059e-02 0.9957 -7.5515 6.815)" class="st9" cx="69.8" cy="85" rx="4.7" ry="10.6"/>
				<path d="M68.3,81.7c-1,2.8-0.7,5.8,0.8,8.3"/>
				
					<ellipse transform="matrix(0.999 -4.363157e-02 4.363157e-02 0.999 -3.397 4.6117)" class="st10" cx="103.9" cy="80.1" rx="0.6" ry="1.1"/>
				
					<ellipse transform="matrix(0.999 -4.363157e-02 4.363157e-02 0.999 -3.3259 5.7316)" class="st10" cx="129.6" cy="79.1" rx="0.6" ry="1.1"/>
			</g>
		</g>
	</g>
</g>
</svg>
