<?xml version="1.0" encoding="utf-8"?>
<!-- Generator: Adobe Illustrator 23.0.3, SVG Export Plug-In . SVG Version: 6.00 Build 0)  -->
<svg version="1.1" id="Layer_1" xmlns="http://www.w3.org/2000/svg" xmlns:xlink="http://www.w3.org/1999/xlink" x="0px" y="0px"
	 viewBox="0 0 387.6 463.9" style="enable-background:new 0 0 387.6 463.9;" xml:space="preserve">
<style type="text/css">
	.st0{clip-path:url(#SVGID_2_);}
	.st1{fill:#20D5D2;}
	.st2{fill:#009C98;}
	.st3{fill:#0530AD;}
	.st4{fill:#007D79;}
	.st5{fill:#004548;}
	.st6{fill:#92EEEE;}
	.st7{fill:#697075;}
	.st8{fill:url(#SVGID_3_);}
	.st9{fill:#DCDCDC;}
	.st10{fill:#4D4D4D;}
	.st11{fill:#1A1A1A;}
	.st12{fill:#FFFFFF;}
	.st13{fill:#999999;}
	.st14{fill:#BFBFBF;}
	.st15{opacity:8.000000e-02;fill:#E86234;enable-background:new    ;}
	.st16{fill:#868D95;}
	.st17{fill:#F2F2F2;}
	.st18{fill:#054ADA;}
	.st19{opacity:0.1;enable-background:new    ;}
	.st20{opacity:0.17;fill:#FF9E4B;enable-background:new    ;}
	.st21{fill:#F9F9F9;}
	.st22{fill:#697077;}
	.st23{fill:#D6D6D6;}
	.st24{fill:#6EA6FF;}
	.st25{fill:url(#SVGID_4_);}
	.st26{fill:#666666;}
	.st27{fill:#B3B3B3;}
	.st28{fill:#00BAB6;}
	.st29{fill:#1E5DE3;}
	.st30{fill:#408BFC;}
	.st31{fill:#061F80;}
	.st32{opacity:0.34;fill:#B3B3B3;enable-background:new    ;}
	.st33{fill:url(#SVGID_5_);}
	.st34{fill:url(#SVGID_6_);}
	.st35{fill:url(#SVGID_7_);}
	.st36{fill:url(#SVGID_8_);}
	.st37{fill:url(#SVGID_9_);}
	.st38{fill:url(#SVGID_10_);}
	.st39{fill:url(#SVGID_11_);}
	.st40{opacity:0.8;}
	.st41{fill:#DBFBFB;}
	.st42{fill:url(#SVGID_12_);}
	.st43{fill:url(#SVGID_13_);}
	.st44{fill:url(#SVGID_14_);}
	.st45{fill:#418CFF;}
</style>
<title>Outside_coffee_second_transition</title>
<g>
	<g id="Layer_2-2">
		<g>
			<defs>
				<rect id="SVGID_1_" x="-19.2" y="-17.3" width="422.1" height="484"/>
			</defs>
			<clipPath id="SVGID_2_">
				<use xlink:href="#SVGID_1_"  style="overflow:visible;"/>
			</clipPath>
			<g class="st0">
				<path class="st1" d="M69.5,350.9c-1.5,0-3.1-0.4-4.4-1.2l-60.7-35c-3.4-2-5.1-6-4.2-9.8l21.1-78.1l53.4,33l3.5,82.2
					C78.2,346.8,74.3,350.8,69.5,350.9z M22.4,229.6L2,305.4c-0.8,3,0.6,6.2,3.3,7.7l60.7,35c2.1,1.4,4.9,1.4,7,0
					c2.2-1.2,3.5-3.6,3.4-6.1L73,260.8L22.4,229.6z"/>
				<path class="st1" d="M14.1,223.2V127c0-6,3.2-11.5,8.4-14.5L59,91.4c8-4.6,18.2-1.8,22.8,6.2c0,0,0,0,0,0
					c1.5,2.5,2.3,5.4,2.3,8.3v76.9h-0.3L14.1,223.2z M67.4,90.1c-2.8,0-5.5,0.7-7.9,2.1l-36.6,21.1C18,116.2,15,121.4,15,127v94.7
					l68.2-39.4v-76.4c0-5.7-3-10.9-7.9-13.7C72.9,90.8,70.2,90.1,67.4,90.1z"/>
				<rect x="9.9" y="108.8" transform="matrix(0.866 -0.5 0.5 0.866 -48.6719 36.8864)" class="st1" width="69.1" height="0.9"/>
				<rect x="9.4" y="116.4" transform="matrix(0.866 -0.5 0.5 0.866 -52.0611 39.4012)" class="st1" width="76.1" height="0.9"/>
				
					<rect x="9.8" y="123.7" transform="matrix(0.8669 -0.4985 0.4985 0.8669 -55.2827 41.1535)" class="st1" width="79.3" height="0.9"/>
				<rect x="9.7" y="134.1" transform="matrix(0.866 -0.5 0.5 0.866 -60.6648 42.6991)" class="st1" width="79.2" height="0.9"/>
				<rect x="9.5" y="144.4" transform="matrix(0.866 -0.5 0.5 0.866 -65.8547 43.9701)" class="st1" width="79.2" height="0.9"/>
				<rect x="9.4" y="155.7" transform="matrix(0.866 -0.5 0.5 0.866 -71.4911 45.4072)" class="st1" width="79.2" height="0.9"/>
				<rect x="9.3" y="166.5" transform="matrix(0.866 -0.5 0.5 0.866 -76.8676 46.9478)" class="st1" width="79.8" height="0.9"/>
				<rect x="9.1" y="176.4" transform="matrix(0.866 -0.5 0.5 0.866 -81.8477 48.209)" class="st1" width="79.8" height="0.9"/>
				<rect x="9.2" y="186.3" transform="matrix(0.866 -0.5 0.5 0.866 -86.7913 49.5801)" class="st1" width="79.8" height="0.9"/>
				<rect x="9.4" y="195.1" transform="matrix(0.866 -0.5 0.5 0.866 -91.1786 50.8485)" class="st1" width="79.8" height="0.9"/>
				<path class="st2" d="M91.7,269h-0.2l-77.3-45.7l70-40.4l0.2,0.2l79.3,44.4L91.7,269z M16,223.3L91.7,268l70.2-40.5L84.2,184
					L16,223.3z"/>
				<rect x="15.9" y="206.8" transform="matrix(0.866 -0.5 0.5 0.866 -96.1518 55.6532)" class="st2" width="79.8" height="0.9"/>
				<rect x="23.9" y="211.2" transform="matrix(0.866 -0.5 0.5 0.866 -97.2815 60.2582)" class="st2" width="79.8" height="0.9"/>
				<rect x="31.3" y="216.2" transform="matrix(0.866 -0.5 0.5 0.866 -98.7906 64.6132)" class="st2" width="79.8" height="0.9"/>
				<rect x="39.7" y="221" transform="matrix(0.866 -0.5 0.5 0.866 -100.0604 69.4878)" class="st2" width="79.8" height="0.9"/>
				<rect x="50" y="226.8" transform="matrix(0.866 -0.5 0.5 0.866 -101.5728 75.5128)" class="st2" width="80.3" height="0.9"/>
				<rect x="58.4" y="232.1" transform="matrix(0.866 -0.5 0.5 0.866 -103.0391 80.4472)" class="st2" width="80.3" height="0.9"/>
				<rect x="66.9" y="236.7" transform="matrix(0.866 -0.5 0.5 0.866 -104.2223 85.2986)" class="st2" width="80.3" height="0.9"/>
				<rect x="75" y="242.1" transform="matrix(0.866 -0.5 0.5 0.866 -105.8484 90.083)" class="st2" width="80.3" height="0.9"/>
				<path class="st3" d="M244.8,343.1l-1.4,7c0,0-5.8,3-17.3,0.7s-7.7-14.1-7.7-14.1L244.8,343.1z"/>
				<path class="st4" d="M217.8,335.9c0,0-0.1,11.4-3.4,11s-7-2-13.5-2.9c-9.4-1.2-15.5-0.5-16.3,2.8c-2.1,9.8,16,15.2,21,16.8
					s11,4.1,14.6,6.5s17.7,8.8,20.5-1.3s2.8-17.6,3.8-22.9C244.5,345.9,222.8,349.5,217.8,335.9z"/>
				<path class="st5" d="M240,369.4c0,0-4.2,4.6-9.3,3.6c-8.5-1.5-13-7.2-30.4-12.1c-10.5-3.1-14.6-8.4-16-13.8c0,0-1.1,0.8-0.6,3.9
					s4.1,7.4,12.2,10.8s10.4,3.2,16.7,6.2s8.1,4.7,11.2,5.7s11.7,4.5,15.2-1.5C239.5,371.3,239.8,370.4,240,369.4z"/>
				<path class="st5" d="M259.5,362.6c0,0,5.3,12.8,19.8,3.8c4.4-2.7,9.8-8.9,17.9-10.9s12.8-5,11.3-10.6c0,0-2.1,4.6-12.3,7.6
					s-15.9,13.3-21.5,13.1S259.5,362.6,259.5,362.6z"/>
				<path class="st3" d="M298,320.2l3,6.6c0,0-4.1,5.9-15.9,8.9s-15-9.5-15-9.5L298,320.2z"/>
				<path class="st4" d="M271.6,329.8c0,0,3.7,8.9,4.3,12.4c0.3,1.3-1.7,5.7-7.7,8.9s-10.9,8.9-8.7,11.5c3.5,4.4,14.5,4.2,19.2,1.6
					c6.3-3.7,9.2-9.1,24.4-13.3c6.7-1.8,5.7-8.5,1.9-15.2c-5.3-9.2-2.9-5.9-4.7-11.2C300.3,324.5,283.3,339.4,271.6,329.8z"/>
				<path class="st6" d="M263.7,254.2l36.6,69.2c0,0-7.9,4.8-14.5,6.4c-4.7,1.2-9.5,1.2-14.2,0L229,251.9
					c-2.5-4.5-2.1-11.6,0.8-15.8s7-8.2,12.6-10c11.7-3.9,29-5.5,29-5.5L263.7,254.2z"/>
				<path class="st6" d="M341.6,235c0,0-55.3,9.6-60.3,13.8S245,344.2,245,344.2s-12-0.9-16-2.1c-3.2-1-6.2-2.5-8.9-4.4l-2.3-1.3
					l35.2-103c0,0,11.7-13.5,26.1-17.8C287.7,213.1,363.4,220.7,341.6,235z"/>
				<path class="st7" d="M276.3,104.2l-35.8,48.9l19.1,10.6l7.1-11.5C266.7,152.2,263.3,119.7,276.3,104.2z"/>
				
					<linearGradient id="SVGID_3_" gradientUnits="userSpaceOnUse" x1="6235.0908" y1="-321.1127" x2="6330.6167" y2="-321.1127" gradientTransform="matrix(-0.9969 7.845910e-02 7.845910e-02 0.9969 6374.5811 -107.8665)">
					<stop  offset="0" style="stop-color:#DCDCDC"/>
					<stop  offset="0" style="stop-color:#DADBDC"/>
					<stop  offset="0" style="stop-color:#D2D6DE"/>
					<stop  offset="0" style="stop-color:#C4CFE0"/>
					<stop  offset="0" style="stop-color:#B0C5E4"/>
					<stop  offset="0" style="stop-color:#97B7E8"/>
					<stop  offset="0" style="stop-color:#78A7EE"/>
					<stop  offset="0" style="stop-color:#5393F5"/>
					<stop  offset="0" style="stop-color:#297CFC"/>
					<stop  offset="0" style="stop-color:#1974FF"/>
					<stop  offset="5.000000e-02" style="stop-color:#1D76FF"/>
					<stop  offset="0.37" style="stop-color:#3182FF"/>
					<stop  offset="0.69" style="stop-color:#3D8AFF"/>
					<stop  offset="1" style="stop-color:#418CFF"/>
				</linearGradient>
				<path class="st8" d="M81.1,8.2c0,0-21.4-3.4-23.3,14.1c-1.5,13.4,0.1,25.5-8.4,30.3s-5.2,12-3.9,21.2c0.7,4.9-5.6,4.8-4.8,13.9
					c0.3,3.4,6.8,8.1,7.8,10.7c2.2,5.5-3.3,7.4-4.2,9.9s3.4,10.2,7.1,10.7c19.6,2.4,69.5,8,77.2-5.7c0,0,3-0.8,1-12.4
					c-1-5.3,7.3-8.3,6.7-16s-7.1-6.5-7.4-11.4c-0.3-4.9,4.5-13-3.5-21.1s-8.1-9.4-9-20.5s-1.4-19-14.6-25.1
					C95.8,4.1,81.1,8.2,81.1,8.2z"/>
				<path class="st9" d="M105.5,93.8c0,0-9.2-12.7-9.9-26.7c-7.3-1.5-13.2-6.9-15.2-14.1c0,0-4.3,35.5-7,36.2c0,0,13.4,18.6,24,17.6
					C108,105.8,105.5,93.8,105.5,93.8z"/>
				<path class="st9" d="M109,27.6c0,0,5.2,17.3,1.7,27.5s-6.3,13.2-7.5,13.6c-1.2,0.4-11.9,3.1-21.4-10.8c-1-1.5-2.6-5.3-3.6-7.2
					c0,0-2.8-0.1-3.3-4.3c-0.1-1.7,0.1-3.7,2-4.5c0,0-0.1-17.2,7.4-20.9S101.1,14.7,109,27.6z"/>
				<polygon class="st10" points="99.7,34.7 100,36.4 96.2,37.2 96,36.5 				"/>
				<polygon class="st11" points="108.5,33.6 108.9,35.2 112.8,34.7 112.6,34 				"/>
				<ellipse transform="matrix(0.9011 -0.4337 0.4337 0.9011 -7.2391 47.4764)" cx="100.4" cy="39.6" rx="1.2" ry="1.3"/>
				
					<ellipse transform="matrix(0.9968 -7.974522e-02 7.974522e-02 0.9968 -2.6415 8.9563)" cx="110.8" cy="37.6" rx="1.2" ry="1.3"/>
				<path d="M106.3,43.4c0.3,1.7,0.6,3.5,1,5.1c0.2,0.8,0.5,1.6,0.8,2.4l0.6,1.1c0.1,0.4,0.4,0.6,0.8,0.6h0.4l-0.2,0.2
					c-0.2,0.4-0.5,0.6-0.9,0.7l-0.9,0.3c-0.6,0.1-1.3,0.1-1.9-0.1h1.9l0.8-0.4c0.3-0.1,0.5-0.3,0.7-0.5v0.3
					c-0.5-0.1-0.9-0.5-1.1-0.9c-0.3-0.3-0.5-0.7-0.7-1.1c-0.3-0.8-0.5-1.7-0.7-2.5c-0.2-0.8-0.4-1.7-0.5-2.5
					C106.3,45.2,106.3,44.3,106.3,43.4z"/>
				<path class="st12" d="M106.4,59.4c-3.4,0.5-8.7-2-8.7-2s1.4,4.6,4.8,4.6C104.1,61.8,105.6,60.8,106.4,59.4z"/>
				<path class="st13" d="M106.4,59.4c-1.2,0.1-2.5,0-3.7-0.3c-1.7-0.5-3.4-1-5-1.7l0.2,0.4c2.6,1.2,5.4,1.9,8.3,1.8L106.4,59.4z"/>
				<path class="st14" d="M95.7,68.6c0,0-6.4-0.1-16.1-8.6l0.6-5.1C80.2,54.9,86,66.6,95.7,68.6z"/>
				
					<ellipse transform="matrix(0.9969 -7.845910e-02 7.845910e-02 0.9969 -3.0952 8.0341)" class="st15" cx="100.7" cy="43.4" rx="2.7" ry="0.9"/>
				
					<ellipse transform="matrix(0.9969 -7.845953e-02 7.845953e-02 0.9969 -2.9311 8.7615)" class="st15" cx="110" cy="41.7" rx="1.9" ry="0.7"/>
				<path class="st13" d="M76.6,44.7c-0.1,0.5-0.1,1-0.1,1.5c0.1,0.5,0.2,1,0.4,1.5c-0.2-0.1-0.4-0.4-0.5-0.6
					c-0.3-0.2-0.3-0.6-0.3-0.9v-0.8L76.6,44.7z"/>
				<path class="st1" d="M318.1,341.9c-1.4,0-2.7-0.3-3.9-1c-3.1-1.9-5-5.3-4.8-9l3.4-93.3l53.8-36.7l20.7,87.9
					c0.9,4.2-0.7,8.7-4.1,10.9l-60.7,39.8C321.2,341.3,319.7,341.8,318.1,341.9z M314.6,239.5l-3.5,92.4c-0.2,3,1.4,5.9,4,7.4
					c2,1.2,4.5,1.1,6.4-0.3l60.7-39.8c2.9-2,4.2-5.6,3.3-9l-20-85.4L314.6,239.5z"/>
				<path class="st1" d="M247.9,284.9c-4.8,0-8.7-3.9-8.7-8.7v0V276l3.4-84l53.8-30.6l20.7,77.5c1,3.8-0.7,7.7-4,9.7l-60.8,35
					C251,284.4,249.5,284.9,247.9,284.9z M244.3,193.1l-3.4,82.9c-0.1,3.8,3,7,6.8,7.1c1.3,0,2.6-0.3,3.7-1l60.8-35.1
					c2.7-1.5,4-4.7,3.2-7.7l-20.1-75.2L244.3,193.1z"/>
				<path class="st1" d="M371.4,199.8l-0.6-0.4l-69.3-40V82.6c0-9.2,7.4-16.7,16.6-16.8c3,0,5.9,0.8,8.4,2.3L363,89.2
					c5.2,3,8.4,8.5,8.4,14.5V199.8z M302.4,159l68.1,39.3v-94.6c0-5.7-3-10.9-7.9-13.8l-36.5-21.1c-4.9-2.8-10.9-2.8-15.8,0
					c-5,2.8-8,8.1-7.9,13.8V159z"/>
				<rect x="340.8" y="51.1" transform="matrix(0.5 -0.866 0.866 0.5 96.4454 338.3806)" class="st1" width="0.9" height="69.1"/>
				<rect x="337.8" y="55.2" transform="matrix(0.5 -0.866 0.866 0.5 88.3428 339.5208)" class="st1" width="0.9" height="76.1"/>
				
					<rect x="335.6" y="61.2" transform="matrix(0.4985 -0.8669 0.8669 0.4985 81.1039 341.9406)" class="st1" width="0.9" height="79.3"/>
				<rect x="335.9" y="71.4" transform="matrix(0.5 -0.866 0.866 0.5 72.0708 346.7646)" class="st1" width="0.9" height="79.1"/>
				<rect x="336.1" y="81.7" transform="matrix(0.5 -0.866 0.866 0.5 63.2808 352.0936)" class="st1" width="0.9" height="79.1"/>
				<rect x="336" y="93.1" transform="matrix(0.5 -0.866 0.866 0.5 53.3445 357.7565)" class="st1" width="0.9" height="79.1"/>
				<rect x="336" y="103.6" transform="matrix(0.5 -0.866 0.866 0.5 44.018 363.1125)" class="st1" width="0.9" height="79.8"/>
				<rect x="336.1" y="113.5" transform="matrix(0.5 -0.866 0.866 0.5 35.4878 368.1647)" class="st1" width="0.9" height="79.8"/>
				<rect x="336" y="123.5" transform="matrix(0.5 -0.866 0.866 0.5 26.7943 373.0803)" class="st1" width="0.9" height="79.8"/>
				<rect x="335.8" y="132.2" transform="matrix(0.5 -0.866 0.866 0.5 19.1204 377.2618)" class="st1" width="0.9" height="79.8"/>
				<path class="st2" d="M293.8,245.6h-0.2l-71.8-41.5l79.6-44.5h0.2l69.7,40.3l-0.6,0.3L293.8,245.6z M223.7,204.1l70.1,40.5
					l75.7-44.6l-68.1-39.4L223.7,204.1z"/>
				<rect x="329.4" y="143.9" transform="matrix(0.5 -0.866 0.866 0.5 5.7838 377.4937)" class="st2" width="0.9" height="79.8"/>
				
					<rect x="322.1" y="146.8" transform="matrix(0.4983 -0.867 0.867 0.4983 -0.1323 373.4333)" class="st2" width="0.9" height="80"/>
				<rect x="314.1" y="153.3" transform="matrix(0.5 -0.866 0.866 0.5 -10.005 368.9471)" class="st2" width="0.9" height="79.8"/>
				<rect x="305.6" y="157.9" transform="matrix(0.5 -0.866 0.866 0.5 -18.2882 363.9225)" class="st2" width="0.9" height="79.8"/>
				
					<rect x="295.5" y="164.2" transform="matrix(0.5015 -0.8652 0.8652 0.5015 -29.2979 357.9449)" class="st2" width="0.9" height="80.3"/>
				
					<rect x="287.1" y="169.4" transform="matrix(0.5015 -0.8652 0.8652 0.5015 -37.9694 353.2454)" class="st2" width="0.9" height="80.3"/>
				
					<rect x="278.6" y="174" transform="matrix(0.5015 -0.8652 0.8652 0.5015 -46.1439 348.1796)" class="st2" width="0.9" height="80.3"/>
				
					<rect x="270.3" y="179.2" transform="matrix(0.5015 -0.8652 0.8652 0.5015 -54.8389 343.5936)" class="st2" width="0.9" height="80.3"/>
				<path class="st16" d="M313.6,40.5c0,0-1.4,31.2,7.6,41.2c0.5,0.5-28.4,21.3-29.1,2.3c0,0,2.3-17.4-0.1-22S313.6,40.5,313.6,40.5
					z"/>
				<path class="st9" d="M269.5,195.5c0,0-30.4-5.5-31.8-4.4s-1.1,3.8-2.7,3.6s-0.7-4.9-0.7-4.9s-0.6,3.7-1.8,3.7s-5.4-5-0.6-9
					s21.6-6,27.9-2.3c6.3,3.7,12.6,9.7,16.5,9.7L269.5,195.5z"/>
				<path class="st2" d="M185.1,187.7c0,0,0.5-3.4,2.1-3.4s2.3,2.4,2.3,2.4v1H185.1z"/>
				<path class="st17" d="M321.2,81.7c0,0-21.6,9.3-25.6,7.3s-3.5-5-3.5-5s-17.2,17.3-22.5,34.2s-2.6,37.1-2.6,37.1l5.1,26.9
					l60.5,31.9c0,0,4.7-56,5.4-71.3C339.2,112.7,321.2,81.7,321.2,81.7z"/>
				<path class="st16" d="M274.2,14.1c-8.8,30.8-8.1,48.6,10.2,53.4c14.2,3.7,26.5-6.6,32.2-27.4s-0.3-31-14.5-34.8
					S278.7-1.5,274.2,14.1z"/>
				<path class="st18" d="M313.6,36.3c0,0,0.4-10.5-5.9-12.9c-1.6-0.7-4.2,0.2-8.5-1.3s-5.8-4-9.6-4.6c-1.9-0.2-5.1,0.9-7.2,0.2
					c-2.4-0.8-5-1.2-7.5-0.9c-3.8,0.2-4.6-9.6,2.4-13.1c2.3-1.1,4.4-3,8.4-3.4c2.4-0.3,5.3,0.4,8.6,0.6s6.5-1.3,9.7-0.8
					c6.8,1.3,8.7,4.4,12.2,7.1s9.2,5.5,7.4,10.5c-1.2,3.3-0.7,6.3-0.9,8.3c-1,8.1-4.9,11.9-4.9,11.9L313.6,36.3z"/>
				<path class="st18" d="M311.7,27.1c0,0-4.6,19.9-9.6,22.9c-3,1.8-10.3,2.1-20.7-1.8s-12.6-5.5-12.6-5.5s-2.2,20.2,11,23.7
					c14.8,4,25.3,2.7,34.4-19.2l0.5-13.9L311.7,27.1z"/>
				<path d="M293.8,26.5l-0.7,2.4c0,0,6.9,2.6,8.5,3.4c0,0,1-0.3,0.1-0.9S295.7,27,293.8,26.5z"/>
				<ellipse transform="matrix(0.2823 -0.9593 0.9593 0.2823 178.8441 306.9605)" cx="294.6" cy="33.9" rx="1.9" ry="1.6"/>
				<ellipse transform="matrix(0.2823 -0.9593 0.9593 0.2823 171.814 288.1991)" cx="278.5" cy="29.3" rx="1.9" ry="1.6"/>
				<path d="M283.7,23.8l-0.5,2.4c0,0-7.3-1-9.1-1c0,0-0.7-0.8,0.3-0.9S281.7,23.4,283.7,23.8z"/>
				<path d="M285.9,30.2c-0.4,1.5-0.8,3.1-1.3,4.6c-0.6,1.5-1.3,2.9-2.2,4.2c-0.4,0.7-1.1,1.3-1.8,1.7l-0.6,0.2c0,0-0.1,0.1,0,0.1
					l0,0c0.2,0.3,0.5,0.5,0.9,0.6l2.2,0.7c0.8,0.2,1.6,0.1,2.3-0.2c-0.7,0.4-1.5,0.5-2.3,0.4c-0.8-0.1-1.6-0.3-2.4-0.6
					c-0.4-0.1-0.7-0.3-1-0.6c-0.2-0.1-0.2-0.3-0.2-0.5l0.4-0.3l0.5-0.2c0.7-0.4,1.3-0.9,1.7-1.5c0.8-1.3,1.5-2.7,2.1-4.2
					C284.8,33.2,285.4,31.7,285.9,30.2z"/>
				<path class="st19" d="M286,30c-0.2,1.6-0.5,3.2-1,4.7c-0.4,1.5-1.1,3-1.9,4.4c-0.5,0.7-1.1,1.3-1.8,1.7l-0.6,0.3h-0.1l0.9,0.5
					l2.2,0.6c0.8,0.1,1.6,0.1,2.3-0.2c-0.7,0.4-1.5,0.5-2.3,0.5c-0.8,0-1.6-0.2-2.4-0.4c-0.4-0.1-0.8-0.3-1.1-0.7
					c-0.1-0.1-0.2-0.3-0.1-0.5l0.3-0.4l0.6-0.2c0.6-0.4,1.1-1,1.5-1.6c0.8-1.3,1.5-2.7,2-4.1L286,30z"/>
				
					<ellipse transform="matrix(0.2622 -0.965 0.965 0.2622 173.1743 292.7779)" class="st20" cx="278.1" cy="33.1" rx="0.6" ry="1.9"/>
				
					<ellipse transform="matrix(0.2589 -0.9659 0.9659 0.2589 181.8129 311.2318)" class="st20" cx="293.7" cy="37.1" rx="0.6" ry="1.9"/>
				<path class="st21" d="M293.8,34.7c0,0.3,0,0.6,0.2,0.6s0.5-0.3,0.6-0.7s-0.1-0.6-0.3-0.6S293.8,34.4,293.8,34.7z"/>
				<path class="st21" d="M277.8,30.2c-0.1,0.3,0,0.6,0.2,0.5c0.3-0.1,0.4-0.4,0.5-0.7c0.1-0.3-0.1-0.6-0.3-0.6
					S277.8,29.8,277.8,30.2z"/>
				
					<ellipse transform="matrix(0.3223 -0.9466 0.9466 0.3223 173.9216 326.4074)" class="st22" cx="314.9" cy="41.7" rx="6.5" ry="3.1"/>
				<path d="M316.3,39.9c0.3,1.8-0.3,3.6-1.6,4.9"/>
				<path class="st12" d="M274.3,53.1c3.7,2,10.9,1.2,10.9,1.2s-3.5,4.9-7.4,3.4C275.8,57,274.5,55.2,274.3,53.1z"/>
				<path class="st13" d="M274.3,53.1c1.4,0.6,2.9,1,4.4,1.2c2.2,0.1,4.3,0.1,6.5,0l-0.4,0.5c-3.6,0.4-7.2,0-10.5-1.3V53.1z"/>
				<path class="st18" d="M292.1,84c0,0,1.6,9.6,28.3-3.3l1.3,1.9c0,0-13.4,7.8-24.4,7.3c0,0-3.7-0.2-6.7-4.6L292.1,84z"/>
				<path class="st16" d="M243,112.4c0,0-38-29.2-38-40.2c0,0-16.1,1.2-13.3,3.6c2.8,2.4,36.7,56.4,42.2,57.3s43.2,0.1,61.8-3.1
					c0,0,13.7-1.1,18.1-6.5s5-26.7,5-26.7c-4.7,0.7-9.2,2.1-13.4,4.1C301.3,103,267.9,113.8,243,112.4z"/>
				<path class="st16" d="M208.6,73.9c0,0,1.1-4.4,1.8-8.2c0.7-3.8,0.2-7.2-0.2-11.1s0.4-6.7,0.9-7.6s-0.9-2-1.8-1.3
					s-3.8,3.2-3.7,6.4s-0.4,3.2-0.6,3.1s-1.3-19.1-5.7-21.3c0,0-1.4,0-1.1,1.8s2.4,14.4,1.4,14.5s-1.7-10.3-4.7-14.3
					c0,0-0.9-1.3-1.9-0.9s-1,1.9-0.7,2.9s3,11.2,2.1,11.4s-3.1-7.4-3.5-8.1s-1.7-2.2-2.3-1.9s2.3,11.2,1.7,11.2s-3.5-6.1-5.1-5.8
					s1.3,7,1.7,8.5s0.8,12.3,1.2,13.7s4.3,8.3,7.2,10.7S208.6,84.9,208.6,73.9z"/>
				<path class="st9" d="M141.1,119c5.5-11.3,23.8-20.5,39.3-44.8c0,0,1.7-3.2,0.2-4s-2-2.5-2.8-7.9s-1.8-7.8-2.8-9
					s-2.5-3.8-1.7-4.4s4.6,0.8,5.9,3.3s2.2,5.9,3.3,5.9s1.2-7.9,0.7-10.7s-1.3-8.6,0.7-8.8s3.3,11.7,4.6,11.8s0-11,0-11
					s-0.1-2.1,1.3-2.2s1.7,1.8,1.7,2.8s2,14.1,2,14.1s-0.2,22-2.3,26.2c-0.9,1.7-17.9,28.7-27.9,37.1
					C148.1,130.2,138.2,124.9,141.1,119z"/>
				<path class="st23" d="M318.8,96.8l-40.5,10.5l-2.7,24.9c0,0,32.2,0.6,39.3-9.8S318.8,96.8,318.8,96.8z"/>
				<path class="st24" d="M50.6,179.4c0,0,10.8-17.2,7.1-70.7c0,0-0.2-12.6,10.8-19.3c11-6.7,36.5,33.2,34-0.9
					c0-0.1,0.1-0.2,0.2-0.2c0.1,0,0.2,0.1,0.2,0.2l0,0h0.1c1.2,3.3,1.7,2.1,4.7,19.6c0.2,1.6,7.8,10.4,8.6,17.8
					c1.2,9.9-11.4,18.5-11.4,18.5c-9,13.9-5.5,35.9-9,42.5c0,0-5.5,6.9-22.3,3.3S50.6,179.4,50.6,179.4z"/>
				<path class="st10" d="M95.9,188.4l74.7,52.1l-38.5,131.6L120,369c0,0,3.4-59.5,6.8-78.1s6.5-28.6,6.5-28.6l-31.1-21.8
					c0,0-37.5-10-40.6-11c-3.1-1-28-13.1-11-50.1C50.6,179.4,67.9,197.3,95.9,188.4z"/>
				<path class="st10" d="M95.9,188.4l74.7,25.1c0,0,12.6,2.9,13.1,19.9s-3.9,102-3.9,102l-9.2,15.2c0,0-21.5-87.8-15.9-121.2
					L95.9,188.4z"/>
				<path class="st18" d="M119.4,380.2c0,0-1.1,9.9,0.2,11.4s3.7,2.4,9.3,4.3s22.1,9.7,24.3,5.3c2.8-6.1-5.1-17.3-29.1-23.4
					L119.4,380.2z"/>
				<path class="st9" d="M119.9,368.8c0,0,7.1,1.5,12.6,2.9l-2.2,8.8c0,0,20.2,9.6,17.2,14.6c-0.7,1.1-4.5,1.4-13.4-2.2
					c-11.9-4.9-14.5-7.1-14.5-7.1L119.9,368.8z"/>
				
					<linearGradient id="SVGID_4_" gradientUnits="userSpaceOnUse" x1="-22306.3047" y1="737.19" x2="-22239.0371" y2="737.19" gradientTransform="matrix(-1 0 0 -1 -22136.6602 846.44)">
					<stop  offset="0" style="stop-color:#DCDCDC"/>
					<stop  offset="0" style="stop-color:#DADBDC"/>
					<stop  offset="0" style="stop-color:#D2D6DE"/>
					<stop  offset="0" style="stop-color:#C4CFE0"/>
					<stop  offset="0" style="stop-color:#B0C5E4"/>
					<stop  offset="0" style="stop-color:#97B7E8"/>
					<stop  offset="0" style="stop-color:#78A7EE"/>
					<stop  offset="0" style="stop-color:#5393F5"/>
					<stop  offset="0" style="stop-color:#297CFC"/>
					<stop  offset="0" style="stop-color:#1974FF"/>
					<stop  offset="0.13" style="stop-color:#2D80FF"/>
					<stop  offset="0.35" style="stop-color:#4991FF"/>
					<stop  offset="0.57" style="stop-color:#5E9CFF"/>
					<stop  offset="0.78" style="stop-color:#6AA4FF"/>
					<stop  offset="1" style="stop-color:#6EA6FF"/>
				</linearGradient>
				<path class="st25" d="M102.5,88.5c0,0,4.6,5.1,24.1,16.3c3.2,2,16.7,6.3,16.7,6.3s16.2-12.6,17.1-12.9c4.4-1.4,6.7,7.2,9.2,12.8
					c1.1,2.4-18.8,19-22.3,19s-35.2-10.7-35.2-10.7S101.1,109.9,102.5,88.5z"/>
				<path class="st18" d="M168.4,338.1c0,0-2.5,5.8-1.7,8.8s1.4,5.8,6,9.9s12.8,12.2,18.9,15.5s9.3,4.5,10.5,4.1s1.7-2.8-5.6-13.4
					S168.4,338.1,168.4,338.1z"/>
				<path class="st9" d="M165.3,327.5c0,0,13.2,4.4,15.3,2.7l-1.3,8.3l17.5,25.1c0,0-4.8,1.6-11.8-4.4s-16.3-19.4-16.3-19.4
					L165.3,327.5z"/>
				
					<rect x="211" y="23.6" transform="matrix(0.6428 -0.766 0.766 0.6428 59.1269 175.2379)" class="st12" width="13" height="1.2"/>
				
					<rect x="186" y="15.7" transform="matrix(6.975647e-02 -0.9976 0.9976 6.975647e-02 164.3673 208.8873)" class="st12" width="16.3" height="1.2"/>
				
					<rect x="169.9" y="11.6" transform="matrix(0.7547 -0.6561 0.6561 0.7547 28.2018 116.9838)" class="st12" width="1.2" height="18.3"/>
				
					<rect x="183.7" y="18.2" transform="matrix(0.9759 -0.2181 0.2181 0.9759 -0.3622 40.7298)" class="st12" width="1.2" height="7.7"/>
				
					<rect x="202.8" y="22.1" transform="matrix(0.4035 -0.915 0.915 0.4035 102.3179 202.3801)" class="st12" width="7.2" height="1.2"/>
				<ellipse class="st26" cx="184.6" cy="439.7" rx="38.4" ry="24.2"/>
				<ellipse class="st13" cx="184.6" cy="436.6" rx="38.4" ry="24.2"/>
				<path class="st27" d="M185.1,439.1c-1.9,0.1-3.5-1.5-3.6-3.4c0,0,0,0,0,0l0,0V204.2c-0.2-1.9,1.1-3.7,3-4c2-0.3,3.8,1,4.1,3
					c0.1,0.3,0.1,0.7,0,1v231.3C188.6,437.4,187,439,185.1,439.1z"/>
				<polygon class="st27" points="4.3,236.5 4.3,223.2 185.9,137.4 367.5,223.2 367.5,236.5 185.9,336.4 				"/>
				<polygon class="st17" points="4.3,223 185.9,123.2 367.5,223 185.9,322.8 				"/>
				<path class="st1" d="M193.5,189.7c-0.6-0.7-1.5-1.1-2.4-0.9c-1.3,0.4-4.6,0.3-5.2-1.5s0.6-1.5-0.7-2.8s-2.9-0.2-3.5-0.4
					s-1.3-1.4-1.5-2.9s-1.8-3.3-2.9-3.2s-4.1-1-4.1-2.7s1.6-4.4-0.9-6.9s-4.2-1.5-5.3-3.1s0.4-3.2,0.6-3.4c2.1-0.3,4.1,0.7,5.1,2.6
					c1.5,3,3.6,3.3,4.2,2.8s3.9-0.9,3.7,1.7s-0.5,2.7,0.5,3.1s4.2-0.8,5.6,0.9s2.1,4.7,1.6,6.2s3.3-0.7,4.3,0.6s0.7,4.3,0.3,5.3
					s1.5,3.8,1.5,3.8L193.5,189.7z"/>
				<path class="st28" d="M193.3,189.8c-0.5-0.7-1.4-1-2.2-0.9c-0.4,0.2-0.9-2-2.5-4s-5.5-3.1-7-6.5c-1.5-2.8-3.2-5.4-5.2-7.8
					c-1.7-2-2.6-3.3-3.2-3.9c-2.4-2.5-5.3,0.3-6.4-1.3s0.5-3.2,0.8-3.4c2-0.3,4,0.8,4.9,2.7c1.5,2.9,3.7,3.1,4.3,2.6
					s3.9-0.8,3.7,1.8s-0.5,2.7,0.5,3.1s4.2-0.8,5.5,0.9s2.2,4.6,1.7,6.2s3.2-0.8,4.3,0.6s0.7,4.3,0.3,5.2s1.5,4,1.5,4L193.3,189.8z"
					/>
				<path class="st29" d="M193.4,192.6c0,0-1.1-4.6-1.4-4.8s-9.9-5.2-8.6-8.6c0,0,2-0.2,4.9,2.8s3,1.7,2.2,0.5s-5.1-6.1-5.1-6.1
					c-3-0.7-5.6-2.5-7.2-5.1c-2.6-4.2-3.1-5.1-2.8-5.3s7.2,4.6,8,5.7c0.5,1,1.1,2,1.8,2.9c0.7,0.7,3.4,5,4.1,5s-0.2-1.2-0.8-2.8
					c-0.5-1.4-1.1-2.8-1.8-4.2c-2.4-1.7-4.2-4-5.5-6.7c-1.8-4.2-3.1-7.6-2.4-7.8s6.2,6.5,7.3,9.3s0.9,4.3,2.4,6.1l-0.5-7.9
					c0,0-3.4-6.7-3-17.1c0,0,3.8,5.9,4,15.8c0,0-0.2,7.3,0.8,7.5s0.4,0.1,0.4-1.1s0.2-6,1.8-5.9s-0.3,6.3-0.3,6.3s-1.2,3.9-1.4,4.4
					s0.4,6.7,1.3,7l0.4-6.2c-0.2-1.3,0.1-2.7,0.7-3.9c1.1-1.8,2.5-4.7,2.5-4.7s0.1,5.1-1.2,6.9s-1.3,1.7-1.3,3.3s0.3,7.7,0.3,7.8
					s0.7,2,1,1.7s1.3-1.4,1.3-2.4s1,1.2,0.2,2.8s-1.3,2.5-0.9,3.9l0.2,1L193.4,192.6z"/>
				<path class="st30" d="M192.3,188.5c0.5-1.2,1-2.4,1.3-3.6c-0.1-0.2-3.8-7.6-1.4-9c0,0,1.2,0.7,1.7,3.7s1.1,2.5,1.1,1.4
					s-0.4-6-0.4-6c-1.5-1.7-2.3-4-2.2-6.3c0.4-3.8,0.4-4.6,0.7-4.5s2.4,6,2.4,7s-0.3,1.9-0.2,2.6s-0.1,4.5,0.3,4.9s0.3-0.8,0.8-2.1
					c0.3-1.1,0.5-2.2,0.7-3.3c-0.7-2.1-0.8-4.4-0.4-6.6c0.8-3.4,1.4-6,2-5.9s0.9,6.8,0.3,9s-1.3,3-1.2,4.7l3.3-5
					c0.9-4.3,2.8-8.4,5.6-11.8c0,0-0.2,5.3-4.5,11.4c0,0-3.4,4.4-2.8,5s0.1,0.2,0.7-0.5s2.8-3.5,3.7-2.7s-2.9,3.6-2.9,3.6l-2.8,2.1
					c-0.4,0.1-2.8,4.3-2.4,4.9l3-3.6c0.5-0.9,1.3-1.6,2.2-2.1l3.6-1.9c0,0-2.2,3.3-3.8,3.8s-1.6,0.5-2.3,1.5l-3.3,4.8
					c0,0.1-0.5,1.6-0.1,1.6c0.7-0.2,1.3-0.5,1.8-0.9c0.5-0.6,0.1,1.1-1.1,1.8s-1.9,1-2.3,2l-0.2,0.7L192.3,188.5z"/>
				<path class="st6" d="M193.7,188.2c0.3-0.8,1.1-1.4,2-1.5c1.4,0,4.6-1.1,4.7-3s-1.2-1.2-0.3-2.9s2.8-1,3.3-1.4
					c0.7-0.9,0.9-2.1,0.6-3.2c-0.3-1.4,0.9-3.6,2-3.8s3.5-2.2,3.1-3.8s-2.8-3.9-1.1-7s3.6-2.6,4.2-4.4s-1.3-2.9-1.6-3
					c-2.1,0.3-3.7,1.9-4.1,3.9c-0.5,3.3-2.5,4.2-3.2,3.8s-4.1,0.3-3.1,2.8s1.2,2.4,0.4,3s-4.2,0.5-5.1,2.5s-0.7,5,0.2,6.4
					s-3.3,0.2-3.9,1.8s0.5,4.3,1.2,5.2s-0.4,4.1-0.4,4.1L193.7,188.2z"/>
				<path class="st28" d="M193.9,188.2c0.3-0.8,1-1.4,1.9-1.5c0.4,0,0.2-2.2,1.2-4.6s4.4-4.5,4.9-8.2c0.6-3,1.6-6,2.8-8.9
					c0.7-1.7,1.5-3.9,1.9-4.7c1.6-3,5.1-1.2,5.8-3s-1.4-2.9-1.7-3.1c-2,0.4-3.6,2-4,4c-0.7,3.3-2.6,4.1-3.3,3.8s-4,0.3-3.1,2.7
					s1.3,2.4,0.5,3.1s-4.3,0.4-5.1,2.5s-0.8,5,0.1,6.4s-3.3,0.2-3.9,1.8s0.5,4.3,1.2,5.1s-0.4,4.2-0.4,4.2L193.9,188.2z"/>
				<path class="st31" d="M191,185.7c0,0-0.2,8.4-2.1,12.3c-5.6,11.6-15,41.7,3.8,42.4s10.9-31.1,4.7-42c-1.7-3-1.9-9.3-1.1-12.5
					L191,185.7z"/>
				<path class="st32" d="M197.9,199.4c0,0,6,41.4-8.9,40.4c0,0,15.7,4.8,15.4-13.8C204.1,216.8,201.9,207.7,197.9,199.4z"/>
				
					<linearGradient id="SVGID_5_" gradientUnits="userSpaceOnUse" x1="-440.2156" y1="-1484.3685" x2="-381.9956" y2="-1484.3685" gradientTransform="matrix(1 -6.000000e-02 -6.000000e-02 -1 580.41 -1300.96)">
					<stop  offset="0" style="stop-color:#001EFF"/>
					<stop  offset="1" style="stop-color:#4167FF"/>
				</linearGradient>
				<path class="st33" d="M256.9,191c16.1-0.9,29.6,6,30.1,15.4s-12,17.8-28,18.8s-29.5-5.9-30.1-15.3S240.9,191.9,256.9,191z"/>
				
					<linearGradient id="SVGID_6_" gradientUnits="userSpaceOnUse" x1="-436.9122" y1="-1493.4724" x2="-393.6322" y2="-1493.4724" gradientTransform="matrix(0.9982 -5.930638e-02 -5.930638e-02 -0.9982 584.9623 -1307.1443)">
					<stop  offset="0" style="stop-color:#2176FF"/>
					<stop  offset="1" style="stop-color:#78ADFF"/>
				</linearGradient>
				<path class="st34" d="M258.7,195.6c11.9-0.7,21.9,4.4,22.4,11.4s-9,13.2-20.9,14c-11.9,0.8-22-4.4-22.4-11.4
					S246.7,196.3,258.7,195.6z"/>
				<path class="st6" d="M246.4,203.8c0,0-0.2,5,0.7,7.4s1.9,4.2,5.3,5.1s9.1,1.6,13.3-0.5s3.8-11.4,3.8-11.4
					C262.2,208.1,253.5,207.9,246.4,203.8z"/>
				
					<linearGradient id="SVGID_7_" gradientUnits="userSpaceOnUse" x1="-164.6536" y1="758.9759" x2="-164.6536" y2="764.2559" gradientTransform="matrix(0.9987 5.059294e-02 5.059294e-02 -0.9987 383.7917 975.575)">
					<stop  offset="0" style="stop-color:#92EEEE"/>
					<stop  offset="1" style="stop-color:#20D5D2"/>
				</linearGradient>
				<path class="st35" d="M246.4,203.8v2c9.4,5.8,21.1,2.8,23.1,0.9v-2.3C262.2,208.1,253.5,207.9,246.4,203.8z"/>
				<path class="st6" d="M269.5,204.4c0,0,2.6-2,1-6.7s-10-6.4-11.8-6.4s-10.3,0.5-12.7,5.7s0.3,6.8,0.8,7s6,3.1,11,3.1
					C261.9,207.2,265.9,206.3,269.5,204.4z"/>
				<path class="st12" d="M251.2,195.2c-0.4,0.4-0.8,0.9-1.1,1.4c-0.4,0.5-0.7,1-0.9,1.5c-0.2,0.5-0.3,1.1-0.2,1.7
					c0,0.6,0.1,1.2,0.4,1.7c-0.4-0.5-0.7-1.1-0.8-1.7c-0.1-0.6,0-1.2,0.2-1.8C249.3,196.8,250.1,195.8,251.2,195.2z"/>
				<circle class="st12" cx="264.7" cy="196.4" r="0.5"/>
				<circle class="st12" cx="262.5" cy="199.2" r="0.6"/>
				<circle class="st12" cx="266.5" cy="200.7" r="0.7"/>
				<g id="Illustrations">
					
						<linearGradient id="SVGID_8_" gradientUnits="userSpaceOnUse" x1="-4832.4131" y1="2624.7615" x2="-4805.9131" y2="2624.7615" gradientTransform="matrix(-1 -1.745435e-03 -1.745435e-03 1 -4657.1567 -2469.1768)">
						<stop  offset="0" style="stop-color:#0062FF"/>
						<stop  offset="1" style="stop-color:#418CFF"/>
					</linearGradient>
					<path class="st36" d="M167.3,176.8c-0.1,0.8-0.8,1.5-1.6,1.6h-17.2c-1,0-1-1.7-1-1.7l-3.3-27.1h26.5L167.3,176.8z"/>
					
						<linearGradient id="SVGID_9_" gradientUnits="userSpaceOnUse" x1="-4831.4272" y1="2623.1162" x2="-4806.9272" y2="2623.1162" gradientTransform="matrix(-1 -1.745435e-03 -1.745435e-03 1 -4657.1567 -2469.1768)">
						<stop  offset="0" style="stop-color:#000000"/>
						<stop  offset="1" style="stop-color:#0062FF"/>
					</linearGradient>
					<polygon class="st37" points="168.6,167 146.3,166.6 145.2,157.7 169.7,157.8 					"/>
					
						<linearGradient id="SVGID_10_" gradientUnits="userSpaceOnUse" x1="-4834.4048" y1="2607.9917" x2="-4804.0049" y2="2607.9917" gradientTransform="matrix(-1 -1.745435e-03 -1.745435e-03 1 -4657.1567 -2469.1768)">
						<stop  offset="0" style="stop-color:#000000"/>
						<stop  offset="1" style="stop-color:#0062FF"/>
					</linearGradient>
					<polygon class="st38" points="142.3,149.5 142.3,144.9 172.7,145 172.6,149.5 					"/>
					
						<linearGradient id="SVGID_11_" gradientUnits="userSpaceOnUse" x1="-4831.8784" y1="2604.094" x2="-4806.3984" y2="2604.094" gradientTransform="matrix(-1 -1.745435e-03 -1.745435e-03 1 -4657.1567 -2469.1768)">
						<stop  offset="0" style="stop-color:#000000"/>
						<stop  offset="1" style="stop-color:#0062FF"/>
					</linearGradient>
					<polygon class="st39" points="144.7,144.9 145.8,141.7 169.1,141.7 170.1,145 					"/>
					<g class="st40">
						<path class="st41" d="M155.4,164.3c0.7,0.4,1.1,0.1,1.7,0.4s0-0.5-0.2-0.7c-0.4-0.5-1-0.8-1.6-0.8c-0.7,0-0.9,0.2-0.8,0.2
							S154.7,163.8,155.4,164.3z"/>
						<path class="st41" d="M155.3,165.3c-0.7-0.2-1.2-0.9-1.1-1.6c0.2-0.1,0.7,0.6,1.4,1l1.3,0.2c0.3,0.2,0.1,0.3,0.1,0.3
							C156.5,165.6,155.8,165.6,155.3,165.3z"/>
					</g>
					<g class="st40">
						<path class="st41" d="M155.4,161l1.2-0.5v-0.2l-0.7-0.2c-0.6-0.1-1.3,0.2-1.7,0.7c-0.5,0.4-0.4,0.8-0.3,0.8L155.4,161z"/>
						<path class="st41" d="M155.8,162.1c-1.1,0.5-1.7-0.1-1.6-0.2l1.2-0.5l1.3-0.8c0.2-0.1,0.2,0.2,0.2,0.2S157,161.5,155.8,162.1z
							"/>
					</g>
					<g class="st40">
						<path class="st41" d="M158.4,162.4c0,0.4-0.1,0.9-0.1,1.3c-0.1,0-0.1,0-0.1,0.1c0,0.1,0,0.1,0.1,0.1c0.2-0.1,0.4-0.3,0.6-0.5
							c0.4-0.5,0.5-1.2,0.3-1.8c-0.2-0.7-0.6-0.8-0.6-0.7C158.5,161.4,158.4,161.9,158.4,162.4z"/>
						<path class="st41" d="M157.3,162.3c0-1.3,0.9-1.5,0.9-1.4s-0.1,0.7-0.1,1.2v1.6c0,0.3-0.3,0.1-0.3,0.1
							S157.2,163.5,157.3,162.3z"/>
					</g>
					
						<linearGradient id="SVGID_12_" gradientUnits="userSpaceOnUse" x1="-4819.1626" y1="2610.2527" x2="-4819.1626" y2="2612.6028" gradientTransform="matrix(-1 -1.745435e-03 -1.745435e-03 1 -4657.1567 -2469.1768)">
						<stop  offset="0" style="stop-color:#0029CA"/>
						<stop  offset="0.3" style="stop-color:#1245D9;stop-opacity:0.72"/>
						<stop  offset="0.99" style="stop-color:#408BFF;stop-opacity:1.000000e-02"/>
						<stop  offset="1" style="stop-color:#418CFF;stop-opacity:0"/>
					</linearGradient>
					<polygon class="st42" points="144.2,149.5 144.5,151.9 170.5,151.4 170.7,149.5 					"/>
				</g>
				<path class="st9" d="M132.2,159.4c0,0,8-3.2,12.6-4.5c0.3,1,0.4,2.1,0.5,3.2c-1.4,0.5-2.7,0.8-2.5,1.4s17.8-1.1,17.7,1.1
					s-11.6,2.7-11.6,3.4s13.5,0.3,13.5,2.2s-13.7,1.6-13.8,2.1s11.9,1,11.9,3s-13.3,0.3-13.1,1.5s9.3,0.7,9.1,3.4
					s-22.1-0.3-23.8-2.7c-1-1.3-2.8-1.7-4.3-0.9l-32.1-3.9l-23.9-37l12.3-15.3l18.1,38.7l24,5.9C126.8,161,131.8,161.3,132.2,159.4z
					"/>
				
					<linearGradient id="SVGID_13_" gradientUnits="userSpaceOnUse" x1="-22246.7617" y1="717.1827" x2="-22194.4805" y2="717.1827" gradientTransform="matrix(-1 0 0 -1 -22136.6602 846.44)">
					<stop  offset="0" style="stop-color:#DCDCDC"/>
					<stop  offset="0" style="stop-color:#DADBDC"/>
					<stop  offset="0" style="stop-color:#D2D6DE"/>
					<stop  offset="0" style="stop-color:#C4CFE0"/>
					<stop  offset="0" style="stop-color:#B0C5E4"/>
					<stop  offset="0" style="stop-color:#97B7E8"/>
					<stop  offset="0" style="stop-color:#78A7EE"/>
					<stop  offset="0" style="stop-color:#5393F5"/>
					<stop  offset="0" style="stop-color:#297CFC"/>
					<stop  offset="0" style="stop-color:#1974FF"/>
					<stop  offset="0.13" style="stop-color:#2D80FF"/>
					<stop  offset="0.35" style="stop-color:#4991FF"/>
					<stop  offset="0.57" style="stop-color:#5E9CFF"/>
					<stop  offset="0.78" style="stop-color:#6AA4FF"/>
					<stop  offset="1" style="stop-color:#6EA6FF"/>
				</linearGradient>
				<path class="st43" d="M57.9,106.1c0,0-0.5-12.2,11.2-17.2c11.7-5,28.1,57.2,34.2,66.3l6.8,1.6l-3.7,13.1l-14.9-1.2l-26.1-45.9
					C65.4,122.8,58.2,109.9,57.9,106.1z"/>
				<path class="st21" d="M100.8,40.3c0.1,0.2,0.2,0.4,0.4,0.4c0.2-0.2,0.2-0.5,0.1-0.7c-0.1-0.3-0.2-0.4-0.4-0.4
					C100.8,39.8,100.7,40.1,100.8,40.3z"/>
				<path class="st21" d="M110.7,38.2c0.1,0.3,0.2,0.4,0.4,0.3s0.2-0.3,0.1-0.6s-0.2-0.4-0.4-0.3C110.7,37.8,110.6,38,110.7,38.2z"
					/>
				
					<linearGradient id="SVGID_14_" gradientUnits="userSpaceOnUse" x1="6280.6807" y1="-354.8227" x2="6291.5015" y2="-354.8227" gradientTransform="matrix(-0.9969 7.845910e-02 7.845910e-02 0.9969 6374.5811 -107.8665)">
					<stop  offset="0" style="stop-color:#DCDCDC"/>
					<stop  offset="0" style="stop-color:#DADBDC"/>
					<stop  offset="0" style="stop-color:#D2D6DE"/>
					<stop  offset="0" style="stop-color:#C4CFE0"/>
					<stop  offset="0" style="stop-color:#B0C5E4"/>
					<stop  offset="0" style="stop-color:#97B7E8"/>
					<stop  offset="0" style="stop-color:#78A7EE"/>
					<stop  offset="0" style="stop-color:#5393F5"/>
					<stop  offset="0" style="stop-color:#297CFC"/>
					<stop  offset="0" style="stop-color:#1974FF"/>
					<stop  offset="5.000000e-02" style="stop-color:#1D76FF"/>
					<stop  offset="0.37" style="stop-color:#3182FF"/>
					<stop  offset="0.69" style="stop-color:#3D8AFF"/>
					<stop  offset="1" style="stop-color:#418CFF"/>
				</linearGradient>
				<path class="st44" d="M85.7,24.7c0,0-1.6,15.8-9.3,17.3c0,0-2-10.9,0.9-15.7c1.2-2,6.5-5.1,6.5-5.1S84.2,22,85.7,24.7z"/>
				<path class="st45" d="M122,37.5c0,0-43.8,3-40.3-29.4c0,0,15.2-4.5,22.4-1.6c7.2,2.9,12.4,7,14.4,22.6
					C118.5,29.1,117.6,37.1,122,37.5z"/>
			</g>
		</g>
	</g>
</g>
</svg>
