<?xml version="1.0" encoding="utf-8"?>
<!-- Generator: Adobe Illustrator 23.0.3, SVG Export Plug-In . SVG Version: 6.00 Build 0)  -->
<svg version="1.1" id="Layer_1" xmlns="http://www.w3.org/2000/svg" xmlns:xlink="http://www.w3.org/1999/xlink" x="0px" y="0px"
	 viewBox="0 0 630.8 540.4" style="enable-background:new 0 0 630.8 540.4;" xml:space="preserve">
<style type="text/css">
	.st0{clip-path:url(#SVGID_2_);}
	.st1{fill:#0530AD;}
	.st2{fill:#061F80;}
	.st3{opacity:0.46;enable-background:new    ;}
	.st4{fill:#408BFC;}
	.st5{opacity:0.33;fill:#EDF4FF;enable-background:new    ;}
	.st6{opacity:0.47;fill:#EDF4FF;enable-background:new    ;}
	.st7{fill:#333333;}
	.st8{fill:#0072C3;}
	.st9{fill:#6CCAFF;}
	.st10{fill:#051243;}
	.st11{fill:#9FA5AD;}
	.st12{fill:#92EEEE;}
	.st13{fill:#00BAB6;}
	.st14{fill:#009C98;}
	.st15{fill:#007D79;}
	.st16{fill:#20D5D2;}
	.st17{fill:#E6E6E6;}
	.st18{fill:#B3B3B3;}
	.st19{fill:#97C1FF;}
	.st20{fill:#C4C4C4;}
	.st21{fill:#0062FF;}
	.st22{fill:#1071FF;}
	.st23{fill:#666666;}
	.st24{clip-path:url(#SVGID_4_);}
	.st25{fill:#F2F2F2;}
	.st26{clip-path:url(#SVGID_6_);}
</style>
<title>Outside_coffee_first_transition</title>
<g>
	<g id="Layer_2-2">
		<g>
			<defs>
				<polygon id="SVGID_1_" points="648.4,554 0.2,554 1,0.8 648.4,0.8 				"/>
			</defs>
			<clipPath id="SVGID_2_">
				<use xlink:href="#SVGID_1_"  style="overflow:visible;"/>
			</clipPath>
			<g class="st0">
				<polygon class="st1" points="23,225.8 -224.9,83.8 -222.9,381.8 25,521.6 				"/>
				<polygon class="st2" points="487.8,-42.1 594.5,-42.1 594.5,190.7 23,521.6 23,225.8 352.7,32.6 				"/>
				<path class="st3" d="M346,62.4v22.1c0,4.3,3.5,7.8,7.8,7.8c1.4,0,2.7-0.3,3.9-1l3.8-2.3c2.4-1.4,3.9-3.9,3.9-6.7V52h-1.7
					L346,62.4z"/>
				<path class="st3" d="M365.4,50.5v22.2c0.1,4.3,3.5,7.7,7.8,7.8c1.4,0,2.7-0.4,3.9-1.1l3.9-2.2c2.4-1.4,3.9-4,3.9-6.8V40.2h-1.8
					L365.4,50.5z"/>
				<path class="st3" d="M384.9,39.8V62c-0.1,4.3,3.3,7.8,7.6,7.8c1.5,0,2.9-0.4,4.1-1.1l3.8-2.2c2.4-1.4,3.9-3.9,3.9-6.7L403.9,31
					h-2L384.9,39.8z"/>
				<path class="st3" d="M403.3,18.4l0.9,33.3c0,4.3,3.5,7.8,7.8,7.8c1.4,0,2.7-0.4,3.9-1l3.9-2.2c2.4-1.4,3.9-4,3.9-6.8l-1-31.8
					H413L403.3,18.4z"/>
				<path class="st3" d="M422.5,7.1l0.9,33.2c0,4.3,3.5,7.8,7.8,7.8c1.4,0,2.7-0.3,3.9-0.9l3.9-2.3c2.4-1.4,3.9-3.9,3.9-6.7l-1-31.8
					h-9.7L422.5,7.1z"/>
				<path class="st3" d="M441.6-3.9l1,33.2c-0.1,4.3,3.3,7.7,7.6,7.8c0,0,0,0,0,0c1.4,0,2.8-0.4,4-1l3.9-2.3
					c2.4-1.4,3.9-3.9,3.9-6.7l-1-31.9l-9.6,0.2L441.6-3.9z"/>
				<path class="st3" d="M460.8-14.7l0.9,33.3c0,4.3,3.5,7.8,7.8,7.8c1.4,0,2.7-0.4,3.9-1.1l3.8-2.2c2.4-1.4,3.9-3.9,3.9-6.7
					l-0.9-31.9l-9.7,0.2L460.8-14.7z"/>
				<path class="st3" d="M480.1-25.6L481,7.6c0,4.3,3.5,7.8,7.8,7.8c1.4,0,2.7-0.3,3.9-1l3.8-2.3c2.4-1.4,3.9-3.9,3.9-6.7l-0.9-31.8
					h-9.7L480.1-25.6z"/>
				<path class="st3" d="M499.2-37.7l1,33.3c-0.1,4.3,3.3,7.7,7.6,7.8c0,0,0.1,0,0.1,0c1.4,0,2.7-0.4,3.9-1l3.9-2.3
					c2.4-1.4,3.9-3.9,3.9-6.7l-0.9-31.8H509L499.2-37.7z"/>
				<path class="st3" d="M518.6-42.1l0.7,26.6c0,4.3,3.4,7.7,7.7,7.8c1.4,0,2.8-0.4,4-1l3.9-2.2c2.4-1.4,3.9-4,3.9-6.8L538-42.1
					H518.6z"/>
				<path class="st3" d="M538-42.1l0.5,14.8c-0.1,4.3,3.3,7.8,7.6,7.8c1.5,0,2.9-0.4,4.1-1.1l3.8-2.2c2.4-1.4,3.9-4,3.9-6.8
					l-0.4-12.5H538z"/>
				<path class="st3" d="M557.5-42.1v4.2c0,4.3,3.4,7.7,7.7,7.8c1.4,0,2.8-0.4,4-1.1l3.9-2.2c2.4-1.4,3.9-4,3.9-6.8v-1.9H557.5z"/>
				<path class="st3" d="M577-42.1c2.4,3,6.7,3.8,10,1.9l3.4-1.9H577z"/>
				<path class="st3" d="M323.5,75.4v18.2c-0.1,5.5,4.4,10,9.9,10.1c1.8,0,3.6-0.5,5.2-1.4l2.4-1.3c3.1-1.8,5-5.1,5-8.7V62.4
					L323.5,75.4z"/>
				<path class="st3" d="M278.2,101.5v17.4c0,5.9,4.7,10.6,10.6,10.6l0,0c1.9,0,3.7-0.5,5.3-1.4l1.4-0.9c3.2-1.8,5.3-5.3,5.3-9V88.5
					L278.2,101.5z"/>
				<path class="st3" d="M233.1,127.5v21.7c0,4.4,3.5,8,7.9,8.1c1.5,0,2.9-0.4,4.1-1.2l6.4-3.6c2.5-1.5,4-4.1,4-7v-30.9L233.1,127.5
					z"/>
				<path class="st3" d="M188,153.5v21.9c0,4.4,3.5,7.9,7.9,7.9c0.1,0,0.1,0,0.2,0c1.3,0,2.6-0.4,3.8-1l6.6-3.8c2.4-1.4,3.9-4,4-6.8
					v-31.2L188,153.5z"/>
				<path class="st3" d="M142.9,180.4v20.5c0,4.5,3.7,8.2,8.2,8.3c1.5,0,2.9-0.4,4.2-1.1l6-3.5c2.5-1.5,4-4.2,4-7.1v-30.9
					l-21.8,12.5C143.1,179.4,142.9,179.9,142.9,180.4z"/>
				<path class="st3" d="M97.8,205.5v21.7c0.1,4.5,3.7,8.1,8.2,8c0,0,0.1,0,0.1,0c1.3,0,2.6-0.4,3.8-1l6.3-3.6
					c2.5-1.5,4-4.2,4.1-7.1v-31L97.8,205.5z"/>
				<path class="st3" d="M52.7,231.5v17c0,6,4.8,10.8,10.8,10.8c1.9,0,3.8-0.5,5.5-1.5l0.9-0.4c3.3-2,5.3-5.6,5.3-9.4v-29.4
					L52.7,231.5z"/>
				<path class="st3" d="M30.2,241.1V258c0,6,4.8,10.8,10.8,10.8c0,0,0.1,0,0.1,0c1.9,0,3.7-0.5,5.3-1.5l0.9-0.5
					c3.3-1.9,5.4-5.5,5.4-9.3V228L30.2,241.1z"/>
				<path class="st3" d="M23,270.6c0.3-0.1,7.2-3.6,7.2-7.4v-27.8l-7.1,4L23,270.6z"/>
				<path class="st3" d="M300.8,88.5v23.7c0,3.8,3.1,6.9,6.9,6.9c0,0,0.1,0,0.1,0c1.2,0,2.4-0.3,3.4-0.9l8.6-5
					c2.2-1.2,3.5-3.5,3.5-6V75.5L300.8,88.5z"/>
				<path class="st3" d="M255.7,114.6v22.9c0,4,3.3,7.3,7.3,7.3c0,0,0.1,0,0.1,0c1.2,0,2.4-0.4,3.5-1l7.9-4.5
					c2.2-1.3,3.6-3.7,3.6-6.3v-31.5L255.7,114.6z"/>
				<path class="st3" d="M210.6,140.5V163c0,4.2,3.4,7.6,7.6,7.6l0,0c1.3,0,2.6-0.4,3.8-1l7.2-4.2c2.3-1.4,3.8-3.9,3.8-6.6v-31.3
					L210.6,140.5z"/>
				<path class="st3" d="M165.4,166.6v22.8c0,4,3.3,7.3,7.3,7.3c1.3,0,2.6-0.3,3.7-0.9l7.7-4.5c2.3-1.3,3.7-3.8,3.7-6.4v-31.4
					L165.4,166.6z"/>
				<path class="st3" d="M120.4,192.5v23.1c0,4,3.2,7.2,7.2,7.2h0c1.3,0,2.6-0.3,3.7-0.9l7.9-4.6c2.2-1.3,3.6-3.7,3.6-6.3v-31.5
					L120.4,192.5z"/>
				<path class="st3" d="M75.3,218.6v19.2c0,5.2,4.1,9.4,9.3,9.5c1.7,0,3.4-0.4,4.8-1.3l3.6-2.1c3-1.6,4.8-4.8,4.8-8.2v-30.2
					L75.3,218.6z"/>
				<polygon class="st4" points="200.7,256.5 200.7,321.2 101.4,379.7 101.4,314.7 				"/>
				<path d="M96.7,388.8l-0.6-77.5h0.2L208.6,246l0.6,77.2h-0.1L96.7,388.8z M96.9,311.8l0.6,75.8l111-65l-0.6-75.4L96.9,311.8z"/>
				<rect x="155.5" y="277.2" width="0.8" height="77.6"/>
				<polygon class="st5" points="151.3,350.9 116.5,305.5 108.8,310.4 143.8,355.1 				"/>
				<polygon class="st5" points="139,358 104.7,312.9 102.7,314 136.9,359.3 				"/>
				<polygon class="st4" points="521.3,88.1 521.3,152.9 422,211.4 422,146.4 				"/>
				<path d="M417.3,220.5l-0.6-77.5h0.1l112.4-65.4l0.6,77.3h-0.3L417.3,220.5z M417.4,143.4l0.6,75.8l111-64.8l-0.6-75.6
					L417.4,143.4z"/>
				<rect x="476" y="108.9" width="0.8" height="77.6"/>
				<polygon class="st6" points="521.3,121.1 501.3,99.9 497.7,102 521.3,127.1 				"/>
				<polygon class="st6" points="521.3,118.8 503.4,98.6 504.8,97.8 521.3,115.9 				"/>
				<polygon class="st7" points="23,521.6 58.5,540.4 630.8,213.9 594.5,190.7 				"/>
				<path class="st8" d="M65.7,506.3c0,4.9,6.4,8.9,14.2,8.9s14.2-4,14.2-8.9s15-34.2,7.2-34.2c-3.9,0-42.9,1.2-45.4,2.9
					S65.7,503.8,65.7,506.3z"/>
				<ellipse class="st9" cx="79.9" cy="475" rx="24" ry="15.2"/>
				<ellipse class="st10" cx="79.9" cy="475" rx="19.2" ry="12.2"/>
				<path class="st11" d="M78,478.2c0,0,0,1.6,2.1,1.6s1.8-1.6,1.8-1.6l-0.7-57.3l-1.4-1.5L78,478.2z"/>
				<path class="st12" d="M70.8,426.4c-0.3,8.3-4.8,11.6-25,13.4c0,0-1.2-13.6,7.8-20.4s11.8,1.7,11.8,1.7S71.1,421.8,70.8,426.4z"
					/>
				<path class="st13" d="M65.4,421.1c0,0-16.6,1.2-19.8,18.7c0,0-0.1-13.9,8.4-20.4C54,419.4,61.2,413.1,65.4,421.1z"/>
				<path class="st14" d="M69.8,403.9c0.7,5-1.7,7.5-13.7,10.7c0,0-2.1-8.1,2.6-13.1s7.3-0.3,7.3-0.3S69.5,401.1,69.8,403.9z"/>
				<path class="st15" d="M66,401.2c0,0-10,2.5-10,13.4c0,0-1.5-8.4,2.9-13.2C58.9,401.4,62.6,396.9,66,401.2z"/>
				<path class="st11" d="M78.9,465.9c-0.7-2.4-1.5-4.7-2.3-7c-0.7-2.3-1.6-4.4-2.8-6.5c-0.9-2.1-2.4-3.9-4.3-5.2
					c-0.9-0.6-2-1-3.1-1.2h-3.6c1.1-0.6,2.3-1,3.6-1.1c1.3-0.1,2.7,0.2,3.9,0.8c1.2,0.6,2.3,1.4,3.2,2.4c0.9,1,1.7,2,2.3,3.2
					c1.2,2.3,2,4.7,2.5,7.2C78.9,460.9,79.1,463.4,78.9,465.9z"/>
				<path class="st11" d="M79.9,453.6c-0.1-2.5,0.1-5,0.6-7.5c0.5-2.5,1.4-4.9,2.6-7.1c0.6-1.2,1.3-2.3,2.2-3.3c0.9-1,2-1.8,3.2-2.4
					c2.4-1.1,5.2-0.9,7.5,0.4c-1.2-0.1-2.4-0.2-3.6-0.1c-1.1,0.3-2.1,0.7-3,1.3c-1.9,1.3-3.4,3.1-4.4,5.1c-1.1,2.1-2.1,4.3-2.8,6.5
					L79.9,453.6z"/>
				<path class="st11" d="M79.9,427.2c-0.1-2.5,0.1-5,0.6-7.4c0.5-2.5,1.4-4.9,2.6-7.2c0.6-1.1,1.3-2.2,2.2-3.1c0.9-1,2-1.9,3.2-2.5
					c1.2-0.5,2.6-0.8,3.9-0.8c1.3,0.2,2.5,0.6,3.6,1.2c-1.2-0.3-2.4-0.3-3.6,0c-1.1,0.1-2.1,0.6-3,1.2c-1.9,1.3-3.4,3-4.4,5.1
					c-1.1,2.1-2.1,4.3-2.8,6.6C81.4,422.5,80.7,424.8,79.9,427.2z"/>
				<path class="st11" d="M80,443.3c-0.9-2.5-1.7-5-2.6-7.4c-0.8-2.4-1.8-4.8-3-7.1c-1.1-2.2-2.6-4.2-4.5-5.8
					c-1-0.7-2.1-1.2-3.3-1.5c-1.3-0.3-2.5-0.3-3.8,0c1.2-0.7,2.5-1.1,3.9-1.1c1.4,0,2.9,0.4,4.1,1.1c1.2,0.7,2.4,1.7,3.3,2.8
					c0.9,1.1,1.6,2.3,2.3,3.5c1.3,2.4,2.2,5,2.7,7.6C79.7,438,80,440.6,80,443.3z"/>
				<path class="st11" d="M81,425.2c-0.6-2.5-1.2-4.9-2-7.3c-0.6-2.4-1.5-4.7-2.6-6.9c-1-2.1-2.6-3.8-4.5-5c-1.1-0.5-2.2-0.8-3.4-1
					c-1.2,0-2.5,0.1-3.7,0.3c1.1-0.7,2.4-1.1,3.7-1.3c1.4-0.2,2.8-0.1,4.1,0.4c1.3,0.5,2.5,1.3,3.4,2.3c0.9,1,1.7,2.1,2.4,3.3
					c1.2,2.3,2,4.9,2.3,7.5C81.2,420,81.3,422.6,81,425.2z"/>
				<path class="st16" d="M72.1,450.7c3.2,10.2-0.7,16.2-24.5,27.5c0,0-7.5-16,0.4-28.3s15-3.3,15-3.3S70.3,445,72.1,450.7z"/>
				<path class="st13" d="M63,446.6c0,0-19.7,8.9-15.7,31.7c0,0-6.3-16.8,1.1-28.6C48.4,449.7,54.3,438.8,63,446.6z"/>
				<path class="st16" d="M86.5,410.6c0.4,7.1,4.4,10,21.9,11.2c0,0,0.9-11.7-7-17.5s-10.2,1.6-10.2,1.6S86.2,406.6,86.5,410.6z"/>
				<path class="st13" d="M91.2,405.9c0,0,14.4,0.8,17.4,15.9c0,0,0-12-7.5-17.6C101.1,404.2,94.7,398.9,91.2,405.9z"/>
				<path class="st14" d="M85.6,439.5c-0.4,10.9,5.1,15.8,31.5,20.5c0,0,3.1-17.7-7.9-27.7S93.5,433,93.5,433S85.9,433.4,85.6,439.5
					z"/>
				<path class="st15" d="M93.5,433c0,0,21.8,3.6,23.9,27c0,0,1.8-18.3-8.7-27.9C108.7,432.1,100,423,93.5,433z"/>
				<path class="st11" d="M80.4,447.6c1.5,0.8,2.8,1.8,3.9,3c1.1,1.2,2.1,2.6,2.8,4.1c0.4,0.8,0.7,1.6,1,2.3l0.6,2.5
					c0.3,1.7,0.3,3.3,0,5c-0.7-1.6-1.1-3.1-1.7-4.5l-0.9-2.2c-0.3-0.7-0.6-1.4-1-2c-0.7-1.5-1.4-2.9-2.3-4.2
					C82.1,450.3,81.2,449,80.4,447.6z"/>
				<path class="st12" d="M80.1,462c-3.2,7.6-0.6,12.5,16.9,22.7c0,0,6.8-11.8,1.6-21.7s-11.3-3.6-11.3-3.6S81.8,457.7,80.1,462z"/>
				<path class="st13" d="M87.3,459.4c0,0,14.5,8.1,9.9,25.3c0,0,6-12.4,1.1-22C98.3,462.7,94.5,454,87.3,459.4z"/>
				<polygon class="st17" points="369,165.6 369,321.6 290,367.1 290,211.1 				"/>
				<polyline class="st18" points="369,321.6 290,275.8 290,367.1 369,321.6 				"/>
				<polygon class="st19" points="369,321.6 324.6,321.8 324,191.5 369,165.6 				"/>
				<rect x="328.2" y="251.5" class="st2" width="1.7" height="18.1"/>
				<polygon class="st19" points="290,367.1 313.1,329.5 313.1,198.1 290,211.1 				"/>
				<rect x="309.2" y="254.7" class="st2" width="0.8" height="18.1"/>
				<polygon class="st3" points="0,234.7 0,250.1 -224.9,120.3 -224.8,104.9 				"/>
				<path class="st3" d="M23,270.6c0,0-15,5.6-23-9.6v-25.6h23V270.6z"/>
				<polygon class="st20" points="432.2,-10.5 26.4,223.9 -221.4,82 -8,-41.4 378.8,-41.4 				"/>
				<polygon class="st18" points="274.6,80.5 61.9,-42.2 16.1,-42.2 252.1,93.5 				"/>
				<polygon class="st18" points="229.3,106.5 -28.4,-42.1 -73.4,-42.2 206.8,119.6 				"/>
				<polygon class="st18" points="184.2,132.6 -118.6,-42.1 -163.5,-42.2 161.7,145.5 				"/>
				<polygon class="st18" points="139.1,158.5 -209.8,-42.1 -223.2,-42.1 -223.1,-24.6 116.6,171.6 				"/>
				<polygon class="st18" points="94.1,184.6 -223.1,1.7 -223.2,27.4 71.6,197.6 				"/>
				<polygon class="st18" points="319.7,54.5 154,-42.1 107.4,-42.2 297.2,67.4 				"/>
				<polygon class="st21" points="297.1,67.5 107.4,-42.2 61.9,-42.2 274.6,80.5 				"/>
				<polygon class="st21" points="251.8,93.6 16.1,-42.2 -8.7,-42.1 -28.1,-42 229.3,106.6 				"/>
				<polygon class="st21" points="206.7,119.6 -73.4,-42.2 -117.2,-41.4 184.2,132.6 				"/>
				<polygon class="st21" points="161.6,145.5 -163.5,-42.2 -209.8,-42.1 139.1,158.5 				"/>
				<polygon class="st21" points="116.5,171.6 -223.1,-24.6 -223.1,1.7 94,184.6 				"/>
				<polygon class="st21" points="342.1,41.5 197.2,-42.1 154,-42.1 319.8,54.5 				"/>
				<path class="st22" d="M319.8,54.5v18.3c0,5.5,4.4,9.9,9.9,9.9c0,0,0.1,0,0.1,0c1.8,0,3.5-0.4,5-1.3l2.4-1.4
					c3.2-1.8,5.1-5.1,5.1-8.7V41.5L319.8,54.5z"/>
				<path class="st22" d="M274.6,80.6V98c0.1,5.8,4.7,10.5,10.5,10.6c1.9,0,3.7-0.5,5.3-1.5l1.3-0.8c3.3-1.8,5.3-5.3,5.3-9.1V67.6
					L274.6,80.6z"/>
				<path class="st22" d="M229.4,106.6v21.6c0,4.5,3.6,8.1,8.1,8.1l0,0c1.4,0,2.8-0.4,4-1l6.4-3.7c2.4-1.5,3.9-4.1,3.9-7v-31
					L229.4,106.6z"/>
				<path class="st22" d="M184.3,132.6v21.9c0,4.4,3.5,7.9,7.9,7.9c1.4,0,2.8-0.3,4-1l6.6-3.8c2.4-1.5,3.9-4.1,3.9-6.9v-31.1
					L184.3,132.6z"/>
				<path class="st22" d="M139.1,159.5V180c0,4.5,3.6,8.1,8.1,8.2c1.5,0,2.9-0.3,4.2-1.1l6-3.4c2.6-1.5,4.2-4.2,4.2-7.2v-30.9
					l-21.8,12.6C139.4,158.5,139.1,159,139.1,159.5z"/>
				<path class="st22" d="M94.1,184.6v21.7c0,4.4,3.6,8,8,8c0.1,0,0.1,0,0.2,0c1.4,0,2.8-0.4,4-1.1l6.2-3.6c2.5-1.4,4-4,4-6.9v-31.1
					L94.1,184.6z"/>
				<polygon class="st21" points="71.5,197.6 -223.2,27.4 -223.2,52.6 49,210.6 				"/>
				<path class="st22" d="M49,210.6v17c0,5.9,4.8,10.7,10.7,10.7h0c1.9,0,3.7-0.5,5.4-1.4l0.9-0.5c3.4-1.9,5.4-5.5,5.4-9.4v-29.4
					L49,210.6z"/>
				<polygon class="st21" points="26.4,223.9 -223.2,81 -223.2,105.2 3.9,236.9 				"/>
				<path class="st22" d="M3.9,236.9v17c-0.1,5.9,4.7,10.7,10.6,10.8c0,0,0.1,0,0.1,0c1.9,0,3.8-0.5,5.5-1.5l0.9-0.4
					c3.3-2,5.4-5.5,5.4-9.4V224L3.9,236.9z"/>
				<polygon class="st18" points="49,210.9 -223.2,52.6 -223.2,81 26.4,223.9 				"/>
				<path class="st23" d="M26.5,223.9v17c-0.1,5.9,4.7,10.7,10.6,10.8c0,0,0.1,0,0.1,0c1.9,0,3.8-0.6,5.4-1.5l0.9-0.5
					c3.3-1.9,5.4-5.5,5.4-9.3v-29.5L26.5,223.9z"/>
				<path class="st23" d="M297.1,67.6v23.7c0,3.7,3,6.8,6.7,6.9c1.3,0,2.5-0.3,3.6-1l8.7-4.9c2.1-1.3,3.4-3.5,3.4-6V54.6L297.1,67.6
					z"/>
				<polygon class="st18" points="364.8,28.5 242.1,-42.2 197.2,-42.1 342.2,41.5 				"/>
				<path class="st23" d="M342.3,41.6v23.7c-0.1,3.8,2.9,6.8,6.7,6.9c0,0,0.1,0,0.1,0c1.2,0,2.4-0.3,3.4-0.9l8.7-5
					c2.1-1.3,3.5-3.5,3.5-6V28.6L342.3,41.6z"/>
				<polygon class="st21" points="387.3,15.3 287.1,-42.1 242.1,-42.2 364.8,28.4 				"/>
				<path class="st22" d="M364.8,28.4v18.3c0,5.5,4.5,10,10,10c1.8,0,3.5-0.4,5-1.3l2.4-1.4c3.2-1.8,5.1-5.1,5.1-8.7v-30L364.8,28.4
					z"/>
				<polygon class="st21" points="432.2,-10.5 377.1,-42.1 332.1,-42.1 409.9,2.4 				"/>
				<path class="st22" d="M409.9,2.4v18.2c-0.1,5.5,4.3,9.9,9.8,10c0.1,0,0.2,0,0.3,0c1.7,0,3.4-0.5,4.9-1.3l2.4-1.4
					c3-1.8,4.9-5.1,5-8.6v-30L409.9,2.4z"/>
				<polygon class="st21" points="476.9,-36.4 467.1,-42.1 422.3,-42.1 454.6,-23.6 				"/>
				<path class="st22" d="M454.7-23.6v18.3c-0.1,5.5,4.3,10,9.8,10c1.8,0,3.6-0.5,5.2-1.4l2.4-1.3c3.1-1.8,5-5.1,5-8.7v-29.9
					L454.7-23.6z"/>
				<path class="st22" d="M499.8-42.1l-0.3,13.4c-0.1,5.5,4.3,9.9,9.8,10c0.1,0,0.2,0,0.3,0c1.7,0,3.4-0.5,4.9-1.4l2.4-1.3
					c3.1-1.8,5-5.1,5-8.7v-12H499.8z"/>
				<path class="st23" d="M521.9-42.1c0,7.7,8.3,13,15,9.1l2.4-1.3c2.8-1.6,4.7-4.5,5-7.8H521.9z"/>
				<polygon class="st18" points="409.8,2.3 332.1,-42.1 287.1,-42.1 387.3,15.4 				"/>
				<path class="st23" d="M387.3,15.4V39c0,3.8,3.1,6.9,6.9,6.9c1.2,0,2.4-0.3,3.4-0.9l8.7-5c2.1-1.2,3.4-3.5,3.4-6V2.3L387.3,15.4z
					"/>
				<polygon class="st18" points="454.7,-23.6 422.3,-42.1 377.1,-42.1 432.1,-10.6 				"/>
				<path class="st23" d="M432.1-10.6v23.7c0,3.8,3.1,6.9,6.9,6.9c0,0,0.1,0,0.1,0c1.2,0,2.4-0.3,3.4-0.9l8.7-5
					c2.1-1.3,3.4-3.5,3.5-5.9v-31.8L432.1-10.6z"/>
				<polygon class="st18" points="487.8,-42.1 479.5,-42.1 467.1,-42.1 477.3,-36.1 				"/>
				<path class="st23" d="M477.3-36.1v23.7c0,3.8,3.1,6.9,6.9,6.9l0,0c1.2,0,2.4-0.3,3.5-0.9l8.7-5c2.1-1.3,3.4-3.5,3.4-6v-24.7h-12
					L477.3-36.1z"/>
				<path class="st23" d="M251.9,93.6v23c0,4,3.3,7.3,7.3,7.3c1.3,0,2.6-0.4,3.7-1l7.8-4.5c2.2-1.3,3.6-3.7,3.6-6.3V80.6L251.9,93.6
					z"/>
				<path class="st23" d="M206.8,119.6V142c0,4.2,3.4,7.6,7.6,7.6c0,0,0.1,0,0.1,0c1.3,0,2.6-0.4,3.7-1l7.2-4.1
					c2.3-1.4,3.8-3.9,3.8-6.6v-31.3L206.8,119.6z"/>
				<path class="st23" d="M161.7,145.6v22.8c0,4.1,3.3,7.4,7.4,7.4c0,0,0.1,0,0.1,0c1.3,0,2.5-0.4,3.6-1l7.7-4.4
					c2.3-1.3,3.7-3.8,3.7-6.4v-31.4L161.7,145.6z"/>
				<path class="st23" d="M116.6,171.6v23c0,4,3.3,7.3,7.3,7.3c1.3,0,2.5-0.3,3.6-1l7.9-4.5c2.2-1.3,3.6-3.7,3.6-6.3v-31.5
					L116.6,171.6z"/>
				<path class="st23" d="M71.6,197.6v19.3c0,5.2,4.2,9.4,9.4,9.5c1.7,0,3.3-0.5,4.8-1.3l3.5-2.1c2.9-1.7,4.7-4.8,4.7-8.2v-30.2
					L71.6,197.6z"/>
				<g>
					<defs>
						<polygon id="SVGID_3_" points="258,187.8 257.8,149.7 374.7,82.2 374.8,120.3 						"/>
					</defs>
					<clipPath id="SVGID_4_">
						<use xlink:href="#SVGID_3_"  style="overflow:visible;"/>
					</clipPath>
					<g class="st24">
						<path class="st25" d="M287.5,151.6c0.3-1.4,0.7-2.9,1.1-4.5s0.9-3.1,1.4-4.8s1.1-3.1,1.7-4.7s1.3-3.1,2-4.5
							c2.5-0.9,4.4-1.1,5.7-0.7s2,1.6,2,3.4c0,0.9-0.1,1.8-0.4,2.6c-0.2,0.9-0.5,1.7-1,2.5c-0.4,0.8-0.9,1.6-1.4,2.3l-1.8,2.1
							l-2,1.9l-1.9,1.7l-2.1,0.9l-1.8,1l-0.6,0.4L287.5,151.6 M268.9,179.5c-1.2,0.8-2.5,1.3-3.9,1.6c-1,0.3-2,0.2-2.9-0.1
							c-0.8-0.3-1.5-0.9-1.9-1.7c-0.4-1.1-0.7-2.2-0.7-3.4c0.1-1.8,0.3-3.6,0.8-5.3c0.6-2.2,1.4-4.3,2.4-6.4c1-2.3,2.2-4.5,3.5-6.6
							c1.2-2.1,2.5-4,4-5.9c1.4-1.8,2.8-3.5,4.4-5.1c1.3-1.6,2.8-3.1,4.4-4.4c1.4-1.3,2.9-2.4,4.3-3.5l3.9-2.6l2.4-1.3l2.3-1
							c-0.8,1.6-1.4,3.3-2,4.8c-0.6,1.6-1.2,3.2-1.6,4.8c-0.5,1.5-0.9,3.1-1.3,4.7l-1.2,4.7l-1.5,1.3c-0.3,0.3-0.4,0.7-0.5,1.1
							c0,0.4,0.1,0.6,0.4,0.6c0.3,0,0.6,0,0.8-0.2c-0.8,2.9-2,5.8-3.3,8.5c-1.2,2.4-2.6,4.7-4.1,6.9c-1.3,1.9-2.7,3.6-4.4,5.2
							C271.9,177.5,270.5,178.6,268.9,179.5 M295.3,128.1l-0.5,0.4l-0.5,0.8l-1.3,2.1l-2.7,1.2l-3.1,1.7c-1.4,0.8-2.8,1.7-4.1,2.7
							c-1.5,1.1-3,2.3-4.6,3.7s-3,2.9-4.6,4.5c-1.6,1.7-3.2,3.6-4.6,5.5c-1.4,1.8-2.9,4-4.3,6.2c-1.3,2.3-2.5,4.6-3.6,7
							c-1,2.3-1.9,4.7-2.6,7.1c-0.5,1.9-0.8,3.8-0.9,5.8c-0.1,1.4,0.2,2.8,0.8,4.1c0.5,1,1.3,1.7,2.3,2.1c1.1,0.4,2.3,0.4,3.4,0.2
							c1.6-0.4,3.1-1,4.5-1.8c1.7-1.1,3.3-2.3,4.8-3.7c1.8-1.8,3.5-3.7,4.9-5.8c1.7-2.5,3.2-5,4.5-7.7c1.4-3.1,2.6-6.2,3.6-9.4
							l0.3-0.2l0.5-0.3l2.5-1.5l2.9-2.1c1.3-0.6,2.6-1,4-1.3c1.1-0.2,2.1-0.2,3.2-0.1c0.8,0.1,1.5,0.5,2,1.1
							c0.5,0.7,0.8,1.5,0.8,2.4c0,1-0.3,2.1-0.7,3c-0.5,1.3-1.2,2.4-2,3.5c-1,1.3-2.1,2.5-3.3,3.6c-1.5,1.3-3.2,2.5-5,3.4
							c-1.3,0.8-2.7,1.5-4.1,2c-1.4,0.4-2.8,0.7-4.2,0.9h-0.3c-0.2,0.1-0.3,0.4-0.5,0.6c-0.2,0.2-0.3,0.5-0.3,0.8
							c0,0.4,0.2,0.6,0.5,0.5c1.6-0.1,3.1-0.4,4.6-0.9c1.5-0.6,3-1.3,4.4-2.1l2.7-1.8c1-0.7,1.9-1.5,2.8-2.3l2.7-2.6
							c0.8-1,1.5-2,2.2-3.1c0.6-1,1.1-2.1,1.5-3.2c0.4-1.1,0.5-2.2,0.5-3.4v-1c-0.1-0.4-0.2-0.9-0.4-1.3c-0.2-0.4-0.5-0.8-0.8-1.2
							c-0.4-0.4-0.9-0.7-1.4-0.8c-0.7-0.3-1.4-0.4-2.2-0.4c-1,0-2,0.1-3,0.4c0.9-0.9,1.7-1.8,2.4-2.8c0.8-0.9,1.5-1.9,2.1-3
							c0.6-1,1.1-2.2,1.4-3.3c0.3-1.1,0.5-2.3,0.5-3.5c-0.1-2.2-0.7-3.6-2.1-4.3s-3.4-0.6-6,0.2l0.8-1.4c0.2-0.2,0.3-0.6,0.3-0.9
							c0-0.2,0-0.4-0.2-0.5S295.5,127.9,295.3,128.1"/>
						<path class="st25" d="M309.5,152.8l-0.2-0.9c0-0.3-0.1-0.6-0.1-0.9c0-0.5,0.1-1,0.2-1.5c0-0.5,0.2-1,0.4-1.5
							c0.2-0.9,0.8-1.7,1.5-2.2c0.3-0.2,0.6-0.3,0.8-0.1c0.3,0.3,0.4,0.6,0.4,1c0,0.5-0.1,1-0.3,1.4l-0.6,1.6l-0.9,1.6
							C310.4,151.8,310,152.4,309.5,152.8 M311.3,143.9l-1.5,1.3l-1.2,1.9c-0.3,0.8-0.6,1.6-0.7,2.4c-0.2,0.8-0.2,1.6-0.2,2.4
							c0,0.8,0.1,1.6,0.3,2.3c0.1,0.6,0.5,1.2,0.9,1.6c0.5,0.5,1.1,0.7,1.8,0.7c0.8-0.1,1.6-0.3,2.4-0.7c1.5-1.1,2.9-2.6,3.9-4.2
							c0.5-0.9,1-1.9,1.4-2.9c0-0.2-0.1-0.6-0.1-0.9c0-1.3,0.2-2.5,0.6-3.7c0-0.2,0.1-0.5,0.2-0.7v0.2c-0.2,0.1-0.2,0.3-0.3,0.5
							c-0.3,1-0.6,2-1,2.9c-0.3,1-0.7,1.9-1.3,2.8c-0.4,0.9-0.9,1.7-1.5,2.4c-0.5,0.6-1.1,1.2-1.8,1.7l-1.8,0.6
							c-0.4,0-0.9-0.2-1.2-0.5c0.6-0.6,1.2-1.3,1.6-2c0.5-0.7,0.9-1.4,1.2-2.1c0.4-0.7,0.7-1.4,0.8-2.2c0.3-0.6,0.4-1.3,0.3-2
							c0-0.4,0-0.9-0.2-1.3c-0.1-0.3-0.4-0.5-0.6-0.7h-0.9c-0.4,0-0.7,0.1-1,0.3"/>
						<path class="st25" d="M324.2,136.6c-0.7,0.5-1.4,1.1-2,1.7c-0.7,0.8-1.3,1.6-1.9,2.5c-0.5,0.8-0.9,1.7-1.2,2.6
							c-0.1,0.2-0.2,0.5-0.2,0.7c-0.4,1.2-0.6,2.4-0.6,3.7c0,0.3,0.1,0.7,0.1,0.9l0.2,0.7c0.2,0.4,0.4,0.7,0.7,1
							c0.3,0.2,0.6,0.3,1,0.3c0.5-0.1,1-0.2,1.5-0.5c0.8-0.5,1.5-1.1,2-1.9c0.7-1,1.3-2.1,1.7-3.3c0.2,0.7,0.6,1.2,1.2,1.6
							c0.7,0.3,1.5,0.2,2.1-0.3l1.7-1.4c0.5-0.7,1-1.4,1.4-2.1l1.3-2.3l0.9-2.2c0.2-0.6,0.4-1.2,0.6-1.8l0.4-1
							c-0.1,0.1-0.1,0.4-0.3,0.5l-0.4,0.4h-0.6c-0.2-0.1-0.3-0.4-0.3-0.6v-0.3c-0.2,0.4-0.3,0.9-0.4,1.3l-0.6,1.7l-0.9,1.8l-0.9,1.8
							l-0.9,1.3c-0.3,0.4-0.7,0.7-1.1,0.9c-0.5,0.3-0.9,0.4-1.2,0.2c-0.3-0.3-0.5-0.7-0.7-1.1l-0.3-1.5v-1.3c0-0.2-0.1-0.3-0.3-0.4
							c-0.1-0.2-0.3-0.2-0.5,0l-0.6,0.5c-0.1,0.2-0.2,0.5-0.2,0.8c-0.2,0.8-0.3,1.6-0.5,2.4l-0.9,2.1l-0.9,1.5
							c-0.2,0.3-0.6,0.5-0.9,0.7c-0.3,0.2-0.6,0.3-0.9,0.3c-0.2,0-0.5-0.1-0.6-0.3l-0.3-0.6v-1c0-0.9,0.1-1.9,0.3-2.8
							c0.3-0.8,0.6-1.6,1.1-2.4c0.4-0.7,0.8-1.3,1.3-1.8c0.4-0.5,0.9-0.9,1.5-1.2c0.2-0.2,0.4-0.2,0.7-0.3l0.6-0.2h0.6
							c0.2,0.1,0.4,0.1,0.6,0l0.5-0.6c0.2-0.2,0.3-0.5,0.3-0.8c0-0.2-0.1-0.4-0.3-0.5l-0.2-0.2h-1.6l-1.2,0.6"/>
						<path class="st25" d="M337.1,128.4c-0.8,0.6-1.4,1.4-1.7,2.3c-0.7,1.6-1.3,3.2-1.8,4.9v0.3c0,0.2,0.1,0.5,0.3,0.6h0.6l0.4-0.4
							c0.2-0.1,0.2-0.4,0.3-0.5l0,0c0.3-1.3,0.8-2.5,1.3-3.7c0.2-0.5,0.4-0.9,0.7-1.3c0.1,0.2,0.1,0.4,0.1,0.6
							c0,0.3,0.1,0.7,0.1,1.1s-0.1,0.7-0.1,1.2s-0.1,1-0.1,1.6c0,0.5,0,1.1-0.1,1.6c0,0.5-0.1,1.1-0.2,1.6v1.3c0,0.2,0,0.4-0.1,0.6
							c0,0.2,0.1,0.9,0.4,1s0.6,0.1,1-0.1c0.3-0.2,0.6-0.5,0.8-0.9c0.4-0.6,0.7-1.2,0.9-1.8c0.2-0.6,0.4-1.2,0.6-1.8
							c0.3-0.6,0.5-1.4,0.8-2.1l0.9-2.4l1-2.2c0.3-0.5,0.6-1.1,0.9-1.7c0.2-0.4,0.5-0.7,0.8-0.9h0.4c0.2,0.2,0.3,0.6,0.2,0.9
							c-0.1,0.7-0.1,1.4-0.1,2.1c0,0.3-0.1,0.7-0.1,1v0.8c0,0.6,0,1.1,0.1,1.7c0.1,0.5,0.2,0.9,0.5,1.3c0.2,0.3,0.5,0.5,0.9,0.6
							c0.6,0,1.1-0.2,1.6-0.5c0.6-0.4,1.1-0.9,1.5-1.4c0.6-0.7,1.1-1.4,1.5-2.1c0.5-0.7,0.9-1.5,1.2-2.3c0.2-0.4,0.4-0.9,0.6-1.3
							v-3.9c0.1-1,0,0.2-0.1,0.3l-0.7,2c-0.3,0.9-0.7,1.8-1.1,2.7l-1.4,2.5c-0.4,0.7-0.9,1.2-1.6,1.6l-0.8,0.3
							c-0.2-0.1-0.3-0.3-0.3-0.5c-0.2-0.1-0.2-0.4-0.3-0.7v-2.2c0-0.4,0-0.7,0.1-1.1v-0.9c0.1-0.3,0.1-0.6,0.1-0.9
							c0-0.7-0.1-1.3-0.5-1.9c-0.4-0.5-0.9-0.5-1.7,0l-1.2,1c-0.5,0.6-0.9,1.3-1.2,2c-0.5,0.8-0.9,1.6-1.2,2.5l-1.1,2.6l-0.9,2.5
							l-0.8,2.2c0-0.4,0.1-1,0.1-1.8s0.1-1.5,0.1-2.2s0.2-1.4,0.2-2.1c0.1-0.5,0.1-0.9,0.1-1.4c0-0.3-0.1-0.7-0.2-1
							c0-0.3-0.1-0.6-0.3-0.9c0-0.2-0.3-0.4-0.5-0.4c-0.3-0.1-0.6,0-0.8,0.1"/>
						<path class="st25" d="M354.3,118.5c-0.5,0.3-0.8,0.8-0.9,1.3c-0.1,1.4-0.3,2.9-0.3,4.3v3.9l0.2,1.2c0.1,0.5,0.4,1,0.7,1.4
							c0.4,0.3,0.8,0.5,1.3,0.5c0.6,0,1.2-0.2,1.7-0.5c0.5-0.4,1-0.8,1.4-1.3l1.4-1.8c0.4-0.7,0.8-1.5,1.2-2.3l1.1-2.2l0.3-0.8
							c-0.1-0.6-0.2-1.3-0.2-1.9c0-0.5,0-1.1,0.1-1.6l-0.2,0.3c-0.3,1.2-0.7,2.4-1.2,3.5c-0.4,1-0.9,2-1.4,2.9
							c-0.4,0.7-0.8,1.5-1.3,2.1c-0.3,0.5-0.7,0.9-1.2,1.2l-0.8,0.3c-0.2,0.1-0.5,0-0.7-0.1c-0.3-0.2-0.6-0.5-0.6-0.9
							c-0.2-0.6-0.3-1.3-0.3-2c0-0.6,0.1-1.3,0.1-2.1c0-0.7,0.1-1.5,0.2-2.2v-1.8c0.1-0.3,0.1-0.6,0.1-0.9c0-0.3-0.1-0.5-0.2-0.5
							S354.5,118.3,354.3,118.5 M354.5,112.7H354c-0.1-0.2-0.2-0.4-0.2-0.6c0-0.2,0.1-0.4,0.2-0.6c0.1-0.3,0.3-0.5,0.5-0.6h0.5
							c0.2,0,0.2,0.3,0.2,0.4c0,0.3,0,0.6-0.2,0.8l-0.5,0.5 M354.5,109.5l-0.8,0.6l-0.6,0.8c-0.1,0.3-0.2,0.7-0.3,1
							c-0.2,0.3-0.2,0.7-0.2,1c0,0.5,0.1,0.9,0.5,1.2c0.5,0.2,1,0.2,1.4-0.1c0.6-0.4,1.1-0.9,1.4-1.5c0.4-0.6,0.5-1.2,0.5-1.9
							c0.1-0.2,0-0.5-0.1-0.7c-0.1-0.2-0.2-0.4-0.4-0.5c-0.2-0.1-0.5-0.2-0.7-0.1L354.5,109.5"/>
						<path class="st25" d="M364.1,121.2l-0.2-0.8c0-0.3-0.1-0.6-0.1-0.9s0.1-1,0.1-1.5s0.3-1,0.4-1.5l0.6-1.3
							c0.3-0.4,0.6-0.7,1-0.9c0.2-0.2,0.5-0.2,0.7-0.1c0.3,0.2,0.5,0.6,0.4,1c0,0.5-0.1,0.9-0.2,1.4l-0.6,1.6
							c-0.2,0.5-0.5,1-0.9,1.5L364.1,121.2 M365.9,112.5c-0.6,0.3-1.1,0.7-1.5,1.2c-0.5,0.6-0.9,1.3-1.2,2c-0.3,0.7-0.5,1.5-0.8,2.2
							c0,0.3,0,0.5-0.1,0.8c-0.1,0.5-0.1,1.1-0.1,1.6c0,0.6,0.1,1.3,0.2,1.9c0,0.2,0.1,0.3,0.1,0.5c0.2,0.6,0.5,1.2,1,1.7
							c0.5,0.4,1.1,0.6,1.7,0.6c0.9,0,1.7-0.3,2.4-0.8c1.6-1.1,3-2.5,3.9-4.2c1.4-2.3,2.5-4.8,3.2-7.4v-0.4c0-0.2-0.1-0.4-0.2-0.6
							h-0.6l-0.5,0.4l-0.3,0.5l-0.9,2.9c-0.4,1-0.8,1.9-1.3,2.8c-0.4,0.8-0.9,1.6-1.5,2.4c-0.5,0.7-1.2,1.2-1.9,1.7
							c-0.5,0.3-1.1,0.5-1.7,0.6c-0.5,0-0.9-0.2-1.2-0.6c0.6-0.6,1.1-1.2,1.6-1.9l1.2-2.1c0.3-0.7,0.6-1.4,0.8-2.1
							c0.2-0.7,0.3-1.4,0.3-2.1c0-0.4-0.1-0.8-0.2-1.2c-0.1-0.3-0.3-0.6-0.6-0.8h-0.9C366.4,112.1,366.1,112.3,365.9,112.5"/>
					</g>
				</g>
				<g>
					<defs>
						<polygon id="SVGID_5_" points="280.6,201.4 280.6,186.7 367.7,136.5 367.8,151.1 						"/>
					</defs>
					<clipPath id="SVGID_6_">
						<use xlink:href="#SVGID_5_"  style="overflow:visible;"/>
					</clipPath>
					<g class="st26">
						<path class="st25" d="M283.9,185.3l-1.4,1.1l-1,1.7c-0.3,0.6-0.6,1.4-0.6,2.1c-0.2,0.9-0.3,1.7-0.3,2.6c0,0.8,0.1,1.7,0.3,2.5
							c0,0.5,0.3,1,0.6,1.4c0.3,0.3,0.7,0.4,1.1,0.3c0.5,0,0.9-0.2,1.3-0.4c0.7-0.4,1.3-0.9,1.7-1.6c0.4-0.7,0.8-1.4,1-2.2h-0.3
							c-0.2,0.7-0.5,1.4-0.9,2c-0.3,0.6-0.9,1-1.5,1.3c-0.9,0.6-1.7,0.7-2.1,0.2c-0.7-0.9-1-2.1-0.9-3.2v-1c0-1.4,0.3-2.8,0.8-4.1
							c0.5-1,1.3-1.9,2.2-2.5c0.5-0.2,1-0.3,1.5-0.3c0.4,0.2,0.8,0.5,0.9,1l0.3-0.3c-0.2-0.4-0.6-0.8-1-1
							C285,184.8,284.4,184.9,283.9,185.3"/>
						<path class="st25" d="M291.7,191.8c-0.8,0.4-1.4,0.5-1.8,0.1c-0.6-0.6-0.8-1.4-0.7-2.2v-0.8c0-1,0.2-2,0.7-2.9
							c0.3-0.9,1-1.6,1.8-2c0.9-0.5,1.5-0.6,1.9-0.2c0.5,0.6,0.8,1.4,0.7,2.2v0.7c0,1-0.2,2.1-0.7,3
							C293.2,190.6,292.6,191.3,291.7,191.8 M291.7,183.7c-0.9,0.5-1.6,1.3-2.1,2.2c-0.5,1.1-0.8,2.4-0.7,3.6c0,1.4,0.2,2.3,0.7,2.7
							s1.2,0.4,2.1-0.1c0.9-0.6,1.6-1.4,2.1-2.3c0.6-1.1,0.9-2.3,0.8-3.6c0.1-1-0.2-2-0.8-2.7C293.4,183.1,292.6,183.1,291.7,183.7"
							/>
						<path class="st25" d="M303,173.8l-2.9,1.8c-0.3,0-0.5,0.3-0.5,0.6v3l-2.7,1.6v0.3l2.7-1.6v7.5l-2.6,1.5v0.3l5.6-3.3v-0.3
							l-2.7,1.6v-7.4l3-1.7v-0.3l-3,1.7v-3.2l3-1.8v-0.3"/>
						<path class="st25" d="M311.1,169.2l-2.9,1.7c-0.2,0.2-0.4,0.4-0.4,0.7v3l-2.8,1.6v0.3l2.8-1.6v7.4l-2.6,1.5v0.3l5.6-3.2v-0.3
							l-2.7,1.6v-7.5l3.1-1.8v-0.3l-3.1,1.8v-3.2l3.1-1.7L311.1,169.2"/>
						<path class="st25" d="M313.6,174.9L313.6,174.9c0-1,0.2-2.1,0.6-3c0.4-0.8,1.1-1.5,1.9-2c0.8-0.5,1.5-0.6,1.9-0.2
							c0.5,0.7,0.7,1.5,0.6,2.3l0,0L313.6,174.9 M316.1,169.5c-0.9,0.5-1.7,1.3-2.1,2.3c-0.5,1.1-0.8,2.3-0.7,3.5
							c0,1.5,0.2,2.4,0.7,2.7s1.2,0.4,2.2-0.1c0.7-0.4,1.3-0.9,1.7-1.6c0.5-0.6,0.8-1.3,0.9-2.1h-0.2c-0.1,0.7-0.5,1.4-1,2
							c-0.4,0.5-0.9,0.9-1.4,1.3c-0.9,0.5-1.5,0.5-1.9,0.2c-0.6-0.6-0.8-1.4-0.7-2.2V175l5.3-3l0,0c0-0.6-0.1-1.1-0.1-1.6
							c-0.1-0.4-0.3-0.7-0.6-1c-0.3-0.2-0.6-0.3-0.9-0.3C316.9,169.1,316.5,169.3,316.1,169.5"/>
						<path class="st25" d="M321.7,170.2L321.7,170.2c0-1,0.2-2,0.7-2.9c0.3-0.9,1-1.6,1.8-2c0.9-0.5,1.5-0.5,1.9-0.2
							s0.6,1.2,0.6,2.2l0,0L321.7,170.2 M324.2,164.9c-0.9,0.5-1.7,1.3-2.1,2.3c-0.5,1.1-0.8,2.4-0.7,3.6c-0.1,1,0.1,1.9,0.7,2.7
							c0.6,0.4,1.2,0.3,2.2-0.3c0.7-0.4,1.3-0.9,1.7-1.5c0.4-0.6,0.7-1.4,0.9-2.1h-0.2c-0.2,0.7-0.5,1.4-0.9,2.1
							c-0.5,0.5-1,0.9-1.5,1.3c-0.9,0.5-1.5,0.5-1.9,0.2c-0.6-0.6-0.8-1.5-0.7-2.3v-0.4l5.3-3v-0.2c0-0.5,0-1.1-0.1-1.6
							c-0.1-0.3-0.3-0.6-0.6-0.9c-0.2-0.2-0.6-0.3-0.9-0.3C325,164.5,324.6,164.7,324.2,164.9"/>
						<path class="st25" d="M340.4,152.8c-0.4,0.2-0.9,0.5-1.2,0.8c-0.4,0.3-0.7,0.6-0.9,1c-0.3,0.4-0.5,0.8-0.6,1.2
							c-0.2,0.4-0.3,0.9-0.3,1.4c0,0.3,0.1,0.5,0.2,0.8c0,0.3,0.1,0.5,0.4,0.6c0.2,0.2,0.4,0.2,0.7,0.2c0.4,0,0.8-0.1,1.2-0.3
							l1.1-0.3l0.8-0.3h0.8c0.2,0.1,0.3,0.3,0.4,0.5c0.2,0.3,0.2,0.7,0.2,1c0,0.9-0.2,1.7-0.7,2.4c-0.5,0.7-1.2,1.3-2,1.8l-1,0.5
							h-0.9c-0.2,0-0.4,0-0.6-0.2l-0.5-0.4l-0.2,0.4c0.1,0.2,0.3,0.3,0.5,0.4h1.6l1.1-0.5c0.9-0.5,1.6-1.2,2.2-2
							c0.5-0.8,0.8-1.7,0.8-2.7c0-0.3,0-0.5-0.1-0.8c0-0.2-0.2-0.5-0.4-0.6c-0.2-0.3-0.4-0.3-0.7-0.3c-0.4,0-0.9,0.1-1.3,0.3
							l-1.1,0.4l-0.8,0.2h-0.7c-0.2,0-0.4-0.2-0.4-0.4v0c-0.2-0.3-0.3-0.6-0.3-1c0-0.8,0.3-1.5,0.7-2.2c0.5-0.7,1.2-1.3,2-1.7
							c0.5-0.3,1-0.5,1.6-0.6c0.4,0,0.8,0.2,1.1,0.5l0.2-0.4c-0.2-0.3-0.6-0.5-1-0.5c-0.7,0.1-1.3,0.3-1.9,0.7"/>
						<path class="st25" d="M346.5,148.8h-0.3v11.5h0.3v-5.8c0-0.4,0-0.8,0.2-1.1c0.1-0.3,0.2-0.6,0.4-0.9l0.7-0.8l0.8-0.6
							c0.5-0.4,1.1-0.4,1.6-0.2c0.5,0.5,0.6,1.2,0.5,1.8v5.1l0.3-0.2v-5.1c0-1-0.2-1.7-0.6-1.9s-0.9-0.2-1.8,0.2
							c-0.5,0.4-1,0.8-1.4,1.3c-0.3,0.4-0.5,0.8-0.7,1.3l0,0V148.8"/>
						<path class="st25" d="M356.7,154.3c-0.9,0.5-1.5,0.5-1.9,0.1s-0.7-1-0.7-2.2v-0.7c0-1,0.2-2,0.7-2.9c0.4-0.9,1-1.6,1.9-2.1
							c0.8-0.5,1.4-0.5,1.8-0.1s0.7,1,0.7,2.2v0.7c0,1-0.2,2-0.7,2.9C358.2,153.1,357.5,153.8,356.7,154.3 M356.7,146.2
							c-0.9,0.5-1.7,1.3-2.1,2.3c-0.6,1.1-0.9,2.3-0.8,3.5c0,1.4,0.2,2.3,0.8,2.8s1.2,0.3,2.1-0.2c0.9-0.6,1.6-1.4,2.1-2.3
							c0.5-1.1,0.8-2.3,0.7-3.5c0.1-1-0.2-2-0.7-2.8C358.3,145.5,357.6,145.7,356.7,146.2"/>
						<path class="st25" d="M364.9,149.5c-0.2,0.2-0.5,0.3-0.8,0.3h-0.8l-0.4-0.3c-0.2-0.2-0.2-0.5-0.2-0.8v-3.6c0-0.3,0-0.7,0.2-1
							c0.1-0.3,0.2-0.6,0.4-0.9l0.8-0.8c0.2-0.3,0.5-0.5,0.8-0.7c0.8-0.4,1.4-0.5,1.9-0.1c0.5,0.6,0.7,1.4,0.7,2.2v0.8
							c0,1-0.3,2-0.7,2.9C366.4,148.3,365.7,149,364.9,149.5 M364.9,141.4l-0.8,0.6l-0.6,0.7c-0.2,0.2-0.4,0.4-0.5,0.7l-0.3,0.6l0,0
							v-1.2l-0.3,0.2v11.1h0.3v-4.4l0,0l0.3,0.4h1.1c0.3,0,0.6-0.1,0.8-0.3c0.9-0.5,1.6-1.3,2.1-2.2c0.5-1.1,0.8-2.4,0.8-3.6
							c0-1.5-0.3-2.4-0.8-2.7S365.8,140.9,364.9,141.4"/>
					</g>
				</g>
				<path class="st8" d="M541.1,231.1c0,4.9,6.4,9,14.2,9c7.8,0,14.2-4.1,14.2-9s15-34.1,7.2-34.1c-3.9,0-42.9,1.2-45.4,2.8
					S541.1,228.6,541.1,231.1z"/>
				<ellipse class="st9" cx="555.3" cy="199.8" rx="24" ry="15.2"/>
				<ellipse class="st10" cx="555.3" cy="199.8" rx="19.2" ry="12.2"/>
				<path class="st11" d="M553.4,203c0,0,0,1.6,2,1.6s1.8-1.6,1.8-1.6l-0.6-57.3l-1.5-1.4L553.4,203z"/>
				<path class="st12" d="M546.2,151.3c-0.4,8.2-4.9,11.6-25,13.3c0,0-1.2-13.5,7.8-20.3s11.7,1.6,11.7,1.6S546.4,146.7,546.2,151.3
					z"/>
				<path class="st13" d="M540.7,145.9c0,0-16.6,1.2-19.7,18.7c0,0-0.2-13.9,8.4-20.4C529.4,144.2,536.5,138,540.7,145.9z"/>
				<path class="st14" d="M545.2,128.7c0.6,5-1.8,7.5-13.7,10.7c0,0-2.1-8,2.6-13.1s7.2-0.3,7.2-0.3S544.9,126,545.2,128.7z"/>
				<path class="st15" d="M541.3,126c0,0-9.9,2.5-9.9,13.4c0,0-1.6-8.3,2.9-13.1C534.3,126.3,538,121.7,541.3,126z"/>
				<path class="st11" d="M554.3,190.7c-0.7-2.3-1.5-4.6-2.3-7c-0.8-2.2-1.7-4.4-2.8-6.5c-1-2-2.5-3.8-4.3-5.2c-1-0.6-2-1-3.1-1.2
					c-1.2-0.1-2.4,0-3.6,0.1c1.1-0.7,2.3-1,3.6-1.1c1.3-0.2,2.7,0.1,3.9,0.7c1.2,0.6,2.3,1.4,3.2,2.4c0.9,1,1.7,2.1,2.3,3.3
					c1.2,2.2,2.1,4.6,2.5,7.1C554.3,185.7,554.5,188.2,554.3,190.7z"/>
				<path class="st11" d="M555.3,178.4c-0.1-2.5,0.1-5,0.6-7.5c0.5-2.5,1.3-4.9,2.5-7.1c0.6-1.2,1.4-2.3,2.3-3.2
					c0.9-1,1.9-1.8,3.1-2.4c1.2-0.6,2.6-0.9,4-0.8c1.3,0.2,2.5,0.5,3.6,1.1h-3.6c-1.1,0.2-2.2,0.6-3.1,1.2c-1.8,1.4-3.3,3.1-4.3,5.1
					c-1.1,2.1-2.1,4.3-2.9,6.6C556.8,173.7,556,176,555.3,178.4z"/>
				<path class="st11" d="M555.3,152.1c-0.1-2.5,0.1-5,0.6-7.5c0.5-2.5,1.3-4.9,2.5-7.2c0.6-1.1,1.4-2.2,2.3-3.1
					c0.9-1,1.9-1.8,3.1-2.4c1.2-0.6,2.6-0.9,4-0.8c1.3,0.1,2.5,0.5,3.6,1.1h-3.6c-1.1,0.1-2.2,0.6-3.1,1.2c-1.8,1.3-3.3,3.1-4.3,5.2
					c-1.1,2.1-2.1,4.3-2.9,6.5L555.3,152.1z"/>
				<path class="st11" d="M555.4,168.2l-2.6-7.5c-0.9-2.4-1.9-4.7-3.1-7c-1.1-2.2-2.6-4.2-4.5-5.8c-0.9-0.8-2-1.3-3.2-1.5
					c-1.2-0.3-2.5-0.3-3.8-0.1c1.2-0.6,2.5-1,3.9-1.1c1.4,0.1,2.9,0.5,4.1,1.2c1.2,0.7,2.3,1.7,3.2,2.8c0.9,1.1,1.7,2.2,2.4,3.4
					C554.2,157.5,555.4,162.8,555.4,168.2L555.4,168.2z"/>
				<path class="st11" d="M556.3,150.1c-0.6-2.5-1.2-5-1.9-7.4c-0.7-2.3-1.5-4.6-2.6-6.8c-1-2.1-2.6-3.8-4.5-5.1
					c-1.1-0.5-2.2-0.8-3.4-0.9c-1.2,0-2.5,0.1-3.7,0.3c1.1-0.7,2.4-1.2,3.7-1.4c1.4-0.2,2.7,0,4,0.5c1.3,0.4,2.5,1.2,3.5,2.2
					c0.9,1.1,1.7,2.2,2.4,3.4c1.2,2.3,1.9,4.8,2.3,7.4C556.5,144.9,556.6,147.5,556.3,150.1z"/>
				<path class="st16" d="M547.5,175.6c3.2,10.1-0.8,16.2-24.5,27.4c0,0-7.6-16,0.4-28.3s15-3.3,15-3.3S545.7,169.9,547.5,175.6z"/>
				<path class="st13" d="M538.4,171.4c0,0-19.7,9-15.7,31.7c0,0-6.4-16.8,1.1-28.6C523.8,174.5,529.7,163.6,538.4,171.4z"/>
				<path class="st16" d="M561.9,135.5c0.4,7.1,4.3,10,21.9,11.2c0,0,0.8-11.8-7.1-17.6c-7.9-5.8-10.2,1.6-10.2,1.6
					S561.6,131.5,561.9,135.5z"/>
				<path class="st13" d="M566.5,130.7c0,0,14.5,0.8,17.5,16c0,0,0-12-7.6-17.6C576.4,129.1,570.1,123.7,566.5,130.7z"/>
				<path class="st14" d="M561,164.3c-0.5,10.9,5.1,15.8,31.4,20.6c0,0,3.2-17.7-7.8-27.7s-15.7,0.7-15.7,0.7S561.3,158.2,561,164.3
					z"/>
				<path class="st15" d="M568.9,157.9c0,0,21.7,3.6,23.8,27c0,0,1.8-18.3-8.6-27.9C584.1,157,575.4,147.9,568.9,157.9z"/>
				<path class="st11" d="M555.7,172.4c1.5,0.8,2.8,1.8,3.9,3.1c1.2,1.2,2.1,2.6,2.9,4.1c0.4,0.7,0.7,1.5,1,2.3l0.6,2.4
					c0.3,1.7,0.3,3.3,0,5c-0.7-1.6-1.1-3.1-1.8-4.5c-0.2-0.7-0.5-1.4-0.9-2.1c-0.3-0.8-0.6-1.4-0.9-2.1s-1.5-2.7-2.3-4.1
					C557.4,175.1,556.6,173.8,555.7,172.4z"/>
				<path class="st12" d="M555.4,186.8c-3.1,7.6-0.5,12.6,17,22.7c0,0,6.8-11.8,1.6-21.7c-5.2-9.9-11.4-3.5-11.4-3.5
					S557.2,182.5,555.4,186.8z"/>
				<path class="st13" d="M562.6,184.3c0,0,14.6,8.1,10,25.3c0,0,6-12.5,1.1-22C573.7,187.6,569.8,178.9,562.6,184.3z"/>
			</g>
		</g>
	</g>
</g>
</svg>
