<?xml version="1.0" encoding="utf-8"?>
<!-- Generator: Adobe Illustrator 23.0.3, SVG Export Plug-In . SVG Version: 6.00 Build 0)  -->
<svg version="1.1" id="Layer_1" xmlns="http://www.w3.org/2000/svg" xmlns:xlink="http://www.w3.org/1999/xlink" x="0px" y="0px"
	 viewBox="0 0 575.3 431.4" style="enable-background:new 0 0 575.3 431.4;" xml:space="preserve">
<style type="text/css">
	.st0{clip-path:url(#SVGID_2_);}
	.st1{fill:#009C98;}
	.st2{fill:#20D5D2;}
	.st3{fill:#666666;}
	.st4{fill:#B3B3B3;}
	.st5{fill:#CCCCCC;}
	.st6{fill:#808080;}
	.st7{fill:#00BAB6;}
	.st8{fill:#1E5DE3;}
	.st9{fill:#408BFC;}
	.st10{fill:#92EEEE;}
	.st11{fill:#061F80;}
	.st12{opacity:0.34;fill:#B3B3B3;enable-background:new    ;}
	.st13{fill:#999999;}
	.st14{fill:#1A1A1A;}
	.st15{fill:#E6E6E6;}
	.st16{fill:#FFFFFF;}
	.st17{fill:url(#SVGID_3_);}
	.st18{fill:url(#SVGID_4_);}
	.st19{fill:url(#SVGID_5_);}
	.st20{fill:url(#SVGID_6_);}
	.st21{opacity:0.8;}
	.st22{fill:#DBFBFB;}
	.st23{fill:url(#SVGID_7_);}
	.st24{fill:#054ADA;}
	.st25{fill:#DCDCDC;}
	.st26{fill:#ABABAB;}
	.st27{fill:#4D4D4D;}
	.st28{fill:url(#SVGID_8_);}
	.st29{opacity:0.17;fill:#FF9E4B;enable-background:new    ;}
	.st30{opacity:0.48;fill:#333333;enable-background:new    ;}
	.st31{fill:#F2F2F2;}
	.st32{fill:#0062FF;}
	.st33{fill:url(#SVGID_9_);}
	.st34{fill:url(#SVGID_10_);}
	.st35{fill:url(#SVGID_11_);}
	.st36{fill:url(#SVGID_12_);}
	.st37{fill:url(#SVGID_13_);}
	.st38{fill:#B9BFC7;}
	.st39{fill:#051243;}
	.st40{fill:#000E24;}
	.st41{fill:url(#SVGID_14_);}
	.st42{fill:#F9F9F9;}
</style>
<title>Outside_coffee_thrid_transition</title>
<g>
	<g id="Layer_2-2">
		<g>
			<defs>
				<polygon id="SVGID_1_" points="-35.7,-7.9 260.3,-7.9 260.1,250.2 -36.2,250.2 				"/>
			</defs>
			<clipPath id="SVGID_2_">
				<use xlink:href="#SVGID_1_"  style="overflow:visible;"/>
			</clipPath>
			<g class="st0">
				<path class="st1" d="M56.4,188.1h-0.2l-43.1-25L61,136.3h0.2l42,24.2L56.4,188.1z M14.7,163.1l41.7,24.1l45.2-26.6L61,137.2
					L14.7,163.1z"/>
				<rect x="77.7" y="127.2" transform="matrix(0.5 -0.866 0.866 0.5 -91.7439 143.2014)" class="st1" width="0.8" height="47.8"/>
				<rect x="72.9" y="129.7" transform="matrix(0.5 -0.866 0.866 0.5 -96.3825 140.3161)" class="st1" width="0.8" height="47.8"/>
				<rect x="68.6" y="132.6" transform="matrix(0.5 -0.866 0.866 0.5 -101.0406 137.9608)" class="st1" width="0.8" height="47.8"/>
				<rect x="63.2" y="135.5" transform="matrix(0.5 -0.866 0.866 0.5 -106.2559 134.8075)" class="st1" width="0.8" height="47.8"/>
				
					<rect x="58.3" y="138.4" transform="matrix(0.4983 -0.867 0.867 0.4983 -111.4894 132.4226)" class="st1" width="0.8" height="48.3"/>
				
					<rect x="52.5" y="142.4" transform="matrix(0.5015 -0.8652 0.8652 0.5015 -117.5754 128.754)" class="st1" width="0.8" height="48.1"/>
				
					<rect x="47.5" y="145.1" transform="matrix(0.5015 -0.8652 0.8652 0.5015 -122.4721 125.7154)" class="st1" width="0.8" height="48.1"/>
				
					<rect x="42.5" y="148.4" transform="matrix(0.5015 -0.8652 0.8652 0.5015 -127.8157 123.1026)" class="st1" width="0.8" height="48.1"/>
				<path class="st2" d="M184.3,160.1c-1,0-2-0.3-2.9-0.8c-1.8-1-2.9-2.9-2.8-4.9l2.2-50.8l33.5-20.2l12.8,48.1
					c0.6,2.4-0.4,5-2.6,6.3l-37.4,21.5C186.2,159.8,185.3,160.1,184.3,160.1z M182.4,104.5l-2.2,49.9c0,1.4,0.8,2.8,2,3.5
					c1.2,0.8,2.9,0.8,4.1,0l37.4-21.5c1.6-0.9,2.3-2.7,1.9-4.5L213.3,86L182.4,104.5z"/>
				<path class="st2" d="M141,135.3c-3.1-0.1-5.6-2.6-5.6-5.7l2.1-51.9l33.6-19.1l12.8,48c0.7,2.4-0.4,5-2.6,6.3l-37.5,21.6
					C143,135,142,135.3,141,135.3z M139.1,78.6l-2.1,51c0.1,2.3,1.9,4.1,4.2,4c0,0,0,0,0,0c0.6,0,1.3-0.2,1.9-0.4l37.4-21.7
					c1.5-0.9,2.3-2.7,1.9-4.5l-12.3-46L139.1,78.6z"/>
				<path class="st2" d="M217.2,82.9l-43.3-25V10.4C174,4.7,178.6,0.1,184.3,0c1.8,0,3.6,0.5,5.2,1.4L212,14.3
					c3.2,1.9,5.2,5.4,5.2,9.1V82.9z M174.7,57.4l41.8,24.1V23.4c-0.1-3.5-1.9-6.6-4.9-8.4L189.1,2.1c-2.9-1.8-6.7-1.8-9.6,0
					c-3,1.7-4.8,4.9-4.8,8.3V57.4z"/>
				
					<rect x="198.3" y="-9.3" transform="matrix(0.4985 -0.8669 0.8669 0.4985 89.1963 178.3134)" class="st2" width="0.8" height="42.7"/>
				<rect x="196.3" y="-6.4" transform="matrix(0.5 -0.866 0.866 0.5 83.539 178.8591)" class="st2" width="0.8" height="46.9"/>
				
					<rect x="194.7" y="-2.7" transform="matrix(0.4985 -0.8669 0.8669 0.4985 78.9771 180.0061)" class="st2" width="0.8" height="48.8"/>
				<rect x="195.2" y="3.6" transform="matrix(0.5 -0.866 0.866 0.5 73.5418 183.3938)" class="st2" width="0.8" height="48.8"/>
				<rect x="195.4" y="10" transform="matrix(0.5 -0.866 0.866 0.5 68.0974 186.7173)" class="st2" width="0.8" height="48.8"/>
				<rect x="195.3" y="16.9" transform="matrix(0.5 -0.866 0.866 0.5 62.1029 190.1345)" class="st2" width="0.8" height="48.8"/>
				
					<rect x="195.5" y="22.4" transform="matrix(0.4983 -0.867 0.867 0.4983 57.5138 193.4634)" class="st2" width="0.8" height="49.3"/>
				<rect x="195.4" y="29.4" transform="matrix(0.5 -0.866 0.866 0.5 51.1103 196.5699)" class="st2" width="0.8" height="49.2"/>
				<rect x="195.4" y="35.6" transform="matrix(0.5 -0.866 0.866 0.5 45.7756 199.6299)" class="st2" width="0.8" height="49.2"/>
				<rect x="195.1" y="41" transform="matrix(0.5 -0.866 0.866 0.5 40.9606 202.1364)" class="st2" width="0.8" height="49.2"/>
				<path class="st1" d="M169.3,111h-0.2l-44.4-25.7L174,57.7h0.2l43.1,25L169.3,111z M126.3,85.3l43,24.7l46.4-27.3L174,58.6
					L126.3,85.3z"/>
				<rect x="191.2" y="48.2" transform="matrix(0.5 -0.866 0.866 0.5 32.774 202.285)" class="st1" width="0.8" height="49.2"/>
				
					<rect x="186.5" y="50.1" transform="matrix(0.4983 -0.867 0.867 0.4983 28.9819 199.5915)" class="st1" width="0.8" height="49.3"/>
				<rect x="181.8" y="54" transform="matrix(0.5 -0.866 0.866 0.5 23.0273 197.0845)" class="st1" width="0.8" height="49.2"/>
				<rect x="176.5" y="57" transform="matrix(0.5 -0.866 0.866 0.5 17.812 193.9312)" class="st1" width="0.8" height="49.2"/>
				
					<rect x="170.6" y="59.5" transform="matrix(0.4983 -0.867 0.867 0.4983 12.6811 190.6003)" class="st1" width="0.8" height="49.6"/>
				
					<rect x="165.4" y="63.9" transform="matrix(0.5015 -0.8652 0.8652 0.5015 6.0129 187.6258)" class="st1" width="0.8" height="49.4"/>
				
					<rect x="160.3" y="65.6" transform="matrix(0.4983 -0.867 0.867 0.4983 2.2322 184.6995)" class="st1" width="0.8" height="49.6"/>
				
					<rect x="155.3" y="68.9" transform="matrix(0.4983 -0.867 0.867 0.4983 -3.1159 181.9775)" class="st1" width="0.8" height="49.6"/>
				<ellipse class="st3" cx="132.6" cy="196.6" rx="27.9" ry="17.6"/>
				<ellipse class="st4" cx="132.6" cy="194.3" rx="27.9" ry="17.6"/>
				<path class="st5" d="M132.3,196.7c-1.8,0-3.2-1.4-3.2-3.2V87.4c0-1.8,1.4-3.2,3.2-3.2s3.2,1.4,3.2,3.2c0,0,0,0,0,0l0,0v106.1
					C135.4,195.2,134,196.6,132.3,196.7z"/>
				<polygon class="st6" points="234.3,107.4 234.3,98.8 117.2,43.5 0,98.8 0,107.4 117.2,171.9 				"/>
				<polygon class="st5" points="234.3,98.8 117.2,34.4 0,98.8 117.2,163.2 				"/>
				<path class="st2" d="M130.3,72.4c0.4-0.5,1-0.7,1.6-0.6c1,0.3,3.3,0.2,3.8-1s-0.5-1.2,0.4-2.1s2.1-0.1,2.5-0.3
					c0.6-0.5,1-1.3,1.1-2.1c0.2-1,1.3-2.3,2.1-2.2s2.9-0.8,2.9-2s-1.1-3.1,0.6-4.9s3.1-1,3.9-2.2s-0.4-2.2-0.5-2.4
					c-1.5-0.2-2.9,0.6-3.6,1.9c-1.1,2.2-2.6,2.3-3,2s-2.8-0.7-2.7,1.2c0.1,1.9,0.4,1.9-0.3,2.1s-3-0.5-4,0.7c-1,1.2-1.4,2.8-1.1,4.4
					c0.3,1.2-2.3-0.5-3.1,0.5s-0.5,3-0.2,3.7s-1.1,2.8-1.1,2.8L130.3,72.4z"/>
				<path class="st7" d="M130.3,72.5c0.4-0.5,1.1-0.7,1.7-0.6c0.3,0.1,0.6-1.5,1.8-3s3.8-2.1,4.9-4.5c1.1-1.9,2.3-3.8,3.7-5.5
					l2.3-2.8c1.7-1.9,3.8,0.2,4.5-1c0.5-0.8,0.3-1.9-0.5-2.4c-1.5-0.2-2.9,0.6-3.5,1.9c-1.1,2.2-2.6,2.3-3,1.9s-2.8-0.6-2.7,1.3
					s0.4,1.9-0.3,2.1s-3-0.6-4,0.7c-0.9,1.3-1.4,2.8-1.2,4.4c0.4,1.1-2.3-0.5-3,0.4s-0.5,3.1-0.2,3.7s-1.1,2.9-1.1,2.9L130.3,72.5z"
					/>
				<path class="st8" d="M130.3,74.5c0.3-1.2,0.6-2.4,1-3.5c0.2-0.1,7.1-3.6,6.1-6.1c0,0-1.3-0.1-3.4,2s-2.2,1.3-1.6,0.4
					s3.6-4.4,3.6-4.4c2.1-0.5,4-1.8,5.2-3.6c1.8-3,2.2-3.6,1.9-3.7s-5.1,3.3-5.6,4c-0.4,0.7-0.9,1.4-1.4,2.1
					c-0.4,0.5-2.3,3.5-2.8,3.5s0.1-0.8,0.5-1.9l1.2-3c1.7-1.2,3.1-2.9,4-4.8c1.3-3,2.2-5.4,1.7-5.6s-4.4,4.7-5.1,6.6
					s-0.7,3.1-1.8,4.3l0.3-5.6c1.7-3.8,2.5-7.9,2.3-12.1c-1.9,3.4-2.9,7.3-2.9,11.2c0,0,0.1,5.3-0.6,5.4s-0.3,0.1-0.3-0.8
					s-0.2-4.2-1.3-4.2s0.2,4.4,0.2,4.4l1,3.2c0.1,0.3-0.3,4.7-0.9,5l-0.3-4.4c0.1-1,0-2-0.5-2.9c-0.7-1.2-1.7-3.2-1.7-3.2
					s-0.1,3.6,0.8,4.9s0.9,1.2,0.9,2.3s-0.2,5.5-0.2,5.6s-0.5,1.4-0.7,1.2c-0.5-0.5-0.8-1.1-0.9-1.7c0-0.7-0.8,0.8-0.2,2
					s0.9,1.8,0.7,2.8l-0.2,0.6L130.3,74.5z"/>
				<path class="st9" d="M131.1,71.6c-0.4-0.8-0.7-1.7-0.9-2.6c0.1-0.2,2.7-5.4,1-6.4c0,0-0.9,0.5-1.2,2.7s-0.8,1.7-0.9,0.9
					s0.3-4.3,0.3-4.3c1.1-1.2,1.7-2.8,1.6-4.4c-0.2-2.8-0.2-3.3-0.5-3.3c-0.7,1.6-1.2,3.3-1.6,5c0,0.6,0.1,1.4,0.1,1.9
					s0.1,3.2-0.2,3.5s-0.3-0.6-0.6-1.5l-0.5-2.4c0.5-1.5,0.6-3.1,0.3-4.6c-0.5-2.5-1.1-4.3-1.5-4.2s-0.6,4.8-0.2,6.3s1,2.2,0.9,3.4
					l-2.3-3.6c-0.7-3.1-2.1-6-4.1-8.4c0.4,3,1.5,5.8,3.2,8.2c0,0,2.5,3.1,2.1,3.5s-0.1,0.1-0.5-0.3s-2-2.6-2.7-2s2.1,2.6,2.1,2.6
					l2,1.5c0.3,0.1,2,3,1.7,3.5l-2.2-2.6c-0.3-0.6-0.9-1.2-1.5-1.5l-2.6-1.3c0,0,1.6,2.3,2.7,2.7s1.2,0.3,1.7,1l2.3,3.5
					c0,0,0.3,1.1,0.1,1c-0.5,0-1-0.2-1.3-0.6c-0.4-0.4-0.1,0.9,0.8,1.3s1.3,0.7,1.6,1.4l0.2,0.5L131.1,71.6z"/>
				<path class="st10" d="M130.1,71.3c-0.3-0.6-0.8-0.9-1.4-1c-1,0-3.3-0.8-3.3-2.1s0.7-0.9,0.1-2.1s-2-0.7-2.2-0.9
					c-0.5-0.7-0.7-1.6-0.5-2.4c0.1-1.1-0.5-2.2-1.4-2.8c-0.8-0.2-2.6-1.5-2.2-2.6s2-2.7,0.8-4.9s-2.6-1.9-3-3.2
					c-0.3-0.8,0.1-1.7,1-2.1c0,0,0.1,0,0.1,0c1.5,0.2,2.6,1.3,2.8,2.8c0.5,2.3,1.9,2.9,2.4,2.7s2.8,0.2,2.2,1.9s-0.9,1.7-0.3,2.2
					s3,0.3,3.6,1.8c0.6,1.4,0.6,3.1-0.1,4.5c-0.7,1,2.3,0.2,2.8,1.3s-0.4,3.1-0.9,3.6s0.3,3,0.3,3L130.1,71.3z"/>
				<path class="st7" d="M130,71.4c-0.2-0.6-0.8-1.1-1.4-1.1c-0.3,0-0.2-1.6-0.9-3.3s-3-3.2-3.5-5.8c-0.4-2.2-1-4.3-1.9-6.3
					c-0.8-1.8-1.1-2.8-1.4-3.4c-1.1-2.2-3.7-0.8-4.1-2.2s1-2,1.2-2.1c1.5,0.2,2.7,1.3,2.9,2.8c0.4,2.3,1.8,2.9,2.3,2.7
					s2.9,0.2,2.2,2c-0.7,1.8-0.9,1.7-0.3,2.1s3.1,0.3,3.6,1.8c0.6,1.5,0.5,3.1-0.1,4.5c-0.6,1,2.4,0.2,2.8,1.3s-0.4,3.1-0.9,3.7
					s0.3,2.9,0.3,2.9L130,71.4z"/>
				<path class="st11" d="M132,69.6c0,0,0.2,5.9,1.6,8.7c3.9,8.3,10.6,29.6-2.7,30.1s-7.9-22-3.4-29.8c1.2-2.1,1.4-6.6,0.8-8.9
					L132,69.6z"/>
				<path class="st12" d="M127.1,79.4c0,0-4.3,29.3,6.3,28.7c0,0-11.1,3.3-10.9-9.8C122.7,91.7,124.2,85.3,127.1,79.4z"/>
				<path class="st2" d="M61.3,240.7c-1,0-2-0.3-2.8-0.8c-1.7-1-2.8-2.8-2.8-4.8l2.2-49.4l32.7-19.6l12.4,46.7
					c0.7,2.4-0.4,4.9-2.6,6.1L64,240C63.2,240.4,62.2,240.7,61.3,240.7z M59.5,186.6l-2.1,48.5c0,1.4,0.7,2.7,1.9,3.5
					c1.2,0.7,2.7,0.7,3.9,0l36.5-21.1c1.5-0.9,2.2-2.6,1.8-4.3l-12-44.7L59.5,186.6z"/>
				<path class="st2" d="M19.3,216.5c-3.1-0.1-5.5-2.5-5.6-5.6l2.1-50.4l32.7-18.6L61,188.6c0.6,2.4-0.4,4.9-2.6,6.1l-36.4,21
					C21.2,216.2,20.3,216.5,19.3,216.5z M17.4,161.4L15.3,211c0,1.4,0.8,2.6,2,3.3c1.2,0.8,2.7,0.8,3.9,0l36.4-21
					c1.5-0.8,2.3-2.6,1.9-4.3l-12-44.7L17.4,161.4z"/>
				<path class="st2" d="M56.3,187.2l-42.2-24.4v-46.2c0.1-5.6,4.7-10.2,10.3-10.1c0,0,0,0,0,0c1.7,0,3.4,0.5,4.9,1.3l21.9,12.7
					c3.1,1.8,5.1,5.1,5.1,8.7V187.2z M14.9,162.3l40.6,23.4v-56.5c0-3.3-1.8-6.4-4.7-8l-21.9-12.7c-4.4-2.6-10.1-1.1-12.7,3.3
					c-0.8,1.4-1.3,3.1-1.3,4.8V162.3z"/>
				<rect x="37.7" y="97.8" transform="matrix(0.5 -0.866 0.866 0.5 -83.6132 92.3162)" class="st2" width="0.8" height="41.5"/>
				<rect x="35.9" y="100.3" transform="matrix(0.5 -0.866 0.866 0.5 -88.4695 93.0227)" class="st2" width="0.8" height="45.7"/>
				
					<rect x="34.4" y="104" transform="matrix(0.4985 -0.8669 0.8669 0.4985 -93.3174 94.2252)" class="st2" width="0.8" height="47.5"/>
				
					<rect x="35.4" y="109.6" transform="matrix(0.4983 -0.867 0.867 0.4983 -97.7313 97.9598)" class="st2" width="0.8" height="47.6"/>
				<rect x="34.9" y="116.1" transform="matrix(0.5 -0.866 0.866 0.5 -103.4647 100.4573)" class="st2" width="0.8" height="47.4"/>
				<rect x="34.9" y="123" transform="matrix(0.5 -0.866 0.866 0.5 -109.3591 103.9478)" class="st2" width="0.8" height="47.4"/>
				<rect x="35" y="129.2" transform="matrix(0.5 -0.866 0.866 0.5 -114.8804 107.1596)" class="st2" width="0.8" height="47.8"/>
				<rect x="34.9" y="135.1" transform="matrix(0.5 -0.866 0.866 0.5 -120.0785 110.0563)" class="st2" width="0.8" height="47.8"/>
				<rect x="35" y="141.1" transform="matrix(0.5 -0.866 0.866 0.5 -125.1266 113.1396)" class="st2" width="0.8" height="47.8"/>
				<rect x="34.7" y="146.5" transform="matrix(0.5 -0.866 0.866 0.5 -129.9916 115.5327)" class="st2" width="0.8" height="47.8"/>
				<polygon class="st13" points="58.4,88.7 57,104.8 57,105.7 104.6,105.9 104.6,105 103.6,88.7 				"/>
				<path class="st14" d="M58.3,87.7h45.3l-0.2-23.5c0-0.8-0.6-1.4-1.4-1.4H59.7c-0.8,0-1.4,0.6-1.4,1.4l0,0l0,0V87.7z"/>
				<polygon class="st15" points="58.3,87.7 57,104.8 104.6,105 103.6,87.7 				"/>
				<polygon class="st4" points="87.5,103.8 73.9,103.8 74,99 87.6,99 				"/>
				<polygon points="66.7,89.4 64.8,89.4 64.8,88.9 66.7,88.9 				"/>
				<rect x="67.1" y="88.9" width="1.8" height="0.6"/>
				<rect x="69.3" y="88.9" width="1.8" height="0.6"/>
				<rect x="71.6" y="88.9" width="1.8" height="0.6"/>
				<rect x="73.8" y="88.9" width="1.8" height="0.6"/>
				<rect x="76.1" y="88.9" width="1.8" height="0.6"/>
				<rect x="78.3" y="88.9" width="1.8" height="0.6"/>
				<rect x="80.5" y="88.9" width="1.8" height="0.6"/>
				<rect x="82.8" y="88.9" width="1.8" height="0.6"/>
				<rect x="85" y="88.9" width="1.8" height="0.6"/>
				<rect x="87.3" y="88.9" width="1.8" height="0.6"/>
				<rect x="89.5" y="88.9" width="1.8" height="0.6"/>
				<rect x="91.7" y="88.9" width="1.8" height="0.6"/>
				<rect x="94" y="88.9" width="1.8" height="0.6"/>
				<polygon points="66.7,90.9 64.8,90.9 64.8,89.9 66.7,89.9 				"/>
				<rect x="67" y="89.9" width="1.8" height="1"/>
				<rect x="69.2" y="89.9" width="1.8" height="1"/>
				<rect x="71.3" y="89.9" width="1.8" height="1"/>
				<rect x="73.5" y="89.9" width="1.8" height="1"/>
				<rect x="75.6" y="89.9" width="1.8" height="1"/>
				<rect x="77.8" y="89.9" width="1.8" height="1"/>
				<rect x="79.9" y="89.9" width="1.8" height="1"/>
				<rect x="82.1" y="89.9" width="1.8" height="1"/>
				<rect x="84.2" y="89.9" width="1.8" height="1"/>
				<rect x="86.4" y="89.9" width="1.8" height="1"/>
				<rect x="88.5" y="89.9" width="1.8" height="1"/>
				<rect x="90.7" y="89.9" width="1.8" height="1"/>
				<rect x="92.9" y="89.9" width="2.9" height="1"/>
				<polygon points="68.1,92.7 64.8,92.7 64.8,91.4 68.1,91.4 				"/>
				<rect x="68.6" y="91.4" width="1.9" height="1.3"/>
				<rect x="70.9" y="91.4" width="1.9" height="1.3"/>
				<rect x="73.2" y="91.4" width="1.9" height="1.3"/>
				<rect x="75.5" y="91.4" width="1.9" height="1.3"/>
				<rect x="77.8" y="91.4" width="1.9" height="1.3"/>
				<rect x="80.1" y="91.4" width="1.9" height="1.3"/>
				<rect x="82.4" y="91.4" width="1.9" height="1.3"/>
				<rect x="84.7" y="91.4" width="1.9" height="1.3"/>
				<rect x="87" y="91.4" width="1.9" height="1.3"/>
				<rect x="89.4" y="91.4" width="1.9" height="1.3"/>
				<rect x="91.7" y="91.4" width="1.9" height="1.3"/>
				<rect x="94" y="91.4" width="1.9" height="1.3"/>
				<polygon points="68.8,94.5 64.8,94.5 64.8,93.1 68.8,93.1 				"/>
				<rect x="92" y="93.1" width="3.9" height="1.3"/>
				<rect x="69.2" y="93.1" width="1.9" height="1.3"/>
				<rect x="71.4" y="93.1" width="1.9" height="1.3"/>
				<rect x="73.7" y="93.1" width="1.9" height="1.3"/>
				<rect x="76" y="93.1" width="1.9" height="1.3"/>
				<rect x="78.3" y="93.1" width="1.9" height="1.3"/>
				<rect x="80.6" y="93.1" width="1.9" height="1.3"/>
				<rect x="82.8" y="93.1" width="1.9" height="1.3"/>
				<rect x="85.2" y="93.1" width="1.9" height="1.3"/>
				<rect x="87.4" y="93.1" width="1.9" height="1.3"/>
				<rect x="89.7" y="93.1" width="1.9" height="1.3"/>
				<polygon points="69.5,96.2 64.8,96.2 64.8,94.8 69.5,94.8 				"/>
				<rect x="91.2" y="94.8" width="4.7" height="1.3"/>
				<rect x="70" y="94.8" width="1.9" height="1.3"/>
				<rect x="72.3" y="94.8" width="1.9" height="1.3"/>
				<rect x="74.7" y="94.8" width="1.9" height="1.3"/>
				<rect x="77" y="94.8" width="1.9" height="1.3"/>
				<rect x="79.4" y="94.8" width="1.9" height="1.3"/>
				<rect x="81.8" y="94.8" width="1.9" height="1.3"/>
				<rect x="84.1" y="94.8" width="1.9" height="1.3"/>
				<rect x="86.5" y="94.8" width="1.9" height="1.3"/>
				<rect x="88.9" y="94.8" width="1.9" height="1.3"/>
				<rect x="67.1" y="96.6" width="1.9" height="1.3"/>
				<polygon points="66.7,97.9 64.8,97.9 64.8,96.6 66.7,96.6 				"/>
				<rect x="69.4" y="96.6" width="1.9" height="1.3"/>
				<rect x="71.7" y="96.6" width="2.2" height="1.3"/>
				<rect x="74.3" y="96.6" width="13.2" height="1.3"/>
				<rect x="87.8" y="96.6" width="1.9" height="1.3"/>
				<rect x="90.1" y="96.6" width="1.9" height="1.3"/>
				<rect x="93.7" y="97.3" width="1.3" height="0.6"/>
				<rect x="92.4" y="97.3" width="1.3" height="0.6"/>
				<rect x="95" y="97.3" width="1.3" height="0.6"/>
				<rect x="93.7" y="96.6" width="1.3" height="0.7"/>
				<rect x="59.9" y="64.8" class="st16" width="41.5" height="21.4"/>
				<g id="Illustrations-2">
					
						<linearGradient id="SVGID_3_" gradientUnits="userSpaceOnUse" x1="-7582.9771" y1="1889.2853" x2="-7571.5771" y2="1889.2853" gradientTransform="matrix(-1 -1.745435e-03 -1.745435e-03 1 -7525.8843 -1807.4127)">
						<stop  offset="0" style="stop-color:#0062FF"/>
						<stop  offset="1" style="stop-color:#418CFF"/>
					</linearGradient>
					<path class="st17" d="M52.4,100.6c-0.1,0.3-0.4,0.6-0.7,0.7h-7.4c-0.5,0-0.5-0.8-0.5-0.8l-1.4-11.6h11.5
						C53.9,88.9,52.5,100,52.4,100.6z"/>
					
						<linearGradient id="SVGID_4_" gradientUnits="userSpaceOnUse" x1="-7582.5469" y1="1888.4873" x2="-7572.0171" y2="1888.4873" gradientTransform="matrix(-1 -1.745435e-03 -1.745435e-03 1 -7525.8848 -1807.3126)">
						<stop  offset="0" style="stop-color:#000000"/>
						<stop  offset="1" style="stop-color:#0062FF"/>
					</linearGradient>
					<polygon class="st18" points="52.9,96.4 43.3,96.3 42.9,92.4 53.4,92.5 					"/>
					
						<linearGradient id="SVGID_5_" gradientUnits="userSpaceOnUse" x1="-7583.8271" y1="1881.9985" x2="-7570.7236" y2="1881.9985" gradientTransform="matrix(-1 -1.745435e-03 -1.745435e-03 1 -7525.8848 -1807.3126)">
						<stop  offset="0" style="stop-color:#000000"/>
						<stop  offset="1" style="stop-color:#0062FF"/>
					</linearGradient>
					<polygon class="st19" points="41.5,88.9 41.5,86.9 54.6,87 54.6,88.9 					"/>
					
						<linearGradient id="SVGID_6_" gradientUnits="userSpaceOnUse" x1="-7582.7368" y1="1880.3873" x2="-7571.7671" y2="1880.3873" gradientTransform="matrix(-1 -1.745435e-03 -1.745435e-03 1 -7525.8848 -1807.3126)">
						<stop  offset="0" style="stop-color:#000000"/>
						<stop  offset="1" style="stop-color:#0062FF"/>
					</linearGradient>
					<polygon class="st20" points="42.6,87 43.1,85.6 53.2,85.6 53.6,87 					"/>
					<g class="st21">
						<path class="st22" d="M47.3,95.2c0.3,0.2,0.4,0.1,0.7,0.2s0-0.2-0.1-0.3l-0.7-0.4c-0.3,0-0.4,0.2-0.3,0.2S46.9,95.1,47.3,95.2
							z"/>
						<path class="st22" d="M47.2,95.7c-0.3-0.1-0.5-0.4-0.5-0.7c0.1-0.1,0.4,0.2,0.6,0.4l0.6,0.2l0,0
							C47.9,95.6,47.7,95.9,47.2,95.7z"/>
					</g>
					<g class="st21">
						<path class="st22" d="M47.2,93.8l0.6-0.2h-0.3c-0.3,0-0.5,0.1-0.7,0.3c-0.1,0.1-0.2,0.2-0.2,0.4L47.2,93.8z"/>
						<path class="st22" d="M47.4,94.3c-0.5,0.2-0.7-0.1-0.7-0.1l0.5-0.2l0.6-0.3h0.1C47.9,93.7,47.9,94,47.4,94.3z"/>
					</g>
					<g class="st21">
						<path class="st22" d="M48.5,94.4V95l0,0c0.1,0.1,0.2-0.1,0.2-0.2c0.2-0.2,0.3-0.5,0.2-0.8c-0.1-0.1-0.2-0.3-0.3-0.3
							S48.6,94.2,48.5,94.4z"/>
						<path class="st22" d="M48,94.4c0-0.3,0.2-0.6,0.5-0.7c-0.1,0.2-0.1,0.4-0.1,0.6V95h-0.1C48.1,94.9,48,94.6,48,94.4z"/>
					</g>
					
						<linearGradient id="SVGID_7_" gradientUnits="userSpaceOnUse" x1="-7577.3213" y1="1883.0067" x2="-7577.3213" y2="1884.0265" gradientTransform="matrix(-1 -1.745435e-03 -1.745435e-03 1 -7525.8848 -1807.3126)">
						<stop  offset="0" style="stop-color:#0029CA"/>
						<stop  offset="0.3" style="stop-color:#1245D9;stop-opacity:0.72"/>
						<stop  offset="0.99" style="stop-color:#408BFF;stop-opacity:1.000000e-02"/>
						<stop  offset="1" style="stop-color:#418CFF;stop-opacity:0"/>
					</linearGradient>
					<polygon class="st23" points="42.4,88.9 42.6,89.9 53.7,89.8 53.9,88.9 					"/>
				</g>
			</g>
		</g>
		<path class="st24" d="M512.6,236.3l-50.7,17.2c0,0-8.6,1.9-8.9,13.5s2.1,65.8,2.1,65.8l6.8,13.8c0,0,14.6-59.7,10.9-82.4
			L512.6,236.3z"/>
		<path class="st24" d="M463.4,338.1c0,0,1.7,4,1.2,6s-1,3.9-4.2,6.7s-8.7,8.3-12.7,10.5s-6.4,3.1-7.3,2.8s-1.1-1.9,3.9-9.1
			S463.4,338.1,463.4,338.1z"/>
		<path class="st25" d="M465.5,331c0,0-8.9,2.9-10.4,1.8l0.9,5.6l-12,17.1c0,0,3.3,1.1,8.2-3.1s10.9-13.1,10.9-13.1L465.5,331z"/>
		<ellipse class="st3" cx="462.2" cy="383.4" rx="30.4" ry="19.2"/>
		<ellipse class="st4" cx="462.2" cy="380.9" rx="30.4" ry="19.2"/>
		<path class="st5" d="M461.8,383.2c-1.7-0.1-3.1-1.5-3.2-3.2V264.3c0-1.7,1.4-3.1,3.1-3.2h0.1c1.7,0.1,3.1,1.5,3.2,3.2V380
			C464.9,381.7,463.5,383.1,461.8,383.2z"/>
		<path class="st2" d="M528.4,334.5c-1.1,0-2.1-0.3-3.1-0.8c-1.9-1.1-3.1-3.2-3-5.4l2.3-55.3l36.5-21.9l14,52.3
			c0.7,2.6-0.5,5.4-2.9,6.7l-40.8,23.6C530.5,334.2,529.5,334.5,528.4,334.5z M526.2,273.9l-2.3,54.5c0,1.6,0.8,3.1,2.2,3.9
			c1.4,0.8,3.1,0.8,4.5,0l40.8-23.5c1.8-1,2.6-3,2.1-5l-13.4-50.3L526.2,273.9z"/>
		<path class="st2" d="M481.3,307.4c-1.1,0-2.1-0.3-3.1-0.8c-1.9-1.1-3.1-3.2-3-5.4l2.3-56.5L514,224l14,52.3
			c0.7,2.6-0.5,5.4-2.9,6.7l-40.8,23.6C483.4,307.1,482.4,307.4,481.3,307.4z M479,245.7l-2.2,55.6c0,1.6,0.8,3.1,2.2,3.9
			c1.4,0.8,3.1,0.8,4.5,0l40.8-23.5c1.7-1.1,2.6-3.1,2.1-5.1L513,226.4L479,245.7z"/>
		<path class="st2" d="M564.3,250.3l-0.6-0.4L517.1,223v-51.7c0-6.2,5.1-11.3,11.3-11.3c2,0,3.9,0.5,5.7,1.5l24.5,14.2
			c3.5,1.9,5.7,5.7,5.7,9.7L564.3,250.3L564.3,250.3z M517.9,222.6l45.6,26.3v-63.5c0-3.8-2-7.2-5.3-9.1l-24.5-14.2
			c-5-2.9-11.4-1.1-14.3,3.9c0,0,0,0.1-0.1,0.1c-0.9,1.6-1.4,3.4-1.4,5.2V222.6z"/>
		<rect x="543.5" y="150.3" transform="matrix(0.5 -0.866 0.866 0.5 121.7153 557.8212)" class="st2" width="0.8" height="46.5"/>
		<rect x="541.6" y="153.1" transform="matrix(0.5 -0.866 0.866 0.5 116.2725 558.7031)" class="st2" width="0.8" height="51.2"/>
		
			<rect x="539.9" y="156.9" transform="matrix(0.4985 -0.8669 0.8669 0.4985 111.8406 560.4062)" class="st2" width="0.8" height="53.2"/>
		<rect x="540.4" y="163.9" transform="matrix(0.5 -0.866 0.866 0.5 105.4289 563.6)" class="st2" width="0.8" height="53.2"/>
		
			<rect x="541.4" y="168.5" transform="matrix(0.4983 -0.867 0.867 0.4983 102.6321 567.6753)" class="st2" width="0.8" height="53.4"/>
		<rect x="540.5" y="178.5" transform="matrix(0.5 -0.866 0.866 0.5 92.8204 570.9882)" class="st2" width="0.8" height="53.2"/>
		
			<rect x="541.3" y="183.1" transform="matrix(0.4983 -0.867 0.867 0.4983 89.7537 575.044)" class="st2" width="0.8" height="53.8"/>
		<rect x="540.5" y="192.2" transform="matrix(0.5 -0.866 0.866 0.5 80.8448 577.9558)" class="st2" width="0.8" height="53.6"/>
		<rect x="540.5" y="198.9" transform="matrix(0.5 -0.866 0.866 0.5 75.0003 581.2328)" class="st2" width="0.8" height="53.6"/>
		<rect x="540.4" y="204.7" transform="matrix(0.5 -0.866 0.866 0.5 69.9254 584.1161)" class="st2" width="0.8" height="53.6"/>
		<path class="st1" d="M512,281v-0.2L463.6,253l53.6-30h0.2l47,27.1L512,281z M465.1,253l46.9,27.1l50.8-29.9l-45.7-26.3L465.1,253z
			"/>
		<rect x="536" y="212.6" transform="matrix(0.5 -0.866 0.866 0.5 60.9022 584.2353)" class="st1" width="0.8" height="53.6"/>
		
			<rect x="531.7" y="213.3" transform="matrix(0.4983 -0.867 0.867 0.4983 58.71 581.8096)" class="st1" width="0.8" height="53.8"/>
		<rect x="525.8" y="218.8" transform="matrix(0.5 -0.866 0.866 0.5 50.3752 578.5421)" class="st1" width="0.8" height="53.6"/>
		<rect x="520" y="222" transform="matrix(0.5 -0.866 0.866 0.5 44.7197 575.0923)" class="st1" width="0.8" height="53.6"/>
		
			<rect x="513.5" y="226.4" transform="matrix(0.5015 -0.8652 0.8652 0.5015 36.9954 570.9217)" class="st1" width="0.8" height="53.9"/>
		
			<rect x="508" y="229.8" transform="matrix(0.5015 -0.8652 0.8652 0.5015 31.2853 567.8388)" class="st1" width="0.8" height="53.9"/>
		
			<rect x="502.2" y="233" transform="matrix(0.5015 -0.8652 0.8652 0.5015 25.636 564.3793)" class="st1" width="0.8" height="53.9"/>
		
			<rect x="497.2" y="233.5" transform="matrix(0.4983 -0.867 0.867 0.4983 23.7496 562.1246)" class="st1" width="0.8" height="54.1"/>
		<path class="st7" d="M519.7,132.2c0,0,13.8-2.5,15.3,8.7c1.1,8.6,0,33.4,0,35.1s0,19.7-2.4,20c-12.6,1.9-31.1,4.8-36.2-3.9
			c0,0,0.6-37,1-44.2s0.7-12.2,9-16.3C510.2,129.7,519.7,132.2,519.7,132.2z"/>
		<path class="st13" d="M502.4,181.7c0,0,6.5-7.7,7.8-16.7c4.7-0.6,8.8-3.7,10.5-8.2c0,0,0.8,23,2.6,23.6c0,0-9.7,11.2-16.4,9.9
			S502.4,181.7,502.4,181.7z"/>
		<path class="st26" d="M500.9,147.1c0,0-1.3,11.5,2.2,17.6s5.5,7.6,6.4,7.7s7.8,0.5,12.2-9.4c0.4-1.1,1-3.7,1.4-5s1.8-0.5,1.5-3.2
			c-0.1-1.1-0.4-2.2-1.7-2.6s-2.1-10.8-7.3-12.3S504.2,138,500.9,147.1z"/>
		<polygon class="st27" points="511.4,150.6 511.1,151.8 513.7,152.2 513.8,151.8 		"/>
		<path class="st16" d="M507.4,166.6c2.1,0.3,5.5-1.4,5.5-1.4s-0.8,3-2.9,3C508.9,168.1,508,167.5,507.4,166.6z"/>
		<polygon class="st27" points="506.2,151 506.2,152.1 503.6,152.2 503.6,151.7 		"/>
		<ellipse transform="matrix(0.2807 -0.9598 0.9598 0.2807 220.4426 601.7492)" cx="511.7" cy="153.8" rx="0.8" ry="0.8"/>
		
			<ellipse transform="matrix(5.582149e-02 -0.9984 0.9984 5.582149e-02 323.3276 650.0734)" cx="505.4" cy="154.1" rx="0.8" ry="0.8"/>
		<path d="M508.2,156.3v1.7l-0.3,1.7l-0.4,1.5l-0.4,0.9c-0.2,0.2-0.5,0.5-0.8,0.5v-0.3c0.1,0.2,0.3,0.4,0.5,0.4l0.4,0.2h1.3
			c-0.4,0.1-0.9,0.2-1.3,0.1l-0.6-0.2c-0.2-0.1-0.4-0.2-0.5-0.4l-0.2-0.2h0.2c0.2,0,0.4-0.2,0.6-0.4l0.3-0.7
			c0.2-0.5,0.4-1.1,0.5-1.6c0.1-0.5,0.2-1.1,0.4-1.6L508.2,156.3z"/>
		<path class="st7" d="M494.3,150.9c0,0,28.1,2.3,26.1-18.6c0,0-9.7-3.1-14.3-1.3s-8.1,4.5-9.5,14.4
			C496.6,145.4,497.1,150.6,494.3,150.9z"/>
		
			<linearGradient id="SVGID_8_" gradientUnits="userSpaceOnUse" x1="554.2" y1="677.275" x2="559.5178" y2="677.275" gradientTransform="matrix(1 0 0 -1 -36.2 823.8)">
			<stop  offset="0" style="stop-color:#00A6A1"/>
			<stop  offset="1" style="stop-color:#00BAB6"/>
		</linearGradient>
		<path class="st28" d="M518,142.7c0,0,0.8,8.7,4.9,9.6c0,0,1.2-6-0.3-8.6c-0.6-1.1-3.4-2.8-3.4-2.8
			C518.7,141.4,518.3,142,518,142.7z"/>
		<path class="st13" d="M507,166.3c0.8,0.1,1.5,0,2.3-0.1l3.3-1.1l-0.2,0.3c-1.6,0.8-3.5,1.2-5.3,1.1L507,166.3z"/>
		
			<ellipse transform="matrix(0.9963 -8.541693e-02 8.541693e-02 0.9963 -11.4463 44.3449)" class="st29" cx="512.5" cy="155.9" rx="1.7" ry="0.6"/>
		
			<ellipse transform="matrix(0.9898 -0.1426 0.1426 0.9898 -17.0115 73.7267)" class="st29" cx="505.8" cy="155.5" rx="1.2" ry="0.5"/>
		<path class="st13" d="M523.3,153.8c0.3,0.2,0.6,0.6,0.6,1c0,0.2,0,0.3-0.1,0.5l-0.3,0.5v-1C523.5,154.5,523.4,154.1,523.3,153.8z"
			/>
		<path class="st30" d="M514.5,171.3l6.8-2.5v-4.5C519.7,167.2,517.4,169.6,514.5,171.3z"/>
		<path class="st31" d="M539,242.5c0,0-7.4-11.7-4.9-48.2c0,0,0.1-8.5-7.2-13s-24.9,22.5-23.2-0.7c0,0-0.2-0.2-0.4,0.2
			c-0.8,2.2-1.1,1.4-3.1,13.3c-0.2,1-5.3,7.1-6,12c-0.7,6.8,7.8,12.7,7.8,12.7c6.2,9.4,3.7,24.4,6.2,28.9c0,0,3.8,4.6,15.1,2.2
			S539,242.5,539,242.5z"/>
		<path class="st32" d="M508.2,248.5L457.4,284l26.1,89.4l8.2-2.2c0,0-2.2-40.4-4.6-53s-4.3-19.4-4.3-19.4l21.1-14.8
			c0,0,25.4-6.8,27.6-7.5s19.1-8.9,7.5-34C539,242.5,527.2,254.6,508.2,248.5z"/>
		<polygon class="st6" points="571.1,268.6 571.1,259.2 443.3,198.9 315.5,259.2 315.5,268.6 443.3,338.9 		"/>
		<polygon class="st5" points="571.1,259.2 443.3,188.9 315.5,259.2 443.3,329.6 		"/>
		
			<linearGradient id="SVGID_9_" gradientUnits="userSpaceOnUse" x1="-179.7349" y1="-1671.9896" x2="-135.4449" y2="-1671.9896" gradientTransform="matrix(1 -6.000000e-02 -6.000000e-02 -1 540.29 -1407.45)">
			<stop  offset="0" style="stop-color:#001EFF"/>
			<stop  offset="1" style="stop-color:#4167FF"/>
		</linearGradient>
		<path class="st33" d="M481.3,261c12.2-0.7,22.4,4.5,22.9,11.8s-9.1,13.5-21.3,14.3s-22.4-4.5-22.9-11.7S469.1,261.7,481.3,261z"/>
		
			<linearGradient id="SVGID_10_" gradientUnits="userSpaceOnUse" x1="-174.4949" y1="-1671.8628" x2="-141.6049" y2="-1671.8628" gradientTransform="matrix(1 -6.000000e-02 -6.000000e-02 -1 540.29 -1407.45)">
			<stop  offset="0" style="stop-color:#2176FF"/>
			<stop  offset="1" style="stop-color:#78ADFF"/>
		</linearGradient>
		<path class="st34" d="M481.1,264.3c9-0.6,16.6,3.3,16.9,8.7s-6.7,10-15.8,10.6s-16.6-3.3-16.9-8.7S472,264.8,481.1,264.3z"/>
		<path class="st10" d="M469.7,265.7c-0.1,1.1,0,2.3,0.3,3.4c0.3,1.2,1.2,2.1,2.4,2.4c2,0.6,4.2,0.5,6.2-0.3c2-0.9,1.8-5.3,1.8-5.3
			C477,267.6,473,267.5,469.7,265.7z"/>
		
			<linearGradient id="SVGID_11_" gradientUnits="userSpaceOnUse" x1="54.2" y1="760.9706" x2="54.2" y2="763.4207" gradientTransform="matrix(0.9987 5.059294e-02 5.059294e-02 -0.9987 382.3216 1025.5398)">
			<stop  offset="0" style="stop-color:#92EEEE"/>
			<stop  offset="1" style="stop-color:#20D5D2"/>
		</linearGradient>
		<path class="st35" d="M469.7,265.7v0.9c4.3,2.7,9.8,1.3,10.7,0.4v-1.1C477,267.6,473,267.5,469.7,265.7z"/>
		<path class="st10" d="M480.4,265.9c0,0,1.2-0.9,0.4-3.1s-4.6-2.9-5.5-3s-4.7,0.3-5.8,2.7s0.1,3.2,0.3,3.2c1.6,0.8,3.3,1.4,5.1,1.5
			C476.8,267.2,478.7,266.8,480.4,265.9z"/>
		<path class="st16" d="M471.9,261.7l-0.6,0.6l-0.4,0.7c-0.1,0.3-0.1,0.5-0.1,0.8c0,0.3,0.1,0.6,0.3,0.8c-0.3-0.2-0.4-0.5-0.5-0.8
			c0-0.3,0-0.6,0.2-0.8C471,262.4,471.4,262,471.9,261.7z"/>
		<circle class="st16" cx="478.1" cy="262.3" r="0.3"/>
		<circle class="st16" cx="477.1" cy="263.6" r="0.3"/>
		<circle class="st16" cx="479" cy="264.2" r="0.3"/>
		<path class="st10" d="M494.6,269.2c0.1,1.2,0,2.4-0.3,3.5c-0.3,1.2-1.3,2.1-2.5,2.3c-2,0.7-4.2,0.6-6.2-0.2
			c-2-0.9-1.7-5.2-1.7-5.2C487.3,271.3,491.3,271.2,494.6,269.2z"/>
		
			<linearGradient id="SVGID_12_" gradientUnits="userSpaceOnUse" x1="-6836.7324" y1="410.225" x2="-6836.7324" y2="412.675" gradientTransform="matrix(-1 5.000000e-02 -5.000000e-02 -1 -6326.9199 1023.51)">
			<stop  offset="0" style="stop-color:#92EEEE"/>
			<stop  offset="1" style="stop-color:#20D5D2"/>
		</linearGradient>
		<path class="st36" d="M494.6,269.2v1c-4.4,2.7-9.8,1.3-10.7,0.4c-0.1-0.3-0.1-0.7,0-1C487.3,271.3,491.3,271.2,494.6,269.2z"/>
		<path class="st10" d="M483.9,269.6c0,0-1.3-1-0.5-3.2s4.6-2.9,5.5-3s4.8,0.3,5.9,2.7s-0.2,3.1-0.4,3.3c-1.6,0.8-3.3,1.3-5.1,1.4
			C487.4,270.8,485.6,270.4,483.9,269.6z"/>
		<path class="st16" d="M492.4,265.3l0.5,0.6l0.4,0.7c0.1,0.2,0.2,0.5,0.1,0.8c0,0.3-0.1,0.5-0.2,0.8c0.4-0.4,0.6-1.1,0.3-1.6
			C493.3,266,492.9,265.6,492.4,265.3z"/>
		<circle class="st16" cx="486.2" cy="265.9" r="0.3"/>
		<circle class="st16" cx="487.1" cy="267.1" r="0.3"/>
		<circle class="st16" cx="485.3" cy="267.9" r="0.3"/>
		<path class="st10" d="M484.4,276.8c0.1,1.1,0,2.2-0.3,3.3c-0.4,1.2-1.3,2.1-2.5,2.5c-2,0.6-4.2,0.5-6.2-0.3
			c-2-0.9-1.7-5.3-1.7-5.3C477.1,278.7,481.1,278.6,484.4,276.8z"/>
		
			<linearGradient id="SVGID_13_" gradientUnits="userSpaceOnUse" x1="-6826.2075" y1="403.275" x2="-6826.2075" y2="405.725" gradientTransform="matrix(-1 5.000000e-02 -5.000000e-02 -1 -6326.9199 1023.51)">
			<stop  offset="0" style="stop-color:#92EEEE"/>
			<stop  offset="1" style="stop-color:#20D5D2"/>
		</linearGradient>
		<path class="st37" d="M484.4,276.8v0.9c-4.3,2.6-9.8,1.3-10.7,0.4V277C477.1,278.7,481.1,278.6,484.4,276.8z"/>
		<path class="st10" d="M473.7,277c0,0-1.3-0.9-0.5-3.1s4.6-3,5.5-3s4.8,0.3,5.9,2.6s-0.2,3.2-0.4,3.3c-1.6,0.9-3.3,1.3-5.1,1.4
			C477.2,278.3,475.4,277.9,473.7,277z"/>
		<path class="st16" d="M482.2,272.8l0.5,0.6c0.2,0.2,0.3,0.5,0.4,0.7c0.1,0.2,0.2,0.5,0.2,0.8l-0.3,0.8c0.2-0.2,0.3-0.5,0.4-0.8
			c0.1-0.3,0-0.6-0.1-0.9C483.1,273.5,482.7,273.1,482.2,272.8z"/>
		<circle class="st16" cx="475.9" cy="273.4" r="0.3"/>
		<circle class="st16" cx="476.9" cy="274.7" r="0.3"/>
		<circle class="st16" cx="475.1" cy="275.4" r="0.3"/>
		<path class="st5" d="M503.7,180.6c0,0-6.4,2.4-8.4,11.8l4.9,1.7C501.8,189.7,503,185.2,503.7,180.6z"/>
		<path class="st1" d="M379.1,374.1h-0.2l-47-27.1l52.1-29.2h0.2l45.8,26.3L379.1,374.1z M333.5,346.9l45.6,26.3l49.3-29.1
			L384,318.6L333.5,346.9z"/>
		
			<rect x="403.8" y="302.6" transform="matrix(0.4985 -0.8669 0.8669 0.4985 -82.2673 515.2554)" class="st1" width="0.8" height="52.3"/>
		<rect x="397.2" y="310.5" transform="matrix(0.5 -0.866 0.866 0.5 -92.6537 512.6254)" class="st1" width="0.8" height="52.1"/>
		
			<rect x="393.7" y="311.9" transform="matrix(0.4983 -0.867 0.867 0.4983 -95.3816 511.3414)" class="st1" width="0.8" height="52.3"/>
		
			<rect x="388.2" y="311.8" transform="matrix(0.4985 -0.8669 0.8669 0.4985 -98.0752 506.3498)" class="st1" width="0.8" height="52.3"/>
		
			<rect x="381.6" y="318.4" transform="matrix(0.4983 -0.867 0.867 0.4983 -107.2108 504.1403)" class="st1" width="0.8" height="52.7"/>
		
			<rect x="374.9" y="317.9" transform="matrix(0.4985 -0.8669 0.8669 0.4985 -110.1651 497.962)" class="st1" width="0.8" height="52.6"/>
		
			<rect x="369.4" y="327.4" transform="matrix(0.5015 -0.8652 0.8652 0.5015 -121.6321 496.2362)" class="st1" width="0.8" height="52.5"/>
		
			<rect x="363.9" y="324.4" transform="matrix(0.4985 -0.8669 0.8669 0.4985 -121.3199 491.732)" class="st1" width="0.8" height="52.6"/>
		<path class="st2" d="M384.4,431.4c-1.1,0-2.1-0.3-3-0.8c-1.9-1.1-3-3.1-3-5.2l2.3-53.9l35.5-21.3l13.6,50.8
			c0.6,2.6-0.5,5.3-2.7,6.7l-39.8,22.9C386.4,431.1,385.4,431.3,384.4,431.4z M382.3,372.4l-2.3,53c0,1.6,0.8,3,2.2,3.8
			c1.3,0.8,3,0.8,4.3,0l39.7-22.9c1.7-1,2.5-2.9,2.1-4.8l-13.1-48.9L382.3,372.4z"/>
		<path class="st2" d="M338.5,405c-1.1,0-2.1-0.3-3-0.9c-1.9-1-3-3-2.9-5.1l2.2-55l35.6-20.1l13.5,50.8c0.7,2.6-0.4,5.3-2.7,6.6
			l-39.7,22.9C340.6,404.7,339.6,405,338.5,405z M336.4,345l-2.2,54c0,2.4,2,4.4,4.5,4.3c0.7,0,1.4-0.2,2-0.5l39.7-22.9
			c1.7-0.9,2.5-2.9,2-4.8l-13-48.9L336.4,345z"/>
		<path class="st2" d="M378.8,373l-0.5-0.4l-45.4-26.1v-50.3c0-6.1,4.9-11,11-11c2,0,3.9,0.5,5.6,1.4l23.8,13.8
			c3.4,1.9,5.6,5.6,5.5,9.5V373z M333.7,346l44.4,25.7v-61.8c0-3.6-2-7-5.1-8.8l-23.9-13.8c-4.9-2.8-11.2-1.1-14,3.8
			c-0.9,1.5-1.4,3.3-1.4,5.1V346z"/>
		
			<rect x="359.9" y="274.1" transform="matrix(0.4983 -0.867 0.867 0.4983 -76.5451 461.3058)" class="st2" width="0.8" height="45.3"/>
		<rect x="356.7" y="278.5" transform="matrix(0.5 -0.866 0.866 0.5 -84.1302 460.9266)" class="st2" width="0.8" height="49.7"/>
		
			<rect x="355.1" y="282.2" transform="matrix(0.4985 -0.8669 0.8669 0.4985 -88.769 462.6744)" class="st2" width="0.8" height="51.8"/>
		
			<rect x="356.7" y="287.4" transform="matrix(0.4983 -0.867 0.867 0.4983 -92.5528 466.7998)" class="st2" width="0.8" height="51.9"/>
		<rect x="355.7" y="295.7" transform="matrix(0.5 -0.866 0.866 0.5 -100.4682 469.1604)" class="st2" width="0.8" height="51.7"/>
		<rect x="355.7" y="303.1" transform="matrix(0.5 -0.866 0.866 0.5 -106.8725 472.8678)" class="st2" width="0.8" height="51.7"/>
		
			<rect x="357.2" y="305" transform="matrix(0.4985 -0.8669 0.8669 0.4985 -107.7507 476.0663)" class="st2" width="0.8" height="52.3"/>
		
			<rect x="357.1" y="314.8" transform="matrix(0.4983 -0.867 0.867 0.4983 -116.2798 481.0053)" class="st2" width="0.8" height="52.3"/>
		
			<rect x="357.2" y="318" transform="matrix(0.4985 -0.8669 0.8669 0.4985 -119.005 482.5997)" class="st2" width="0.8" height="52.3"/>
		<rect x="355.5" y="328.7" transform="matrix(0.5 -0.866 0.866 0.5 -129.271 485.6289)" class="st2" width="0.8" height="52.1"/>
		<path class="st2" d="M401.7,229.9c0.4-0.6,1.1-0.9,1.8-0.7c1.1,0.3,3.6,0.2,4.1-1.1s-0.5-1.3,0.5-2.3s2.3-0.1,2.7-0.3
			c0.7-0.6,1.1-1.4,1.2-2.3c0.2-1.2,1.1-2.1,2.2-2.4c0.9,0.1,3.2-0.8,3.2-2.1s-1.2-3.5,0.7-5.4s3.3-1.1,4.1-2.4
			c0.5-0.9,0.3-2-0.5-2.6c-1.6-0.2-3.2,0.6-3.9,2c-1.2,2.4-2.8,2.5-3.2,2.2s-3.1-0.7-2.9,1.4s0.3,2-0.4,2.3s-3.3-0.6-4.3,0.8
			s-1.7,3.6-1.3,4.7s-2.5-0.5-3.3,0.5s-0.6,3.3-0.2,4.1s-1.3,3-1.3,3L401.7,229.9z"/>
		<path class="st7" d="M401.7,230c0.4-0.5,1.1-0.8,1.8-0.7c0.4,0.1,0.7-1.6,2-3.2s4.2-2.4,5.4-5c1.2-2.1,2.5-4.1,4-6
			c1.4-1.7,2-2.6,2.5-3.1s4.1,0.3,5-1s-0.4-2.4-0.6-2.6c-1.6-0.3-3.2,0.6-3.9,2c-1.2,2.4-2.8,2.5-3.3,2.2s-3-0.7-2.9,1.3
			s0.4,2.1-0.3,2.4s-3.3-0.6-4.3,0.7c-1.1,1.4-1.6,3.1-1.4,4.8c0.4,1.2-2.4-0.6-3.3,0.5s-0.5,3.3-0.2,4s-1.1,3.1-1.1,3.1L401.7,230z
			"/>
		<path class="st8" d="M401.7,232.1c0.3-1.3,0.7-2.5,1.1-3.7c0.3-0.1,7.7-4,6.7-6.7c0,0-1.5-0.1-3.8,2.2s-2.4,1.3-1.7,0.4
			s3.9-4.7,3.9-4.7c2.3-0.5,4.4-1.9,5.6-4c2-3.3,2.5-3.9,2.2-4.1c-2.2,1.2-4.3,2.7-6.2,4.4c-0.4,0.8-0.8,1.6-1.4,2.3
			c-0.5,0.6-2.6,3.8-3.2,3.9s0.2-1,0.6-2.2s1.4-3.3,1.4-3.3c1.8-1.4,3.3-3.1,4.3-5.2c1.4-3.2,2.4-5.8,1.9-6.1s-4.9,5.1-5.6,7.3
			s-0.8,3.4-1.9,4.6l0.3-6.1c1.8-4.2,2.6-8.7,2.4-13.2c-2.1,3.7-3.2,7.9-3.2,12.2c0,0,0.2,5.8-0.6,5.9s-0.3,0.1-0.3-0.8
			s-0.1-4.6-1.4-4.6s0.3,4.8,0.3,4.8l1,3.4c0.1,0.4-0.3,5.3-1,5.5l-0.3-4.8c0.1-1.1-0.1-2.1-0.6-3.1c-0.8-1.4-1.8-3.6-1.8-3.6
			s-0.1,4,0.9,5.4s1,1.3,1,2.5s-0.3,6-0.3,6.1s-0.5,1.5-0.7,1.3c-0.5-0.5-0.9-1.1-1-1.8c-0.1-0.8-0.8,0.9-0.2,2.2s1,1.8,0.7,3
			l-0.2,0.7L401.7,232.1z"/>
		<path class="st9" d="M402.6,229c-0.4-0.9-0.7-1.9-1-2.9c0.1-0.2,2.9-5.8,1.1-7c0,0-1,0.6-1.4,3s-0.8,1.9-0.8,1.1s0.3-4.7,0.3-4.7
			c1.2-1.4,1.8-3.2,1.7-5c-0.3-2.9-0.3-3.4-0.5-3.4s-1.9,4.7-1.8,5.4s0.1,1.5,0.1,2.1s0.1,3.4-0.3,3.7s-0.3-0.6-0.5-1.6
			s-0.7-2.6-0.7-2.6c0.6-1.6,0.7-3.4,0.4-5.1c-0.6-2.6-1.2-4.6-1.6-4.6s-0.7,5.3-0.2,7s1,2.4,0.9,3.7l-2.6-3.9
			c-0.7-3.4-2.2-6.5-4.4-9.2c0.4,3.2,1.7,6.3,3.6,8.9c0,0,2.6,3.4,2.2,3.9s-0.1,0.1-0.5-0.4s-2.2-2.8-3-2.2s2.4,2.9,2.4,2.9l2.1,1.6
			c0.3,0.2,2.2,3.3,1.8,3.8l-2.3-2.8c-0.4-0.7-1-1.3-1.7-1.6l-2.8-1.4c0,0,1.7,2.4,3,2.9s1.2,0.4,1.7,1.1s2.6,3.7,2.6,3.8
			s0.3,1.2,0.1,1.1c-0.5,0-1-0.3-1.4-0.6c-0.4-0.5-0.1,0.9,0.8,1.4s1.5,0.7,1.8,1.6l0.2,0.5L402.6,229z"/>
		<path class="st10" d="M401.5,228.7c-0.3-0.6-0.8-1.1-1.5-1.2c-1.2,0-3.6-0.8-3.7-2.3s0.9-0.9,0.2-2.2s-2.1-0.8-2.5-1.1
			c-0.5-0.7-0.7-1.6-0.5-2.5c0.1-1.2-0.7-2.8-1.5-3s-2.8-1.6-2.4-2.9s2.1-2.9,0.8-5.4s-2.8-2-3.3-3.5s1.1-2.2,1.3-2.3
			c1.6,0.2,2.9,1.5,3.1,3.1c0.5,2.5,2,3.2,2.6,2.9s3.1,0.3,2.3,2.2s-0.9,1.8-0.2,2.3s3.3,0.4,3.9,2c0.6,1.6,0.5,3.3-0.1,4.9
			c-0.7,1.1,2.5,0.2,3,1.4s-0.4,3.4-1,4s0.4,3.2,0.4,3.2L401.5,228.7z"/>
		<path class="st7" d="M401.3,228.8c-0.2-0.7-0.8-1.2-1.5-1.2c-0.3,0-0.1-1.7-0.9-3.6s-3.4-3.5-3.8-6.3c-0.5-2.4-1.2-4.7-2.1-6.9
			c-0.8-2-1.2-3.1-1.5-3.7c-1.3-2.4-4-1-4.4-2.4s1-2.2,1.2-2.4c1.6,0.3,2.8,1.5,3.1,3.1c0.5,2.6,2.1,3.2,2.6,3s3.1,0.2,2.4,2.1
			s-1,1.9-0.4,2.4s3.3,0.3,4,1.9s0.6,3.9-0.2,5s2.6,0.1,3.1,1.4s-0.4,3.4-0.9,4s0.2,3.1,0.2,3.1L401.3,228.8z"/>
		<path class="st11" d="M403.6,226.8c0,0,0.1,6.4,1.7,9.5c4.2,9,11.5,32.4-3,32.9s-8.5-24.1-3.7-32.5c1.4-2.4,1.5-7.3,0.9-9.7
			L403.6,226.8z"/>
		<path class="st12" d="M398.2,237.4c0,0-4.7,32.1,6.9,31.4c0,0-12.1,3.7-11.9-10.7C393.4,250.9,395.1,243.9,398.2,237.4z"/>
		<path class="st24" d="M492.3,372.4c0,0,0.7,6.6-0.1,7.5s-2.5,1.7-6.2,2.9s-14.8,6.5-16.2,3.6s3.3-11.6,19.3-15.6L492.3,372.4z"/>
		<path class="st25" d="M491.9,364.8c0,0-4.6,0.9-8.4,1.9l1.6,5.9c0,0-13.6,6.4-11.6,9.7c0.6,0.7,3.1,0.9,8.9-1.5
			c8-3.2,9.8-4.7,9.8-4.7L491.9,364.8z"/>
		<path class="st32" d="M436.6,219.2l11.5,11.1c0.3,0.3,0.8,0.4,1.2,0.3l24.3-6.9c0.6-0.3,1-0.9,0.8-1.6c0-0.2-0.1-0.3-0.2-0.4
			l-11.5-11.3c-0.3-0.3-0.8-0.4-1.2-0.3l-24.4,7c-0.6,0.2-1,0.9-0.8,1.6L436.6,219.2z"/>
		<path class="st32" d="M448.9,232.4l11.5,11.1c0.3,0.3,0.7,0.4,1.1,0.3l24.5-6.9c0.6-0.2,1-0.9,0.8-1.5c0,0,0,0,0,0
			c-0.1-0.2-0.2-0.4-0.4-0.5L475,223.7c-0.2-0.3-0.7-0.5-1.1-0.3l-24.4,6.9c-0.7,0.2-1.1,0.9-0.9,1.6
			C448.6,232.1,448.7,232.3,448.9,232.4z"/>
		<path class="st38" d="M449.7,232.3l10.9,10.5c0.3,0.3,0.7,0.4,1.1,0.3l24.4-6.9c0.6-0.2,1-0.9,0.8-1.6c-0.1-0.1-0.1-0.3-0.3-0.4
			l-10.9-10.6c-0.3-0.3-0.7-0.4-1.1-0.3l-24.4,7c-0.6,0.2-1,0.8-0.9,1.5C449.4,232,449.5,232.2,449.7,232.3z"/>
		<path class="st31" d="M450,231.9l10.8,10.4c0.3,0.3,0.8,0.5,1.2,0.3l24.4-6.9c0.6-0.1,1-0.8,0.9-1.4l-0.4-0.6L476,223.2
			c-0.3-0.4-0.7-0.4-1.2-0.4l-24.4,7.1c-0.6,0.2-0.9,0.8-0.8,1.4L450,231.9z"/>
		<path class="st38" d="M437.4,219.3l10.9,10.5c0.3,0.3,0.8,0.4,1.2,0.3l24.4-6.9c0.6-0.2,0.9-0.9,0.8-1.5l-0.3-0.5l-10.9-10.6
			c-0.3-0.3-0.8-0.5-1.2-0.3l-24.4,6.9c-0.6,0.2-1,0.8-0.8,1.5c0,0,0,0.1,0,0.1C437.1,219,437.2,219.2,437.4,219.3z"/>
		<path class="st31" d="M437.7,218.8l10.9,10.5c0.3,0.3,0.7,0.4,1.1,0.3l24.5-6.9c0.6-0.2,1-0.9,0.8-1.5c0,0,0,0,0,0
			c-0.1-0.2-0.2-0.4-0.4-0.5l-10.9-10.6c-0.3-0.3-0.7-0.4-1.1-0.3l-24.4,7c-0.6,0.2-1,0.8-0.9,1.5
			C437.4,218.5,437.5,218.7,437.7,218.8z"/>
		<polygon class="st39" points="437.3,218.3 464.1,210.3 464.9,211.1 438,219 437.8,219.8 437.1,219.1 		"/>
		<path class="st40" d="M462.1,240.8h-0.2l-3.1-3.1c-0.1,0-0.2-0.1-0.2-0.2c0-0.1,0.1-0.2,0.2-0.2h0.4l3.1,3.1
			c0.1,0.1,0.1,0.3,0.1,0.5L462.1,240.8z"/>
		<path class="st40" d="M463.7,239.9h-0.2l-6.6-6.4c-0.1-0.1-0.1-0.3,0-0.4h0.4l6.7,6.4v0.4H463.7z"/>
		<path class="st40" d="M465.1,239.3h-0.3l-8.8-8.6c-0.1-0.1-0.2-0.4,0-0.4s0.3-0.2,0.4,0l8.9,8.6c0.1,0.1,0.1,0.3,0,0.4H465.1z"/>
		<path class="st40" d="M466.8,238.6h-0.2l-9-8.7c-0.1-0.1-0.1-0.2,0-0.4h0.4l9,8.6c0.1,0.2,0.1,0.3,0,0.5L466.8,238.6z"/>
		<path class="st40" d="M468,237.9l-0.3-0.2l-5.6-5.4c-0.1-0.2-0.1-0.4,0-0.4s0.3-0.2,0.4,0l5.7,5.4v0.4L468,237.9z"/>
		<path class="st40" d="M450.3,228.8h-0.2l-2.8-3.4c-0.1-0.1-0.1-0.3,0-0.4c0.2-0.1,0.3-0.1,0.4,0l2.8,3.4c0.1,0.1,0.1,0.4,0,0.5
			L450.3,228.8z"/>
		<path class="st40" d="M452,228.1h-0.3l-5.8-7.1c0-0.2,0-0.3,0.2-0.4c0.1,0,0.2,0,0.3,0.1l5.8,7.1c0.1,0.1,0.1,0.2,0,0.4L452,228.1
			z"/>
		<path class="st40" d="M453.4,227.7h-0.2l-7.9-9.6c-0.2-0.2-0.1-0.3,0-0.4h0.4l7.9,9.5c0.1,0.2,0.1,0.3,0,0.5H453.4z"/>
		<path class="st40" d="M455.1,227.2h-0.2l-7.9-9.6c-0.1-0.2-0.1-0.4,0.1-0.4h0.4l7.8,9.6c0.1,0,0.2,0.1,0.2,0.2
			c0,0.1-0.1,0.2-0.2,0.2H455.1z"/>
		<path class="st40" d="M456.4,226.5h-0.2l-5.1-6.1c0-0.1,0-0.3,0.1-0.4h0.4l5,6.1c0.1,0.1,0.1,0.3,0,0.4H456.4z"/>
		<path class="st40" d="M461.3,225.9h-0.2l-7-8.5c-0.1,0-0.2-0.1-0.1-0.2s0.1-0.2,0.2-0.1c0-0.1,0.2-0.1,0.4,0l0,0l7,8.5
			c0.1,0.2,0.1,0.3-0.1,0.5L461.3,225.9z"/>
		<path class="st2" d="M454.8,216.8l15-6l-0.3-1.1l-15.2,6.2c0.1,0.2,0,0.5-0.2,0.6H454c-0.4,0.2-0.2,0.5,0,0.4l0.7-0.3L454.8,216.8
			z"/>
		<path class="st6" d="M495.3,192.4l-9.3,16.8l-12.6,3.6c0,0-3.9-5.6-11.1-0.9s0.4,0.7,0.4,0.7s-1,0.4,0.3,0.6s-1.4,0.5-1.2,0.6
			s0.4,1.6,4.1,0.3c-0.2,0-0.4,0.2-0.4,0.3c-0.4,2.9,4.2,4.6,7.1,4.6c0.5,0,1.5-0.7,2.3-0.7l13.8-0.9l1.6-0.7c2-2,3.4-4.4,4.3-7
			c-0.4-2.3-0.2-4.6,0.6-6.8c0.6-1.6,1.3-3.2,2.3-4.6c1-1.3,1.9-2.7,2.7-4.2c0.1-0.6-0.2-0.1-0.4-0.2L495.3,192.4z"/>
		<path class="st32" d="M464.1,201.7h10.2v2.9c0,1.9-1.5,3.4-3.4,3.4h-3.4c-1.8-0.1-3.3-1.6-3.3-3.4l0,0v-2.9H464.1z"/>
		
			<linearGradient id="SVGID_14_" gradientUnits="userSpaceOnUse" x1="-9937.6201" y1="619.9991" x2="-9933.5498" y2="619.9991" gradientTransform="matrix(1 0 0 -1 10411.5 823.8)">
			<stop  offset="0" style="stop-color:#DCDCDC"/>
			<stop  offset="0" style="stop-color:#DADBDC"/>
			<stop  offset="0" style="stop-color:#D2D6DE"/>
			<stop  offset="0" style="stop-color:#C4CFE0"/>
			<stop  offset="0" style="stop-color:#B0C5E4"/>
			<stop  offset="0" style="stop-color:#97B7E8"/>
			<stop  offset="0" style="stop-color:#78A7EE"/>
			<stop  offset="0" style="stop-color:#5393F5"/>
			<stop  offset="0" style="stop-color:#297CFC"/>
			<stop  offset="0" style="stop-color:#1974FF"/>
			<stop  offset="5.000000e-02" style="stop-color:#1D76FF"/>
			<stop  offset="0.37" style="stop-color:#3182FF"/>
			<stop  offset="0.69" style="stop-color:#3D8AFF"/>
			<stop  offset="1" style="stop-color:#418CFF"/>
		</linearGradient>
		<path class="st41" d="M476,205.7c-1,0.2-2.1-0.5-2.3-1.5c-0.2-1,0.5-2.1,1.5-2.3h0.8c1-0.2,2,0.5,2.2,1.5c0.2,1-0.5,2.1-1.5,2.3
			H476z M476,202.7c-0.7-0.1-1.2,0.4-1.3,1.1c0,0,0,0,0,0l0,0c0,0.7,0.5,1.2,1.2,1.2c0,0,0.1,0,0.1,0c0.7,0,1.2-0.5,1.2-1.2
			c0,0,0,0,0,0C477.1,203.1,476.6,202.6,476,202.7z"/>
		<path class="st13" d="M475.2,207.2c-0.2-0.4-0.6-2.8,0.9-2.8s1.5,1.8,1.5,1.8h0.7c0.5,0,2.1-0.4,0.8-1c-1-0.6-1.7-1.7-1.9-2.9
			c-0.2-0.8,0.3-1,0.5-0.7l2.7,1.8c1.8,1.3,2.1,3.1,2.6,4.3c0.6,0.9,1.4,1.6,2.3,2l14.5,10.4l9.9-17.7c0,0,7.4-17.8,13.6-15.2
			s4,10.1,4,10.1c-0.2,2.1-3.3,5.1-3.3,5.1l-4.3,5c0,0-16.3,21.8-19.3,20.9s-17.7-15.1-17.7-15.1l-1-0.9c-0.2,0-3.5,0.7-5.1-0.2
			s-0.3-1.8-1-2.7S475.5,207.6,475.2,207.2z"/>
		<path class="st5" d="M534,192.6c0,0,0.3-8.3-7.6-11.7s-9.2,11.4-15.5,16.5l8.2,10.3l6.2-5.8C525.3,201.9,533.8,195.1,534,192.6z"
			/>
		<ellipse class="st42" cx="511.6" cy="154.2" rx="0.2" ry="0.3"/>
		<ellipse class="st42" cx="505.4" cy="154.4" rx="0.2" ry="0.3"/>
	</g>
</g>
</svg>
