<svg xmlns="http://www.w3.org/2000/svg" xmlns:xlink="http://www.w3.org/1999/xlink" viewBox="0 0 964 413"><defs><style>.cls-1{fill:none;}.cls-2{fill:#50565b;}.cls-3{fill:#b9bfc7;}.cls-4{fill:#0530ad;}.cls-5{fill:#97c1ff;}.cls-6{fill:#6ea6ff;}.cls-27,.cls-7{fill:#054ada;}.cls-8{fill:#408bfc;}.cls-9{fill:#0062ff;}.cls-10{fill:#061f80;}.cls-11{fill:#fff;}.cls-12{fill:#c9deff;}.cls-13{fill:#999;opacity:0.28;}.cls-13,.cls-27,.cls-29{isolation:isolate;}.cls-14,.cls-29{fill:#00bab6;}.cls-15{clip-path:url(#clip-path);}.cls-16{fill:#051243;}.cls-17{clip-path:url(#clip-path-2);}.cls-18{fill:#007d79;}.cls-19{fill:#20d5d2;}.cls-20{clip-path:url(#clip-path-3);}.cls-21{clip-path:url(#clip-path-4);}.cls-22{fill:#d6d6d6;}.cls-23{clip-path:url(#clip-path-5);}.cls-24{fill:#d5d9e0;}.cls-25{fill:#b3b3b3;}.cls-26{fill:#4d4d4d;}.cls-27,.cls-29{opacity:0.46;}.cls-28{fill:#333;}.cls-30{fill:#92eeee;}.cls-31{fill:#004548;}.cls-32{fill:#006161;}</style><clipPath id="clip-path"><polygon class="cls-1" points="234.6 138 234.7 124 247.2 122.3 247.1 136.2 234.6 138"/></clipPath><clipPath id="clip-path-2"><polygon class="cls-1" points="342.9 78.1 342.9 64.1 355.4 62.3 355.4 76.3 342.9 78.1"/></clipPath><clipPath id="clip-path-3"><polygon class="cls-1" points="299.4 128.6 299.4 114.7 311.9 112.9 311.9 126.8 299.4 128.6"/></clipPath><clipPath id="clip-path-4"><polygon class="cls-1" points="405.6 67.4 405.6 53.5 418.1 51.7 418.1 65.6 405.6 67.4"/></clipPath><clipPath id="clip-path-5"><polygon class="cls-1" points="728.6 103.1 728.6 89.7 896.2 186.4 896.1 199.8 728.6 103.1"/></clipPath></defs><title>Asset 8</title><g id="Layer_2" data-name="Layer 2"><g id="Layer_1-2" data-name="Layer 1"><polygon class="cls-2" points="173.5 150.3 253.2 195.8 476.7 66.8 476.7 57.9 427 38.1 173.5 141.4 173.5 150.3"/><polygon class="cls-3" points="173.5 141.4 253.2 186.1 476.7 57.1 396.5 12.4 173.5 141.4"/><polygon class="cls-2" points="0 367.5 79.6 413 303.1 284 303.1 275.2 253.5 255.4 0 358.7 0 367.5"/><polygon class="cls-3" points="0 358.7 79.6 403.3 303.1 274.3 222.9 229.7 0 358.7"/><polygon class="cls-4" points="76.5 377 144.5 336.8 144.5 351.1 76.5 392.2 76.5 377"/><polygon class="cls-5" points="53.3 363.5 122.5 323.6 144.5 336.8 76.5 377 53.3 363.5"/><polygon class="cls-6" points="53.4 314.9 53.4 364.5 122.5 323.6 122.5 284.9 53.4 314.9"/><polygon class="cls-7" points="28 269.6 76.5 297 145.6 256.6 98 229.7 28 269.6"/><polygon class="cls-8" points="98.2 261.3 98.2 274.5 75.3 287.9 53.3 275.2 53.3 261.3 75.7 274.5 98.2 261.3"/><polygon class="cls-6" points="57.5 257.5 79.8 244.3 102.4 257.5 80 270.8 57.5 257.5"/><path class="cls-9" d="M65.9,321.5v6.1s15.6,14.1,27-.6l.3-9.5Z"/><path class="cls-9" d="M104.6,311.1s9.9,4.6,19.2.8c0,0,3.6-2.3,3.9-4.6V298Z"/><polygon class="cls-10" points="28 269.6 76.5 297 76.5 327 53.4 314.9 53.3 363.5 76.5 377 76.5 392.2 28 364.7 28 269.6"/><polygon class="cls-4" points="76.5 297 76.5 327 145.6 287.9 145.6 256.6 76.5 297"/><ellipse class="cls-8" cx="87.4" cy="358.1" rx="11.9" ry="7.3" transform="translate(-139.6 67.7) rotate(-24.3)"/><ellipse class="cls-8" cx="119.4" cy="339.2" rx="11.9" ry="7.1" transform="translate(-129 79.2) rotate(-24.3)"/><path class="cls-10" d="M218.3,90.7s8.1,7.6,8.7,12.2.8,57.1.8,57.1l-16.2-9.1.6-48a15.4,15.4,0,0,1,6.1-12.2Z"/><path class="cls-4" d="M227.8,160s21.5-10.4,27.4-15.4V98.4A23.1,23.1,0,0,0,253.7,88a76.4,76.4,0,0,0-5.6-10.1L218.6,91s8.2,7.2,8.4,12.6S227.8,160,227.8,160Z"/><polygon class="cls-11" points="229.5 117.6 253.8 103.5 253.8 140.5 229.8 153.5 229.5 117.6"/><path class="cls-12" d="M247.7,70.7a5.2,5.2,0,0,1,1,2.7,14.8,14.8,0,0,1,0,4.2L219.1,90.7v-6Z"/><path class="cls-8" d="M219,84.7l29.3-13.2s-.3-1.1-1.2-.9-29,13.4-29,13.4a.8.8,0,0,1,.9.7Z"/><path class="cls-7" d="M217.7,91.2s-1.8-6.7.5-7.2.9,6.7.9,6.7Z"/><path d="M229.4,78.6a1,1,0,0,1,1.3.7c0,.1.1.2,0,.3s.7,5.6.2,5.9a32.5,32.5,0,0,1,4,7c1,2.9,2.1,7.5,2.1,7.5l6.5-3.1s1.1-3.8-5.9-14.4V77.3s-.3-1.9-1.6-2.1Z"/><polygon class="cls-13" points="231.2 85.8 230.9 85.2 237.5 82.3 237.7 82.8 231.2 85.8"/><path class="cls-14" d="M229.6,110.2c.5,1.8,2,2.3,3.6,1.5s3.1-3.8,2.5-6.1-2.5-2.4-4.3-1.2A5.6,5.6,0,0,0,229.6,110.2Z"/><g class="cls-15"><path class="cls-16" d="M245.2,130.1l-.8.2a7,7,0,0,0-3.7,3.3c-.2.6-.4,2.1-.2,2h.1c1.3-1.2,2.3-.8,3.8-2.4a10.9,10.9,0,0,0,2.1-2.7c0-.2-.3-.5-1.3-.4"/><path class="cls-16" d="M247,131c-.5.1-1.5,2-2.7,3.2s-2.6,1.3-3.2,1.8,0,.7,0,.7a2.2,2.2,0,0,0,1.4.2,6.8,6.8,0,0,0,2.6-1.2c2.6-2,2.2-4.6,2-4.7H247"/><path class="cls-16" d="M242.6,122.9l-1,.3c-.6.2-1.6.8-1.6,1.2s.2.3.4.3l3.1.4c1,.1,2.6.8,3.2.7h.2c.2-.2.3-1-1-2a4.9,4.9,0,0,0-3.3-.9"/><path class="cls-16" d="M240,125.1c-.4.1-.3.6-.3.6s.1,1.8,3,2.3a3.8,3.8,0,0,0,1.5.1,2.7,2.7,0,0,0,2.4-1.7l-2.9-.4-3.5-.9H240"/><path class="cls-16" d="M235.9,126.9c-.3.1-.9.6-1.2,2.2a5.7,5.7,0,0,0,1.2,4.5c.3.4,1,.9,1.4.8h.2s.2-.1.1-.5-.7-2.6-.8-3.2-.4-3.6-.8-3.7h-.1"/><path class="cls-16" d="M236.9,126.7h-.2c-.2.2.5,2,.7,3.1s.5,3.2.6,3.8.2.4.3.4l.4-.2s1.4-1.2.8-4.3-2.1-2.9-2.6-2.8"/></g><path class="cls-10" d="M326.6,30.8s8.1,7.6,8.6,12.1.8,57.2.8,57.2L319.8,91l.6-48.1A15.6,15.6,0,0,1,326.6,30.8Z"/><path class="cls-4" d="M336,100.1s21.5-10.5,27.5-15.5V38.5A22,22,0,0,0,362.1,28a90.5,90.5,0,0,0-5.7-10.1L326.8,31s8.3,7.3,8.5,12.7S336,100.1,336,100.1Z"/><polygon class="cls-11" points="337.8 57.6 362.1 43.6 362.1 80.5 338.1 93.5 337.8 57.6"/><path class="cls-12" d="M355.9,10.7a5.4,5.4,0,0,1,1.1,2.7,15.5,15.5,0,0,1,0,4.3L327.4,30.8v-6Z"/><path class="cls-8" d="M327.3,24.8l29.3-13.2s-.4-1.2-1.2-1-29,13.5-29,13.5S327,24,327.3,24.8Z"/><path class="cls-7" d="M325.9,31.3s-1.7-6.8.6-7.2.9,6.7.9,6.7Z"/><path d="M337.7,18.6s1-.3,1.2,1.1.7,5.6.3,5.9a29.3,29.3,0,0,1,3.9,6.9c1.1,3,2.2,7.6,2.2,7.6l6.5-3.1s1-3.8-6-14.4V17.4s-.2-1.9-1.5-2.1Z"/><polygon class="cls-13" points="339.4 25.9 339.2 25.3 345.7 22.3 346 22.9 339.4 25.9"/><path class="cls-14" d="M337.9,50.2a2.4,2.4,0,0,0,2.8,1.9l.8-.3c1.7-.9,3-3.9,2.4-6.2s-2.4-2.4-4.2-1.1A5.3,5.3,0,0,0,337.9,50.2Z"/><g class="cls-17"><path class="cls-16" d="M353.5,70.2l-.9.2a6.5,6.5,0,0,0-3.6,3.3c-.3.6-.5,2-.2,2h.1c1.3-1.2,2.3-.8,3.8-2.3a7.2,7.2,0,0,0,2-2.7c0-.2-.2-.6-1.2-.5"/><path class="cls-16" d="M355.3,71.1c-.6.1-1.5,1.9-2.7,3.2s-2.7,1.3-3.2,1.7a.5.5,0,0,0-.1.8,2.2,2.2,0,0,0,1.4.2,6.8,6.8,0,0,0,2.7-1.3c2.6-1.9,2.2-4.5,1.9-4.6h0"/><path class="cls-16" d="M350.9,63l-1,.2c-.7.2-1.6.8-1.6,1.3s0,.2.4.3l3,.4c1.1.1,2.7.7,3.3.7h.2c.1-.2.2-1.1-1-2.1a4.9,4.9,0,0,0-3.3-.7"/><path class="cls-16" d="M348.3,65.2c-.4,0-.4.5-.4.5s.2,1.9,3,2.4h1.6a2.8,2.8,0,0,0,2.4-1.6,13.5,13.5,0,0,0-2.9-.4l-3.5-.9h-.2"/><path class="cls-16" d="M344.2,67c-.3,0-.9.5-1.2,2.2a5.6,5.6,0,0,0,1.2,4.5,2.9,2.9,0,0,0,1.4.8h.2a.5.5,0,0,0,0-.5c-.1-.4-.6-2.7-.8-3.2s-.4-3.7-.8-3.7h0"/><path class="cls-16" d="M345.1,66.7h-.2c-.1.2.6,1.9.8,3s.4,3.2.6,3.9.2.4.3.4l.3-.2s1.4-1.3.8-4.3-2-2.9-2.6-2.8"/></g><path class="cls-18" d="M283,81.3s8.1,7.6,8.7,12.2.8,57.1.8,57.1l-16.2-9.1.6-48A15.4,15.4,0,0,1,283,81.3Z"/><path class="cls-19" d="M292.5,150.6S314,140.2,320,135.2V89.1a22.1,22.1,0,0,0-1.5-10.5,76.4,76.4,0,0,0-5.6-10.1L283.3,81.6s8.3,7.3,8.5,12.7S292.5,150.6,292.5,150.6Z"/><polygon class="cls-11" points="294.3 108.2 318.6 94.1 318.6 131.1 294.6 144.1 294.3 108.2"/><path class="cls-12" d="M312.4,61.3a5.4,5.4,0,0,1,1.1,2.7,14.8,14.8,0,0,1,0,4.2L283.9,81.3v-6Z"/><path class="cls-8" d="M283.8,75.3l29.3-13.1s-.4-1.2-1.3-1-29,13.4-29,13.4A1,1,0,0,1,283.8,75.3Z"/><path class="cls-7" d="M282.4,81.8s-1.7-6.7.6-7.1.9,6.6.9,6.6Z"/><path d="M294.1,69.2s1.1-.3,1.3,1.1.7,5.5.2,5.8a32.5,32.5,0,0,1,4,7c1,3,2.2,7.5,2.2,7.5l6.5-3.1s1-3.8-6-14.4V67.9s-.2-1.9-1.5-2.1Z"/><polygon class="cls-13" points="295.9 76.4 295.7 75.9 302.2 72.9 302.5 73.4 295.9 76.4"/><path class="cls-7" d="M294.3,100.8c.6,1.8,2,2.3,3.7,1.5s3-3.8,2.4-6.1-2.5-2.4-4.3-1.2A6,6,0,0,0,294.3,100.8Z"/><g class="cls-20"><path class="cls-16" d="M310,120.7l-.9.2a7.2,7.2,0,0,0-3.6,3.3c-.3.6-.5,2.1-.2,2h0c1.3-1.2,2.4-.8,3.8-2.4s2.1-2.4,2.1-2.7-.3-.5-1.2-.4"/><path class="cls-16" d="M311.7,121.7c-.5,0-1.4,1.9-2.7,3.2s-2.6,1.2-3.2,1.7,0,.7,0,.7a2.2,2.2,0,0,0,1.4.2,6.6,6.6,0,0,0,2.7-1.2c2.5-1.9,2.1-4.6,1.8-4.6h0"/><path class="cls-16" d="M307.3,113.5l-1,.3c-.6.2-1.6.8-1.5,1.2s0,.3.4.3l3,.4c1.1.1,2.7.8,3.3.7h.2c.1-.2.2-1-1.1-2a4.9,4.9,0,0,0-3.3-.9"/><path class="cls-16" d="M304.8,115.7c-.4.1-.4.6-.4.6s.2,1.8,3,2.3a2.9,2.9,0,0,0,1.6.1,2.5,2.5,0,0,0,2.3-1.6c0-.3-1.8-.3-2.9-.5l-3.4-.9h-.2"/><path class="cls-16" d="M300.6,117.6c-.3,0-.9.5-1.2,2.2a5.4,5.4,0,0,0,1.2,4.4c.4.4,1,.9,1.4.8h.2s.2-.1.1-.5-.6-2.6-.8-3.1-.4-3.7-.8-3.7h-.1"/><path class="cls-16" d="M301.6,117.3c-.1,0-.2,0-.2.1s.6,1.9.8,3,.4,3.2.5,3.8.2.4.4.4h.3s1.4-1.3.8-4.4-2.1-2.9-2.6-2.9"/></g><path class="cls-18" d="M389.3,20.1s8.1,7.6,8.6,12.2.8,57.1.8,57.1l-16.2-9.1.6-48A15.8,15.8,0,0,1,389.3,20.1Z"/><path class="cls-19" d="M398.7,89.4S420.2,79,426.2,74V27.8a21.8,21.8,0,0,0-1.4-10.4,67,67,0,0,0-5.7-10.1L389.5,20.4s8.3,7.2,8.5,12.6S398.7,89.4,398.7,89.4Z"/><polygon class="cls-11" points="400.5 47 424.8 32.9 424.8 69.9 400.8 82.9 400.5 47"/><path class="cls-12" d="M418.6.1a5.4,5.4,0,0,1,1.1,2.7,14.8,14.8,0,0,1,0,4.2L390.1,20.1v-6Z"/><path class="cls-8" d="M390,14.1,419.3.9s-.4-1.1-1.2-.9-29,13.4-29,13.4a.8.8,0,0,1,.9.7Z"/><path class="cls-7" d="M388.7,20.6s-1.8-6.7.5-7.1.9,6.6.9,6.6Z"/><path d="M400.4,8s1-.3,1.2,1,.7,5.6.3,5.9a32.1,32.1,0,0,1,3.9,7c1.1,3,2.2,7.5,2.2,7.5l6.5-3.1s1-3.8-6-14.4V6.7s-.2-1.9-1.5-2.1Z"/><polygon class="cls-13" points="402.1 15.2 401.9 14.7 408.4 11.7 408.7 12.2 402.1 15.2"/><path class="cls-7" d="M400.6,39.6c.5,1.8,2,2.3,3.6,1.5s3-3.8,2.4-6.1-2.4-2.4-4.2-1.2A5.6,5.6,0,0,0,400.6,39.6Z"/><g class="cls-21"><path class="cls-16" d="M416.2,59.5l-.9.2a7.2,7.2,0,0,0-3.6,3.3c-.3.6-.5,2.1-.2,2h.1c1.3-1.2,2.3-.8,3.8-2.4s2-2.4,2-2.7-.2-.5-1.2-.4"/><path class="cls-16" d="M418,60.4c-.5.1-1.5,2-2.7,3.3s-2.7,1.2-3.2,1.7-.1.7-.1.7a2.2,2.2,0,0,0,1.4.2,6.6,6.6,0,0,0,2.7-1.2c2.6-2,2.2-4.6,1.9-4.6h0"/><path class="cls-16" d="M413.6,52.3l-1,.3c-.7.2-1.6.8-1.6,1.2s0,.3.4.3l3,.4c1.1.1,2.7.8,3.3.7h.2c.1-.2.2-1-1-2a4.8,4.8,0,0,0-3.3-.8"/><path class="cls-16" d="M411,54.5c-.4.1-.4.6-.4.6s.2,1.8,3,2.3a2.9,2.9,0,0,0,1.6.1,2.7,2.7,0,0,0,2.4-1.7l-2.9-.4-3.5-.9H411"/><path class="cls-16" d="M406.9,56.3c-.3.1-.9.6-1.2,2.3a5.4,5.4,0,0,0,1.2,4.4c.3.4.9.9,1.4.8h.2s.1-.1,0-.5-.6-2.6-.8-3.1-.3-3.7-.8-3.8h0"/><path class="cls-16" d="M407.8,56.1h-.2c-.1.3.6,2,.8,3.1s.4,3.2.6,3.8.2.4.3.4h.3s1.4-1.3.8-4.4-2-2.9-2.6-2.9"/></g><polygon class="cls-22" points="673.8 43.5 963.7 210.8 963.7 394.6 671.6 226.1 673.8 43.5"/><polygon class="cls-4" points="673.8 44 963.7 210.8 963.2 248.6 673 81.1 673.8 44"/><g class="cls-23"><path class="cls-24" d="M730.9,102V99.1l2.7,1.6a1.9,1.9,0,0,1,1,1.7v.6c0,.7-.4.9-1,.5l-2.7-1.5m0-5V94.2l2.3,1.3a2.1,2.1,0,0,1,1,1.7v.5c0,.7-.4,1-1,.6L730.9,97m2.9-3.4-5.2-3v12.3l5.6,3.2c1.6.9,2.8.1,2.8-1.9a4.9,4.9,0,0,0-2.4-4.2h0c1.1.5,2,.3,2-1.5a5.9,5.9,0,0,0-2.8-4.9"/><path class="cls-24" d="M740.5,104.3v-.2c0-1.1.6-1.5,1.5-1a2.8,2.8,0,0,1,1.3,2.6v.2l-2.8-1.6m1.4-3.2c-2.4-1.4-3.7-.2-3.7,2.7a7.4,7.4,0,0,0,3.8,7c1.5.9,2.6,1,3.4.4l-1.2-2.2a1.5,1.5,0,0,1-1.9-.1,3.4,3.4,0,0,1-1.8-3h0l5.1,3v-.8a8.1,8.1,0,0,0-3.7-7"/><path class="cls-24" d="M750,113.7a1.8,1.8,0,0,1-1-1.6v-.3c0-.7.5-.8,1.3-.3l1.1.7v1.1c0,.8-.6.8-1.4.4m.3-7.7c-1.7-1-2.6-.9-3.3-.2l1.4,2.2c.3-.4.8-.6,1.7-.1a2.2,2.2,0,0,1,1.3,2.2v.6l-1.2-.7c-2.2-1.3-3.5-1.1-3.5.9a4.7,4.7,0,0,0,2.5,4.1c1.2.7,2.1.6,2.4-.5h0a4.2,4.2,0,0,0,1.6,2.5l1.2.7v-2l-.7-.5v-4a6.2,6.2,0,0,0-3.4-5.3"/><path class="cls-24" d="M760.6,111.9c-1.3-.7-2-.3-2.3.5h-.1v-1.5l-2.2-1.4v9.3l2.3,1.3v-6c0-.9.7-.9,1.5-.5a2.5,2.5,0,0,1,1.1,2.4v5.6l2.2,1.3v-5.8a5.4,5.4,0,0,0-2.4-5.1"/><path class="cls-24" d="M767.3,116l-2.2-1.3v9.2l2.2,1.3V116m-1.1-4.6c-.9-.5-1.3-.2-1.3.6v.3a2.3,2.3,0,0,0,1.3,2.1c.9.5,1.3.2,1.3-.5v-.4a2.3,2.3,0,0,0-1.3-2.1"/><path class="cls-24" d="M771.3,122h0c0-1.1.5-1.6,1.5-1.1a2.9,2.9,0,0,1,1.3,2.7v.2l-2.8-1.8m1.4-3c-2.4-1.4-3.8-.3-3.8,2.7a7.8,7.8,0,0,0,3.9,7c1.4.8,2.6.9,3.3.4l-1.1-2.3c-.5.4-1,.6-2,0a3.4,3.4,0,0,1-1.7-3h0l5.1,2.9V126a8.1,8.1,0,0,0-3.7-7"/><path class="cls-24" d="M778.8,118.7c-.9-.6-1.3-.2-1.3.5v.4a2.4,2.4,0,0,0,.9,1.8,2.1,2.1,0,0,1-1.4,1.5l1.4.8a2.6,2.6,0,0,0,1.7-2.6v-.4a2.2,2.2,0,0,0-1.3-2"/><path class="cls-24" d="M783.8,125.3c-2-1.1-3.2-.6-3.2,1.2s.9,3.1,2.7,4.4l.9.6a1.6,1.6,0,0,1,.8,1.3c0,.5-.3.7-1.2.1a6.1,6.1,0,0,1-2.1-2.4l-1.3.8a8.2,8.2,0,0,0,3.3,3.6c2.1,1.2,3.5.7,3.5-1.1s-.9-3-2.7-4.3l-.9-.6a1.6,1.6,0,0,1-.8-1.4c0-.4.3-.6,1.1-.1a5.8,5.8,0,0,1,1.8,2l1.3-.8a7.8,7.8,0,0,0-3.2-3.3"/><path class="cls-24" d="M796.8,129.8c-2.9-1.7-4.7-.5-4.8,3.7a9.5,9.5,0,0,0,4.8,8.9c2.9,1.6,3.2.8,4-.6l-1.9-2.3c-.3.8-1,1.2-2.1.6a4.8,4.8,0,0,1-2.3-4.3v-2c0-1.9.9-2.4,2.3-1.7a5,5,0,0,1,2,2.9h2a9.1,9.1,0,0,0-4-5.2"/><path class="cls-24" d="M805.1,145.4a1.9,1.9,0,0,1-1.1-1.6v-.2c0-.7.5-.8,1.4-.3l1.1.7v1c0,.9-.7.9-1.4.4m.2-7.7c-1.7-.9-2.6-.8-3.2-.1l1.3,2.2c.4-.4.8-.7,1.7-.1a2.3,2.3,0,0,1,1.4,2.2v.6l-1.3-.8c-2.1-1.2-3.4-1-3.4.9a4.8,4.8,0,0,0,2.4,4.2c1.3.7,2.1.6,2.4-.5h.1a3.2,3.2,0,0,0,1.5,2.5l1.3.8v-2l-.8-.5v-4a6,6,0,0,0-3.4-5.4"/><path class="cls-24" d="M813.3,138.8l-2.3-1.3v10.4a4,4,0,0,0,2.2,3.8l1.1.6v-2l-1.1-.6V138.8"/><path class="cls-24" d="M817.5,148.7h0c0-1.2.5-1.6,1.4-1.1a3,3,0,0,1,1.4,2.7h0l-2.8-1.6m1.4-3.1c-2.4-1.4-3.8-.3-3.8,2.6a8,8,0,0,0,3.9,7.1c1.4.8,2.6.9,3.3.4l-1.1-2.3a1.8,1.8,0,0,1-2,0,3.4,3.4,0,0,1-1.7-3v-.2l5.1,3v-.8a7.5,7.5,0,0,0-3.7-6.8"/><path class="cls-24" d="M828.8,151.3c-1.2-.7-1.9-.3-2.2.5h-.1v-1.6l-2.3-1.3v9.2l2.3,1.3v-6c0-.9.7-.9,1.4-.5a2.2,2.2,0,0,1,1.2,2.4v5.6l2.3,1.3v-5.8c0-2.3-.8-4.2-2.5-5.1"/><path class="cls-24" d="M836.8,163.4a3.3,3.3,0,0,1-1.5-2.7v-1.6c0-1.2.6-1.6,1.5-1.1a3.1,3.1,0,0,1,1.5,2.2v2.7c0,.9-.7,1-1.5.5m3.7-8.9-2.2-1.3v5.3h-.1a4.6,4.6,0,0,0-2.2-3c-2-1.2-3.1-.1-3.1,3s1.1,5.4,3.1,6.6,1.9.4,2.2-.5h0v1.6l2.3,1.3v-13"/><path class="cls-24" d="M845.4,168.7a1.8,1.8,0,0,1-1-1.6v-.2c0-.7.4-.8,1.3-.3l1.1.6v1.1c0,.9-.6.9-1.4.4m.3-7.7c-1.7-.9-2.6-.8-3.3-.1l1.4,2.2c.3-.4.8-.7,1.7-.1a2.5,2.5,0,0,1,1.3,2.2v.6l-1.3-.8c-2.1-1.2-3.4-1-3.4.9a5,5,0,0,0,2.5,4.2c1.2.7,2.1.5,2.3-.5h.1a3.3,3.3,0,0,0,1.6,2.5l1.2.8v-2.1l-.7-.4v-4a6.1,6.1,0,0,0-3.4-5.4"/><path class="cls-24" d="M856.1,167.3l-.4-.3c-1.2-.7-1.8,0-2,.9h-.1v-2l-2.2-1.3v9.2l2.3,1.3v-5.3c0-1.1.7-1.1,2-.3l.5.3v-2.5"/><path class="cls-24" d="M864.7,168.9c-2.3-1.2-3.5-.5-4,.9l2,2c.2-.8.7-1.3,1.7-.7a3,3,0,0,1,1.4,2.2v.3c0,1-.4,1.5-1.6,1.9l-3.3,1.4v2.4l7.6,4.3v-2.2l-5.1-2.9,2-.6c1.6-.5,2.9-1.1,2.9-3.2a7.1,7.1,0,0,0-3.6-5.8"/><path class="cls-24" d="M873.8,184.7c-1.2-.7-1.6-2-1.6-3.9v-2.3c0-1.9.4-2.7,1.6-2s1.7,2,1.7,3.9v2.3c0,1.9-.4,2.7-1.7,2m.1-10.4c-2.8-1.7-4.2-.1-4.2,3.9s1.3,7.1,4.1,8.7,4.1.1,4.1-3.9-1.2-7.1-4-8.7"/><polyline class="cls-24" points="884.6 180.6 882.2 179.2 879.1 179.4 880 181.8 882.4 181.7 882.3 189.5 879.7 187.9 879.7 190 887 194.2 887 192.1 884.6 190.8 884.6 180.6"/><path class="cls-24" d="M892.1,190.9a3.2,3.2,0,0,1-1.6-2.8v-.3c0-1.2.6-1.5,1.6-.9a3,3,0,0,1,1.7,2.8v.3c0,1.2-.7,1.5-1.7.9m0-6.1c-2.4-1.4-4-.5-4,2a6.6,6.6,0,0,0,3.1,5.6c1.4.8,2,.3,2.4-.5v.2c-.4,2.1-2,2.8-4.6,3.5l3.2,1.8c1.8-.4,3.8-2,3.8-5.4a8.3,8.3,0,0,0-3.9-7.2"/></g><rect class="cls-25" x="697.8" y="95.6" width="0.9" height="145.9"/><rect class="cls-25" x="737.6" y="118.9" width="0.9" height="145.9"/><rect class="cls-25" x="777.4" y="141.5" width="0.9" height="145.9"/><rect class="cls-25" x="814.8" y="163.3" width="0.9" height="145.9"/><rect class="cls-25" x="848.7" y="182.2" width="0.9" height="145.9"/><rect class="cls-25" x="885.7" y="204.9" width="0.9" height="145.9"/><rect class="cls-25" x="923.4" y="226.1" width="0.9" height="145.9"/><rect class="cls-25" x="817.3" y="19.4" width="0.9" height="337.09" transform="translate(246.1 802.1) rotate(-60)"/><rect class="cls-25" x="817.3" y="50.1" width="0.9" height="337.09" transform="translate(219.5 817.5) rotate(-60)"/><rect class="cls-25" x="817.2" y="80.6" width="0.9" height="337.09" transform="translate(193 832.7) rotate(-60)"/><rect class="cls-25" x="817.3" y="111.3" width="0.9" height="337.09" transform="translate(166.5 848.1) rotate(-60)"/><rect class="cls-26" x="714.1" y="122" width="0.9" height="26.2" transform="translate(227.9 675.5) rotate(-58.7)"/><rect class="cls-26" x="710.1" y="128.9" width="0.9" height="17" transform="translate(224 673.2) rotate(-58.7)"/><rect class="cls-26" x="751.5" y="175.1" width="0.9" height="26.2" transform="translate(200.5 732.9) rotate(-58.7)"/><rect class="cls-26" x="751.4" y="184.4" width="0.9" height="26.2" transform="translate(192.5 737.3) rotate(-58.7)"/><rect class="cls-26" x="747.5" y="182.1" width="0.9" height="17" transform="translate(196.6 730.7) rotate(-58.7)"/><path class="cls-27" d="M828.9,259.7s5.3-1.2,5.7-1.6c4.5-4.3,9.8-13,9.8-19.5Z"/><path class="cls-5" d="M821.8,226.1l22.6,12.5s-12.6,22.4-16.2,21.1l-21.1-12,3.1-3.5a61.3,61.3,0,0,0,8.5-12.3Z"/><path class="cls-28" d="M834.6,238.8h0l-12.8-7.2a.2.2,0,0,1-.1-.3h.3l12.7,7.2a.4.4,0,0,1,.1.3Z"/><path class="cls-28" d="M830.4,242h0l-11.1-6.2c-.1-.1-.2-.2-.1-.3s.2-.2.3-.1l11,6.2c.1.1.2.2.1.3Z"/><path class="cls-28" d="M827.2,237.6h0l-6.4-3.6c-.1-.1-.2-.2-.1-.3s.2-.2.3-.1l6.4,3.6a.2.2,0,0,1,0,.3h-.2Z"/><path class="cls-29" d="M717.1,225.5s5.3-1.3,5.7-1.7c4.5-4.3,9.8-13,9.8-19.5Z"/><path class="cls-30" d="M710,191.8l22.6,12.5s-12.6,22.4-16.1,21.1c-.4-.1-21.1-12-21.1-12l3.1-3.5a64.9,64.9,0,0,0,8.5-12.2Z"/><path class="cls-28" d="M722.8,204.5h0L710,197.3c-.1,0-.1-.2-.1-.3h.3l12.8,7.1a.2.2,0,0,1,0,.3h-.2Z"/><path class="cls-28" d="M718.7,207.8h0l-11.2-6.2a.4.4,0,0,1-.1-.3c.1-.1.2-.2.3-.1l11.1,6.2a.4.4,0,0,1,.1.3Z"/><path class="cls-28" d="M720.2,205.6h0L709,199.3c-.1,0-.1-.2-.1-.3h.3l11.1,6.3c.1,0,.1.2.1.3Z"/><path class="cls-28" d="M717.1,210h0L706,203.8c-.2-.1-.2-.2-.1-.3a.2.2,0,0,1,.3-.1h0l11,6.2c.1.1.2.2.1.3Z"/><path class="cls-19" d="M771.5,244.7a1.7,1.7,0,0,1-1.6-.9l-7-13.5a1.9,1.9,0,0,1,.8-2.5,1.8,1.8,0,0,1,2.4.8l7,13.5a1.8,1.8,0,0,1-.8,2.4A1.1,1.1,0,0,1,771.5,244.7Z"/><path class="cls-19" d="M762.7,240.4a1.5,1.5,0,0,1-1.4-.7,1.9,1.9,0,0,1,.2-2.5l8.8-7.2a1.9,1.9,0,0,1,2.6.3,1.8,1.8,0,0,1-.3,2.5l-8.8,7.2A1.5,1.5,0,0,1,762.7,240.4Z"/><path class="cls-31" d="M236.9,239.7s4.5-5.4,7.5-.2-5,18.2-5,18.2l.7-3.4s4-10.7,2.1-12.6a1.5,1.5,0,0,0-2.2-.3,1.2,1.2,0,0,0-.5.5l-2.6-2.2"/><path class="cls-14" d="M210.7,246.8s3.4,24.5,15.1,24.5c15.3,0,15.3-25.6,15.3-25.6Z"/><ellipse class="cls-32" cx="225.8" cy="245.4" rx="15.3" ry="8.3"/><ellipse class="cls-31" cx="225.9" cy="244.9" rx="11.6" ry="6.3"/><path class="cls-31" d="M203.4,258s4.6-5.4,7.6-.2-5.1,18.2-5.1,18.2l.8-3.4s4-10.7,2.1-12.6-2.7.2-2.7.2l-2.7-2.2"/><path class="cls-14" d="M177.3,265.1s3.4,24.5,15,24.5c15.3,0,15.3-25.6,15.3-25.6Z"/><ellipse class="cls-32" cx="192.4" cy="263.7" rx="15.3" ry="8.3"/><ellipse class="cls-31" cx="192.5" cy="263.2" rx="11.6" ry="6.3"/><path class="cls-31" d="M223.6,272.1s4.5-5.5,7.5-.3S226,290,226,290l.8-3.3s4-10.7,2.1-12.7a1.5,1.5,0,0,0-2.2-.3l-.5.5-2.6-2.1"/><path class="cls-14" d="M197.4,279.1s3.4,24.5,15,24.5c15.3,0,15.3-25.6,15.3-25.6Z"/><ellipse class="cls-32" cx="212.5" cy="277.7" rx="15.3" ry="8.3"/><ellipse class="cls-31" cx="212.6" cy="277.2" rx="11.6" ry="6.3"/><path class="cls-31" d="M181.4,284.8s4.6-5.5,7.6-.3-5.1,18.2-5.1,18.2l.8-3.3s4-10.7,2.1-12.6-2.7.1-2.7.1l-2.7-2.1"/><path class="cls-14" d="M155.3,291.8s3.4,24.5,15,24.5c15.3,0,15.3-25.6,15.3-25.6Z"/><ellipse class="cls-32" cx="170.4" cy="290.4" rx="15.3" ry="8.3"/><ellipse class="cls-31" cx="170.5" cy="289.9" rx="11.6" ry="6.3"/></g></g></svg>