<?xml version="1.0" encoding="utf-8"?>
<!-- Generator: Adobe Illustrator 23.0.3, SVG Export Plug-In . SVG Version: 6.00 Build 0)  -->
<svg version="1.1" id="Layer_1" xmlns="http://www.w3.org/2000/svg" xmlns:xlink="http://www.w3.org/1999/xlink" x="0px" y="0px"
	 viewBox="0 0 214.7 215.2" style="enable-background:new 0 0 214.7 215.2;" xml:space="preserve">
<style type="text/css">
	.st0{stroke:#061F80;stroke-width:4;stroke-miterlimit:10;}
	.st1{clip-path:url(#SVGID_2_);}
	.st2{fill:url(#SVGID_3_);}
	.st3{fill:#DCDCDC;}
	.st4{fill:#EDF4FF;}
	.st5{fill:#FFFFFF;}
	.st6{fill:#999999;}
	.st7{opacity:0.23;fill:#FFAE9A;enable-background:new    ;}
	.st8{fill:#4D4D4D;}
	.st9{opacity:0.13;enable-background:new    ;}
	.st10{fill:#CCCCCC;}
	.st11{opacity:0.62;fill:#CCCCCC;enable-background:new    ;}
	.st12{fill:#F9F9F9;}
	.st13{fill:#20D5D2;}
	.st14{fill:url(#SVGID_4_);}
	.st15{fill:#418CFF;}
</style>
<title>First_transition</title>
<g>
	<g id="Layer_1-2">
		<circle class="st0" cx="107.3" cy="107.3" r="105.3"/>
		<g>
			<defs>
				<circle id="SVGID_1_" cx="107.3" cy="103.2" r="105.3"/>
			</defs>
			<clipPath id="SVGID_2_">
				<use xlink:href="#SVGID_1_"  style="overflow:visible;"/>
			</clipPath>
			<g class="st1">
				
					<radialGradient id="SVGID_3_" cx="313.2458" cy="916.4595" r="93.4138" gradientTransform="matrix(0.994 -0.1097 -0.1097 -0.994 -100.2784 1067.012)" gradientUnits="userSpaceOnUse">
					<stop  offset="0" style="stop-color:#DCDCDC"/>
					<stop  offset="0" style="stop-color:#DADADC"/>
					<stop  offset="0" style="stop-color:#D2D4DE"/>
					<stop  offset="0" style="stop-color:#C4C9E0"/>
					<stop  offset="0" style="stop-color:#B0B9E4"/>
					<stop  offset="0" style="stop-color:#97A5E8"/>
					<stop  offset="0" style="stop-color:#788CEE"/>
					<stop  offset="0" style="stop-color:#536FF5"/>
					<stop  offset="0" style="stop-color:#294EFC"/>
					<stop  offset="0" style="stop-color:#1941FF"/>
					<stop  offset="0.26" style="stop-color:#2150FF"/>
					<stop  offset="0.76" style="stop-color:#3677FF"/>
					<stop  offset="1" style="stop-color:#418CFF"/>
				</radialGradient>
				<path class="st2" d="M120,22.2c0,0,29.4,4.7,33.6,22.7c5.7,23.7,5.8,32.7,22.2,39.1s12.2,20.2,12.1,36.9
					c-0.1,8.9,11.1,7.2,11.9,23.6c0.4,6.2-10.2,16.1-11.3,20.9c-2.5,10.5,9.5,14.9,9.9,19.7c1.4,15.3-12.5,23-18.9,24.7
					c-34.4,9.1-113.2,24.2-130.1,1.6c0,0-5.6-0.7-4.8-21.8c0.3-9.7-15-13.1-15.8-27s11-13.3,10.4-22.1s-11.2-22.1,1.1-38.6
					s12.3-18.6,11.1-38.7C51.2,61,49.3,51,65.1,35.5C82.5,18.2,120,22.2,120,22.2z"/>
				<path class="st3" d="M93.7,127.7c0,0,3.3,17,2.4,25l-18.8,17.7c9.1,21.8,39.8,49.1,42,48.7c82.9-16.1,11.6-61.9,11.6-61.9
					s-2.9-4.9,0.2-25.4c0,0-5.5,7.9-17.3,7.5C104.7,139,93.7,127.7,93.7,127.7z"/>
				<path class="st4" d="M88.2,161c0,0-47.6,24.5-49.1,27.9c-28.3,61.7,15.1,60.5,15.1,60.5s130.9,5,130.8-5.2
					c-0.1-31.7-2.2-49.4-10.5-61.9s-41.3-23.7-41.3-23.7s0.7,13.8,0,31.8c-0.9,22.4-8.2,31.7-23.4,6.2
					C100.6,181.1,88.2,161,88.2,161z"/>
				<path class="st3" d="M139.1,55.3c8,13.3,11.1,34,5.4,54.1c-6.1,21.8-16.6,31.1-24.1,31.7c-2.4,0.2-19.8,6.2-35.1-28.3
					c-1.4-3.2-1.7-4.8-3.4-8.5c0,0-13.1-7.7-2.9-17c0,0-2.7-34.8,13-41.2S131.6,42.8,139.1,55.3z"/>
				<path class="st5" d="M111.6,120c6.2,1.5,16.3-2.4,16.3-2.4s-3.3,8.5-9.4,7.8S111.6,120,111.6,120z"/>
				<path class="st6" d="M111.6,120c2.2,0.4,4.5,0.5,6.8,0.1c3.2-0.7,6.4-1.5,9.5-2.5l-0.3,0.8c-5,1.9-10.4,2.7-15.7,2.1L111.6,120z
					"/>
				
					<ellipse transform="matrix(0.9983 -5.756403e-02 5.756403e-02 0.9983 -5.5272 6.2402)" class="st7" cx="105.6" cy="99.1" rx="6" ry="1.4"/>
				
					<ellipse transform="matrix(0.9983 -5.756403e-02 5.756403e-02 0.9983 -5.3623 7.8163)" class="st7" cx="133" cy="97" rx="5" ry="1.3"/>
				
					<ellipse transform="matrix(0.9983 -5.756403e-02 5.756403e-02 0.9983 -4.8453 7.5987)" cx="129.5" cy="87.9" rx="2.7" ry="2.9"/>
				
					<ellipse transform="matrix(0.9983 -5.756403e-02 5.756403e-02 0.9983 -4.9929 6.3554)" cx="107.8" cy="89.8" rx="2.7" ry="2.9"/>
				<polygon class="st8" points="107.8,80.8 109.2,84.3 101,87.9 100.4,86.5 				"/>
				<polygon class="st8" points="125.5,79 125.4,83 134.3,83.2 134.3,81.9 				"/>
				<path d="M119,91.7c0,1.5,0.1,3.1,0.3,4.6c0.1,1.6,0.3,3.1,0.6,4.7c0.4,1.5,0.8,3.1,1.3,4.6c0.3,0.8,0.7,1.5,1.1,2.2
					c0.5,0.8,1.3,1.3,2.2,1.5l-0.4-0.7c-0.3,0.4-0.7,0.7-1.1,0.9c-0.5,0.3-1,0.5-1.6,0.6c-1.1,0.3-2.3,0.4-3.4,0.4
					c1.2,0.3,2.4,0.4,3.6,0.3l1.8-0.5c0.6-0.3,1.1-0.7,1.5-1.2l0.5-0.6h-0.8c-0.6-0.2-1.2-0.6-1.5-1.2c-0.4-0.6-0.7-1.3-0.9-2
					c-0.6-1.4-1-2.9-1.4-4.4c-0.3-1.5-0.7-3-0.9-4.5L119,91.7z"/>
				<path class="st9" d="M123.6,108.5c-0.6-0.2-1.1-0.6-1.4-1.2c-0.4-0.6-0.7-1.3-1-2c-0.6-1.4-1-2.9-1.3-4.4
					c-0.3-1.5-0.5-3.1-0.6-4.6l-0.3-4.6c0,1.5-0.3,3-0.3,4.6c-0.2,1.6-0.1,3.2,0.3,4.8c0.3,1.6,0.7,3.1,1.2,4.6
					c0.3,0.8,0.7,1.5,1.1,2.2c0.4,0.5,0.9,0.9,1.4,1.3l-0.6,0.4l-1.6,0.5c-0.8,0.2-1.7,0.3-2.5,0.2c0.9,0.3,1.8,0.4,2.7,0.3
					c0.6,0,1.1-0.1,1.7-0.2c0.6-0.3,1.2-0.7,1.6-1.2l0.4-0.6L123.6,108.5z"/>
				<path class="st6" d="M78.7,92.3c-0.9,0.7-1.4,1.9-1.2,3c0.1,0.5,0.3,1,0.6,1.5c0.3,0.5,0.7,0.9,1.2,1.1
					c-0.2-1.1-0.5-1.9-0.6-2.8C78.6,94.2,78.6,93.2,78.7,92.3z"/>
				<path class="st10" d="M96.1,152.7c0,0-6.3,11.2-5.9,11.8l-2.2-4.2L96.1,152.7z"/>
				<path class="st11" d="M133.1,187.8c0,0-1.4,17.8-9.1,18.1s-12.4-6.1-12.4-6.1s9,14,14.4,11.9S133.4,195.5,133.1,187.8z"/>
				<path class="st12" d="M131.3,86.8c0.2,0.5,0.1,0.9-0.2,0.9c-0.4-0.1-0.6-0.4-0.7-0.8c-0.2-0.5-0.1-0.8,0.2-0.9
					S131.2,86.4,131.3,86.8z"/>
				<path class="st12" d="M109.6,88.8c0.2,0.5,0.1,0.8-0.2,0.9s-0.6-0.4-0.8-0.8s0-0.9,0.2-0.9S109.4,88.3,109.6,88.8z"/>
				<path class="st13" d="M80.6,104.3c-0.5,0.5-1.4,0.4-1.8-0.1c-0.1-0.1-0.1-0.1-0.2-0.2c-0.5-0.8-0.4-1.8,0.2-2.5
					c0.4-0.5,1.2-0.6,1.7-0.1c0.1,0.1,0.2,0.3,0.3,0.4C81.3,102.6,81.2,103.6,80.6,104.3z"/>
				<path class="st10" d="M93.7,127.7c0,0,7.4,10.5,16,11.8l-14.3-0.7L93.7,127.7z"/>
				
					<linearGradient id="SVGID_4_" gradientUnits="userSpaceOnUse" x1="6422.3936" y1="-525.531" x2="6442.1782" y2="-525.531" gradientTransform="matrix(-0.9984 5.700327e-02 5.700327e-02 0.9984 6537.9019 225.3781)">
					<stop  offset="0" style="stop-color:#DCDCDC"/>
					<stop  offset="0" style="stop-color:#DADADC"/>
					<stop  offset="0" style="stop-color:#D2D4DE"/>
					<stop  offset="0" style="stop-color:#C4C9E0"/>
					<stop  offset="0" style="stop-color:#B0B9E4"/>
					<stop  offset="0" style="stop-color:#97A5E8"/>
					<stop  offset="0" style="stop-color:#788CEE"/>
					<stop  offset="0" style="stop-color:#536FF5"/>
					<stop  offset="0" style="stop-color:#294EFC"/>
					<stop  offset="0" style="stop-color:#1941FF"/>
					<stop  offset="7.150728e-02" style="stop-color:#1E4BFF"/>
					<stop  offset="0.3048" style="stop-color:#2E67FF"/>
					<stop  offset="0.5385" style="stop-color:#387CFF"/>
					<stop  offset="0.7708" style="stop-color:#3F88FF"/>
					<stop  offset="1" style="stop-color:#418CFF"/>
				</linearGradient>
				<path class="st14" d="M95.4,57.1c0,0-5.7,28.7-16.6,30.6c0,0-5.4-14.6,0.8-30.6c1.2-3,10-10.8,10.1-9.8
					C89.8,48.4,94.7,54,95.4,57.1z"/>
				<path class="st15" d="M169.8,82.6c0,0-91,0.6-83.3-58.2c0,0,31.7-5,44.8,0.5s26.9,12.1,29.8,40.3
					C161.1,65.2,162,81.6,169.8,82.6z"/>
			</g>
		</g>
	</g>
</g>
</svg>
