<?xml version="1.0" encoding="utf-8"?>
<!-- Generator: Adobe Illustrator 23.0.4, SVG Export Plug-In . SVG Version: 6.00 Build 0)  -->
<svg version="1.1" id="Layer_1" xmlns="http://www.w3.org/2000/svg" xmlns:xlink="http://www.w3.org/1999/xlink" x="0px" y="0px"
	 viewBox="0 0 770.3 636" style="enable-background:new 0 0 770.3 636;" xml:space="preserve">
<style type="text/css">
	.st0{clip-path:url(#SVGID_2_);}
	.st1{fill:#061F80;}
	.st2{fill:#054ADA;}
	.st3{fill:#D6D6D6;}
	.st4{fill:url(#SVGID_3_);}
	.st5{fill:#F2F2F2;}
	.st6{fill:#DCDCDC;}
	.st7{fill:#1A1A1A;}
	.st8{opacity:0.4;fill:#BFBFBF;enable-background:new    ;}
	.st9{fill:#999999;}
	.st10{fill:#4D4D4D;}
	.st11{opacity:0.21;enable-background:new    ;}
	.st12{opacity:8.000000e-02;fill:#E86234;enable-background:new    ;}
	.st13{fill:#CCCCCC;}
	.st14{fill:#FFFFFF;}
	.st15{fill:#F9F9F9;}
	.st16{fill:#20D5D2;}
	.st17{opacity:0.36;fill:#CCCCCC;enable-background:new    ;}
	.st18{fill:#BFBFBF;}
	.st19{fill:#B3B3B3;}
	.st20{opacity:0.69;fill:#B3B3B3;enable-background:new    ;}
	.st21{fill:url(#SVGID_4_);}
	.st22{fill:url(#SVGID_5_);}
	.st23{fill:url(#SVGID_6_);}
	.st24{fill:url(#SVGID_7_);}
	.st25{fill:url(#SVGID_8_);}
	.st26{opacity:0.8;}
	.st27{fill:#DBFBFB;}
	.st28{fill:url(#SVGID_9_);}
	.st29{opacity:0.32;enable-background:new    ;}
	.st30{fill:#418CFF;}
	.st31{fill:#0530AD;}
	.st32{fill:#0054E8;}
	.st33{fill:#0062FF;}
	.st34{fill:#007D79;}
	.st35{opacity:0.11;enable-background:new    ;}
	.st36{fill:#9FA5AD;}
	.st37{fill:#E6E6E6;}
	.st38{fill:#B9BFC7;}
	.st39{fill:#92EEEE;}
	.st40{fill:#00BAB6;}
	.st41{fill:#1E5DE3;}
	.st42{fill:url(#SVGID_10_);}
	.st43{fill:url(#SVGID_11_);}
	.st44{fill:url(#SVGID_12_);}
	.st45{fill:#30B0FF;}
	.st46{fill:#051243;}
	.st47{opacity:0.34;fill:#B3B3B3;enable-background:new    ;}
	.st48{fill:#97C1FF;}
</style>
<title>Asset 9</title>
<g>
	<g id="Layer_1-2">
		<g>
			<defs>
				<rect id="SVGID_1_" x="-154.8" y="-33.8" width="925.1" height="669.8"/>
			</defs>
			<clipPath id="SVGID_2_">
				<use xlink:href="#SVGID_1_"  style="overflow:visible;"/>
			</clipPath>
			<g class="st0">
				<path class="st1" d="M189.4,751.2l5.1-1.8c0,0-2-16.9-2.2-16.9s-5.2-0.2-5.2,0.1S189.4,751.2,189.4,751.2z"/>
				<path class="st2" d="M185.5,746.8l3.9,4.4c0.5,2.2-2.4-19.4,0-19.1s4.6,6,7.2,16.4c3.2,12.6,5.2,28.9,21.9,30.6
					c11.8,1.3,10-16,10-16s-5.9-29-10.7-28.2c-13.4,2.1-5.7,30.9-10.9,21.3s-7-40.8-13-41.8c-1.6-0.2-10,3.8-8.6,16.3
					C185.9,736,186,741.4,185.5,746.8z"/>
				<path class="st3" d="M218.8,739.1c0,0,3.2,13.2,3.8,18.2c1.2,10.8-10.4,8.4-13.4,4.4c-4.3-5.7-8.8-22.6-8.8-22.6L218.8,739.1z"
					/>
				<path class="st3" d="M154.5,449.9c0,0-2.2,41,7.9,70.5s16.8,87.3,15,100.1s7.1,62.6,12.4,79.3s10.6,39.3,10.6,39.3
					s8.2,7.9,18.4,0c0,0-2.6-102.3-1.7-108.1s19.8-153.4,19.8-153.4s-42.1-1.9-52.6-11.3S160.4,448.1,154.5,449.9z"/>
				<path class="st3" d="M246.8,530.8c0,0,51.9,68,50,88.7c-1.9,20.7,5.6,67,9.5,89.7c1.9,11.1,2.4,15,5.9,17.6s3.4,13.3,11,10.8
					c7.6-2.5,5.9-9.5,5.9-9.5s11.2-92.7,10.8-118c-0.1-14.1-16.6-80.6-28.3-103.9c-6.6-13.4-13.9-26.4-22-38.9L239,484.2
					L246.8,530.8z"/>
				
					<radialGradient id="SVGID_3_" cx="-9114.8965" cy="1044.3921" r="110.38" gradientTransform="matrix(-1 4.000000e-02 -4.000000e-02 -1 -8843.9805 1538.4301)" gradientUnits="userSpaceOnUse">
					<stop  offset="0" style="stop-color:#DCDCDC"/>
					<stop  offset="0" style="stop-color:#DADADC"/>
					<stop  offset="0" style="stop-color:#D2D4DE"/>
					<stop  offset="0" style="stop-color:#C4C9E1"/>
					<stop  offset="0" style="stop-color:#B0B9E5"/>
					<stop  offset="0" style="stop-color:#97A5EA"/>
					<stop  offset="0" style="stop-color:#788DF0"/>
					<stop  offset="0" style="stop-color:#5470F8"/>
					<stop  offset="0" style="stop-color:#3054FF"/>
					<stop  offset="0.33" style="stop-color:#3563FF"/>
					<stop  offset="0.97" style="stop-color:#408AFF"/>
					<stop  offset="1" style="stop-color:#418CFF"/>
				</radialGradient>
				<path class="st4" d="M218.7,5.8c0,0-44.1-8.7-49.4,27.4c-4.1,27.7-1.7,53-19.7,62.3s-11.7,24.5-9.7,43.6
					c1,10.2-11.9,9.5-11.1,28.4c0.4,7.2,13.6,17.3,15.4,22.8c4.1,11.7-7.4,15.1-9.4,20.3s6.2,21.4,13.8,22.6
					c40.5,6.5,143.5,21.9,160.4-6c0,0,6.3-1.4,3-25.6c-1.6-11,15.6-16.7,15-32.6c-0.6-15.9-14.1-14.1-14.4-24.2s10.4-26.7-5.6-44.2
					s-16.2-20-17.1-43.1c-0.9-23.1-1.6-39.5-28.3-53C249.5-1.7,218.7,5.8,218.7,5.8z"/>
				<path class="st5" d="M172.4,167.6c0,0,20.8-0.5,29.2,1.1c13.3,2.7,47.8,38.6,57.2,34.4c9.4-4.2,1.2-36.6-3-50.2
					c0,0,32.4,0.3,41.6,20.5c-2.2,3.5-4.1,7.2-5.5,11.1c0,0,15.8,22,11.7,41.4s-23.8,41-21.8,64.2s29,115.8,38.2,145
					s24.7,78.8,21.3,89s-126.1,69.6-202.2,12.1c0,0-1.5-80.6,18.4-137.2s28.6-66.8,26.7-90.6s-16.8-81.8-16.8-81.8L172.4,167.6z"/>
				<path class="st3" d="M297.4,173.4c0,0,22.9,61.5,24.7,73.5c1.8,12,4,34.6-16.8,39.8c-26.9,6.7-97,16.8-99.4,16.4
					s5.4-19,7.5-18.4s36.1-9.9,48.8-13.2c10-2.6,20.4-8.2,21.9-8.7s9.1-4.1,9.1-4.1l-1.6-4.6c0,0,12.9-24.5,12.7-33.7
					c-0.4-12.9-4.8-25.4-12.4-35.9l2.1-5.1L297.4,173.4z"/>
				<path class="st6" d="M271.9,171.3c0,0-23.1-24.9-28.2-55c0,0-25.3-0.9-36.4-26.3c0,0,10.7,74.7-5.7,79.5c0,0,36.5,58.8,59,53.9
					S271.9,171.3,271.9,171.3z"/>
				<path class="st6" d="M273.5,45.1c0,0,9.9,37.8,1.6,59.7s-14.6,28.1-17.3,28.9c-2.7,0.8-26,5.7-45.4-25.1c-2.1-3.3-7-10.2-9-14.4
					c0,0-4.5-2-5.1-11.2c-0.2-3.7,0.5-7.8,4.6-9.4c0,0,1.3-37.1,17.8-44.8S257.5,16.6,273.5,45.1z"/>
				<polygon class="st7" points="266.3,56.5 266.9,60.2 275.5,59.2 275.3,57.7 				"/>
				<path class="st8" d="M244.7,136.1c0,0-19.7-0.6-34.3-13.4l-1.4-19.2C209,103.5,219.9,132,244.7,136.1z"/>
				<path class="st9" d="M202.2,79.6c-0.3,1.1-0.5,2.2-0.4,3.3c0.1,1.1,0.3,2.2,0.6,3.3c-0.5-0.4-0.9-0.9-1.1-1.5
					c-0.4-0.5-0.6-1.2-0.5-1.8c-0.1-0.6,0-1.2,0.3-1.8C201.3,80.5,201.6,79.9,202.2,79.6z"/>
				<polygon class="st10" points="239.9,66.9 240.6,70.5 232.2,72.4 231.9,71 				"/>
				<polygon class="st10" points="259.3,65 258.8,68.6 267.2,70.1 267.5,68.6 				"/>
				<ellipse transform="matrix(0.9367 -0.3502 0.3502 0.9367 -11.6025 89.0981)" cx="240.6" cy="76.6" rx="2.7" ry="2.9"/>
				
					<ellipse transform="matrix(1.221695e-02 -0.9999 0.9999 1.221695e-02 184.9383 335.3127)" cx="262.2" cy="74.1" rx="2.9" ry="2.7"/>
				<path d="M253.2,85c0.3,3.7,0.7,7.4,1.3,11.1c0.2,1.8,0.6,3.6,1.2,5.3c0.3,0.9,0.6,1.7,1,2.5c0.3,0.8,0.9,1.4,1.7,1.6h0.8
					l-0.5,0.6c-0.5,0.6-1.2,1-1.9,1.2c-0.7,0.3-1.4,0.4-2.2,0.5c-1.4,0-2.8-0.2-4.2-0.6l2.1,0.2l2.1-0.2c0.7-0.1,1.3-0.3,1.9-0.6
					c0.6-0.2,1.1-0.5,1.5-1l0.3,0.6c-1.1-0.2-2-0.9-2.4-1.9c-0.5-0.9-0.8-1.8-1.1-2.7c-0.5-1.8-0.9-3.6-1.1-5.5
					c-0.3-1.9-0.4-3.7-0.5-5.6C253.1,88.7,253.1,86.8,253.2,85z"/>
				<path class="st11" d="M252.8,85c0.2,3.7,0.4,7.4,0.9,11.1c0.2,1.8,0.5,3.6,0.9,5.4c0.2,0.9,0.5,1.7,0.9,2.5
					c0.4,0.8,0.9,1.5,1.6,1.6l0.8,0.2l-0.5,0.5c-0.5,0.6-1.2,1-2,1.2l-2.1,0.3c-1.4,0.1-2.9-0.2-4.2-0.7l2.1,0.2h2
					c0.7-0.1,1.4-0.2,2-0.5c0.6-0.3,1.1-0.6,1.5-1l0.3,0.7c-1.1-0.3-1.9-1.1-2.3-2.1c-0.5-0.8-0.8-1.8-1-2.7
					c-0.5-1.8-0.8-3.7-0.9-5.6c-0.2-1.8-0.2-3.7-0.2-5.5C252.6,88.7,252.7,86.8,252.8,85z"/>
				
					<ellipse transform="matrix(1.047176e-02 -0.9999 0.9999 1.047176e-02 153.4722 321.1793)" class="st12" cx="239" cy="83" rx="1.5" ry="4.7"/>
				
					<ellipse transform="matrix(1.221695e-02 -0.9999 0.9999 1.221695e-02 178.5526 343.0197)" class="st12" cx="262.9" cy="81.1" rx="1.5" ry="4.1"/>
				<path class="st13" d="M249.4,122.2c1-0.5,2.1-0.8,3.2-0.8c1.2-0.1,2.3,0.3,3.2,1.1c-0.5-0.2-1-0.4-1.6-0.4L249.4,122.2z"/>
				<path class="st14" d="M245.3,117.2c2.5-1,5.3-1.6,8-1.6c2.6-0.2,5.2,0.2,7.6,1.2c-2.5,1-5.3,1.6-8,1.6
					C250.3,118.6,247.7,118.2,245.3,117.2z"/>
				<path class="st15" d="M262,76.1c0.1,0.5,0.3,0.8,0.6,0.7c0.3-0.3,0.4-0.7,0.3-1.1c-0.1-0.5-0.4-0.7-0.6-0.6
					C262,75.4,261.9,75.7,262,76.1z"/>
				<path class="st15" d="M241.2,78.3c0,0.5,0.3,0.8,0.5,0.7c0.3-0.3,0.4-0.7,0.4-1.1c0-0.5-0.4-0.7-0.6-0.6
					C241.2,77.5,241.1,77.9,241.2,78.3z"/>
				<path class="st16" d="M209.5,154.3c5,4.7,10.2,9.2,15.5,13.4c5.2,4.4,11,8,17.1,11c3,1.3,6.3,2.5,9.6,2.1
					c0.8-0.1,1.5-0.3,2.2-0.7c0.7-0.4,1.2-1,1.7-1.6c0.8-1.4,1.3-3,1.6-4.6c0.5-3.4,0.7-6.8,0.4-10.2c-0.3-3.3-0.7-6.7-1.3-10.1
					c1.6,6.6,2.7,13.5,1.8,20.4c-0.3,1.7-0.9,3.4-1.7,5c-0.5,0.8-1.2,1.4-2,1.9c-0.8,0.5-1.7,0.8-2.6,0.9c-3.6,0.5-7-0.8-10.1-2.2
					c-6.2-3-12-6.8-17.2-11.3C219.2,163.9,214.2,159.3,209.5,154.3z"/>
				<path class="st17" d="M191.9,292.7c0,0,4.7,30.1-0.4,42.8s-28.3,101.4-29.4,128c-1.1,26.6,3.1,88,3.1,88l-26-14.8
					c0,0-0.7-80,16.6-132.5c13.8-41.8,21.1-51.6,25.7-70.3c5.7-23.1,2.1-31.1,0.5-41.6l-13.7-67.1l13.2,26.4L191.9,292.7z"/>
				<path class="st18" d="M238.1,117.5c1.4-0.2,2.8,0.3,3.9,1.2c2.1,1.7,3.4,4.1,3.7,6.8c0.8,5.6,0.8,5.9,0.8,5.9l23.5-14.7v1.7
					l-24.7,16.2L238.1,117.5z"/>
				<path class="st13" d="M240.5,148.3l15.8,6.5c0,0,19.4-5.9,20.6-13.8c0,0-0.4-2.7-1.2-2.7c-0.8,0,4-2.9,1.1-8c0,0,3.2-3.7,1-6.6
					s-2-1.4-2-1.4s3.4-5.3-4.9-6.7c0,0-10.5,9.2-15.7,11.8c-3.3,1.7-6.5,3.7-9.5,5.9c0,0-0.5-12.5-5.3-15s-3.7,2.1-2.9,3.6
					C239.7,126.2,238.2,146.9,240.5,148.3z"/>
				<path class="st19" d="M275.8,122.3l-3.8,2.3l-2,1.2c-0.6,0.4-1.3,0.7-2,0.9c1.5-0.3,2.9-0.9,4.2-1.7
					C273.5,124.2,274.7,123.3,275.8,122.3z"/>
				<path class="st19" d="M277.1,129.8c-0.1,0.4-0.5,0.6-0.9,0.8l-1,0.7l-2.1,1.2l-2.3,1c-0.7,0.4-1.5,0.5-2.3,0.5
					c0.8,0.1,1.6,0.1,2.4-0.2l2.3-1l2.2-1.3C276,131,276.8,130.6,277.1,129.8z"/>
				<path class="st19" d="M275.6,138.2l-4.3,2.1l-2.2,1.1l-2.3,0.8c1.6-0.2,3.2-0.8,4.6-1.6C272.9,139.9,274.3,139.1,275.6,138.2z"
					/>
				<path class="st13" d="M276.7,130.6c0.8,1.1,1.1,2.5,0.8,3.9c-0.2,0.7-0.5,1.3-0.8,1.9c-0.3,0.6-0.7,1.2-1.1,1.8l0.8-0.8l0.6-0.9
					c0.4-0.6,0.6-1.2,0.8-1.9c0.1-0.7,0.1-1.5,0-2.2C277.6,131.7,277.2,131.1,276.7,130.6z"/>
				<path class="st13" d="M276.3,122.3c1.1,0.9,1.8,2.2,1.9,3.6c0,0.7-0.1,1.4-0.3,2c-0.2,0.7-0.5,1.3-0.8,1.9l0.6-0.8l0.5-1
					c0.3-0.7,0.4-1.5,0.3-2.2c0-0.7-0.2-1.4-0.6-2C277.5,123.2,276.9,122.7,276.3,122.3z"/>
				<path class="st13" d="M276.4,139c0.6,1,0.6,2.2,0.2,3.3c-0.2,0.5-0.5,1-0.8,1.5l-1.1,1.3l0.6-0.5c0.3-0.2,0.5-0.4,0.7-0.7
					c0.4-0.4,0.7-0.9,0.9-1.5c0.2-0.6,0.3-1.2,0.3-1.8C277.1,140,276.8,139.5,276.4,139z"/>
				<path class="st20" d="M215.2,284.4c0,0,7.7,10.9,18.2,8.8c8.3-1.7,11.6-9.5,13.8-17.5L215.2,284.4z"/>
				<path class="st13" d="M173.3,167.6c0,0,6.3,24.1,15.3,38.4s31.2,52.8,31.2,52.8s8.1-42.1,10.5-55.7s10.2-54.8,10.2-54.8
					l15.8,6.5c0,0-1.8,50.8-1.3,56.8s-3.6,53.1-6.2,59.9s-7.6,19.5-18.1,20.5s-53.8-39.4-61.1-48.6S147.4,184.7,173.3,167.6z"/>
				
					<linearGradient id="SVGID_4_" gradientUnits="userSpaceOnUse" x1="561.3839" y1="1737.6432" x2="643.3239" y2="1737.6432" gradientTransform="matrix(0.99 0.12 0.12 -0.99 -630.86 1765.2)">
					<stop  offset="0" style="stop-color:#DCDCDC"/>
					<stop  offset="0" style="stop-color:#DADADC"/>
					<stop  offset="0" style="stop-color:#D2D4DE"/>
					<stop  offset="0" style="stop-color:#C4C9E1"/>
					<stop  offset="0" style="stop-color:#B0B9E5"/>
					<stop  offset="0" style="stop-color:#97A5EA"/>
					<stop  offset="0" style="stop-color:#788DF0"/>
					<stop  offset="0" style="stop-color:#5470F8"/>
					<stop  offset="0" style="stop-color:#3054FF"/>
					<stop  offset="0.63" style="stop-color:#3C7AFF"/>
					<stop  offset="1" style="stop-color:#418CFF"/>
				</linearGradient>
				<path class="st21" d="M162.7,77.3c0,0,5.3-29.4,8.1-52c1.1-9.5,14.5-18.7,20.9-21.1c4.5-1.7,22.6-4.5,28.8,2.1
					s1.1,24.6,2.2,25.6c6.2,5.6,2.9,17.2-3.6,30.1c-2.7,5-6.7,9.1-11.6,11.8c-2.1,1.1-16.4,17.9-12.5,36.3
					c2.9,13.2,0.2,24.2-10.4,33.2c-9.1,7.7-5.8,23.7-3.4,30.8s9.3,26-3.6,35.3c-8.7,6.3-17.7,25.4-17.7,25.4s-18.5-1.9-23.1-12.8
					s-2.4-13.6,0.3-16.2s9.5-6.6,7.7-15.1s-17.6-14.7-15.9-29.5s10.1-15,10.9-20.9s-4.5-22-2.3-30.8s4.8-11.6,12.9-16.1
					C158.5,88.9,162.7,77.3,162.7,77.3z"/>
				<g id="Illustrations">
					
						<linearGradient id="SVGID_5_" gradientUnits="userSpaceOnUse" x1="-89.876" y1="7955.6543" x2="-42.988" y2="7955.6543" gradientTransform="matrix(0.99 -0.14 0.14 0.99 -869.69 -7600.0098)">
						<stop  offset="0" style="stop-color:#0062FF"/>
						<stop  offset="1" style="stop-color:#418CFF"/>
					</linearGradient>
					<path class="st22" d="M151.7,263.4l46.4-6.7l1.2,48.3c0,0,0.4,3.1-1.5,3.4l-30.2,4.4c-1.5,0-2.7-1.1-3.1-2.5L151.7,263.4z"/>
					
						<linearGradient id="SVGID_6_" gradientUnits="userSpaceOnUse" x1="-88.096" y1="7952.8901" x2="-44.73" y2="7952.8901" gradientTransform="matrix(0.99 -0.14 0.14 0.99 -869.65 -7600.0903)">
						<stop  offset="0" style="stop-color:#000000"/>
						<stop  offset="1" style="stop-color:#0062FF"/>
					</linearGradient>
					<polygon class="st23" points="155.6,277.6 198.5,271.3 198.9,287.2 159.9,293.5 					"/>
					
						<linearGradient id="SVGID_7_" gradientUnits="userSpaceOnUse" x1="-108.426" y1="7936.9067" x2="-54.526" y2="7936.9067" gradientTransform="matrix(0.99 -0.14 0.14 0.99 -886.13 -7608.8203)">
						<stop  offset="0" style="stop-color:#000000"/>
						<stop  offset="1" style="stop-color:#0062FF"/>
					</linearGradient>
					<polygon class="st24" points="147.3,255.8 200.7,248 201.8,255.9 148.5,263.7 					"/>
					
						<linearGradient id="SVGID_8_" gradientUnits="userSpaceOnUse" x1="-88.876" y1="7919.2295" x2="-43.736" y2="7919.2295" gradientTransform="matrix(0.99 -0.14 0.14 0.99 -869.65 -7600.0903)">
						<stop  offset="0" style="stop-color:#000000"/>
						<stop  offset="1" style="stop-color:#0062FF"/>
					</linearGradient>
					<polygon class="st25" points="151.6,255.3 152.6,249.3 193.5,243.4 196.2,248.8 					"/>
					<g class="st26">
						<path class="st27" d="M183.7,283.7c0.1-0.1-0.3-0.5-1.6-0.3c-1.1,0.2-2.1,0.9-2.7,1.9c-0.2,0.4-0.3,1.6-0.1,1.4
							c1-0.3,2-0.7,2.9-1.3C183.3,284.5,183.7,283.9,183.7,283.7z"/>
						<path class="st27" d="M179.7,287.5c0,0-0.4-0.3,0-0.5c0.8-0.2,1.6-0.5,2.4-0.9c0.6-0.5,1.7-2.1,2.1-2c0.4,1.3-0.3,2.6-1.5,3.1
							C180.8,288.3,179.7,287.5,179.7,287.5z"/>
					</g>
					<g class="st26">
						<path class="st27" d="M184.1,280.4c0.1-0.1,0.1-0.7-0.8-1.5c-0.9-0.7-2.1-1-3.2-0.8c-0.5,0.1-1.2,0.4-1.2,0.8s0,0.1,0.3,0.2
							l2.3,0.6C182.4,279.9,183.8,280.7,184.1,280.4z"/>
						<path class="st27" d="M178.6,279.7c0,0,0-0.5,0.4-0.3l2.6,0.9c0.8,0.2,2.2,0.4,2.2,0.6s-0.8,1.4-2.9,0.7
							S178.6,279.7,178.6,279.7z"/>
					</g>
					<g class="st26">
						<path class="st27" d="M175.8,280.2c-0.1,0-0.7,0.2-0.9,1.4c-0.2,1.1,0.1,2.3,0.9,3.2c0.3,0.4,0.9,0.9,1.2,0.7
							c0.1-0.1,0.1-0.3,0.1-0.4c-0.1-0.2-0.5-1.9-0.7-2.2S176.2,280.3,175.8,280.2z"/>
						<path class="st27" d="M177.9,285.3c0,0-0.4,0.2-0.5-0.2s-0.3-2-0.5-2.8s-0.7-2-0.5-2.2s1.6,0.1,2.1,2.3
							S177.9,285.3,177.9,285.3z"/>
					</g>
					
						<linearGradient id="SVGID_9_" gradientUnits="userSpaceOnUse" x1="-66.328" y1="7931.8208" x2="-66.328" y2="7936.001" gradientTransform="matrix(0.99 -0.14 0.14 0.99 -869.65 -7600.0903)">
						<stop  offset="0" style="stop-color:#0029CA"/>
						<stop  offset="0.3" style="stop-color:#1245D9;stop-opacity:0.72"/>
						<stop  offset="0.99" style="stop-color:#408BFF;stop-opacity:1.000000e-02"/>
						<stop  offset="1" style="stop-color:#418CFF;stop-opacity:0"/>
					</linearGradient>
					<polygon class="st28" points="151.7,263.4 152.6,266.6 198.2,260.8 198.1,256.6 					"/>
				</g>
				<path class="st29" d="M198.3,265.2c0,0-1.2,4-0.7,6.8s1.9,6,3.3,6.4L198.3,265.2z"/>
				<path class="st3" d="M215.1,286.8l-8.1,16c0,0-23.7,7.6-31.8,4.5c-0.8-0.4-1.7-1.9-0.6-2.7l5.8-1.9c-14.1,2.4-17.2-3-6.3-5.6
					c0,0-9.8,0.6-10-3.2s5.3-3.8,5.3-3.8s-9.9-1.8-9.9-5.9c0,0,0.2-1.2,1.9-1.4c6.2-0.8,23.3-1.5,27.9-2.7c3.8-0.9,7.7-1.5,11.6-1.7
					c-1.9-2.4-2.9-5.4-2.9-8.5c0.1-2.4,0.2-3.9,0.3-4.8s0.4-1.3,0.5-1.1C200.1,268.9,216.1,284.1,215.1,286.8z"/>
				<path class="st18" d="M169.4,290.1l4.7-0.8l2.3-0.4l2.2-0.7c-1.4,0.8-2.9,1.3-4.5,1.5C172.5,289.9,171,290.1,169.4,290.1z"/>
				<path class="st18" d="M173.5,296.9c0.3,0.2,0.8,0.1,1.2,0.1l1.3-0.2l2.5-0.5l2.5-0.7c0.8-0.2,1.6-0.6,2.2-1.2
					c-0.6,0.7-1.3,1.2-2.1,1.5l-2.5,0.8l-2.6,0.4C175.2,297.2,174.3,297.2,173.5,296.9z"/>
				<path class="st18" d="M180.3,302.5l4.9-1.2l2.5-0.6c0.8-0.2,1.6-0.5,2.3-0.9c-1.4,0.9-3,1.6-4.7,1.9
					C183.7,302.1,182,302.4,180.3,302.5z"/>
				<path class="st3" d="M329.3,726.6c0,0,3.9,28,18.4,31.5c2.6,0.6,7.1,0.1,7.4,0.8c1.3,3.4-20.8,8.1-25.8,0.1
					c-6.2-9.7-13.4-27.2-13.4-27.2L329.3,726.6z"/>
				<path class="st2" d="M345,763.3c1.8-0.2,6.9-2.6,6.9-2.6l3.2-1.8c6,1.3,2.9,10.2-2.4,13.1s-15.1,3.4-20.3,0.5
					c-11-6.2-22.9-31.8-25.4-31.3s0.3,17.9,0.3,17.9l-9.6-5.1c0,0,1.7-9,0.5-15s-2-23.2,4.4-24.2C313.7,713.1,323.8,765.7,345,763.3
					z"/>
				<path class="st1" d="M308.9,742.1l1.1,15l-2.7,2C307.3,759.1,302.9,736.8,308.9,742.1z"/>
				<path class="st30" d="M296.7,68.3c0,0-90.9,2.9-81.1-64.1c0,0,31.7-8.1,46.5-1.7c14.8,6.4,25.2,15.6,28,47.9
					C290.1,50.4,287.8,67.1,296.7,68.3z"/>
				<path class="st19" d="M272.5,554.4c0,0,29.5,44.2,29.9,54.9c0.4,10.7-0.1,31.7,0,37.9c0.1,6.2,9.8,76.9,9.8,76.9l-4.5-6.7
					c0,0-8.4-50.7-9.5-63.9c-1.1-13.2-1.2-29.5-1.4-35.4c-0.2-5.9-3.9-15.5-7.9-22.9S265,556.1,265,556.1L272.5,554.4z"/>
				<path class="st19" d="M177.9,555.3c0,0,5.4,34.6,5.6,39.3s1,21.5,0,29.8s13.2,99.7,13.2,99.7s-13.8-52.8-15.5-64
					s-3.6-29.8-3.7-40.8c-0.1-12.7-0.9-25.3-2.5-37.9c-1.6-11.6-4.5-28.4-4.5-28.4L177.9,555.3z"/>
				<path class="st2" d="M85.2,509.8l8.8-0.2l0,0l2.5,123.1c0,2.4-1.9,4.4-4.3,4.5l0,0c-2.4,0-4.4-1.9-4.5-4.3l0,0L85.2,509.8z"/>
				<path class="st2" d="M20.4,657.1l-1.4-1.6c29.7-26.4,67.8-27.4,68.2-27.4v2.2C86.8,630.3,49.5,631.3,20.4,657.1z"/>
				<path class="st2" d="M159.7,657.2c-12.3-17-63.4-27-63.9-27.1l0.4-2.2c2.1,0.4,52.4,10.3,65.3,28L159.7,657.2z"/>
				<path class="st2" d="M95.6,627.6l-1.1-1.9c1.3-0.8,32.3-19.3,49.7-7.3l-1.3,1.8C126.7,609,95.9,627.4,95.6,627.6z"/>
				<path class="st2" d="M86.8,626.2c-0.2-0.1-22.7-13.8-44.5-8l-0.5-2.1c22.6-6.1,45.2,7.7,46.2,8.3L86.8,626.2z"/>
				<circle class="st16" cx="158.4" cy="670.5" r="6.7"/>
				
					<ellipse transform="matrix(0.9999 -1.020250e-02 1.020250e-02 0.9999 -6.8367 0.2389)" class="st16" cx="20" cy="670.2" rx="6.7" ry="6.7"/>
				<circle class="st16" cx="143.8" cy="630.6" r="5.4"/>
				<circle class="st16" cx="39.4" cy="627.2" r="5.4"/>
				<path class="st31" d="M168,664.8c0.1,4.7-19.4,5.1-19.5,0.4s4.2-8.5,9.6-8.6S167.9,660.2,168,664.8z"/>
				<path class="st31" d="M29.7,664.5c0.1,4.6-19.5,5-19.6,0.4s4.2-8.5,9.6-8.6S29.6,659.9,29.7,664.5z"/>
				<path class="st31" d="M151.7,626c0,3.8-15.9,4.1-16,0.3s3.5-6.9,7.9-7S151.6,622.2,151.7,626z"/>
				<path class="st31" d="M47.3,622.6c0,3.8-15.9,4.1-16,0.3s3.5-6.9,7.9-6.9S47.2,618.9,47.3,622.6z"/>
				<ellipse class="st31" cx="48.6" cy="361.8" rx="48.6" ry="114.3"/>
				<ellipse class="st32" cx="55.8" cy="361.8" rx="48.6" ry="114.3"/>
				
					<ellipse transform="matrix(0.1184 -0.993 0.993 0.1184 -387.3781 568.4182)" class="st31" cx="126.4" cy="502.4" rx="31.4" ry="81.6"/>
				
					<ellipse transform="matrix(0.1184 -0.993 0.993 0.1184 -378.8949 564.3895)" class="st33" cx="128.4" cy="495.6" rx="31.4" ry="81.6"/>
				<path class="st34" d="M288.5,928.9c-3.3,0-6.1-2.6-6.4-5.9l-20.4-287.4c0.1-3.5,3.1-6.3,6.6-6.2c3,0.1,5.6,2.3,6.1,5.3
					l20.4,287.4c0.2,3.5-2.4,6.5-5.9,6.8H288.5z"/>
				<path class="st34" d="M101.4,817.8h-0.7c-3.4-0.4-5.9-3.5-5.6-6.9l0,0l27.9-258c0.4-3.5,3.5-6,6.9-5.6c0,0,0.1,0,0.1,0
					c3.5,0.4,6,3.5,5.7,7l-28,258C107.3,815.4,104.6,817.8,101.4,817.8z"/>
				<path class="st34" d="M289.5,878.3c-1.1,0-2.2-0.3-3.2-0.9L95.1,766.7c-3.2-1.4-4.7-5.2-3.2-8.5c1.4-3.2,5.2-4.7,8.5-3.2
					c0.4,0.2,0.8,0.4,1.2,0.7l191.2,110.7c3,1.8,4,5.7,2.3,8.7C293.9,877.1,291.8,878.3,289.5,878.3z"/>
				
					<rect x="187.7" y="711.7" transform="matrix(0.5015 -0.8652 0.8652 0.5015 -614.647 577.7269)" class="st16" width="12.7" height="221"/>
				<path class="st16" d="M294.7,928.9c-3.3,0-6-2.6-6.3-5.9l-20.3-285.5c0.1-3.5,3.1-6.3,6.6-6.2c3,0.1,5.6,2.3,6.1,5.3l20.3,285.5
					c0.2,3.5-2.4,6.5-5.9,6.8L294.7,928.9z"/>
				<path class="st16" d="M93.2,817.8h-0.7c-3.4-0.4-5.9-3.5-5.6-6.9l0,0l28.4-262.4c0.4-3.5,3.5-6,7-5.6c3.5,0.4,6,3.5,5.6,7l0,0
					L99.5,812.1C99.1,815.3,96.4,817.7,93.2,817.8z"/>
				<path class="st34" d="M738.8,673.8c-3.3,0-6.1-2.6-6.4-5.9l-16.9-238.2c0.1-3.5,3.1-6.3,6.6-6.2c3,0.1,5.6,2.3,6.1,5.3
					L745.1,667c0.2,3.5-2.4,6.5-5.9,6.8H738.8z"/>
				<path class="st34" d="M551.7,562.7H551c-3.4-0.4-5.9-3.5-5.6-6.9l0,0l14.7-136.2c0.6-3.5,3.9-5.8,7.4-5.2
					c3.1,0.6,5.4,3.3,5.3,6.5L558,557.1C557.6,560.3,554.9,562.7,551.7,562.7z"/>
				<path class="st34" d="M739.8,623.2c-1.1,0-2.2-0.2-3.2-0.8L545.4,511.6c-3-1.7-4.1-5.6-2.4-8.6h0.1c1.8-3,5.7-4,8.7-2.3
					L743,611.4c3,1.7,4.1,5.5,2.4,8.6C744.3,622,742.1,623.2,739.8,623.2z"/>
				
					<rect x="638" y="456.7" transform="matrix(0.5015 -0.8652 0.8652 0.5015 -169.524 840.2595)" class="st16" width="12.7" height="221"/>
				<path class="st16" d="M745,673.8c-3.3,0-6.1-2.6-6.3-5.9l-17.1-240.3c0.1-3.5,3.1-6.3,6.6-6.2c3,0.1,5.6,2.3,6.1,5.3L751.4,667
					c0.2,3.5-2.4,6.5-5.9,6.8H745z"/>
				<path class="st16" d="M543.5,562.7h-0.7c-3.5-0.4-6-3.5-5.7-7l15.4-141.4c0.4-3.5,3.5-6,7-5.6c3.5,0.4,6,3.5,5.6,7l-15.3,141.4
					C549.4,560.3,546.7,562.7,543.5,562.7z"/>
				<polygon class="st34" points="52.5,511.5 52.5,497.5 519.3,240.3 770.3,393.9 770.3,406.2 320.1,666 				"/>
				<polygon class="st16" points="52.5,497.5 519.3,240.3 770.3,393.9 320.1,652 				"/>
				<path class="st35" d="M112.8,566.2c0,0,45.9-1.4,69.9-10.4v-19l-6.1-3.4L112.8,566.2z"/>
				<polygon class="st36" points="394.9,509.1 280.7,442.9 280.7,438.4 433,355 395.4,502.1 				"/>
				<polygon class="st37" points="394.9,504.3 280.7,438.4 433,350.5 547.3,416.4 				"/>
				<polygon class="st38" points="354.3,404.2 377.1,417.3 428.3,388.5 404.7,375 				"/>
				<polygon points="388.7,473.9 392.7,476.2 400.8,471.6 396.8,469.2 				"/>
				<polygon points="398.7,468.1 402.7,470.4 410.8,465.7 406.8,463.4 				"/>
				<polygon points="408.9,462.2 413,464.6 421.1,459.9 417,457.5 				"/>
				<polygon points="419.4,456.2 423.4,458.5 431.5,453.8 427.5,451.5 				"/>
				<polygon points="429.2,450.5 433.2,452.9 441.4,448.2 437.3,445.8 				"/>
				<polygon points="439.3,444.7 443.4,447 451.5,442.3 447.4,440 				"/>
				<polygon points="449.5,438.8 453.5,441.2 461.6,436.5 457.6,434.1 				"/>
				<polygon points="459.6,433 463.6,435.3 471.7,430.6 467.7,428.3 				"/>
				<polygon points="469.7,427.1 473.8,429.5 481.9,424.8 477.8,422.5 				"/>
				<polygon points="479.9,421.3 483.9,423.6 492,418.9 488,416.6 				"/>
				<polygon points="490,415.4 494,417.8 502.1,413.1 498.1,410.8 				"/>
				<polygon points="500.1,409.6 504.2,411.9 512.3,407.2 508.2,404.9 				"/>
				<polygon points="510.2,403.7 514.3,406.1 522.4,401.4 518.4,399.1 				"/>
				<polygon points="520.4,397.9 524.4,400.2 532.5,395.6 528.5,393.2 				"/>
				<polygon points="379.4,468.8 386.2,472.7 398.8,465.5 391.9,461.5 				"/>
				<polygon points="394,460.4 400.8,464.3 409,459.6 402.2,455.6 				"/>
				<polygon points="403.9,454.6 410.7,458.6 419,453.9 412.1,449.9 				"/>
				<polygon points="413.5,449 420.4,453 428.6,448.2 421.8,444.3 				"/>
				<polygon points="423.7,443.2 430.5,447.2 438.8,442.4 431.9,438.5 				"/>
				<polygon points="433.5,437.6 440.3,441.5 448.6,436.8 441.7,432.8 				"/>
				<polygon points="443.3,431.9 450.2,435.8 458.4,431.1 451.6,427.1 				"/>
				<polygon points="452.9,426.3 459.8,430.3 468,425.5 461.1,421.6 				"/>
				<polygon points="463.2,420.4 470,424.4 478.3,419.6 471.4,415.7 				"/>
				<polygon points="473.2,414.6 480.1,418.5 488.3,413.8 481.5,409.8 				"/>
				<polygon points="483.4,408.8 490.3,412.7 498.5,408 491.7,404 				"/>
				<polygon points="493.6,402.9 500.4,406.8 508.6,402.1 501.8,398.1 				"/>
				<polygon points="503.4,397.3 510.3,401.3 518.5,396.5 511.6,392.6 				"/>
				<polygon points="512.7,391.8 519.6,395.8 527.8,391 521,387.1 				"/>
				<polygon points="369.8,463.2 376.7,467.1 389.2,459.9 382.4,455.9 				"/>
				<polygon points="384.4,454.7 391.3,458.7 399.5,454 392.6,450 				"/>
				<polygon points="394.3,449 401.2,453 409.4,448.2 402.6,444.3 				"/>
				<polygon points="404,443.4 410.8,447.4 419.1,442.6 412.2,438.7 				"/>
				<polygon points="414.1,437.6 421,441.6 429.2,436.8 422.3,432.9 				"/>
				<polygon points="423.9,431.9 430.8,435.9 439,431.2 432.2,427.2 				"/>
				<polygon points="433.8,426.3 440.6,430.2 448.8,425.5 442,421.5 				"/>
				<polygon points="443.4,420.7 450.2,424.7 458.4,419.9 451.6,416 				"/>
				<polygon points="453.6,414.8 460.5,418.8 468.7,414 461.9,410.1 				"/>
				<polygon points="463.7,409 470.5,412.9 478.8,408.2 471.9,404.2 				"/>
				<polygon points="473.9,403.2 480.7,407.1 489,402.4 482.1,398.4 				"/>
				<polygon points="484,397.3 490.9,401.2 499.1,396.5 492.2,392.5 				"/>
				<polygon points="493.9,391.7 500.7,395.7 508.9,390.9 502.1,387 				"/>
				<polygon points="503.2,386.2 510,390.2 518.3,385.4 511.4,381.5 				"/>
				<polygon points="360.6,457.6 367.4,461.5 382.4,453 375.5,449 				"/>
				<polygon points="376.9,448.2 383.7,452.1 392,447.4 385.1,443.4 				"/>
				<polygon points="386.8,442.5 393.7,446.4 401.9,441.7 395.1,437.7 				"/>
				<polygon points="396.5,436.8 403.3,440.8 411.6,436 404.7,432.1 				"/>
				<polygon points="406.6,431 413.5,435 421.7,430.2 414.8,426.3 				"/>
				<polygon points="416.4,425.4 423.3,429.3 431.5,424.6 424.7,420.6 				"/>
				<polygon points="426.3,419.7 433.1,423.6 441.3,418.9 434.5,414.9 				"/>
				<polygon points="435.9,414.1 442.7,418.1 450.9,413.3 444.1,409.4 				"/>
				<polygon points="446.1,408.2 453,412.2 461.2,407.4 454.4,403.5 				"/>
				<polygon points="456.2,402.4 463,406.3 471.3,401.6 464.4,397.6 				"/>
				<polygon points="466.4,396.6 473.2,400.5 481.5,395.8 474.6,391.8 				"/>
				<polygon points="476.5,390.7 483.4,394.6 491.6,389.9 484.7,385.9 				"/>
				<polygon points="486.4,385.1 493.2,389.1 509,379.8 502.2,375.9 				"/>
				<polygon points="350.6,451.9 357.4,455.9 376.9,444.6 370,440.7 				"/>
				<polygon points="371.5,439.7 378.3,443.6 386.6,438.9 379.7,434.9 				"/>
				<polygon points="381.1,434 388,438 396.2,433.2 389.4,429.3 				"/>
				<polygon points="391.3,428.2 398.1,432.2 406.3,427.4 399.5,423.5 				"/>
				<polygon points="401.1,422.6 407.9,426.5 416.2,421.8 409.3,417.8 				"/>
				<polygon points="410.9,416.9 417.8,420.8 426,416.1 419.1,412.1 				"/>
				<polygon points="420.5,411.3 427.4,415.3 435.6,410.6 428.7,406.6 				"/>
				<polygon points="430.8,405.4 437.6,409.4 445.9,404.6 439,400.7 				"/>
				<polygon points="440.8,399.6 447.7,403.5 455.9,398.8 449.1,394.8 				"/>
				<polygon points="451,393.8 457.9,397.7 466.1,393 459.3,389 				"/>
				<polygon points="461.2,387.9 468,391.9 476.2,387.1 469.4,383.2 				"/>
				<polygon points="471,382.3 477.9,386.3 486.1,381.5 479.2,377.6 				"/>
				<polygon points="480.3,376.8 487.2,380.8 498.8,374.1 492,370.1 				"/>
				<polygon points="341.9,447 345,448.8 351.2,445.2 348.2,443.4 				"/>
				<polygon points="348.7,443.2 351.7,445 358,441.4 354.9,439.5 				"/>
				<polygon points="355.4,439.1 358.4,440.9 364.7,437.3 361.7,435.5 				"/>
				<polygon points="352,445.2 355.1,447 361.3,443.4 358.3,441.6 				"/>
				<polygon points="363.7,434.3 370.6,438.2 378.8,433.5 372,429.5 				"/>
				<polygon points="373.7,428.5 380.6,432.4 388.8,427.7 381.9,423.7 				"/>
				<polyline points="401.9,412.3 393.7,417 400.5,421 				"/>
				<polygon points="383.8,422.7 390.7,426.6 448.5,393.2 441.6,389.3 				"/>
				<polygon points="443.6,388.2 450.5,392.2 458.7,387.4 451.8,383.5 				"/>
				<polygon points="453.7,382.3 460.6,386.3 468.8,381.5 462,377.6 				"/>
				<polygon points="463.6,376.8 470.4,380.7 478.7,376 471.8,372 				"/>
				<polygon points="472.9,371.3 479.8,375.2 488,370.5 481.1,366.5 				"/>
				<polygon class="st36" points="394.9,509.6 394.9,372.4 547.3,284.5 547.5,421.6 				"/>
				<path class="st39" d="M594.8,343.4c0,0-0.3-4.8,3.6-6.6s11.1-8.4,9.3-13.9s-4.5-2.3-3.9-8s6.3-6,7.2-7.5s0.4-6.2-1.9-10.1
					s-1.6-11.2,1-13.2s7.3-10.3,4.1-14.2s-11.6-7.7-10.6-18.4c1-10.7,7-11.7,6.5-17.7s-6.8-6.7-7.7-6.7s-8.5,5.9-6.5,16
					s-2.4,14.6-4.6,14.6s-10.4,5.5-5.2,11.4s6,5.5,4.5,8.2s-10.9,6.2-10.8,13.1s3.5,15,7.5,17.9s-8.7,4.4-8.7,9.6s6.2,11.8,9,13.2
					s3.6,12.3,3.6,12.3L594.8,343.4z"/>
				<path class="st40" d="M595.2,343.4c0,0-0.3-4.8,3.6-6.6c1.1-0.5-2-6.6-1.9-14.5s6.8-17.9,4.1-28.9c-1.5-6.4-2.7-22.8-2.5-28.6
					c0.2-8.3-0.3-12.9,0-15.6c1-10.7,12.5-9.4,12-15.4s-6.8-6.7-7.6-6.7s-8.6,5.9-6.5,16s-2.5,14.6-4.6,14.6s-10.5,5.5-5.3,11.4
					s6,5.5,4.5,8.2s-10.9,6.2-10.8,13.1s3.5,15,7.5,17.9s-8.7,4.4-8.7,9.6s6.3,11.8,9.1,13.2s3.5,12.3,3.5,12.3H595.2z"/>
				<path class="st41" d="M589.5,343.4c0,0-3.1-11.2-3.9-11.6s-24.4-11.7-21.4-20c0,0,4.6-0.6,11.9,6.2s7.6,4,5.5,1.2
					s-12.8-14.4-12.8-14.4s-11.4-1.5-18-11.6s-7.9-12-7.1-12.6s17.8,10.6,19.6,13s3.3,5.4,4.8,7s8.6,11.6,10.3,11.7s-0.7-3-2.2-6.7
					s-4.6-10.1-4.6-10.1s-9.3-5.8-14-15.6s-8.1-18-6.5-18.7s15.6,15.2,18.3,21.9s2.7,10.4,6.4,14.3l-1.6-19c0,0-8.9-15.8-9-41
					c0,0,9.8,14.1,11.1,37.9c0,0,0.1,17.7,2.8,18c0,0,0.7,0.2,0.7-2.6s0-14.4,3.9-14.4s-0.3,15-0.3,15s-2.4,9.6-2.9,10.8
					s1.5,16.2,3.8,16.9l0.3-14.8c-0.5-3.3,0-6.8,1.5-9.8c2.4-4.4,5.4-11.4,5.4-11.4s0.7,12.2-2.2,16.9s-3,4.3-2.8,7.9
					s1.4,18.6,1.4,18.8s1.7,4.7,2.4,4.1s3-3.6,3-5.9s2.6,2.8,0.9,6.8s-2.9,6.1-1.9,9.5l0.7,2.3L589.5,343.4z"/>
				<path class="st5" d="M589.3,343.4c0,0,0,9.3-1.9,13.8c-5.8,13.3-15.1,47.3,5.9,47.3s11.1-35.2,3.6-47.2
					c-2-3.2-2.5-10.3-1.7-13.9L589.3,343.4z"/>
				
					<linearGradient id="SVGID_10_" gradientUnits="userSpaceOnUse" x1="-405.3392" y1="-595.1605" x2="-335.1007" y2="-595.1605" gradientTransform="matrix(0.9694 -0.2453 -0.2453 -0.9694 538.2607 -110.1933)">
					<stop  offset="0" style="stop-color:#001EFF"/>
					<stop  offset="1" style="stop-color:#4167FF"/>
				</linearGradient>
				<path class="st42" d="M320.3,537.6c18.8-4.8,36.3,0.3,39.1,11.4c2.8,11.1-10.2,23.8-29,28.6s-36.3-0.3-39.1-11.4
					C288.5,555.1,301.5,542.4,320.3,537.6z"/>
				
					<linearGradient id="SVGID_11_" gradientUnits="userSpaceOnUse" x1="-397.0195" y1="-594.9159" x2="-344.947" y2="-594.9159" gradientTransform="matrix(0.9694 -0.2453 -0.2453 -0.9694 538.2607 -110.1933)">
					<stop  offset="0" style="stop-color:#2176FF"/>
					<stop  offset="1" style="stop-color:#78ADFF"/>
				</linearGradient>
				<path class="st43" d="M320.8,542.7c13.9-3.5,26.9,0.3,29,8.5c2.1,8.2-7.5,17.7-21.5,21.2s-26.9-0.3-29-8.5
					C297.2,555.7,306.9,546.3,320.8,542.7z"/>
				<path class="st39" d="M310.6,553.2c0,0,0,6,1.2,8.8s2.6,4.8,6.7,5.8c4.1,1,10.9,1.4,15.9-1.4s3.9-13.9,3.9-13.9
					C329.8,557.4,319.4,557.6,310.6,553.2z"/>
				
					<linearGradient id="SVGID_12_" gradientUnits="userSpaceOnUse" x1="481.2" y1="668.63" x2="481.2" y2="674.97" gradientTransform="matrix(1 0 0 -1 -156.7 1227.5)">
					<stop  offset="0" style="stop-color:#92EEEE"/>
					<stop  offset="1" style="stop-color:#20D5D2"/>
				</linearGradient>
				<path class="st44" d="M310.6,553.2c0,0,0,1,0.1,2.4c11.5,6.3,25.4,2,27.7-0.3c0-1.7-0.1-2.8-0.1-2.8
					C329.8,557.4,319.4,557.6,310.6,553.2z"/>
				<path class="st39" d="M338.3,552.5c0,0,3.1-2.7,0.8-8.1c-2.3-5.4-12.4-7.1-14.6-7.1s-12.3,1.3-14.9,7.6
					c-2.6,6.3,0.8,8.2,1.4,8.5c0.6,0.3,7.3,3.3,13.3,2.9C329.2,556.2,334,554.9,338.3,552.5z"/>
				<path class="st14" d="M315.8,542.6c-0.5,0.5-1,1.1-1.4,1.7c-0.4,0.6-0.7,1.2-0.9,1.8c-0.2,0.7-0.3,1.4-0.2,2.1
					c0.1,0.7,0.4,1.4,0.7,2c-0.6-0.5-1-1.2-1.1-2c-0.2-0.7-0.1-1.5,0.1-2.2C313.5,544.6,314.5,543.4,315.8,542.6z"/>
				<circle class="st14" cx="332" cy="543.2" r="0.6"/>
				<circle class="st14" cx="329.6" cy="546.6" r="0.8"/>
				<circle class="st14" cx="334.5" cy="548.2" r="0.8"/>
				<polygon class="st5" points="123.7,503.2 188,467.8 272.2,520.1 206.8,555.7 				"/>
				<polygon class="st13" points="123.2,501.8 186.3,464.4 272.1,513.9 207.8,551.6 				"/>
				<polygon class="st5" points="123.1,500.8 185.4,462.3 272.2,510.1 208.7,549.1 				"/>
				<polygon class="st9" points="122.1,496.1 185.6,459.6 270.8,510.3 206,547.1 				"/>
				<polygon class="st5" points="121.8,499.2 183.2,459.2 271.1,505.1 208.5,545.4 				"/>
				<polygon class="st13" points="117.1,491.5 182,457.3 265.2,511.1 199.2,545.5 				"/>
				<path class="st14" d="M90,565.7l9.8-64.7c0,0,65.4,2.5,87.7-14l-10.9,62.4C176.6,549.4,122.8,570.1,90,565.7z"/>
				<ellipse class="st45" cx="135" cy="530.3" rx="16.7" ry="11.8"/>
				<path class="st46" d="M144.4,556v-0.5c0.2,0,18.9-5.2,24.9-7.9l0.2,0.5C163.4,550.8,144.6,556,144.4,556z"/>
				<path class="st46" d="M153.4,550v-0.5c2.6-0.4,15.1-4.2,15.2-4.3l0.2,0.5C168.3,545.9,156.1,549.6,153.4,550z"/>
				<path class="st1" d="M132,518.8l3.2,12l11.6-8.6C146.8,522.2,141.9,517.4,132,518.8z"/>
				<path class="st39" d="M135.2,530.8l-8.8-10.6c1.8-0.7,3.7-1.2,5.6-1.4L135.2,530.8z"/>
				<path class="st47" d="M597.6,358.4c0,0,8.4,46.1-8.4,45.7c0,0,17.8,4.7,16.7-16.1C605.2,377.7,602.4,367.6,597.6,358.4z"/>
				<polygon class="st5" points="112.8,502.2 173.2,460.6 262.2,504 200.8,546.1 				"/>
				<polygon class="st46" points="225.5,524.7 225.2,524.3 251.6,504.4 251.9,504.8 				"/>
				<polygon class="st46" points="201.4,537.8 201.1,537.4 245.3,503.1 245.7,503.5 				"/>
				<polygon class="st46" points="197.2,535.9 196.9,535.5 241.1,501.2 241.5,501.6 				"/>
				<polygon class="st46" points="200.2,528.4 199.9,528 238.4,498.1 238.7,498.6 				"/>
				<polygon class="st46" points="201.4,508.7 201.1,508.3 224,490.5 224.3,490.9 				"/>
				
					<rect x="163.2" y="502.7" transform="matrix(0.7804 -0.6252 0.6252 0.7804 -272.2826 230.5889)" class="st46" width="57.9" height="0.5"/>
				<polygon class="st46" points="168.3,515.6 168,515.2 210.1,482.6 210.5,483 				"/>
				<polygon class="st46" points="173.1,524.7 172.8,524.3 219.8,487.9 220.1,488.3 				"/>
				<polygon class="st46" points="162.5,476.7 162.2,476.3 175,467.2 175.3,467.6 				"/>
				<polygon class="st46" points="132.2,498.4 131.9,497.9 144.3,489.6 144.6,490.1 				"/>
				<polygon class="st46" points="136.3,493.1 136.1,492.6 142.9,488 143.2,488.4 				"/>
				<polygon class="st46" points="165.5,471.2 165.2,470.8 172,466.2 172.3,466.6 				"/>
				<polygon class="st46" points="173.1,504.8 172.8,504.4 204.2,480.3 204.5,480.7 				"/>
				<polygon class="st48" points="290.3,479.2 285.5,474.9 286.2,474 292.7,476.3 292.8,478.9 				"/>
				<path class="st1" d="M285.5,474.9c0.4-0.1,0.7-0.5,0.7-0.9c-0.4-0.2-0.9-0.3-1.4-0.3C285,474.1,285.2,474.5,285.5,474.9z"/>
				<path class="st33" d="M290.2,479.3l41.8,24.1c0,0,1.3-3.4,0.8-4.5l-40.2-22.5C292.4,477.8,291.5,478.9,290.2,479.3z"/>
				<path class="st1" d="M334.2,503.8l1.6,0.7c0.4-0.4,0.6-1,0.4-1.6l-1.4-0.7L334.2,503.8z"/>
				<path class="st1" d="M333.1,499c0,0-4.2-6.3-11.9-6.6l-1.3-1.4c0,0,11.6,0.5,14.6,8.8L333.1,499z"/>
				<path class="st48" d="M334.1,504.6l-2.3-1.3c0,0,1-3.9,0.8-4.5l2.3,1.3C334.9,500.1,335.5,501.5,334.1,504.6z"/>
				<path class="st16" d="M204.3,94.7c-0.5,0.7-1.4,0.8-2.1,0.3l0,0l-0.4-0.4c-0.7-0.9-0.7-2.2,0-3.1c0.5-0.7,1.4-0.8,2.1-0.3
					c0,0,0,0,0,0l0.4,0.4C205,92.5,205,93.8,204.3,94.7z"/>
			</g>
		</g>
	</g>
</g>
</svg>
