<?xml version="1.0" encoding="utf-8"?>
<!-- Generator: Adobe Illustrator 23.0.3, SVG Export Plug-In . SVG Version: 6.00 Build 0)  -->
<svg version="1.1" id="Layer_1" xmlns="http://www.w3.org/2000/svg" xmlns:xlink="http://www.w3.org/1999/xlink" x="0px" y="0px"
	 viewBox="0 0 362.1 388.9" style="enable-background:new 0 0 362.1 388.9;" xml:space="preserve">
<style type="text/css">
	.st0{fill:#20D5D2;}
	.st1{fill:#006161;}
	.st2{fill:#92EEEE;}
	.st3{fill:#007D79;}
	.st4{fill:#00BAB6;}
	.st5{fill:#999999;}
	.st6{fill:#4D4D4D;}
	.st7{fill:#061F80;}
	.st8{fill:#0530AD;}
	.st9{fill:#E6E6E6;}
	.st10{fill:#D5D9E0;}
	.st11{fill:#D6D6D6;}
	.st12{fill:#054ADA;}
	.st13{fill:#B3B3B3;}
	.st14{fill:#9FA5AD;}
	.st15{fill:url(#SVGID_1_);}
	.st16{fill:#868D95;}
	.st17{fill:#DCDCDC;}
	.st18{fill:url(#SVGID_2_);}
	.st19{fill:#FFFFFF;}
	.st20{fill:#1A1A1A;}
	.st21{fill:#418CFF;}
	.st22{fill:url(#SVGID_3_);}
	.st23{fill:#BFBFBF;}
	.st24{opacity:8.000000e-02;fill:#E86234;enable-background:new    ;}
	.st25{fill:url(#SVGID_4_);}
	.st26{fill:#009C98;}
	.st27{opacity:0.1;enable-background:new    ;}
	.st28{opacity:0.17;fill:#FF9E4B;enable-background:new    ;}
	.st29{fill:#F9F9F9;}
	.st30{fill:#697077;}
	.st31{fill:#C9DEFF;}
	.st32{fill:#0062FF;}
	.st33{fill:#CCCCCC;}
	.st34{fill:url(#SVGID_5_);}
	.st35{fill:url(#SVGID_6_);}
	.st36{fill:url(#SVGID_7_);}
	.st37{fill:#373D42;}
	.st38{fill:#EDF4FF;}
	.st39{fill:#0072C3;}
	.st40{fill:#6CCAFF;}
	.st41{fill:#30B0FF;}
	.st42{opacity:0.8;}
	.st43{fill:#DBFBFB;}
	.st44{fill:url(#SVGID_8_);}
	.st45{fill:url(#SVGID_9_);}
	.st46{fill:#F2F2F2;}
	.st47{fill:#051243;}
	.st48{fill:#B9BFC7;}
</style>
<title>Inside_coffee_first_transition</title>
<g>
	<g id="Layer_2-2">
		<path class="st0" d="M361.8,208.9v63.8l-7.2,4.5v-64.1C354.6,213.1,360.9,208,361.8,208.9z"/>
		<polygon class="st1" points="354.6,277.2 350.5,274.5 350.7,215.4 354.6,213.1 		"/>
		<path class="st0" d="M310.7,237.9v63.8l-7.1,4.5v-64.1C303.6,242.1,309.9,237,310.7,237.9z"/>
		<polygon class="st1" points="303.6,306.2 299.5,303.5 299.7,244.4 303.6,242.1 		"/>
		<path class="st2" d="M361.8,208.7l0.3-85c0-4.8-2.6-9.3-6.8-11.7L325,94.5c-6.5-3.7-14.7-1.5-18.4,5c-1.2,2-1.8,4.3-1.8,6.7
			l-0.3,69.4L361.8,208.7z"/>
		<polygon class="st3" points="361.8,212.8 298.2,250.3 239.3,216.3 304.5,179.7 361.8,208.9 		"/>
		<polygon class="st4" points="361.8,208.7 298.2,246.1 239.3,212.1 304.5,175.6 		"/>
		<path class="st0" d="M0.3,214.6v63.8l7.2,4.5v-64.1C7.5,218.8,1.2,213.7,0.3,214.6z"/>
		<polygon class="st1" points="7.5,282.9 11.5,280.2 11.4,221.1 7.5,218.8 		"/>
		<path class="st0" d="M51.3,243.6v63.8l7.2,4.5v-64.1C58.5,247.8,52.2,242.7,51.3,243.6z"/>
		<polygon class="st1" points="58.5,311.9 62.6,309.2 62.4,250.1 58.5,247.8 		"/>
		<path class="st4" d="M224,316.5l-1.2,6.3c0,0-4,2.8-14,1.9s-8.3-11-8.3-11L224,316.5z"/>
		<path class="st5" d="M200.5,314.5c0,0-2.4,10.1-5.2,10s-5.4-2.2-11.1-2.5c-8.1-0.3-12,0.3-12.3,3.1c-1.1,8.5,14.6,11.8,19,12.9
			c4.5,0.9,8.8,2.5,12.9,4.5c2.1,1.2,13.2,5.3,14.8-3.5s4.1-14,4.6-18.6C223.2,320.4,205.7,325.8,200.5,314.5z"/>
		<path class="st6" d="M218.5,339.5c-0.6,2.3-2.9,3.8-5.3,3.4c-7.3-0.7-11.6-5.2-26.7-8.2c-9.2-1.9-13.1-6-14.7-10.6
			c0,0-0.9,0.8-0.2,3.4s4,6,11.2,8.3s9.1,2,14.7,4.1s7.2,3.4,9.9,4.1s8.3,2.8,10.6-2C218.3,341.2,218.5,340.4,218.5,339.5z"/>
		<path class="st6" d="M247.2,333.9c0,0,4.6,10.8,17,3.2c3.8-2.3,8.4-7.6,15.3-9.3s10.5-4.9,9.2-9.6c0,0-1.4,4.5-10.1,7.1
			s-13.6,11.3-18.3,11.1S247.2,333.9,247.2,333.9z"/>
		<path class="st4" d="M280.2,297.6l2.5,5.6c0,0-3.5,5.1-13.5,7.6s-12.5-7-12.5-7L280.2,297.6z"/>
		<path class="st5" d="M257.6,305.8c0,0,3.2,7.6,3.7,10.6c0.2,1.1-1.5,4.9-6.6,7.6s-9.3,7.6-7.5,9.9s12.4,3.6,16.5,1.3
			s7.8-7.8,20.8-11.3c5.7-1.6,4.9-7.4,1.7-13c-4.6-7.9-2.5-5.1-4.1-9.6C282.1,301.3,267.6,314,257.6,305.8z"/>
		<ellipse class="st7" cx="183.4" cy="368.8" rx="31.8" ry="20.1"/>
		<ellipse class="st8" cx="183.4" cy="366.2" rx="31.8" ry="20.1"/>
		<path class="st9" d="M250.8,241.2l31.3,59.2c0,0-6.7,4-12.4,5.4c-4,1-8.1,1-12.1,0l-36.4-66.5c-2.1-4.3-1.8-9.4,0.7-13.5
			c2.4-3.4,6-7.1,10.7-8.6c10-3.3,24.9-4.7,24.9-4.7L250.8,241.2z"/>
		<path class="st10" d="M327.5,187.4c0,0,11.3,22.6-7.2,34.9c0,0-61.6,11.4-65.9,15s-31,81.5-31,81.5s-11,0.9-14.4-0.1
			c-6.4-2-9.3-5.5-9.3-5.5l30.5-89c0,0,10-11.6,22.3-15.2c7.3-2.2,20.4-15,31.1-24.3S327.5,187.4,327.5,187.4z"/>
		<path class="st7" d="M183.8,368.3c-1.6,0-2.9-1.3-2.9-2.9c0,0,0-0.1,0-0.1V173.4c0-1.6,1.3-2.9,2.9-2.9c1.6,0,2.9,1.3,3,2.9v191.9
			C186.8,367,185.5,368.3,183.8,368.3z"/>
		<path class="st11" d="M127.1,263.7c-0.8,8.7,2.4,28.3,4,37.9c0.8,4.7,1.1,6.3,2.5,7.4s1.5,5.6,4.7,4.6s2.5-4,2.5-4
			s4.7-39.2,4.6-49.9C145.3,253.7,127.9,254.9,127.1,263.7z"/>
		<path class="st11" d="M140.9,308.9c0,0,1.6,11.9,7.8,13.3c1.1,0.3,3,0.1,3.1,0.4s-8.8,3.4-10.9,0c-2.1-3.7-4-7.5-5.7-11.5
			L140.9,308.9z"/>
		<path class="st12" d="M147.5,324.4c1-0.2,2-0.5,2.9-1l1.4-0.8c2.5,0.5,1.2,4.3-1,5.5s-6.4,1.5-8.6,0.2
			c-4.7-2.6-9.7-13.4-10.7-13.2s0.1,7.6,0.1,7.6l-4.1-2.2c0.4-2.1,0.5-4.2,0.2-6.3c-0.4-2.2-0.8-9.8,1.9-10.3
			C134.3,303.2,138.6,325.4,147.5,324.4z"/>
		<path class="st7" d="M132.2,315.8l0.6,5.8l-1.2,1.1c0,0-1.4-7.4-0.1-7.6S132,315.5,132.2,315.8z"/>
		<path class="st13" d="M129.5,259.3c0.2,4.6-0.1,13.4,0,16.1s4.1,32.5,4.1,32.5l-1.8-2.9c0,0-3.1-16.5-4.1-27
			c-0.5-5.5-0.5-12.5-0.6-15S129.5,259.3,129.5,259.3z"/>
		<path class="st7" d="M104.1,332.4l2.3-0.8c0,0-0.9-7.6-1-7.6c-0.8,0-1.5,0-2.3,0.1L104.1,332.4z"/>
		<path class="st12" d="M102.4,330.4l1.7,2c0.2,0.9-1.1-8.7,0-8.6s2,2.7,3.2,7.4s2.3,12.8,9.7,13.6c5.3,0.5,4.5-7.2,4.5-7.2
			s-2.6-12.8-4.8-12.5c-5.9,0.9-2.5,13.8-4.8,9.5s-3.2-18.2-5.8-18.6c-0.7-0.1-4.5,1.7-3.8,7.2C102.5,325.6,102.6,328,102.4,330.4z"
			/>
		<path class="st11" d="M117.1,327c0,0,1.5,5.9,1.7,8.1c0.6,4.8-4.6,3.7-5.9,1.9s-3.9-10-3.9-10H117.1z"/>
		<path class="st13" d="M112.6,336.6c-0.3-0.3,1.7,1.9,3.8,1.5s2.1-5.3,2.1-5.3s1.5,5.1-1.6,5.7C115.2,338.7,113.5,338,112.6,336.6z
			"/>
		<path class="st11" d="M97.5,256c-0.8,5.6,4.4,46.1,6.7,53.5S109,327,109,327c2.3,2.1,5.8,2.1,8.1,0c0,0-0.4-57,0-59.5
			S98.3,250.3,97.5,256z"/>
		<path class="st13" d="M101.5,276c0.4,3.7,5.8,44.3,5.8,44.3s-1.9-6.2-3.7-13.3s-2.8-12.9-3.2-15.1c-0.7-5-2.9-24.6-2.7-29.5
			l1.9,1.3C100.5,266.8,101.3,274.1,101.5,276z"/>
		<path class="st2" d="M0.3,214.4l-0.3-85c0-4.8,2.6-9.3,6.8-11.7l30.3-17.5c6.5-3.7,14.7-1.5,18.4,5c1.2,2,1.8,4.3,1.8,6.7
			l0.3,69.4L0.3,214.4z"/>
		<polygon class="st3" points="0.3,218.5 63.9,255.9 122.8,222 57.6,185.4 0.3,214.6 		"/>
		<polygon class="st4" points="0.3,214.4 63.9,251.8 122.8,217.8 57.6,181.3 		"/>
		<path class="st14" d="M234.5,112.8c0,0-4.9-1.3-5.4-4.8s-2.9-3.4-5.2-5.4s-4.3-5.9-5.6-5.3s-0.3,2.9,0.8,4.5s-11.6-8.1-12.2-4.5
			c-0.1,0.8,7.5,6.2,7.5,6.2s-2.8-0.8-3.7,0.6s2.3,3,2.3,3s-2.4-1.1-3.3,0.3s2.7,3.2,2.7,3.2c-1-0.6-2.2-0.4-2.9,0.5
			c-1.1,1.6,3.1,4,6,5.1s6.1,2.1,8.5,1.9s5.5,3.2,5.5,3.2L234.5,112.8z"/>
		
			<linearGradient id="SVGID_1_" gradientUnits="userSpaceOnUse" x1="228.7" y1="263.3739" x2="296.0392" y2="263.3739" gradientTransform="matrix(1 0 0 -1 0 390)">
			<stop  offset="0" style="stop-color:#00B0AB"/>
			<stop  offset="1" style="stop-color:#00BAB6"/>
		</linearGradient>
		<path class="st15" d="M234.1,112.1l35.6,18.6c0,0,17.3-18.9,21.4-24.5c0.3-0.4,3.5-3.2,3.8-3.1c2,0.8,0.8,15.6,0.6,16.7
			c-1.5,6.5-11.5,19-11.5,19s-10.8,16.2-20.4,9.9c-5.7-3.7-34.9-27.1-34.9-27.1L234.1,112.1z"/>
		<path class="st16" d="M317.1,62.2c0,0-1.3,25.9,6.3,34.2c0.3,0.4-23.6,17.5-24.2,1.9c0,0,2-14.5-0.1-18.3S317.1,62.2,317.1,62.2z"
			/>
		<path class="st17" d="M280.5,190.7c0,0-25.2-4.5-26.3-3.6s-1,3.1-2.3,3s-0.6-4.1-0.6-4.1s-0.5,3.1-1.5,3.1s-4.5-4.2-0.5-7.6
			s18-4.9,23.1-1.8s10.5,8,13.7,8.1L280.5,190.7z"/>
		
			<linearGradient id="SVGID_2_" gradientUnits="userSpaceOnUse" x1="-180.7072" y1="954.7409" x2="-98.0372" y2="954.7409" gradientTransform="matrix(-0.99 0.16 -0.16 -0.99 85.78 1057.87)">
			<stop  offset="0" style="stop-color:#DCDCDC"/>
			<stop  offset="0" style="stop-color:#DADBDC"/>
			<stop  offset="0" style="stop-color:#D2D6DE"/>
			<stop  offset="0" style="stop-color:#C4CFE0"/>
			<stop  offset="0" style="stop-color:#B0C5E4"/>
			<stop  offset="0" style="stop-color:#97B7E8"/>
			<stop  offset="0" style="stop-color:#78A7EE"/>
			<stop  offset="0" style="stop-color:#5393F5"/>
			<stop  offset="0" style="stop-color:#297CFC"/>
			<stop  offset="0" style="stop-color:#1974FF"/>
			<stop  offset="5.000000e-02" style="stop-color:#1D76FF"/>
			<stop  offset="0.37" style="stop-color:#3182FF"/>
			<stop  offset="0.69" style="stop-color:#3D8AFF"/>
			<stop  offset="1" style="stop-color:#418CFF"/>
		</linearGradient>
		<path class="st18" d="M63,41.7c0,0-18.8-1.4-19.2,13.9c-0.3,11.7,2,22.1-5,26.8S35.2,93.2,37,101c0.9,4.2-4.5,4.5-3.2,12.3
			c0.5,3,6.5,6.5,7.6,8.7c2.2,4.6-2.4,6.6-2.9,8.9s3.6,8.5,6.8,8.7c17.1,0.6,60.6,1.8,66.2-10.6c0,0,2.6-0.9,0-10.7
			c-1.2-4.6,5.6-7.8,4.6-14.4s-6.6-5.1-7.2-9.2s2.9-11.6-4.6-18.1s-7.7-7.5-9.2-17S92.4,43.3,80.7,39C75.4,37.1,63,41.7,63,41.7z"/>
		<path class="st17" d="M90.3,113.9c0,0-8.9-10.3-10.5-22.3c-6.4-0.8-11.8-5.1-14.2-11.1c0,0,0.8,17.1-5,25.1
			c-1.4,2,2.1,6.5,1.6,6.6s12.6,16.5,21.7,15.7C89.5,127.3,90.3,113.9,90.3,113.9z"/>
		<path class="st17" d="M88.4,56.4c0,0,5.8,14.6,3.5,23.7s-4.4,11.8-5.4,12.3s-10.1,3.5-19.3-7.8c-1.5-1.7-2.9-3.5-4.2-5.3
			c0,0-1.9-0.6-2.6-4.2c-0.3-1.4-0.2-3.1,1.4-4c0,0-1.3-14.8,4.9-18.6S80.7,45.9,88.4,56.4z"/>
		<polygon class="st6" points="81,63.3 81.3,64.7 78,65.7 77.9,65.1 		"/>
		<path class="st19" d="M88.5,84.1c-2.8,0.7-7.6-1.1-7.6-1.1s1.5,3.9,4.4,3.6C86.7,86.4,87.9,85.4,88.5,84.1z"/>
		<polygon class="st20" points="88.5,61.7 88.9,63.1 92.2,62.3 92.1,61.7 		"/>
		<ellipse transform="matrix(0.8616 -0.5075 0.5075 0.8616 -23.0934 50.969)" cx="81.9" cy="67.8" rx="1.1" ry="1.2"/>
		<ellipse transform="matrix(0.9869 -0.1616 0.1616 0.9869 -9.3776 15.4331)" cx="90.2" cy="65.4" rx="1.1" ry="1.2"/>
		<path d="M87.3,70.3l1.2,4.3l0.9,2c0.1,0.4,0.3,0.7,0.6,1c0.2,0.2,0.5,0.5,0.8,0.5H91v0.2c-0.2,0.3-0.4,0.5-0.7,0.6
			c-0.2,0.2-0.5,0.3-0.8,0.3c-0.5,0.2-1.1,0.2-1.7,0.1h0.9l0.8-0.2l0.7-0.3l0.5-0.6l0.2,0.3c-0.5,0-0.8-0.4-1.1-0.6l-0.6-1
			c-0.3-0.7-0.6-1.4-0.8-2.1c-0.3-0.7-0.5-1.5-0.6-2.2C87.6,71.8,87.4,71.1,87.3,70.3z"/>
		<path class="st21" d="M100.4,64.1c0,0-37.6,5.8-36.9-22.5c0,0,12.8-5,19.2-3s11.2,5.2,14,18.4C96.7,57,96.6,64,100.4,64.1z"/>
		
			<linearGradient id="SVGID_3_" gradientUnits="userSpaceOnUse" x1="-140.8572" y1="983.7795" x2="-131.4871" y2="983.7795" gradientTransform="matrix(-0.99 0.16 -0.16 -0.99 85.78 1057.87)">
			<stop  offset="0" style="stop-color:#DCDCDC"/>
			<stop  offset="0" style="stop-color:#DADBDC"/>
			<stop  offset="0" style="stop-color:#D2D6DE"/>
			<stop  offset="0" style="stop-color:#C4CFE0"/>
			<stop  offset="0" style="stop-color:#B0C5E4"/>
			<stop  offset="0" style="stop-color:#97B7E8"/>
			<stop  offset="0" style="stop-color:#78A7EE"/>
			<stop  offset="0" style="stop-color:#5393F5"/>
			<stop  offset="0" style="stop-color:#297CFC"/>
			<stop  offset="0" style="stop-color:#1974FF"/>
			<stop  offset="5.000000e-02" style="stop-color:#1D76FF"/>
			<stop  offset="0.37" style="stop-color:#3182FF"/>
			<stop  offset="0.69" style="stop-color:#3D8AFF"/>
			<stop  offset="1" style="stop-color:#418CFF"/>
		</linearGradient>
		<path class="st22" d="M67.8,55.7c0,0-0.2,13.8-6.8,15.6c0,0-2.5-9.2-0.4-13.6c0.9-1.8,5.2-4.9,5.3-4.8
			C66.6,53.8,67.2,54.7,67.8,55.7z"/>
		<path class="st5" d="M88.5,84.1c-1,0.2-2.1,0.2-3.1,0c-1.5-0.3-3-0.6-4.5-1.1l0.2,0.4c2.3,0.9,4.8,1.2,7.3,0.9L88.5,84.1z"/>
		<path class="st23" d="M80,92.9c0,0-5.5,0.3-14.5-6.4v-4.4C65.5,82.1,71.4,91.9,80,92.9z"/>
		
			<ellipse transform="matrix(0.9869 -0.1616 0.1616 0.9869 -10.4183 14.2393)" class="st24" cx="82.3" cy="71.2" rx="2.3" ry="0.8"/>
		<ellipse transform="matrix(0.9869 -0.1616 0.1616 0.9869 -9.9642 15.4939)" class="st24" cx="90.3" cy="69" rx="1.6" ry="0.6"/>
		<path class="st5" d="M61.8,73.6c-0.1,0.4-0.1,0.9,0,1.3c0.1,0.5,0.2,0.9,0.4,1.3c-0.2-0.2-0.4-0.3-0.5-0.5
			c-0.2-0.2-0.3-0.4-0.3-0.7v-0.8C61.5,74,61.6,73.7,61.8,73.6z"/>
		
			<linearGradient id="SVGID_4_" gradientUnits="userSpaceOnUse" x1="-698.97" y1="239.9933" x2="-695" y2="239.9933" gradientTransform="matrix(-1 0 0 -1 -545.54 390)">
			<stop  offset="0" style="stop-color:#DCDCDC"/>
			<stop  offset="0" style="stop-color:#DADBDC"/>
			<stop  offset="0" style="stop-color:#D2D6DE"/>
			<stop  offset="0" style="stop-color:#C4CFE0"/>
			<stop  offset="0" style="stop-color:#B0C5E4"/>
			<stop  offset="0" style="stop-color:#97B7E8"/>
			<stop  offset="0" style="stop-color:#78A7EE"/>
			<stop  offset="0" style="stop-color:#5393F5"/>
			<stop  offset="0" style="stop-color:#297CFC"/>
			<stop  offset="0" style="stop-color:#1974FF"/>
			<stop  offset="5.000000e-02" style="stop-color:#1D76FF"/>
			<stop  offset="0.37" style="stop-color:#3182FF"/>
			<stop  offset="0.69" style="stop-color:#3D8AFF"/>
			<stop  offset="1" style="stop-color:#418CFF"/>
		</linearGradient>
		<path class="st25" d="M151.7,150.7c-0.7,0.1-1.4-0.1-1.9-0.6c-0.2-0.2-0.4-0.5-0.3-0.8h0.7v0.2c0.2,0.2,0.9,0.5,3,0.2v0.7
			L151.7,150.7z"/>
		<path class="st19" d="M38.3,188.9c0,0,12-14.2,8.6-63.2c0,0-2.1-12.8,7.8-19.1S76.5,122,82.1,120c1.9-0.7,3.2-5.9,2.6-14.4
			c1.1,0.9,2.1,1.9,3.1,3c1.1,3,0.1-0.8,2.8,15.2c0.2,1.4,7.1,9.5,7.9,16.3c1.1,9-10.5,17-10.5,17c-8.2,12.7-5,32.7-8.2,38.8
			c0,0-5.1,6.4-20.4,3S38.3,188.9,38.3,188.9z"/>
		<path class="st19" d="M80.3,196.6l68.4,47.8l-11.4,28.1l-22-10.6l-29.2-17.5c0,0-34.3-9.1-37.2-10.1s-25.7-12-10.1-45.8
			C38.8,188.5,54.7,204.8,80.3,196.6z"/>
		<rect x="146.6" y="165.8" class="st0" width="30.8" height="2.1"/>
		<path class="st26" d="M173.8,166.1c0,0,0.4-2.9,1.8-2.9s1.8,2,1.8,2v0.9H173.8z"/>
		<path class="st0" d="M320.5,97c0,0-15,7-18.3,5.4s-3-4.1-3-4.1s-14.2,14.2-18.6,28.3s-2.2,30.8-2.2,30.8L282,176l50.8,21.6
			L320.5,97z"/>
		<path class="st16" d="M282.6,42.3c-4.3,26.3-2.1,40.9,13.5,43.1c12,1.8,21.1-8,23.9-25.6s-3.1-25.5-15.1-27.3
			S284.8,29.1,282.6,42.3z"/>
		<path class="st12" d="M317.2,57c0,0-0.7-8.7-6.1-10.2c-1.3-0.3-3.4,0.7-7.1-0.2s-5.2-2.7-8.3-2.9c-1.6,0-4.2,1.2-6,0.8
			c-2.1-0.5-4.2-0.5-6.3,0.1c-3,0.4-4.6-7.6,0.8-11.1c1.8-1.2,3.3-2.9,6.6-3.6s4.4-0.2,7.2-0.3s5.2-1.7,7.9-1.6
			c5.7,0.4,7.6,2.8,10.7,4.7s8.1,3.7,7.1,7.9s0,5.3,0,7.1c0,6.6-2.9,10.2-2.9,10.2L317.2,57z"/>
		<path class="st12" d="M314.8,49.6c0,0-2,16.8-5.8,19.7c-2.3,1.8-8.3,2.7-17.2,0.4s-10.9-3.2-10.9-3.2s0,16.8,11.2,18.5
			s21.2-0.2,26.6-19.1l-0.9-11.5L314.8,49.6z"/>
		<path d="M300,50.7l-0.4,2.1c0,0,5.9,1.4,7.3,2s0.8-0.4,0-0.8S301.6,51,300,50.7z"/>
		<ellipse transform="matrix(0.1719 -0.9851 0.9851 0.1719 193.4213 344.3217)" cx="301.5" cy="57.1" rx="1.5" ry="1.3"/>
		<ellipse transform="matrix(0.1692 -0.9856 0.9856 0.1692 186.5208 327.6976)" cx="287.6" cy="53.2" rx="1.5" ry="1.3"/>
		<path d="M291.4,48.6l-0.2,2c0,0-6.1-0.2-7.6,0c0,0-0.7-0.6,0.2-0.8S289.7,48.4,291.4,48.6z"/>
		<path class="st17" d="M290.2,77.2h2.4l2.3-0.2l2.1-0.7l1.7-1.4c-0.3,0.8-0.8,1.4-1.4,1.9c-0.7,0.4-1.5,0.7-2.3,0.9
			c-0.8,0.2-1.6,0.2-2.4,0.1C291.8,77.7,291,77.5,290.2,77.2z"/>
		<path d="M293.7,54.5c-0.1,1.3-0.3,2.6-0.6,3.9c-0.3,1.3-0.7,2.5-1.3,3.7c-0.3,0.6-0.8,1.1-1.4,1.5l-0.4,0.3c-0.1,0-0.1,0-0.1,0.1
			v0l0,0l0.8,0.4c0.6,0.2,1.3,0.3,1.9,0.3c0.6,0.1,1.3,0,1.9-0.3c-0.6,0.4-1.2,0.6-1.9,0.5l-2-0.2c-0.3-0.1-0.6-0.3-0.9-0.5
			c-0.1,0-0.2-0.2-0.1-0.3c0,0,0,0,0,0c0-0.2,0.1-0.2,0.2-0.3l0.4-0.2c0.5-0.4,0.9-0.9,1.2-1.5c0.7-1.1,1.1-2.3,1.4-3.6
			C293.2,57.1,293.5,55.8,293.7,54.5z"/>
		<path class="st27" d="M293.9,54.4c-0.1,1.3-0.2,2.6-0.4,3.9c-0.2,1.3-0.7,2.6-1.2,3.8c-0.3,0.6-0.7,1.2-1.3,1.6l-0.5,0.3l0,0
			c0-0.1-0.1-0.1,0,0l0.8,0.3c0.6,0.2,1.2,0.3,1.8,0.3c0.7,0.1,1.3-0.1,1.9-0.4c-0.5,0.4-1.1,0.7-1.8,0.7c-0.7,0-1.4,0-2.1-0.2
			c-0.4-0.1-0.7-0.2-1-0.4c0-0.1-0.2-0.2-0.1-0.4l0.3-0.4l0.4-0.2c0.4-0.4,0.8-0.9,1.1-1.4c0.5-1.2,1-2.4,1.2-3.7
			C293.4,57,293.6,55.7,293.9,54.4z"/>
		
			<ellipse transform="matrix(0.1513 -0.9885 0.9885 0.1513 187.0577 333.3326)" class="st28" cx="287.6" cy="57.7" rx="0.5" ry="1.6"/>
		
			<ellipse transform="matrix(0.1513 -0.9885 0.9885 0.1513 196.8615 349.1408)" class="st28" cx="301.7" cy="59.9" rx="0.5" ry="1.6"/>
		<path class="st29" d="M300.7,57.6c0.1,0.3,0.2,0.5,0.4,0.4c0.2-0.2,0.3-0.4,0.3-0.7c-0.1-0.3-0.2-0.5-0.4-0.4
			C300.8,56.9,300.8,57.3,300.7,57.6z"/>
		<path class="st29" d="M287.1,54c0,0.3,0.1,0.5,0.3,0.5s0.3-0.3,0.3-0.6s-0.2-0.5-0.3-0.5C287.2,53.5,287.1,53.8,287.1,54z"/>
		<ellipse transform="matrix(0.213 -0.977 0.977 0.213 191.1 359.8095)" class="st30" cx="318.9" cy="61.3" rx="5.4" ry="2.5"/>
		<path d="M319.8,59.7c0.3,1.5,0,3-1,4.2"/>
		<path class="st26" d="M299.2,98.3c0,0,1.4,7.9,23.6-2.8l1,1.5c0,0-11.1,6.5-20.2,6.1c0,0-3.1-0.2-5.6-3.8L299.2,98.3z"/>
		<path class="st31" d="M273.1,30.1l-1.7-1.1c-4.7-2.9-10-6.1-10.9-6.4H204c-4.1,0-7.5-4-7.5-8.9V8.9c0-4.9,3.4-8.9,7.5-8.9h56.6
			c4.1,0,7.5,4,7.5,8.9v4.8c0,0.9,2.7,9.4,4.4,14.5L273.1,30.1z M204,1.5c-3.3,0-6,3.3-6,7.4v4.8c0,4.1,2.7,7.5,6,7.5h56.6
			c0.6,0,4,1.8,9.8,5.5c-1.4-4.3-3.8-12-3.8-13V8.9c0-4.1-2.7-7.4-6-7.4L204,1.5z"/>
		<rect x="207.4" y="7.8" class="st31" width="45.3" height="0.7"/>
		<rect x="232.8" y="14.1" class="st31" width="19.9" height="0.7"/>
		<rect x="208.1" y="14.1" class="st31" width="19.9" height="0.7"/>
		<path class="st31" d="M100.8,54.1l0.6-1.9c1.7-5.2,4.4-13.6,4.4-14.5v-4.8c0-4.9,3.4-8.9,7.5-8.9h56.6c4.1,0,7.5,4,7.5,8.9v4.8
			c0,4.9-3.4,8.9-7.5,8.9h-56.5c-0.9,0.2-6.2,3.4-10.9,6.4L100.8,54.1z M113.3,25.4c-3.3,0-6,3.4-6,7.5v4.8c0,1-2.5,8.7-3.9,13
			c5.9-3.7,9.2-5.6,9.9-5.6h56.6c3.3,0,6-3.3,6-7.4v-4.8c0-4.1-2.7-7.5-6-7.5L113.3,25.4z"/>
		<rect x="116.7" y="31.9" class="st31" width="45.3" height="0.7"/>
		<rect x="116.7" y="38.2" class="st31" width="19.9" height="0.7"/>
		<rect x="141.4" y="38.2" class="st31" width="19.9" height="0.7"/>
		<ellipse class="st7" cx="186.5" cy="212.6" rx="118.7" ry="75.1"/>
		<ellipse class="st32" cx="186.5" cy="202.9" rx="118.7" ry="75.1"/>
		<path class="st0" d="M166.8,140.9l-22.1,1.2v1.6l22.3-1.4c0-0.3,0.3-0.6,0.6-0.6c0,0,0.1,0,0.1,0c0.6-0.1,0.4-0.6,0.1-0.5h-1
			V140.9z"/>
		<path class="st33" d="M99.8,114c5.7,12.7,21,38.4,21,38.4l21.9-2.3c0,0,1.4-11.2,13.8-10s-0.1,1.2-0.1,1.2s1.6-0.2,0.1,0.9
			c0,0,2-0.2,1.9,0.1s0.5,2.2-5.1,3c0,0,0,0.8,0.2,1c0.3,0.5,0.3,1,0.1,1.5c-0.2,0.5,0.3,1.4,0.3,1.6c0,0.8-0.2,1.5-0.6,2.2
			c-1.4,1.9-3.3,3.4-5.5,4.4c-3.9,1.9-28.5,7.9-28.5,7.9c-0.9,0.1-1.7,0.2-2.6,0.1c-1.2-0.1-18.2-20.2-18.2-21.7
			c-0.1-3.2-0.9-6.4-2.4-9.2l-5.4-9l-2.9-15.5C87.8,108.6,97.1,107.7,99.8,114z"/>
		
			<linearGradient id="SVGID_5_" gradientUnits="userSpaceOnUse" x1="135.24" y1="255.45" x2="152.34" y2="255.45" gradientTransform="matrix(1 0 0 -1 0 390)">
			<stop  offset="0" style="stop-color:#FFFFFF"/>
			<stop  offset="1" style="stop-color:#20D5D2"/>
		</linearGradient>
		<path class="st34" d="M146.7,139.9H141c-3.1,0-5.7-2.6-5.7-5.7v-5l0,0h17.1l0,0v5C152.4,137.3,149.8,139.9,146.7,139.9z"/>
		
			<linearGradient id="SVGID_6_" gradientUnits="userSpaceOnUse" x1="-681.15" y1="257.1956" x2="-674.93" y2="257.1956" gradientTransform="matrix(-1 0 0 -1 -545.54 390)">
			<stop  offset="0" style="stop-color:#DCDCDC"/>
			<stop  offset="0" style="stop-color:#DADBDC"/>
			<stop  offset="0" style="stop-color:#D2D6DE"/>
			<stop  offset="0" style="stop-color:#C4CFE0"/>
			<stop  offset="0" style="stop-color:#B0C5E4"/>
			<stop  offset="0" style="stop-color:#97B7E8"/>
			<stop  offset="0" style="stop-color:#78A7EE"/>
			<stop  offset="0" style="stop-color:#5393F5"/>
			<stop  offset="0" style="stop-color:#297CFC"/>
			<stop  offset="0" style="stop-color:#1974FF"/>
			<stop  offset="5.000000e-02" style="stop-color:#1D76FF"/>
			<stop  offset="0.37" style="stop-color:#3182FF"/>
			<stop  offset="0.69" style="stop-color:#3D8AFF"/>
			<stop  offset="1" style="stop-color:#418CFF"/>
		</linearGradient>
		<path class="st35" d="M132.5,135.7c-1.6-0.1-2.8-1.5-2.7-3.1c0.1-1.6,1.5-2.8,3.1-2.7c1.6,0.1,2.7,1.4,2.7,3
			C135.5,134.5,134.1,135.8,132.5,135.7z M132.5,130.7c-1.2,0.1-2.1,1.2-2,2.4s1.2,2.1,2.4,2c1.1-0.1,2-1,2-2.2
			C134.8,131.6,133.8,130.6,132.5,130.7C132.5,130.7,132.5,130.7,132.5,130.7z"/>
		
			<linearGradient id="SVGID_7_" gradientUnits="userSpaceOnUse" x1="90.0438" y1="285.1628" x2="90.0438" y2="215.9551" gradientTransform="matrix(1 0 0 -1 0 390)">
			<stop  offset="0" style="stop-color:#DCDCDC"/>
			<stop  offset="0" style="stop-color:#DADADA"/>
			<stop  offset="0" style="stop-color:#D2D2D2"/>
			<stop  offset="0" style="stop-color:#C7C7C7"/>
			<stop  offset="0.18" style="stop-color:#D3D3D3"/>
			<stop  offset="0.43" style="stop-color:#DADADA"/>
			<stop  offset="1" style="stop-color:#DCDCDC"/>
		</linearGradient>
		<path class="st36" d="M133.7,138.5c0.4-0.6,1.1-4.6-1.5-4.7s-2.5,3-2.5,3h-1.2c-0.7,0-3.4-0.6-1.3-1.7c1.7-1.1,2.9-2.8,3.2-4.8
			c0.3-1.2-0.6-1.7-0.9-1.2s-1.3,1.1-4.4,3.2s-3.6,5-4.4,7s-3.8,3.5-3.8,3.5l-24.3,17.3l-16.5-29.5c0,0-12.3-29.8-22.8-25.3
			s-6.6,16.8-6.6,16.8c0.3,3.4,5.4,8.5,5.4,8.5l7.2,8.3c0,0,27.3,36.6,32.4,35.1s29.4-25.4,29.4-25.4c0.5-0.5,1.1-1,1.7-1.4
			c0.4-0.1,5.9,1,8.5-0.4s0.6-2.9,1.8-4.4S133.3,139.1,133.7,138.5z"/>
		<polygon class="st37" points="202.9,315.8 202.8,315.7 212,285.9 212.1,285.9 		"/>
		<polygon class="st37" points="261.9,306.5 246.9,277.2 247,277.2 262,306.5 		"/>
		<g id="Illustrations">
			<path class="st38" d="M261.7,171.2c-0.1,0.7-0.6,1.3-1.3,1.4h-14.2c-1,0-1-1.4-1-1.4l-2.6-22.5h21.9
				C264.5,148.7,261.9,170,261.7,171.2z"/>
			<polygon class="st39" points="262.7,163.1 244.3,162.8 243.4,155.4 263.7,155.5 			"/>
			
				<rect x="251.6" y="134.1" transform="matrix(1.745302e-03 -1 1 1.745302e-03 106.2586 399.9572)" class="st40" width="3.8" height="25.2"/>
			<polygon class="st41" points="242.9,144.8 243.8,142.1 263.2,142.2 264.1,144.9 			"/>
			<g class="st42">
				<path class="st43" d="M251.9,160.8c0.5,0.4,0.9,0.2,1.4,0.4s0-0.4-0.2-0.6c-0.3-0.4-0.8-0.7-1.4-0.7c-0.6,0-0.7,0.2-0.7,0.3
					L251.9,160.8z"/>
				<path class="st43" d="M251.7,161.7c-0.5-0.2-0.9-0.7-0.9-1.3c0.2-0.1,0.6,0.5,1.1,0.8s1,0.1,1.2,0.2c0.1,0,0.2,0.2,0.1,0.3
					c0,0,0,0,0,0C252.7,162,252.2,162,251.7,161.7z"/>
			</g>
			<g class="st42">
				<path class="st43" d="M251.8,158.1l1-0.4h0.1c0-0.2-0.3-0.3-0.5-0.3c-0.6,0-1.1,0.2-1.5,0.6c-0.4,0.4-0.3,0.7-0.2,0.8
					S251.4,158.3,251.8,158.1z"/>
				<path class="st43" d="M252.2,159c-0.4,0.3-1,0.2-1.4-0.1l1-0.4l1.1-0.7c0.2-0.1,0.2,0.2,0.2,0.2S253.1,158.6,252.2,159z"/>
			</g>
			<g class="st42">
				<path class="st43" d="M254.3,159.3c0,0.2-0.1,0.9-0.1,1.1h0.1c0.1,0.1,0.4-0.2,0.5-0.3c0.3-0.5,0.3-1.1,0.2-1.6
					c-0.2-0.6-0.5-0.6-0.5-0.6S254.4,158.8,254.3,159.3z"/>
				<path class="st43" d="M253.4,159.2c0.1-1.1,0.7-1.2,0.8-1.2s-0.1,0.7-0.1,1.1v1.3c0,0.1-0.2,0.2-0.3,0.1c0,0,0,0,0,0
					C253.8,160.5,253.3,160.2,253.4,159.2z"/>
			</g>
			
				<linearGradient id="SVGID_8_" gradientUnits="userSpaceOnUse" x1="8135.5073" y1="1506.2903" x2="8135.5073" y2="1508.2402" gradientTransform="matrix(-1 -1.745435e-03 -1.745435e-03 1 8391.6865 -1343.3994)">
				<stop  offset="0" style="stop-color:#408BFC"/>
				<stop  offset="0.3" style="stop-color:#6EA6FF;stop-opacity:0.72"/>
				<stop  offset="0.99" style="stop-color:#408BFF;stop-opacity:1.000000e-02"/>
				<stop  offset="1" style="stop-color:#418CFF;stop-opacity:0"/>
			</linearGradient>
			<polygon class="st44" points="242.6,148.6 242.8,150.5 264.3,150.2 264.5,148.6 			"/>
		</g>
		<path class="st14" d="M273.5,179.5c0,0-8.3,0.7-14.7-3s-8.5-4.2-8.2-5.4s3.4,0.3,3.6,0.1s-7.7-5.6-6.7-6.7s7,2.9,7.2,2.7
			s-7.5-7.6-6.2-8.8s9.1,5.5,9.4,5.2s-6.7-6.8-5.4-8s8.1,5.1,9.6,6.7c1.1,1.1,2.5,1.6,4,1.6c-1.1-0.8-2.1-1.7-3.1-2.6l0.4-3.4
			c3,1.6,5.7,3.7,8,6.2c1.4,1.6,3,3,4.6,4.3C276,168.4,272.3,174.8,273.5,179.5z"/>
		
			<linearGradient id="SVGID_9_" gradientUnits="userSpaceOnUse" x1="-359.3389" y1="1941.4659" x2="-263.8389" y2="1941.4659" gradientTransform="matrix(-0.77 0.64 -0.64 -0.77 1316.6499 1852.61)">
			<stop  offset="0" style="stop-color:#00B0AB"/>
			<stop  offset="1" style="stop-color:#00BAB6"/>
		</linearGradient>
		<path class="st45" d="M313,101.7c0,0,7.5,66.9,7.5,77.9c0,0-37-3.2-44.2-11.8c0,0-11.1,10.5-8.1,11.5s58.7,24.5,63.6,21.6
			s13.7-52.7-8-103.9L313,101.7z"/>
		<polygon class="st46" points="205,156.9 184.4,142.7 154,157.5 175,171.9 		"/>
		<polygon class="st47" points="166.6,164.6 166.7,164.5 157.6,157.7 157.5,157.8 		"/>
		<polygon class="st47" points="174.8,169.1 174.9,168.9 159.8,157.2 159.7,157.4 		"/>
		<polygon class="st47" points="176.2,168.4 176.3,168.3 161.2,156.6 161.1,156.7 		"/>
		<polygon class="st47" points="175.2,165.9 175.3,165.7 162.2,155.5 162.1,155.7 		"/>
		<polygon class="st47" points="174.8,159.2 174.9,159 167.1,152.9 167,153.1 		"/>
		
			<rect x="177.9" y="147.7" transform="matrix(0.6252 -0.7804 0.7804 0.6252 -56.2691 197.9817)" class="st47" width="0.2" height="19.8"/>
		<polygon class="st47" points="186.1,161.5 186.2,161.4 171.8,150.2 171.7,150.4 		"/>
		<polygon class="st47" points="184.4,164.6 184.6,164.5 168.5,152 168.4,152.2 		"/>
		<polygon class="st47" points="188.1,148.2 188.2,148.1 183.8,145 183.7,145.1 		"/>
		<polygon class="st47" points="198.4,155.6 198.5,155.5 194.3,152.6 194.2,152.8 		"/>
		<polygon class="st47" points="197,153.8 197.1,153.7 194.8,152.1 194.7,152.2 		"/>
		<polygon class="st47" points="187.1,146.4 187.2,146.2 184.8,144.6 184.7,144.8 		"/>
		<polygon class="st47" points="184.4,157.8 184.6,157.7 173.9,149.4 173.7,149.6 		"/>
		<polygon class="st14" points="124,229.5 82.5,196.7 82.7,194.9 147.9,170.6 124.5,226.8 		"/>
		<polygon class="st9" points="124.2,227.6 82.7,194.9 148.2,168.8 189.7,201.5 		"/>
		<polygon class="st48" points="113.9,185.6 122.2,192.1 144.1,183.6 135.6,176.9 		"/>
		<polygon points="123.5,215.2 125,216.4 128.5,215 127,213.8 		"/>
		<polygon points="127.8,213.5 129.3,214.6 132.8,213.2 131.3,212.1 		"/>
		<polygon points="132.2,211.7 133.7,212.9 137.2,211.5 135.7,210.3 		"/>
		<polygon points="136.7,209.9 138.2,211.1 141.6,209.7 140.2,208.6 		"/>
		<polygon points="140.9,208.3 142.4,209.4 145.9,208 144.4,206.9 		"/>
		<polygon points="145.3,206.5 146.7,207.7 150.2,206.3 148.7,205.1 		"/>
		<polygon points="149.6,204.8 151.1,205.9 154.6,204.6 153.1,203.4 		"/>
		<polygon points="154,203.1 155.4,204.2 158.9,202.8 157.5,201.7 		"/>
		<polygon points="158.3,201.3 159.8,202.5 163.3,201.1 161.8,199.9 		"/>
		<polygon points="162.7,199.6 164.1,200.7 167.6,199.4 166.2,198.2 		"/>
		<polygon points="167,197.8 168.5,199 172,197.6 170.5,196.5 		"/>
		<polygon points="171.4,196.1 172.9,197.3 176.3,195.9 174.9,194.7 		"/>
		<polygon points="175.7,194.4 177.2,195.5 180.7,194.2 179.2,193 		"/>
		<polygon points="180.1,192.6 181.6,193.8 185,192.4 183.6,191.3 		"/>
		<polygon points="120.1,212.6 122.6,214.6 128,212.4 125.5,210.5 		"/>
		<polygon points="126.4,210.1 128.9,212.1 132.4,210.7 129.9,208.7 		"/>
		<polygon points="130.6,208.4 133.1,210.4 136.7,209 134.2,207 		"/>
		<polygon points="134.8,206.8 137.3,208.7 140.8,207.3 138.3,205.4 		"/>
		<polygon points="139.1,205 141.6,207 145.2,205.6 142.7,203.6 		"/>
		<polygon points="143.4,203.4 145.9,205.3 149.4,203.9 146.9,202 		"/>
		<polygon points="147.6,201.7 150.1,203.6 153.6,202.2 151.1,200.3 		"/>
		<polygon points="151.7,200 154.2,202 157.7,200.6 155.2,198.6 		"/>
		<polygon points="156.1,198.3 158.6,200.2 162.1,198.8 159.7,196.9 		"/>
		<polygon points="160.4,196.5 162.9,198.5 166.5,197.1 164,195.1 		"/>
		<polygon points="164.8,194.8 167.3,196.8 170.8,195.4 168.4,193.4 		"/>
		<polygon points="169.2,193.1 171.7,195 175.2,193.6 172.7,191.7 		"/>
		<polygon points="173.4,191.4 175.9,193.4 179.4,192 176.9,190 		"/>
		<polygon points="177.4,189.8 179.9,191.8 183.4,190.4 180.9,188.4 		"/>
		<polygon points="116.6,209.9 119.1,211.8 124.5,209.7 122,207.7 		"/>
		<polygon points="122.9,207.4 125.4,209.3 128.9,207.9 126.4,205.9 		"/>
		<polygon points="127.2,205.7 129.7,207.6 133.2,206.2 130.7,204.3 		"/>
		<polygon points="131.3,204 133.8,206 137.3,204.5 134.9,202.6 		"/>
		<polygon points="135.7,202.3 138.2,204.2 141.7,202.8 139.2,200.9 		"/>
		<polygon points="139.9,200.6 142.4,202.6 145.9,201.1 143.4,199.2 		"/>
		<polygon points="144.1,198.9 146.6,200.9 150.1,199.5 147.7,197.5 		"/>
		<polygon points="148.2,197.3 150.7,199.2 154.3,197.8 151.8,195.9 		"/>
		<polygon points="152.7,195.5 155.1,197.5 158.7,196.1 156.2,194.1 		"/>
		<polygon points="157,193.8 159.5,195.7 163,194.3 160.5,192.4 		"/>
		<polygon points="161.4,192.1 163.8,194 167.4,192.6 164.9,190.6 		"/>
		<polygon points="165.7,190.3 168.2,192.3 171.7,190.9 169.2,188.9 		"/>
		<polygon points="169.9,188.7 172.4,190.6 176,189.2 173.5,187.3 		"/>
		<polygon points="173.9,187 176.4,189 180,187.6 177.5,185.6 		"/>
		<polygon points="113.3,207.1 115.8,209.1 122.2,206.5 119.7,204.6 		"/>
		<polygon points="120.3,204.3 122.8,206.3 126.3,204.9 123.9,202.9 		"/>
		<polygon points="124.6,202.6 127.1,204.6 130.6,203.2 128.1,201.2 		"/>
		<polygon points="128.7,200.9 131.2,202.9 134.8,201.5 132.3,199.5 		"/>
		<polygon points="133.1,199.2 135.6,201.2 139.1,199.8 136.6,197.8 		"/>
		<polygon points="137.3,197.6 139.8,199.5 143.3,198.1 140.8,196.1 		"/>
		<polygon points="141.5,195.9 144,197.8 147.6,196.4 145.1,194.5 		"/>
		<polygon points="145.7,194.2 148.1,196.2 151.7,194.8 149.2,192.8 		"/>
		<polygon points="150.1,192.5 152.5,194.4 156.1,193 153.6,191.1 		"/>
		<polygon points="154.4,190.7 156.9,192.7 160.4,191.3 157.9,189.3 		"/>
		<polygon points="158.8,189 161.3,191 164.8,189.6 162.3,187.6 		"/>
		<polygon points="163.1,187.3 165.6,189.2 169.1,187.8 166.6,185.9 		"/>
		<polygon points="167.3,185.6 169.8,187.6 176.6,184.8 174.1,182.9 		"/>
		<polygon points="109.7,204.3 112.2,206.2 120.5,202.9 118,200.9 		"/>
		<polygon points="118.7,200.6 121.1,202.6 124.7,201.2 122.2,199.2 		"/>
		<polygon points="122.8,199 125.3,200.9 128.8,199.5 126.3,197.5 		"/>
		<polygon points="127.2,197.2 129.6,199.2 133.2,197.8 130.7,195.8 		"/>
		<polygon points="131.4,195.6 133.9,197.5 137.4,196.1 134.9,194.1 		"/>
		<polygon points="135.6,193.9 138.1,195.8 141.6,194.4 139.1,192.5 		"/>
		<polygon points="139.7,192.2 142.2,194.2 145.8,192.8 143.3,190.8 		"/>
		<polygon points="144.1,190.5 146.6,192.4 150.2,191 147.7,189.1 		"/>
		<polygon points="148.5,188.7 150.9,190.7 154.5,189.3 152,187.3 		"/>
		<polygon points="152.8,187 155.3,189 158.9,187.6 156.4,185.6 		"/>
		<polygon points="157.2,185.3 159.7,187.2 163.2,185.8 160.7,183.9 		"/>
		<polygon points="161.4,183.6 163.9,185.6 167.4,184.2 164.9,182.2 		"/>
		<polygon points="165.4,182 167.9,184 172.9,182 170.4,180 		"/>
		<polygon points="106.5,201.9 107.6,202.7 110.3,201.7 109.2,200.8 		"/>
		<polygon points="109.4,200.7 110.5,201.6 113.2,200.5 112.1,199.6 		"/>
		<polygon points="112.3,199.5 113.4,200.4 116.1,199.3 115,198.4 		"/>
		<polygon points="110.6,201.7 111.7,202.6 114.4,201.5 113.3,200.6 		"/>
		<polygon points="115.9,198 118.4,200 121.9,198.6 119.4,196.6 		"/>
		<polygon points="120.2,196.3 122.7,198.3 126.2,196.9 123.7,194.9 		"/>
		<polyline points="132.3,191.5 128.8,192.9 131.2,194.9 		"/>
		<polygon points="124.5,194.6 127,196.6 151.9,186.7 149.4,184.7 		"/>
		<polygon points="150.2,184.4 152.7,186.3 156.2,184.9 153.8,183 		"/>
		<polygon points="154.6,182.6 157.1,184.6 160.6,183.2 158.1,181.2 		"/>
		<polygon points="158.8,181 161.3,183 164.8,181.6 162.3,179.6 		"/>
		<polygon points="162.8,179.4 165.3,181.3 168.8,179.9 166.3,178 		"/>
		<polygon class="st14" points="123.9,229.7 131.8,175.3 197.3,149.2 189.5,203.6 		"/>
		<ellipse transform="matrix(0.957 -0.2902 0.2902 0.957 -15.0842 29.1356)" class="st29" cx="90.7" cy="65.4" rx="0.2" ry="0.4"/>
		<ellipse transform="matrix(0.957 -0.2902 0.2902 0.957 -16.1642 26.8512)" class="st29" cx="82.5" cy="67.9" rx="0.2" ry="0.4"/>
	</g>
</g>
</svg>
