<?xml version="1.0" encoding="utf-8"?>
<!-- Generator: Adobe Illustrator 23.0.3, SVG Export Plug-In . SVG Version: 6.00 Build 0)  -->
<svg version="1.1" id="Layer_1" xmlns="http://www.w3.org/2000/svg" xmlns:xlink="http://www.w3.org/1999/xlink" x="0px" y="0px"
	 viewBox="0 0 553.4 429" style="enable-background:new 0 0 553.4 429;" xml:space="preserve">
<style type="text/css">
	.st0{fill:#F2F2F2;}
	.st1{fill:#B3B3B3;}
	.st2{fill:#808080;}
	.st3{fill:#0530AD;}
	.st4{fill:#054ADA;}
	.st5{fill:#0062FF;}
	.st6{fill:#061F80;}
	.st7{fill:#6EA6FF;}
	.st8{fill:#666666;}
	.st9{fill:#4D4D4D;}
	.st10{fill:#CCCCCC;}
	.st11{fill:#1A1A1A;}
	.st12{fill:#999999;}
	.st13{fill:#009C98;}
	.st14{fill:#00BAB6;}
	.st15{fill:#20D5D2;}
	.st16{clip-path:url(#SVGID_2_);}
	.st17{fill:url(#SVGID_3_);}
	.st18{fill:#FFFFFF;}
	.st19{fill:url(#SVGID_4_);}
	.st20{fill:url(#SVGID_5_);}
	.st21{fill:url(#SVGID_6_);}
	.st22{fill:#494949;}
	.st23{opacity:0.72;fill:#CCCCCC;enable-background:new    ;}
</style>
<title>Inside_coffee_second_transition</title>
<g>
	<g id="Layer_4">
		<polygon class="st0" points="48.2,0 111.5,0 199.8,0 433.9,135.1 358.2,178.9 		"/>
		<polygon class="st1" points="0,0 0,109.1 357.7,315.9 358.2,178.9 48.2,0 		"/>
		<polygon class="st2" points="433.9,135.1 433.9,272.4 357.7,315.9 358.2,178.9 		"/>
		<polygon class="st0" points="553.4,203.2 466.1,253.6 553.4,304 		"/>
		<polygon class="st1" points="466.1,253.6 466.1,378.4 552.9,429 553.4,304 		"/>
		<path class="st3" d="M44.9,92.5v68.8c3.2,0.5,6.3,1.5,9.2,3.1L51.8,88l-7.9,4.3"/>
		<path class="st3" d="M13.8,188.5c0,0,2.7-5.4,4.9-6.3s4.5,0,4.5,0l7-58.3L13.8,188.5z"/>
		<path class="st4" d="M49,109.8L15.7,88.7L0,190.7c0,0,3,4,4.1,4.7c2.7,1.4,5.6,2.6,8.5,3.4l17.6-74.9l17.2,9.9l8,92.2l6,3.3
			c3.2,1.8,7.1,1.8,10.3-0.1l5.7-3.2l-3.6-114.4L49,109.8z"/>
		<path class="st5" d="M101.6,93.4c0,0-36.6,23.5-37.2,23.4l2.2,113.8l10.8-4.6v-87.4l12.3-7.1l9.6,77.5c2,0.5,4,0.5,6,0.1
			c2.2-0.6,4.2-1.5,6.1-2.8L101.6,93.4z"/>
		<path class="st3" d="M91.2,143.2l1,49.5c0,0,3.2,0.1,6,5.9L91.2,143.2z"/>
		<path class="st4" d="M44.9,161.3c-2.4,0-9.4,2.3-9.4,2.3l2.6-35.7l6.8,2.8L44.9,161.3z"/>
		<path class="st3" d="M50.1,63.7L18.5,76.8c-3.4,2-4.7,12.9-1.2,14.9l43.6,25.2c1.6,0.9,3.6,0.9,5.2,0l32.9-19
			c3.4-2,3.9-12.1,0.5-14.1L55.3,63.7C53.7,62.8,51.7,62.8,50.1,63.7z"/>
		<path class="st5" d="M50.1,58.2L18.6,76.4c-2.9,1.6-3.9,5.3-2.3,8.2c0.5,1,1.4,1.8,2.3,2.3l42.3,24.5c1.6,0.9,3.6,0.9,5.2,0
			l32.9-19c2.5-1.4,3.3-4.6,1.9-7.1c-0.5-0.8-1.1-1.4-1.9-1.9L55.3,58.2C53.7,57.3,51.7,57.3,50.1,58.2z"/>
		<path class="st6" d="M334.2,92.7l-45.4,23.1c-3,1.7-2.8,8.9,0.2,10.7l45.2,26c1.4,0.8,3,0.8,4.4,0l45.2-26
			c2.9-1.8,3.3-8.9,0.4-10.6l-45.6-23.2C337.2,91.9,335.6,91.9,334.2,92.7z"/>
		<path class="st7" d="M334.2,89.6l-45.2,26c-2.1,1.2-2.9,3.9-1.7,6c0.4,0.7,1,1.3,1.7,1.7l45.2,26.1c1.4,0.8,3,0.8,4.4,0l45.2-26.1
			c2.1-1.3,2.8-4.1,1.5-6.2c-0.4-0.6-0.9-1.1-1.5-1.5l-45.2-26C337.2,88.8,335.6,88.8,334.2,89.6z"/>
		<polygon class="st8" points="313.4,65.1 311.3,66.3 313.5,110.3 350.5,134.1 352.6,132.9 352.6,87.7 		"/>
		<polygon class="st9" points="311.3,66.3 311.4,111.5 350.5,134.1 350.5,88.9 		"/>
		<polygon class="st10" points="293.1,123.1 293.1,85.7 298.5,88.8 298.5,126.2 		"/>
		<polygon class="st1" points="298.5,126.2 302.3,123.9 302.3,87.3 298.5,88.8 		"/>
		<polygon class="st11" points="285,76.4 285,88.9 306.6,101.3 306.6,88.9 		"/>
		<polygon class="st9" points="306.6,101.3 308.9,99.9 308.9,88 306.6,88.9 		"/>
		<polygon class="st8" points="306.6,88.9 285,76.4 287.3,75.3 308.9,88 		"/>
		<polygon class="st2" points="330.4,136.5 342.5,129 330.4,122 318.2,129.3 		"/>
		<polygon class="st12" points="322.5,102.4 333,108.6 330.4,136.5 318.2,129.3 		"/>
		<path class="st13" d="M184.4,6.6c-2.1-1.5-4.1,1.4-4.1,1.4l-1.2,8.2C179.1,16.2,187.6,8.9,184.4,6.6z M180,13.8l0.8-4.6
			c0,0,1.1-1.9,2.2-1.4S180,13.8,180,13.8z"/>
		<path class="st14" d="M169.1,22.2c0,0,9.6,3.3,11.8-12.2l-13.4,1.5L169.1,22.2z"/>
		<path class="st13" d="M163.1,10.8c0,0,2.1,10.8,6.8,11.7s4.7-7.5,4.7-7.5L163.1,10.8z"/>
		<ellipse class="st15" cx="171.9" cy="10" rx="8.9" ry="5.6"/>
		<ellipse cx="171.9" cy="9.8" rx="7.2" ry="4.5"/>
		<path class="st13" d="M138.9,8.1c-2.1-1.4-4.1,1.4-4.1,1.4l-1.2,8.3C133.6,17.8,142.1,10.4,138.9,8.1z M134.5,15.4l0.8-4.7
			c0,0,1.1-1.9,2.2-1.4S134.5,15.4,134.5,15.4z"/>
		<path class="st14" d="M123.6,23.8c0,0,9.5,3.2,11.7-12.3L122,13.1L123.6,23.8z"/>
		<path class="st13" d="M117.6,12.4c0,0,2.1,10.8,6.8,11.6s4.7-7.5,4.7-7.5L117.6,12.4z"/>
		<ellipse class="st15" cx="126.4" cy="11.5" rx="8.9" ry="5.6"/>
		<ellipse cx="126.4" cy="11.3" rx="7.2" ry="4.5"/>
		<path class="st13" d="M159.2,22.2c-2-1.5-4.1,1.4-4.1,1.4l-1.2,8.2C153.9,31.8,162.4,24.5,159.2,22.2z M154.9,29.4l0.7-4.7
			c0,0,1.1-1.8,2.3-1.3S154.9,29.4,154.9,29.4z"/>
		<path class="st14" d="M144,37.8c0,0,9.5,3.3,11.7-12.2l-13.4,1.5L144,37.8z"/>
		<path class="st13" d="M138,26.4c0,0,2.1,10.8,6.8,11.7s4.6-7.5,4.6-7.5L138,26.4z"/>
		<ellipse class="st15" cx="146.8" cy="25.6" rx="8.9" ry="5.6"/>
		<ellipse cx="146.8" cy="25.3" rx="7.2" ry="4.5"/>
		<g>
			<defs>
				<rect id="SVGID_1_" x="142.6" width="24.5" height="18.6"/>
			</defs>
			<clipPath id="SVGID_2_">
				<use xlink:href="#SVGID_1_"  style="overflow:visible;"/>
			</clipPath>
			<g class="st16">
				<path class="st13" d="M164.3-4.1c-2.1-1.5-4.1,1.3-4.1,1.3L159,5.5C159,5.5,167.5-1.8,164.3-4.1z M159.9,3.1l0.7-4.7
					c0,0,1.2-1.8,2.3-1.3S159.9,3.1,159.9,3.1L159.9,3.1z"/>
				<path class="st14" d="M149,11.5c0,0,9.5,3.3,11.7-12.3l-13.3,1.6L149,11.5z"/>
				<path class="st13" d="M143,0.1c0,0,2.1,10.8,6.8,11.7s4.7-7.5,4.7-7.5L143,0.1z"/>
				<ellipse class="st15" cx="151.8" cy="-0.8" rx="8.9" ry="5.6"/>
				<ellipse cx="151.8" cy="-1" rx="7.2" ry="4.5"/>
			</g>
		</g>
		<path class="st3" d="M141.8,152.1v68.8c3.2,0.5,6.3,1.5,9.2,3.1l-2.3-76.4l-7.9,4.3"/>
		<path class="st3" d="M110.8,248.2c0,0,2.6-5.5,4.8-6.4s4.5,0,4.5,0l7-58.3L110.8,248.2z"/>
		<path class="st4" d="M145.9,169.4l-33.3-21L96.9,250.3c0,0,3,4,4.1,4.7c2.7,1.4,5.6,2.6,8.5,3.4l17.6-74.9l17.2,9.9l8,92.2l6,3.3
			c3.2,1.8,7.1,1.8,10.3-0.1l5.7-3.2l-3.6-114.4L145.9,169.4z"/>
		<path class="st5" d="M198.5,153c0,0-36.6,23.5-37.2,23.4l2.2,113.8l10.8-4.6v-87.3l12.3-7.2l9.7,77.5c1.9,0.5,4,0.5,5.9,0.1
			c2.2-0.6,4.2-1.5,6.1-2.8L198.5,153z"/>
		<path class="st3" d="M188.1,202.8l1,49.5c0,0,3.2,0.1,6,6L188.1,202.8L188.1,202.8z"/>
		<path class="st4" d="M141.8,220.9c-2.4,0.1-9.3,2.3-9.3,2.3l2.5-35.7l6.8,2.9V220.9z"/>
		<path class="st3" d="M147,123.3l-31.6,13.2c-3.4,2-4.7,12.8-1.2,14.8l43.6,25.2c1.6,0.9,3.6,0.9,5.2,0l32.9-19
			c3.4-2,4-12.1,0.5-14.1l-44.2-20.1C150.6,122.4,148.6,122.4,147,123.3z"/>
		<path class="st5" d="M147,117.9l-31.5,18.2c-2.9,1.7-3.9,5.5-2.1,8.4c0.5,0.9,1.3,1.6,2.1,2.1l42.3,24.4c1.6,0.9,3.6,0.9,5.2,0
			l32.9-19c2.5-1.5,3.2-4.7,1.8-7.1c-0.4-0.7-1-1.3-1.8-1.8l-43.7-25.2C150.6,116.9,148.6,116.9,147,117.9z"/>
		<path class="st6" d="M309,0l244.4,143.1L552.9,0H309z"/>
		<polygon class="st10" points="173.7,54.6 212.3,32.3 279.2,70.9 278.7,82.1 250.4,99.4 		"/>
		<path d="M250.8,100l-77.5-45.2l9.6-22l0.4,0.2l67.5,39.7V100z M174.2,54.5l75.9,44.2V73.2l-66.8-39.4L174.2,54.5z"/>
		<path class="st4" d="M200.5,61.1c-0.1,1.3,0.1,2.6,0.4,3.9c0.4,1.3,1.4,2.4,2.8,2.7c1.7,0.5,4.8,0.8,7-0.3s2-6,2-6
			C208.8,63.3,204.3,63.2,200.5,61.1z"/>
		
			<linearGradient id="SVGID_3_" gradientUnits="userSpaceOnUse" x1="-259.7468" y1="232.6461" x2="-259.6068" y2="229.8261" gradientTransform="matrix(0.9987 5.059294e-02 5.059294e-02 -0.9987 454.2448 306.5415)">
			<stop  offset="0" style="stop-color:#000000"/>
			<stop  offset="1" style="stop-color:#0062FF"/>
		</linearGradient>
		<path class="st17" d="M200.5,61.1v1c5,3.1,11.2,1.5,12.2,0.5v-1.2C208.8,63.3,204.3,63.2,200.5,61.1z"/>
		<path class="st5" d="M212.7,61.4c0,0,1.4-1.1,0.5-3.6s-5.2-3.3-6.2-3.4s-5.4,0.3-6.7,3c-1.3,2.7,0.2,3.6,0.4,3.8
			c1.8,0.9,3.8,1.4,5.8,1.6C208.6,62.8,210.8,62.3,212.7,61.4z"/>
		<path class="st18" d="M203.1,56.5l-0.7,0.8c-0.2,0.3-0.3,0.5-0.4,0.8c-0.1,0.2-0.2,0.5-0.1,0.8c0,0.3,0.1,0.6,0.2,0.9
			c-0.2-0.2-0.4-0.5-0.4-0.8c-0.1-0.3-0.1-0.7,0.1-1C202,57.3,202.5,56.8,203.1,56.5z"/>
		<circle class="st18" cx="210.1" cy="57.2" r="0.3"/>
		<circle class="st18" cx="209" cy="58.6" r="0.3"/>
		<circle class="st18" cx="211.1" cy="59.4" r="0.4"/>
		<path class="st4" d="M231.4,80c-0.1,1.3,0.1,2.6,0.4,3.9c0.4,1.3,1.4,2.4,2.8,2.7c1.8,0.5,4.8,0.8,7-0.3s2-6,2-6
			C239.7,82.2,235.2,82.1,231.4,80z"/>
		
			<linearGradient id="SVGID_4_" gradientUnits="userSpaceOnUse" x1="-227.9095" y1="215.3171" x2="-227.7595" y2="212.4971" gradientTransform="matrix(0.9987 5.059294e-02 5.059294e-02 -0.9987 454.2448 306.5415)">
			<stop  offset="0" style="stop-color:#000000"/>
			<stop  offset="1" style="stop-color:#0062FF"/>
		</linearGradient>
		<path class="st19" d="M231.4,80v1.1c5,3,11.2,1.4,12.2,0.4c0.1-0.4,0.1-0.8,0-1.2C239.7,82.2,235.2,82.1,231.4,80z"/>
		<path class="st5" d="M243.6,80.3c0,0,1.4-1.1,0.6-3.5s-5.3-3.4-6.3-3.5s-5.4,0.3-6.7,3s0.2,3.6,0.4,3.8c1.8,0.9,3.8,1.4,5.8,1.6
			C239.6,81.8,241.7,81.3,243.6,80.3z"/>
		<path class="st18" d="M234,75.5c-0.3,0.2-0.5,0.4-0.7,0.7c-0.2,0.3-0.3,0.5-0.4,0.8c-0.1,0.3-0.2,0.6-0.1,0.9
			c0,0.3,0.1,0.6,0.2,0.9c-0.2-0.3-0.4-0.6-0.4-0.9c-0.1-0.3,0-0.7,0.1-1C232.9,76.3,233.4,75.8,234,75.5z"/>
		<circle class="st18" cx="241" cy="76.1" r="0.3"/>
		<circle class="st18" cx="239.9" cy="77.5" r="0.3"/>
		<circle class="st18" cx="242" cy="78.3" r="0.4"/>
		<path class="st4" d="M229.5,70.2c0.1,1.3,0,2.6-0.3,3.9c-0.3,1.4-1.4,2.4-2.8,2.7c-1.8,0.5-4.8,0.9-7.1-0.2s-1.9-6-1.9-6
			C221.2,72.5,225.8,72.4,229.5,70.2z"/>
		
			<linearGradient id="SVGID_5_" gradientUnits="userSpaceOnUse" x1="-2073.5127" y1="132.0679" x2="-2073.3728" y2="129.2387" gradientTransform="matrix(-1 5.000000e-02 -5.000000e-02 -1 -1843.46 306.99)">
			<stop  offset="0" style="stop-color:#000000"/>
			<stop  offset="1" style="stop-color:#0062FF"/>
		</linearGradient>
		<path class="st20" d="M229.5,70.2c0.1,0.4,0.1,0.7,0,1.1c-4.9,3-11.1,1.4-12.1,0.5c-0.1-0.4-0.1-0.8,0-1.2
			C221.2,72.5,225.8,72.4,229.5,70.2z"/>
		<path class="st5" d="M217.4,70.6c0,0-1.5-1.1-0.6-3.6s5.3-3.4,6.3-3.4s5.4,0.3,6.7,3s-0.2,3.6-0.4,3.7c-1.8,1-3.8,1.5-5.8,1.6
			C221.5,72,219.3,71.5,217.4,70.6z"/>
		<path class="st18" d="M227,65.7l0.6,0.7c0.2,0.2,0.4,0.5,0.5,0.8c0.1,0.3,0.1,0.6,0.1,0.9c0,0.3-0.1,0.6-0.2,0.9
			c0.2-0.3,0.3-0.6,0.4-0.9c0.1-0.3,0-0.7-0.1-1C228,66.5,227.6,66,227,65.7z"/>
		<circle class="st18" cx="219.9" cy="66.3" r="0.3"/>
		<circle class="st18" cx="221.1" cy="67.8" r="0.3"/>
		<circle class="st18" cx="218.9" cy="68.6" r="0.4"/>
		<path class="st4" d="M196.6,52.4c0.1,1.3-0.1,2.6-0.4,3.9c-0.3,1.4-1.4,2.4-2.8,2.6c-1.7,0.5-4.7,0.9-7-0.2s-2-6-2-6
			C188.3,54.6,192.8,54.5,196.6,52.4z"/>
		
			<linearGradient id="SVGID_6_" gradientUnits="userSpaceOnUse" x1="-2041.5389" y1="151.5769" x2="-2041.399" y2="148.7569" gradientTransform="matrix(-1 5.000000e-02 -5.000000e-02 -1 -1843.46 306.99)">
			<stop  offset="0" style="stop-color:#000000"/>
			<stop  offset="1" style="stop-color:#0062FF"/>
		</linearGradient>
		<path class="st21" d="M196.6,52.4v1c-4.9,3.1-11.1,1.5-12.2,0.5v-1.2C188.3,54.6,192.8,54.5,196.6,52.4z"/>
		<path class="st5" d="M184.4,52.7c0,0-1.4-1.1-0.5-3.6s5.2-3.4,6.2-3.4s5.5,0.3,6.7,3s-0.1,3.6-0.4,3.8c-1.8,0.9-3.8,1.5-5.8,1.6
			C188.5,54.1,186.3,53.6,184.4,52.7z"/>
		<path class="st18" d="M194.1,47.8l0.6,0.7c0.2,0.3,0.3,0.5,0.4,0.8c0.2,0.3,0.2,0.6,0.2,0.9c-0.1,0.3-0.2,0.6-0.3,0.9
			c0.2-0.2,0.4-0.5,0.5-0.8c0-0.3,0-0.7-0.1-1C195.1,48.7,194.7,48.1,194.1,47.8z"/>
		<circle class="st18" cx="187" cy="48.5" r="0.3"/>
		<circle class="st18" cx="188.1" cy="49.9" r="0.3"/>
		<circle class="st18" cx="186" cy="50.7" r="0.4"/>
		<polygon class="st10" points="183,33.4 217.4,12.9 279.8,49.2 279.6,56.5 250.3,72.5 		"/>
		<path d="M250.7,73.5l-0.4-0.2l-67.6-39.8l0.2-10.1l0.5,0.3l70,40.9L250.7,73.5z M183.5,33.1l66.7,39.3l2.3-7.5l-68.9-40.3
			L183.5,33.1z"/>
		<path d="M253,65.2L182.5,24L210,8.2h0.2l70.2,40.4L253,65.2z M184,24l69,40.3l26-15.7L210,9L184,24z"/>
		<path d="M250.1,100V72.3l2.6-7.8h0.1l27.5-15.9l-1.2,33.8L250.1,100z M250.8,72.5v26.2l27.6-16.8l1.1-32.1L253.3,65L250.8,72.5z"
			/>
		<rect x="248.4" y="64.1" transform="matrix(0.8771 -0.4802 0.4802 0.8771 1.5963 135.2157)" width="33.3" height="0.7"/>
		<path class="st13" d="M200.9,20.6c-4,0-7.3,1-7.7,3.5c-0.1,0.5-0.1,0.9,0,1.4c0,2.7,3.5,4.9,7.7,4.9s7.8-2.4,7.8-4.9
			c0-0.8,0-1.6-0.1-2.4C208.1,20.8,204.8,20.6,200.9,20.6z M200.7,26.5c-1.2,0-2.2-0.6-2.2-1.4s1-1.4,2.2-1.4s2.2,0.7,2.2,1.4
			S201.9,26.5,200.7,26.5z"/>
		<path class="st15" d="M200.9,18.8c-4.3,0-7.8,2.2-7.8,4.9s3.5,4.9,7.8,4.9s7.8-2.2,7.8-4.9S205.2,18.8,200.9,18.8z M200.9,24.7
			c-1.2,0-2.2-0.6-2.2-1.4s1-1.4,2.2-1.4s2.2,0.7,2.2,1.4S202.1,24.7,200.9,24.7z"/>
		<path class="st15" d="M193.5,25.2c0,0,0.1,2.1,1.1,2.2c0.7,0.1,1.3,0.3,1.9,0.7c0.6,0.5,1.4,0.8,2.2,0.8c0.7-0.1,1.5-0.1,2.2,0.2
			c0.9,0.2,1.8,0.1,2.6-0.4c0.5-0.4,1.1-0.6,1.8-0.6c0.7,0.1,2.1-0.6,2.1-1s0.8-0.6,0.9-1s0.3-2.1,0.3-2.1l-7.2,0.9L193.5,25.2z"/>
		<path class="st5" d="M199.4,19.9l-1.1,0.5c-0.1,0-0.2,0-0.3-0.1v0c0-0.1,0-0.2,0.1-0.2l1.1-0.5c0.1,0,0.2,0,0.3,0.1v0
			C199.6,19.7,199.5,19.8,199.4,19.9z"/>
		<path class="st5" d="M198.4,26.4l-1,0.6c-0.1,0.1-0.2,0-0.3-0.1l0,0c0-0.1,0-0.2,0.1-0.3l1-0.6c0.1-0.1,0.2,0,0.3,0.1l0,0
			C198.5,26.3,198.5,26.4,198.4,26.4z"/>
		<path class="st5" d="M201.5,27.1l-1-0.6c-0.1-0.1-0.1-0.2-0.1-0.3l0,0c0-0.1,0.2-0.1,0.3-0.1l1,0.6c0.1,0.1,0.1,0.2,0.1,0.3l0,0
			C201.7,27.2,201.6,27.2,201.5,27.1z"/>
		<path class="st5" d="M205.1,25.7l-0.6,0.5c-0.1,0.1-0.2,0.1-0.3,0l0,0c-0.1-0.1,0-0.2,0.1-0.3l0.6-0.5c0.1-0.1,0.2-0.1,0.3,0l0,0
			C205.2,25.5,205.2,25.6,205.1,25.7z"/>
		<path class="st5" d="M196.8,23.4l-0.8-0.2c-0.1,0-0.2-0.1-0.2-0.2v0c0-0.1,0.1-0.1,0.2-0.1l0.8,0.2c0.1,0,0.2,0.1,0.2,0.2v0
			C197.1,23.4,197,23.4,196.8,23.4z"/>
		<path class="st5" d="M205.9,21.6l-0.5,0.6c-0.1,0.1-0.2,0.1-0.3,0.1v0c-0.1-0.1-0.1-0.2,0-0.3l0.5-0.6c0.1-0.1,0.2-0.1,0.3-0.1v0
			C206,21.4,206,21.5,205.9,21.6z"/>
		<path class="st13" d="M222.2,32.9c-4,0-7.4,1-7.8,3.4c0,0.2,0.1,1.3,0.1,1.5c0,2.7,3.4,4.9,7.7,4.9s7.7-2.4,7.7-4.9
			c0.1-0.8,0.1-1.6,0-2.4C229.3,33,226.1,32.9,222.2,32.9z M222,38.8c-1.2,0-2.2-0.6-2.2-1.4s1-1.4,2.2-1.4s2.2,0.6,2.2,1.4
			S223.2,38.8,222,38.8z"/>
		<path class="st15" d="M222.2,31c-4.3,0-7.8,2.2-7.8,4.9s3.5,4.9,7.8,4.9s7.7-2.2,7.7-4.9S226.5,31,222.2,31z M222.2,37
			c-1.2,0-2.2-0.6-2.2-1.4s1-1.4,2.2-1.4s2.2,0.6,2.2,1.4S223.4,37,222.2,37z"/>
		<path class="st15" d="M214.8,37.5c0,0,0.1,2.1,1.1,2.2c0.7,0.1,1.3,0.3,1.9,0.7c0.6,0.5,1.4,0.7,2.2,0.7c0.7-0.1,1.5-0.1,2.2,0.2
			c0.7,0.4,2.5,0,2.6-0.4s1-0.6,1.8-0.5s2-0.7,2-1.1s0.9-0.5,1-0.9s0.3-2.1,0.3-2.1l-7.3,0.8L214.8,37.5z"/>
		<path class="st5" d="M220.7,32.3l-1.1,0.5c-0.1,0-0.2,0-0.3-0.1l0,0c0-0.1,0-0.2,0.1-0.2l1.1-0.5c0.1,0,0.2,0,0.3,0.1l0,0
			C220.8,32.1,220.8,32.2,220.7,32.3z"/>
		<path class="st5" d="M218.8,38.5l-1,0.6c-0.1,0.1-0.2,0-0.3-0.1l0,0c0-0.1,0-0.2,0.1-0.3l1-0.6c0.1-0.1,0.2,0,0.3,0.1l0,0
			C218.9,38.4,218.9,38.5,218.8,38.5z"/>
		<path class="st5" d="M222.8,39.3l-1-0.6c-0.1-0.1-0.1-0.2-0.1-0.3l0,0c0-0.1,0.2-0.1,0.3-0.1l1,0.6c0.1,0.1,0.1,0.2,0.1,0.3l0,0
			C223,39.4,222.9,39.4,222.8,39.3z"/>
		<path class="st5" d="M226.3,38l-0.6,0.5c-0.1,0.1-0.2,0.1-0.3,0l0,0c-0.1-0.1,0-0.2,0.1-0.3l0.6-0.5c0.1-0.1,0.2-0.1,0.3,0l0,0
			C226.5,37.8,226.4,37.9,226.3,38z"/>
		<path class="st5" d="M218.2,35.6l-0.8-0.2c-0.1,0-0.2-0.1-0.2-0.2l0,0c0-0.1,0.1-0.1,0.2-0.1l0.8,0.2c0.1,0,0.2,0.1,0.2,0.2l0,0
			C218.4,35.5,218.3,35.6,218.2,35.6z"/>
		<path class="st5" d="M227.3,33.9l-0.5,0.6c-0.1,0.1-0.2,0.1-0.3,0.1l0,0c-0.1-0.1-0.1-0.2,0-0.3l0.5-0.6c0.1-0.1,0.2-0.1,0.3-0.1
			l0,0C227.3,33.7,227.3,33.8,227.3,33.9z"/>
		<path class="st13" d="M244.7,46.3c-4,0-7.4,0.9-7.8,3.4v1.4c0,2.7,3.5,4.9,7.8,4.9s7.7-2.4,7.7-4.9v-2.4
			C251.8,46.4,248.5,46.3,244.7,46.3z M244.4,52.1c-1.2,0-2.2-0.6-2.2-1.4s1-1.4,2.2-1.4s2.2,0.7,2.2,1.4S245.7,52.1,244.4,52.1z"/>
		<path class="st15" d="M244.6,44.4c-4.3,0-7.7,2.2-7.7,4.9s3.4,4.9,7.7,4.9s7.8-2.2,7.8-4.9S248.9,44.4,244.6,44.4z M244.6,50.4
			c-1.2,0-2.2-0.7-2.2-1.4s1-1.4,2.2-1.4s2.2,0.6,2.2,1.4S245.8,50.4,244.6,50.4z"/>
		<path class="st15" d="M237.2,50.8c0,0,0.2,2.1,1.1,2.3c0.7,0,1.3,0.2,1.9,0.6c0.6,0.5,1.4,0.8,2.2,0.8c0.7-0.1,1.5-0.1,2.2,0.2
			c0.9,0.2,1.9,0.1,2.7-0.4c0.1-0.3,1-0.6,1.7-0.6s2.1-0.6,2.1-1s0.9-0.5,1-0.9s0.3-2.1,0.3-2.1l-7.3,0.8L237.2,50.8z"/>
		<path class="st5" d="M244.3,45.1l-1.1,0.5c-0.1,0-0.2,0-0.3-0.1l0,0c0-0.1,0-0.2,0.1-0.2l1.1-0.5c0.1,0,0.2,0,0.3,0.1l0,0
			C244.4,44.9,244.4,45.1,244.3,45.1z"/>
		<path class="st5" d="M242,52.1l-1,0.6c-0.1,0.1-0.2,0-0.3-0.1l0,0c0-0.1,0-0.2,0.1-0.3l1-0.6c0.1-0.1,0.2,0,0.3,0.1l0,0
			C242.2,51.9,242.1,52,242,52.1z"/>
		<path class="st5" d="M245.3,52.6l-1-0.6c-0.1-0.1-0.1-0.2-0.1-0.3l0,0c0-0.1,0.2-0.1,0.3-0.1l1,0.6c0.1,0.1,0.1,0.2,0.1,0.3l0,0
			C245.5,52.7,245.4,52.7,245.3,52.6z"/>
		<path class="st5" d="M248.8,51.2l-0.6,0.5c-0.1,0.1-0.2,0.1-0.3,0l0,0c-0.1-0.1,0-0.2,0.1-0.3l0.6-0.5c0.1-0.1,0.2-0.1,0.3,0l0,0
			C249,51,248.9,51.1,248.8,51.2z"/>
		<path class="st5" d="M240.5,49l-0.8-0.2c-0.1,0-0.2-0.1-0.2-0.2l0,0c0-0.1,0.1-0.1,0.2-0.1l0.8,0.2c0.1,0,0.2,0.1,0.2,0.2l0,0
			C240.7,49,240.6,49,240.5,49z"/>
		<path class="st5" d="M249.1,47.4l-0.5,0.6c-0.1,0.1-0.2,0.1-0.3,0.1l0,0c-0.1-0.1-0.1-0.2,0-0.3l0.5-0.6c0.1-0.1,0.2-0.1,0.3-0.1
			l0,0C249.1,47.1,249.2,47.3,249.1,47.4z"/>
		<path class="st8" d="M219.3,19.2c-4,0-7.3,1-7.8,3.4c0,0.2,0.1,1.3,0.1,1.5c0,2.7,3.4,4.9,7.7,4.9s7.8-2.4,7.7-4.9
			c0-0.8,0-1.7,0-2.5C226.5,19.3,223.2,19.2,219.3,19.2z M219.1,25.1c-1.2,0-2.2-0.7-2.2-1.4s1-1.4,2.2-1.4s2.2,0.6,2.2,1.4
			S220.3,25.1,219.1,25.1z"/>
		<path class="st0" d="M219.3,17.3c-4.3,0-7.8,2.2-7.8,4.9s3.5,4.9,7.8,4.9s7.8-2.2,7.8-4.9S223.6,17.3,219.3,17.3z M219.3,23.3
			c-1.2,0-2.2-0.6-2.2-1.4s1-1.4,2.2-1.4s2.2,0.6,2.2,1.4S220.5,23.3,219.3,23.3z"/>
		<path class="st0" d="M211.9,23.8c0,0,0.1,2,1.1,2.2c0.7,0,1.4,0.3,1.9,0.7c0.6,0.5,1.4,0.7,2.2,0.7c0.7-0.1,1.5-0.1,2.2,0.2
			c0.9,0.2,1.8,0.1,2.6-0.4c0.5-0.4,1.2-0.6,1.8-0.5c0.7,0,2-0.7,2-1.1s0.9-0.5,1-0.9s0.3-2.1,0.3-2.1l-7.3,0.8L211.9,23.8z"/>
		<path class="st5" d="M217.8,18.5l-1.1,0.5c-0.1,0-0.2,0-0.3-0.1v0c0-0.1,0-0.2,0.1-0.2l1.1-0.5c0.1,0,0.2,0,0.3,0.1l0,0
			C218,18.4,217.9,18.5,217.8,18.5z"/>
		<path class="st5" d="M216.8,25l-1,0.6c-0.1,0.1-0.2,0-0.3-0.1v0c0-0.1,0-0.2,0.1-0.3l1-0.6c0.1-0.1,0.2,0,0.3,0.1v0
			C216.9,24.8,216.9,24.9,216.8,25z"/>
		<path class="st5" d="M219.9,25.6l-1-0.6c-0.1-0.1-0.1-0.2-0.1-0.3v0c0-0.1,0.2-0.1,0.3-0.1l1,0.6c0.1,0.1,0.1,0.2,0.1,0.3v0
			C220.1,25.6,220,25.6,219.9,25.6z"/>
		<path class="st5" d="M223.2,24.7l-0.6,0.5c-0.1,0.1-0.2,0.1-0.3,0v0c-0.1-0.1,0-0.2,0.1-0.3l0.6-0.5c0.1-0.1,0.2-0.1,0.3,0v0
			C223.3,24.5,223.3,24.6,223.2,24.7z"/>
		<path class="st5" d="M215.3,21.9l-0.8-0.2c-0.1,0-0.2-0.1-0.2-0.2v0c0-0.1,0.1-0.1,0.2-0.1l0.8,0.2c0.1,0,0.2,0.1,0.2,0.2v0
			C215.5,21.8,215.4,21.9,215.3,21.9z"/>
		<path class="st5" d="M224.4,20.1l-0.5,0.6c-0.1,0.1-0.2,0.1-0.3,0.1l0,0c-0.1-0.1-0.1-0.2,0-0.3l0.5-0.6c0.1-0.1,0.2-0.1,0.3-0.1
			l0,0C224.4,19.9,224.4,20,224.4,20.1z"/>
		<path class="st8" d="M241.1,31.7c-4,0-7.4,1-7.8,3.4c0,0.2,0.1,1.3,0.1,1.5c0,2.7,3.4,4.9,7.7,4.9s7.7-2.4,7.7-4.9
			c0-0.8,0-1.7,0-2.5C248.2,31.8,245,31.7,241.1,31.7z M240.9,37.6c-1.3,0-2.2-0.7-2.2-1.4s0.9-1.4,2.2-1.4s2.2,0.6,2.2,1.4
			S242.1,37.6,240.9,37.6L240.9,37.6z"/>
		<path class="st0" d="M241.1,29.8c-4.3,0-7.8,2.2-7.8,4.9s3.5,4.9,7.8,4.9s7.7-2.2,7.7-4.9S245.3,29.8,241.1,29.8z M241.1,35.8
			c-1.3,0-2.3-0.6-2.3-1.4s1-1.4,2.3-1.4s2.2,0.6,2.2,1.4S242.3,35.8,241.1,35.8z"/>
		<path class="st0" d="M233.7,36.3c0,0,0.1,2,1,2.2c0.7,0,1.4,0.3,2,0.7c0.6,0.5,1.3,0.7,2.1,0.7c0.8-0.1,1.6-0.1,2.3,0.2
			c0.9,0.2,1.8,0.1,2.6-0.4c0.1-0.3,1-0.6,1.7-0.5s2.1-0.7,2.1-1.1s0.9-0.5,1-0.9s0.3-2.1,0.3-2.1l-7.3,0.8L233.7,36.3z"/>
		<path class="st5" d="M239.7,31l-1.1,0.5c-0.1,0-0.2,0-0.3-0.1l0,0c0-0.1,0-0.2,0.1-0.2l1.1-0.5c0.1,0,0.2,0,0.3,0.1l0,0
			C239.8,30.8,239.8,30.9,239.7,31z"/>
		<path class="st5" d="M238.5,37.5l-1,0.6c-0.1,0.1-0.2,0-0.3-0.1l0,0c0-0.1,0-0.2,0.1-0.3l1-0.6c0.1-0.1,0.2,0,0.3,0.1l0,0
			C238.7,37.4,238.6,37.5,238.5,37.5z"/>
		<path class="st5" d="M241.7,38.1l-1-0.6c-0.1-0.1-0.1-0.2-0.1-0.3l0,0c0-0.1,0.2-0.1,0.3-0.1l1,0.6c0.1,0.1,0.1,0.2,0.1,0.3l0,0
			C241.9,38.1,241.8,38.1,241.7,38.1z"/>
		<path class="st5" d="M245.3,36.7l-0.6,0.5c-0.1,0.1-0.2,0.1-0.3,0l0,0c-0.1-0.1,0-0.2,0.1-0.3l0.6-0.5c0.1-0.1,0.2-0.1,0.3,0l0,0
			C245.5,36.5,245.4,36.6,245.3,36.7z"/>
		<path class="st5" d="M237,34.3l-0.8-0.2c-0.1,0-0.2-0.1-0.2-0.2l0,0c0-0.1,0.1-0.1,0.2-0.1l0.8,0.2c0.1,0,0.2,0.1,0.2,0.2l0,0
			C237.2,34.3,237.1,34.4,237,34.3z"/>
		<path class="st5" d="M246.1,32.6l-0.5,0.6c-0.1,0.1-0.2,0.1-0.3,0.1l0,0c-0.1-0.1-0.1-0.2,0-0.3l0.5-0.6c0.1-0.1,0.2-0.1,0.3-0.1
			l0,0C246.2,32.4,246.2,32.5,246.1,32.6z"/>
		<path class="st8" d="M262.5,44.4c-4,0-7.4,1-7.8,3.4v1.5c0,2.7,3.5,4.9,7.8,4.9s7.7-2.4,7.7-4.9v-2.5
			C269.6,44.5,266.3,44.4,262.5,44.4z M262.2,50.3c-1.2,0-2.2-0.7-2.2-1.4s1-1.4,2.2-1.4s2.3,0.6,2.3,1.4S263.5,50.3,262.2,50.3z"/>
		<path class="st0" d="M262.4,42.5c-4.3,0-7.7,2.2-7.7,4.9s3.4,4.9,7.7,4.9s7.8-2.2,7.8-4.9S266.7,42.5,262.4,42.5z M262.4,48.5
			c-1.2,0-2.2-0.6-2.2-1.4s1-1.4,2.2-1.4s2.3,0.6,2.3,1.4S263.7,48.5,262.4,48.5z"/>
		<path class="st0" d="M255.1,49c0,0,0.1,2,1,2.2c0.7,0,1.4,0.3,1.9,0.7c0.6,0.5,1.4,0.7,2.2,0.7c0.8-0.1,1.6-0.1,2.3,0.2
			c0.9,0.2,1.8,0.1,2.6-0.4c0.1-0.3,1-0.6,1.7-0.5s2.1-0.7,2.1-1.1s0.9-0.5,1-0.9s0.3-2.1,0.3-2.1l-7.3,0.8L255.1,49z"/>
		<path class="st5" d="M261,43.7l-1.1,0.5c-0.1,0-0.2,0-0.3-0.1l0,0c0-0.1,0-0.2,0.1-0.2l1.1-0.5c0.1,0,0.2,0,0.3,0.1l0,0
			C261.2,43.6,261.1,43.7,261,43.7z"/>
		<path class="st5" d="M259.9,50.2l-1,0.6c-0.1,0.1-0.2,0-0.3-0.1l0,0c0-0.1,0-0.2,0.1-0.3l1-0.6c0.1-0.1,0.2,0,0.3,0.1l0,0
			C260,50.1,260,50.2,259.9,50.2z"/>
		<path class="st5" d="M263.1,50.8l-1-0.6c-0.1-0.1-0.1-0.2-0.1-0.3l0,0c0-0.1,0.2-0.1,0.3-0.1l1,0.6c0.1,0.1,0.1,0.2,0.1,0.3l0,0
			C263.3,50.8,263.2,50.8,263.1,50.8z"/>
		<path class="st5" d="M266.7,49.4l-0.6,0.5c-0.1,0.1-0.2,0.1-0.3,0l0,0c-0.1-0.1,0-0.2,0.1-0.3l0.6-0.5c0.1-0.1,0.2-0.1,0.3,0l0,0
			C266.8,49.2,266.8,49.3,266.7,49.4z"/>
		<path class="st5" d="M258.4,47l-0.8-0.2c-0.1,0-0.2-0.1-0.2-0.2l0,0c0-0.1,0.1-0.1,0.2-0.1l0.8,0.2c0.1,0,0.2,0.1,0.2,0.2l0,0
			C258.6,47,258.5,47,258.4,47z"/>
		<path class="st5" d="M267.5,45.3L267,46c-0.1,0.1-0.2,0.1-0.3,0.1l0,0c-0.1-0.1-0.1-0.2,0-0.3l0.5-0.6c0.1-0.1,0.2-0.1,0.3-0.1
			l0,0C267.5,45.1,267.6,45.3,267.5,45.3z"/>
		<polygon class="st13" points="496.2,256 551.6,287.9 551.6,240.6 541.8,234.9 495.4,252.8 497.5,255.4 		"/>
		<path class="st22" d="M511.6,246l-1.4-4.6c-0.5-1.7,0.3-3.5,1.8-4.3l9.6-5.2c1-0.5,2.2-0.5,3.2-0.1c1,0.5,1.8,1.4,2.1,2.5l0.7,3
			l-1.5,0.3l-0.6-2.9c-0.2-0.7-0.7-1.2-1.3-1.5c-0.6-0.3-1.3-0.3-1.9,0l-9.6,5.2c-0.9,0.5-1.4,1.6-1.1,2.6l1.4,4.5L511.6,246z"/>
		<polygon class="st14" points="495.2,252.9 551.6,284.8 551.6,234.9 538.4,228 		"/>
		<polygon class="st13" points="507.1,252.2 538.5,233.1 551.6,240.6 551.6,278 		"/>
		<polygon class="st15" points="495.2,252.9 507.1,252.2 551.6,278 551.6,284.8 		"/>
		<polygon class="st15" points="538.4,228 538.5,233.1 551.6,240.6 551.6,234.9 		"/>
		<path class="st10" d="M532.8,242.9c-1.3-1-2.7,0.8-2.7,0.8l-0.7,5.5C529.4,249.2,534.9,244.3,532.8,242.9z M530,247.6l0.4-3.1
			c0,0,0.8-1.2,1.5-0.9S530,247.6,530,247.6z"/>
		<path class="st12" d="M522.8,253.1c0,0,6.3,2.1,7.7-8.1l-8.7,1.1L522.8,253.1z"/>
		<path class="st10" d="M518.9,245.6c0,0,1.4,7.1,4.5,7.6s3-4.8,3-4.8L518.9,245.6z"/>
		<ellipse class="st0" cx="524.7" cy="245" rx="5.8" ry="3.7"/>
		<ellipse cx="524.7" cy="244.9" rx="4.7" ry="3"/>
		<path class="st23" d="M522.5,238.9c-0.2,0.4-0.3,0.9-0.2,1.4c0,0.2,0.2,0.5,0.2,0.7c0,0.3-0.1,0.6-0.2,0.8
			c-0.1,0.2-0.1,0.5-0.1,0.7c0,0.2,0.1,0.4,0.3,0.6c0.2,0.5,0.3,1,0.3,1.5c-0.1-0.5-0.2-1-0.5-1.4l-0.3-0.7c0-0.3,0-0.5,0.1-0.8
			c0.1-0.2,0.2-0.5,0.2-0.7c0-0.2-0.1-0.4-0.1-0.7C522.1,239.8,522.2,239.3,522.5,238.9z"/>
		<path class="st23" d="M525.1,240.9c-0.2,0.4-0.3,0.8-0.2,1.2c0,0.1,0.1,0.2,0.1,0.3c0.1,0.1,0.1,0.2,0.1,0.3
			c0,0.2-0.1,0.4-0.1,0.6c-0.1,0.2-0.2,0.4-0.1,0.6c0,0.2,0.1,0.3,0.3,0.5c0.2,0.4,0.3,0.8,0.3,1.2c0-0.4-0.2-0.8-0.5-1.1
			c-0.1-0.2-0.2-0.4-0.3-0.6c-0.1-0.2,0-0.4,0.1-0.6s0.2-0.4,0.1-0.6c0.1-0.2-0.1-0.4-0.1-0.6C524.7,241.7,524.8,241.2,525.1,240.9z
			"/>
		<path class="st23" d="M526.6,241.2c0.2,0.3,0.3,0.6,0.3,1c-0.1,0.1-0.1,0.2-0.1,0.3v0.2c0,0.2,0.1,0.3,0.2,0.5s0.1,0.3,0,0.5
			s-0.2,0.3-0.3,0.5c-0.3,0.2-0.4,0.5-0.5,0.8c0-0.4,0.1-0.7,0.4-1l0.3-0.3c0-0.2,0-0.3-0.1-0.5c-0.1-0.1-0.2-0.3-0.2-0.5v-0.3
			c0.1,0,0.1-0.1,0.1-0.2C526.8,241.9,526.7,241.5,526.6,241.2z"/>
		<path class="st23" d="M523.8,240.5c0.2,0.3,0.3,0.6,0.3,0.9c-0.1,0.1-0.1,0.2-0.1,0.3h-0.1c0,0.2,0.1,0.3,0.2,0.4
			c0.1,0.2,0.1,0.4,0.1,0.6l-0.4,0.3c-0.2,0.2-0.3,0.5-0.4,0.8c0-0.3,0.1-0.6,0.3-0.9l0.3-0.3c0.1-0.1,0-0.3-0.1-0.4
			s-0.2-0.2-0.2-0.4s0.1-0.2,0.1-0.3v-0.2C523.9,241,523.9,240.8,523.8,240.5z"/>
		<ellipse class="st7" cx="540.6" cy="256.4" rx="10.7" ry="6.7"/>
		<ellipse class="st3" cx="540.6" cy="256.4" rx="8.4" ry="5.3"/>
		<path class="st13" d="M540.4,253.4c-2.6,0-4.7,0.6-5,2.2v0.9c0,1.8,2.2,3.2,5,3.2s4.9-1.6,4.9-3.2c0.1-0.5,0.1-1,0-1.5
			C545,253.5,542.9,253.4,540.4,253.4z M540.2,257.2c-0.8,0-1.4-0.4-1.4-0.9s0.6-0.9,1.4-0.9s1.5,0.4,1.5,0.9S541,257.2,540.2,257.2
			L540.2,257.2z"/>
		<path class="st15" d="M540.4,252.2c-2.8,0-5,1.4-5,3.1s2.2,3.2,5,3.2s4.9-1.4,4.9-3.2S543.1,252.2,540.4,252.2z M540.4,256
			c-0.8,0-1.5-0.4-1.5-0.9s0.7-0.9,1.5-0.9s1.4,0.4,1.4,0.9S541.1,256,540.4,256z"/>
		<path class="st15" d="M535.6,256.3c0,0,0.1,1.4,0.7,1.4c0.4,0,0.9,0.2,1.2,0.5c0.4,0.3,0.9,0.5,1.4,0.5c0.5-0.1,1-0.1,1.5,0.1
			c0.5,0.1,1.1,0,1.6-0.2c0.3-0.3,0.8-0.5,1.2-0.4c0.5,0,1.3-0.4,1.3-0.7s0.6-0.3,0.6-0.6c0.1-0.4,0.2-0.9,0.2-1.3l-4.6,0.5
			L535.6,256.3z"/>
		<path class="st5" d="M539.5,252.9l-0.7,0.3c-0.1,0-0.1,0-0.1-0.1l0,0c0-0.1,0-0.1,0.1-0.1l0.7-0.3c0.1,0,0.1,0,0.1,0.1l0,0
			C539.5,252.8,539.5,252.8,539.5,252.9z"/>
		<path class="st5" d="M538.7,257.2l-0.7,0.4c0,0-0.1,0-0.1,0l0,0c0,0,0-0.1,0-0.1l0.7-0.4c0,0,0.1,0,0.1,0l0,0
			C538.8,257.1,538.8,257.1,538.7,257.2z"/>
		<path class="st5" d="M540.7,257.6l-0.7-0.4c0,0-0.1-0.1,0-0.1l0,0c0,0,0.1-0.1,0.1,0l0.7,0.4c0,0,0.1,0.1,0,0.1l0,0
			C540.8,257.6,540.8,257.6,540.7,257.6z"/>
		<path class="st5" d="M543.1,256.5l-0.5,0.4c0,0-0.1,0-0.1,0l0,0c0,0,0-0.1,0-0.1l0.5-0.4c0,0,0.1,0,0.1,0l0,0
			C543.2,256.4,543.2,256.5,543.1,256.5z"/>
		<path class="st5" d="M537.8,255.1l-0.6-0.1c-0.1,0-0.1-0.1-0.1-0.1l0,0c0-0.1,0.1-0.1,0.1-0.1l0.6,0.1c0.1,0,0.1,0.1,0.1,0.1l0,0
			C537.9,255.1,537.9,255.1,537.8,255.1z"/>
		<path class="st5" d="M543.6,253.8l-0.4,0.5c0,0-0.1,0.1-0.1,0l0,0c0,0-0.1-0.1,0-0.1l0.4-0.5c0,0,0.1-0.1,0.1,0l0,0
			C543.6,253.7,543.7,253.7,543.6,253.8z"/>
	</g>
</g>
</svg>
